G75*
%MOIN*%
%OFA0B0*%
%FSLAX25Y25*%
%IPPOS*%
%LPD*%
%AMOC8*
5,1,8,0,0,1.08239X$1,22.5*
%
%ADD10C,0.00800*%
%ADD11C,0.01400*%
%ADD12C,0.00200*%
%ADD13C,0.00400*%
%ADD14R,0.04331X0.02362*%
%ADD15R,0.00886X0.00984*%
%ADD16C,0.00600*%
%ADD17C,0.00500*%
%ADD18C,0.02400*%
%ADD19C,0.01000*%
%ADD20C,0.01200*%
%ADD21R,0.03000X0.01800*%
%ADD22R,0.01800X0.03000*%
D10*
X0019296Y0073212D02*
X0029060Y0073212D01*
X0019178Y0083212D02*
X0019180Y0083353D01*
X0019186Y0083494D01*
X0019196Y0083634D01*
X0019210Y0083774D01*
X0019228Y0083914D01*
X0019249Y0084053D01*
X0019275Y0084192D01*
X0019304Y0084330D01*
X0019338Y0084466D01*
X0019375Y0084602D01*
X0019416Y0084737D01*
X0019461Y0084871D01*
X0019510Y0085003D01*
X0019562Y0085134D01*
X0019618Y0085263D01*
X0019678Y0085390D01*
X0019741Y0085516D01*
X0019807Y0085640D01*
X0019878Y0085763D01*
X0019951Y0085883D01*
X0020028Y0086001D01*
X0020108Y0086117D01*
X0020192Y0086230D01*
X0020278Y0086341D01*
X0020368Y0086450D01*
X0020461Y0086556D01*
X0020556Y0086659D01*
X0020655Y0086760D01*
X0020756Y0086858D01*
X0020860Y0086953D01*
X0020967Y0087045D01*
X0021076Y0087134D01*
X0021188Y0087219D01*
X0021302Y0087302D01*
X0021418Y0087382D01*
X0021537Y0087458D01*
X0021658Y0087530D01*
X0021780Y0087600D01*
X0021905Y0087665D01*
X0022031Y0087728D01*
X0022159Y0087786D01*
X0022289Y0087841D01*
X0022420Y0087893D01*
X0022553Y0087940D01*
X0022687Y0087984D01*
X0022822Y0088025D01*
X0022958Y0088061D01*
X0023095Y0088093D01*
X0023233Y0088122D01*
X0023371Y0088147D01*
X0023511Y0088167D01*
X0023651Y0088184D01*
X0023791Y0088197D01*
X0023932Y0088206D01*
X0024072Y0088211D01*
X0024213Y0088212D01*
X0024354Y0088209D01*
X0024495Y0088202D01*
X0024635Y0088191D01*
X0024775Y0088176D01*
X0024915Y0088157D01*
X0025054Y0088135D01*
X0025192Y0088108D01*
X0025330Y0088078D01*
X0025466Y0088043D01*
X0025602Y0088005D01*
X0025736Y0087963D01*
X0025870Y0087917D01*
X0026002Y0087868D01*
X0026132Y0087814D01*
X0026261Y0087757D01*
X0026388Y0087697D01*
X0026514Y0087633D01*
X0026637Y0087565D01*
X0026759Y0087494D01*
X0026879Y0087420D01*
X0026996Y0087342D01*
X0027111Y0087261D01*
X0027224Y0087177D01*
X0027335Y0087090D01*
X0027443Y0086999D01*
X0027548Y0086906D01*
X0027651Y0086809D01*
X0027751Y0086710D01*
X0027848Y0086608D01*
X0027942Y0086503D01*
X0028033Y0086396D01*
X0028121Y0086286D01*
X0028206Y0086174D01*
X0028288Y0086059D01*
X0028367Y0085942D01*
X0028442Y0085823D01*
X0028514Y0085702D01*
X0028582Y0085579D01*
X0028647Y0085454D01*
X0028709Y0085327D01*
X0028766Y0085198D01*
X0028821Y0085068D01*
X0028871Y0084937D01*
X0028918Y0084804D01*
X0028961Y0084670D01*
X0029000Y0084534D01*
X0029035Y0084398D01*
X0029067Y0084261D01*
X0029094Y0084123D01*
X0029118Y0083984D01*
X0029138Y0083844D01*
X0029154Y0083704D01*
X0029166Y0083564D01*
X0029174Y0083423D01*
X0029178Y0083282D01*
X0029178Y0083142D01*
X0029174Y0083001D01*
X0029166Y0082860D01*
X0029154Y0082720D01*
X0029138Y0082580D01*
X0029118Y0082440D01*
X0029094Y0082301D01*
X0029067Y0082163D01*
X0029035Y0082026D01*
X0029000Y0081890D01*
X0028961Y0081754D01*
X0028918Y0081620D01*
X0028871Y0081487D01*
X0028821Y0081356D01*
X0028766Y0081226D01*
X0028709Y0081097D01*
X0028647Y0080970D01*
X0028582Y0080845D01*
X0028514Y0080722D01*
X0028442Y0080601D01*
X0028367Y0080482D01*
X0028288Y0080365D01*
X0028206Y0080250D01*
X0028121Y0080138D01*
X0028033Y0080028D01*
X0027942Y0079921D01*
X0027848Y0079816D01*
X0027751Y0079714D01*
X0027651Y0079615D01*
X0027548Y0079518D01*
X0027443Y0079425D01*
X0027335Y0079334D01*
X0027224Y0079247D01*
X0027111Y0079163D01*
X0026996Y0079082D01*
X0026879Y0079004D01*
X0026759Y0078930D01*
X0026637Y0078859D01*
X0026514Y0078791D01*
X0026388Y0078727D01*
X0026261Y0078667D01*
X0026132Y0078610D01*
X0026002Y0078556D01*
X0025870Y0078507D01*
X0025736Y0078461D01*
X0025602Y0078419D01*
X0025466Y0078381D01*
X0025330Y0078346D01*
X0025192Y0078316D01*
X0025054Y0078289D01*
X0024915Y0078267D01*
X0024775Y0078248D01*
X0024635Y0078233D01*
X0024495Y0078222D01*
X0024354Y0078215D01*
X0024213Y0078212D01*
X0024072Y0078213D01*
X0023932Y0078218D01*
X0023791Y0078227D01*
X0023651Y0078240D01*
X0023511Y0078257D01*
X0023371Y0078277D01*
X0023233Y0078302D01*
X0023095Y0078331D01*
X0022958Y0078363D01*
X0022822Y0078399D01*
X0022687Y0078440D01*
X0022553Y0078484D01*
X0022420Y0078531D01*
X0022289Y0078583D01*
X0022159Y0078638D01*
X0022031Y0078696D01*
X0021905Y0078759D01*
X0021780Y0078824D01*
X0021658Y0078894D01*
X0021537Y0078966D01*
X0021418Y0079042D01*
X0021302Y0079122D01*
X0021188Y0079205D01*
X0021076Y0079290D01*
X0020967Y0079379D01*
X0020860Y0079471D01*
X0020756Y0079566D01*
X0020655Y0079664D01*
X0020556Y0079765D01*
X0020461Y0079868D01*
X0020368Y0079974D01*
X0020278Y0080083D01*
X0020192Y0080194D01*
X0020108Y0080307D01*
X0020028Y0080423D01*
X0019951Y0080541D01*
X0019878Y0080661D01*
X0019807Y0080784D01*
X0019741Y0080908D01*
X0019678Y0081034D01*
X0019618Y0081161D01*
X0019562Y0081290D01*
X0019510Y0081421D01*
X0019461Y0081553D01*
X0019416Y0081687D01*
X0019375Y0081822D01*
X0019338Y0081958D01*
X0019304Y0082094D01*
X0019275Y0082232D01*
X0019249Y0082371D01*
X0019228Y0082510D01*
X0019210Y0082650D01*
X0019196Y0082790D01*
X0019186Y0082930D01*
X0019180Y0083071D01*
X0019178Y0083212D01*
X0019296Y0093212D02*
X0029178Y0093212D01*
X0034178Y0089275D02*
X0034178Y0077149D01*
X0033452Y0120586D02*
X0030071Y0120586D01*
X0028971Y0124529D02*
X0028971Y0126642D01*
X0030071Y0130586D02*
X0033452Y0130586D01*
X0044132Y0180438D02*
X0028781Y0222613D01*
X0036920Y0225576D01*
X0052271Y0183400D01*
X0044132Y0180438D01*
X0053391Y0186966D02*
X0054125Y0186966D01*
X0053758Y0186966D02*
X0053758Y0189167D01*
X0053391Y0189167D02*
X0054125Y0189167D01*
X0055233Y0188801D02*
X0055233Y0187333D01*
X0055600Y0186966D01*
X0056334Y0186966D01*
X0056701Y0187333D01*
X0056701Y0188801D01*
X0056334Y0189167D01*
X0055600Y0189167D01*
X0055233Y0188801D01*
X0055261Y0195686D02*
X0055261Y0197887D01*
X0056362Y0197887D01*
X0056729Y0197521D01*
X0056729Y0196787D01*
X0056362Y0196420D01*
X0055261Y0196420D01*
X0055995Y0196420D02*
X0056729Y0195686D01*
X0058024Y0196053D02*
X0058391Y0195686D01*
X0059125Y0195686D01*
X0059492Y0196053D01*
X0059492Y0196420D01*
X0059125Y0196787D01*
X0058391Y0196787D01*
X0058024Y0197154D01*
X0058024Y0197521D01*
X0058391Y0197887D01*
X0059125Y0197887D01*
X0059492Y0197521D01*
X0060786Y0197887D02*
X0062254Y0197887D01*
X0061520Y0197887D02*
X0061520Y0195686D01*
X0061859Y0189167D02*
X0062226Y0188801D01*
X0062226Y0188434D01*
X0061859Y0188067D01*
X0062226Y0187700D01*
X0062226Y0187333D01*
X0061859Y0186966D01*
X0061125Y0186966D01*
X0060758Y0187333D01*
X0061492Y0188067D02*
X0061859Y0188067D01*
X0061859Y0189167D02*
X0061125Y0189167D01*
X0060758Y0188801D01*
X0059463Y0186966D02*
X0057995Y0186966D01*
X0058729Y0186966D02*
X0058729Y0189167D01*
X0057995Y0188434D01*
X0058388Y0179567D02*
X0059122Y0178834D01*
X0059122Y0177366D01*
X0059122Y0178467D02*
X0057654Y0178467D01*
X0057654Y0178834D02*
X0058388Y0179567D01*
X0057654Y0178834D02*
X0057654Y0177366D01*
X0056359Y0177366D02*
X0056359Y0179567D01*
X0055625Y0178100D02*
X0056359Y0177366D01*
X0055625Y0178100D02*
X0054891Y0177366D01*
X0054891Y0179567D01*
X0057611Y0169581D02*
X0057611Y0168113D01*
X0056877Y0168847D02*
X0058345Y0168847D01*
X0059639Y0169581D02*
X0060006Y0169948D01*
X0060740Y0169948D01*
X0061107Y0169581D01*
X0061107Y0169214D01*
X0060740Y0168847D01*
X0061107Y0168480D01*
X0061107Y0168113D01*
X0060740Y0167746D01*
X0060006Y0167746D01*
X0059639Y0168113D01*
X0060373Y0168847D02*
X0060740Y0168847D01*
X0060416Y0177366D02*
X0060416Y0179567D01*
X0060783Y0178467D02*
X0061884Y0177366D01*
X0060416Y0178100D02*
X0061884Y0179567D01*
X0060992Y0207386D02*
X0059524Y0209587D01*
X0060992Y0209587D02*
X0059524Y0207386D01*
X0058229Y0207386D02*
X0057495Y0208120D01*
X0057862Y0208120D02*
X0056761Y0208120D01*
X0056761Y0207386D02*
X0056761Y0209587D01*
X0057862Y0209587D01*
X0058229Y0209221D01*
X0058229Y0208487D01*
X0057862Y0208120D01*
X0058191Y0237946D02*
X0058925Y0237946D01*
X0059292Y0238313D01*
X0059292Y0239047D01*
X0058558Y0239047D01*
X0057824Y0239781D02*
X0057824Y0238313D01*
X0058191Y0237946D01*
X0057824Y0239781D02*
X0058191Y0240147D01*
X0058925Y0240147D01*
X0059292Y0239781D01*
X0060587Y0240147D02*
X0062055Y0237946D01*
X0062055Y0240147D01*
X0063349Y0240147D02*
X0064450Y0240147D01*
X0064817Y0239781D01*
X0064817Y0238313D01*
X0064450Y0237946D01*
X0063349Y0237946D01*
X0063349Y0240147D01*
X0060587Y0240147D02*
X0060587Y0237946D01*
X0061461Y0134776D02*
X0061461Y0131395D01*
X0065405Y0130295D02*
X0067518Y0130295D01*
X0071461Y0131395D02*
X0071461Y0134776D01*
X0022752Y0209786D02*
X0022752Y0210159D01*
X0022752Y0209786D02*
X0016371Y0209786D01*
X0016371Y0210159D01*
X0016371Y0220612D02*
X0016371Y0220986D01*
X0022752Y0220986D01*
X0022752Y0220612D01*
X0014178Y0089275D02*
X0014178Y0077149D01*
D11*
X0049272Y0157246D02*
X0048671Y0157846D01*
X0049272Y0158447D01*
X0051073Y0158447D01*
X0051073Y0159047D02*
X0051073Y0157246D01*
X0049272Y0157246D01*
X0050261Y0155168D02*
X0050261Y0152766D01*
X0050261Y0153967D02*
X0051462Y0155168D01*
X0052063Y0155168D01*
X0053275Y0157246D02*
X0054476Y0157246D01*
X0053876Y0157246D02*
X0053876Y0160849D01*
X0053275Y0160849D01*
X0051073Y0159047D02*
X0050473Y0159648D01*
X0049272Y0159648D01*
X0054098Y0154567D02*
X0054098Y0153366D01*
X0054699Y0152766D01*
X0055900Y0152766D01*
X0056500Y0153967D02*
X0056500Y0154567D01*
X0055900Y0155168D01*
X0054699Y0155168D01*
X0054098Y0154567D01*
X0054098Y0153967D02*
X0056500Y0153967D01*
X0056945Y0157246D02*
X0056345Y0157846D01*
X0056345Y0159047D01*
X0056945Y0159648D01*
X0058146Y0159648D01*
X0058747Y0159047D01*
X0058747Y0158447D01*
X0056345Y0158447D01*
X0056945Y0157246D02*
X0058146Y0157246D01*
X0058702Y0155168D02*
X0059903Y0152766D01*
X0061104Y0155168D01*
X0060949Y0157246D02*
X0060949Y0159648D01*
X0060949Y0158447D02*
X0062150Y0159648D01*
X0062750Y0159648D01*
X0064785Y0159648D02*
X0065986Y0159648D01*
X0065386Y0160248D02*
X0065386Y0157846D01*
X0065986Y0157246D01*
X0067910Y0156369D02*
X0070312Y0156369D01*
X0070312Y0155768D01*
X0067910Y0153366D01*
X0067910Y0152766D01*
D12*
X0064992Y0150688D02*
X0064992Y0150221D01*
X0063124Y0148353D01*
X0063124Y0147886D01*
X0062230Y0148353D02*
X0061763Y0147886D01*
X0060828Y0147886D01*
X0060361Y0148353D01*
X0060361Y0150221D01*
X0060828Y0150688D01*
X0061763Y0150688D01*
X0062230Y0150221D01*
X0063124Y0150688D02*
X0064992Y0150688D01*
X0059028Y0142694D02*
X0059361Y0142361D01*
X0059361Y0141693D01*
X0059028Y0141360D01*
X0057693Y0141360D01*
X0057360Y0141693D01*
X0057360Y0142361D01*
X0057693Y0142694D01*
X0059028Y0142694D01*
X0058361Y0140669D02*
X0058694Y0140335D01*
X0058694Y0139334D01*
X0059361Y0139334D02*
X0057360Y0139334D01*
X0057360Y0140335D01*
X0057693Y0140669D01*
X0058361Y0140669D01*
X0057360Y0138651D02*
X0057360Y0137984D01*
X0057360Y0138317D02*
X0059361Y0138317D01*
X0059361Y0137984D02*
X0059361Y0138651D01*
X0059361Y0137292D02*
X0059361Y0135958D01*
X0057360Y0135958D01*
X0057693Y0133241D02*
X0057360Y0132907D01*
X0057360Y0132240D01*
X0057693Y0131906D01*
X0057360Y0131215D02*
X0059028Y0131215D01*
X0059361Y0130882D01*
X0059361Y0130214D01*
X0059028Y0129881D01*
X0057360Y0129881D01*
X0059361Y0131906D02*
X0058027Y0133241D01*
X0057693Y0133241D01*
X0059361Y0133241D02*
X0059361Y0131906D01*
X0059695Y0133932D02*
X0059695Y0135267D01*
X0054615Y0146083D02*
X0055083Y0146550D01*
X0055083Y0148418D01*
X0054615Y0148885D01*
X0053681Y0148885D01*
X0053214Y0148418D01*
X0053214Y0147951D01*
X0053681Y0147484D01*
X0055083Y0147484D01*
X0054615Y0146083D02*
X0053681Y0146083D01*
X0053214Y0146550D01*
X0052320Y0146083D02*
X0051386Y0147017D01*
X0051853Y0147017D02*
X0052320Y0147484D01*
X0052320Y0148418D01*
X0051853Y0148885D01*
X0050452Y0148885D01*
X0050452Y0146083D01*
X0050452Y0147017D02*
X0051853Y0147017D01*
X0047865Y0133891D02*
X0048332Y0133424D01*
X0046464Y0131556D01*
X0046931Y0131089D01*
X0047865Y0131089D01*
X0048332Y0131556D01*
X0048332Y0133424D01*
X0047865Y0133891D02*
X0046931Y0133891D01*
X0046464Y0133424D01*
X0046464Y0131556D01*
X0045570Y0131089D02*
X0043701Y0131089D01*
X0042807Y0131089D02*
X0041873Y0132023D01*
X0042340Y0132023D02*
X0040939Y0132023D01*
X0040939Y0131089D02*
X0040939Y0133891D01*
X0042340Y0133891D01*
X0042807Y0133424D01*
X0042807Y0132490D01*
X0042340Y0132023D01*
X0043701Y0132957D02*
X0044636Y0133891D01*
X0044636Y0131089D01*
X0047137Y0124288D02*
X0047137Y0121486D01*
X0047137Y0122420D02*
X0048538Y0122420D01*
X0049005Y0122887D01*
X0049005Y0123821D01*
X0048538Y0124288D01*
X0047137Y0124288D01*
X0048071Y0122420D02*
X0049005Y0121486D01*
X0049899Y0121953D02*
X0050366Y0121486D01*
X0051300Y0121486D01*
X0051767Y0121953D01*
X0051767Y0122420D01*
X0051300Y0122887D01*
X0049899Y0122887D01*
X0049899Y0121953D01*
X0049899Y0122887D02*
X0050833Y0123821D01*
X0051767Y0124288D01*
X0062561Y0118121D02*
X0062561Y0116253D01*
X0063028Y0115786D01*
X0063963Y0115786D01*
X0064430Y0116253D01*
X0065324Y0116253D02*
X0065791Y0115786D01*
X0066725Y0115786D01*
X0067192Y0116253D01*
X0067192Y0116720D01*
X0066725Y0117187D01*
X0065324Y0117187D01*
X0065324Y0116253D01*
X0065324Y0117187D02*
X0066258Y0118121D01*
X0067192Y0118588D01*
X0064430Y0118121D02*
X0063963Y0118588D01*
X0063028Y0118588D01*
X0062561Y0118121D01*
X0042466Y0194429D02*
X0044221Y0195068D01*
X0044500Y0195667D01*
X0044021Y0196984D01*
X0041388Y0196025D01*
X0041867Y0194709D01*
X0042466Y0194429D01*
X0043715Y0197824D02*
X0043076Y0199579D01*
X0040443Y0198621D01*
X0041082Y0196865D01*
X0042079Y0198222D02*
X0041760Y0199100D01*
X0042771Y0200420D02*
X0042132Y0202175D01*
X0039498Y0201217D01*
X0040137Y0199461D01*
X0041134Y0200818D02*
X0040815Y0201696D01*
X0040509Y0202536D02*
X0039911Y0202815D01*
X0039431Y0204132D01*
X0038554Y0203813D02*
X0041187Y0204771D01*
X0041666Y0203454D01*
X0041387Y0202856D01*
X0040509Y0202536D01*
X0039751Y0203254D02*
X0039193Y0202057D01*
X0037742Y0207408D02*
X0038181Y0207568D01*
X0038460Y0208167D01*
X0038300Y0208606D01*
X0038460Y0208167D02*
X0039059Y0207887D01*
X0039497Y0208047D01*
X0039777Y0208646D01*
X0039457Y0209524D01*
X0038858Y0209803D01*
X0038553Y0210643D02*
X0038832Y0211242D01*
X0038512Y0212119D01*
X0037914Y0212399D01*
X0037475Y0212239D01*
X0037196Y0211640D01*
X0037515Y0210762D01*
X0037236Y0210164D01*
X0036797Y0210004D01*
X0036198Y0210283D01*
X0035879Y0211161D01*
X0036158Y0211760D01*
X0037103Y0209164D02*
X0036824Y0208565D01*
X0037143Y0207687D01*
X0037742Y0207408D01*
X0037170Y0206249D02*
X0037809Y0204493D01*
X0031577Y0183556D02*
X0030176Y0182155D01*
X0032044Y0182155D01*
X0031577Y0183556D02*
X0031577Y0180753D01*
X0029282Y0180753D02*
X0028348Y0181687D01*
X0028815Y0181687D02*
X0027414Y0181687D01*
X0027414Y0180753D02*
X0027414Y0183556D01*
X0028815Y0183556D01*
X0029282Y0183089D01*
X0029282Y0182155D01*
X0028815Y0181687D01*
X0024885Y0184669D02*
X0026753Y0186538D01*
X0026753Y0187005D01*
X0024885Y0187005D01*
X0024885Y0184669D02*
X0024885Y0184202D01*
X0023991Y0184202D02*
X0022123Y0184202D01*
X0021228Y0184202D02*
X0020294Y0185136D01*
X0020761Y0185136D02*
X0019360Y0185136D01*
X0019360Y0184202D02*
X0019360Y0187005D01*
X0020761Y0187005D01*
X0021228Y0186538D01*
X0021228Y0185604D01*
X0020761Y0185136D01*
X0022123Y0186071D02*
X0023057Y0187005D01*
X0023057Y0184202D01*
X0028035Y0193769D02*
X0028035Y0195170D01*
X0028502Y0195638D01*
X0029437Y0195638D01*
X0029904Y0195170D01*
X0029904Y0193769D01*
X0030838Y0193769D02*
X0028035Y0193769D01*
X0028035Y0196532D02*
X0029437Y0196532D01*
X0028970Y0197466D01*
X0028970Y0197933D01*
X0029437Y0198400D01*
X0030371Y0198400D01*
X0030838Y0197933D01*
X0030838Y0196999D01*
X0030371Y0196532D01*
X0030838Y0195638D02*
X0029904Y0194703D01*
X0028035Y0196532D02*
X0028035Y0198400D01*
X0027527Y0206011D02*
X0027527Y0208813D01*
X0026126Y0207412D01*
X0027994Y0207412D01*
X0025232Y0206478D02*
X0025232Y0208813D01*
X0025232Y0206478D02*
X0024765Y0206011D01*
X0023830Y0206011D01*
X0023363Y0206478D01*
X0023363Y0208813D01*
X0017291Y0201732D02*
X0017291Y0199864D01*
X0017291Y0198970D02*
X0017291Y0197102D01*
X0017291Y0196208D02*
X0016357Y0195273D01*
X0016357Y0195741D02*
X0016357Y0194339D01*
X0017291Y0194339D02*
X0014489Y0194339D01*
X0014489Y0195741D01*
X0014956Y0196208D01*
X0015890Y0196208D01*
X0016357Y0195741D01*
X0017291Y0198036D02*
X0014489Y0198036D01*
X0015423Y0197102D01*
X0015423Y0199864D02*
X0014489Y0200798D01*
X0017291Y0200798D01*
X0016941Y0172338D02*
X0016007Y0172338D01*
X0015540Y0171871D01*
X0015540Y0171404D01*
X0016007Y0170937D01*
X0016941Y0170937D01*
X0017408Y0170469D01*
X0017408Y0170002D01*
X0016941Y0169535D01*
X0016007Y0169535D01*
X0015540Y0170002D01*
X0015540Y0170469D01*
X0016007Y0170937D01*
X0016941Y0170937D02*
X0017408Y0171404D01*
X0017408Y0171871D01*
X0016941Y0172338D01*
X0014646Y0169535D02*
X0012778Y0169535D01*
X0011884Y0169535D02*
X0010950Y0170469D01*
X0011417Y0170469D02*
X0011884Y0170937D01*
X0011884Y0171871D01*
X0011417Y0172338D01*
X0010016Y0172338D01*
X0010016Y0169535D01*
X0010016Y0170469D02*
X0011417Y0170469D01*
X0012778Y0171404D02*
X0013712Y0172338D01*
X0013712Y0169535D01*
X0015144Y0155106D02*
X0017947Y0155106D01*
X0017947Y0154172D02*
X0017947Y0156040D01*
X0017480Y0153278D02*
X0017947Y0152811D01*
X0017947Y0151877D01*
X0017480Y0151410D01*
X0015611Y0151410D01*
X0015144Y0151877D01*
X0015144Y0152811D01*
X0015611Y0153278D01*
X0016078Y0154172D02*
X0015144Y0155106D01*
X0014739Y0142028D02*
X0013804Y0142028D01*
X0013337Y0141561D01*
X0012443Y0141561D02*
X0012443Y0140627D01*
X0011976Y0140160D01*
X0010575Y0140160D01*
X0011509Y0140160D02*
X0012443Y0139225D01*
X0013337Y0139225D02*
X0015206Y0141094D01*
X0015206Y0141561D01*
X0014739Y0142028D01*
X0015206Y0139225D02*
X0013337Y0139225D01*
X0012443Y0141561D02*
X0011976Y0142028D01*
X0010575Y0142028D01*
X0010575Y0139225D01*
X0016969Y0133689D02*
X0016969Y0131821D01*
X0017436Y0131354D01*
X0018370Y0131354D01*
X0018837Y0131821D01*
X0019731Y0131821D02*
X0020198Y0131354D01*
X0021132Y0131354D01*
X0021600Y0131821D01*
X0021600Y0132288D01*
X0021132Y0132755D01*
X0020665Y0132755D01*
X0021132Y0132755D02*
X0021600Y0133222D01*
X0021600Y0133689D01*
X0021132Y0134156D01*
X0020198Y0134156D01*
X0019731Y0133689D01*
X0018837Y0133689D02*
X0018370Y0134156D01*
X0017436Y0134156D01*
X0016969Y0133689D01*
X0024751Y0140578D02*
X0025218Y0140111D01*
X0026152Y0140111D01*
X0026620Y0140578D01*
X0027514Y0140578D02*
X0027981Y0140111D01*
X0028915Y0140111D01*
X0029382Y0140578D01*
X0029382Y0141512D01*
X0028915Y0141979D01*
X0028448Y0141979D01*
X0027514Y0141512D01*
X0027514Y0142914D01*
X0029382Y0142914D01*
X0029471Y0134138D02*
X0029471Y0131803D01*
X0029938Y0131336D01*
X0030873Y0131336D01*
X0031340Y0131803D01*
X0031340Y0134138D01*
X0032234Y0133671D02*
X0032701Y0134138D01*
X0033635Y0134138D01*
X0034102Y0133671D01*
X0034102Y0133204D01*
X0033635Y0132737D01*
X0034102Y0132270D01*
X0034102Y0131803D01*
X0033635Y0131336D01*
X0032701Y0131336D01*
X0032234Y0131803D01*
X0033168Y0132737D02*
X0033635Y0132737D01*
X0037939Y0158990D02*
X0037472Y0159458D01*
X0037472Y0161326D01*
X0037939Y0161793D01*
X0038873Y0161793D01*
X0039340Y0161326D01*
X0040234Y0160392D02*
X0042103Y0160392D01*
X0041636Y0161793D02*
X0041636Y0158990D01*
X0040234Y0160392D02*
X0041636Y0161793D01*
X0039340Y0159458D02*
X0038873Y0158990D01*
X0037939Y0158990D01*
X0026152Y0142914D02*
X0025218Y0142914D01*
X0024751Y0142447D01*
X0024751Y0140578D01*
X0026620Y0142447D02*
X0026152Y0142914D01*
X0030144Y0100323D02*
X0029677Y0099856D01*
X0029677Y0098922D01*
X0030144Y0098455D01*
X0030144Y0097561D02*
X0029677Y0097094D01*
X0029677Y0095693D01*
X0032479Y0095693D01*
X0032479Y0097094D01*
X0032012Y0097561D01*
X0030144Y0097561D01*
X0031078Y0099389D02*
X0031078Y0099856D01*
X0031545Y0100323D01*
X0032012Y0100323D01*
X0032479Y0099856D01*
X0032479Y0098922D01*
X0032012Y0098455D01*
X0031078Y0099856D02*
X0030611Y0100323D01*
X0030144Y0100323D01*
X0015101Y0078309D02*
X0015101Y0077842D01*
X0013232Y0075974D01*
X0013232Y0075507D01*
X0012338Y0075507D02*
X0011404Y0076441D01*
X0011871Y0076441D02*
X0010470Y0076441D01*
X0010470Y0075507D02*
X0010470Y0078309D01*
X0011871Y0078309D01*
X0012338Y0077842D01*
X0012338Y0076908D01*
X0011871Y0076441D01*
X0013232Y0078309D02*
X0015101Y0078309D01*
X0050021Y0205302D02*
X0050021Y0208104D01*
X0051423Y0208104D01*
X0051890Y0207637D01*
X0051890Y0206703D01*
X0051423Y0206236D01*
X0050021Y0206236D01*
X0050956Y0206236D02*
X0051890Y0205302D01*
X0052784Y0205769D02*
X0052784Y0206236D01*
X0053251Y0206703D01*
X0054185Y0206703D01*
X0054652Y0206236D01*
X0054652Y0205769D01*
X0054185Y0205302D01*
X0053251Y0205302D01*
X0052784Y0205769D01*
X0053251Y0206703D02*
X0052784Y0207170D01*
X0052784Y0207637D01*
X0053251Y0208104D01*
X0054185Y0208104D01*
X0054652Y0207637D01*
X0054652Y0207170D01*
X0054185Y0206703D01*
X0053724Y0225798D02*
X0053724Y0227199D01*
X0053257Y0227666D01*
X0052323Y0227666D01*
X0051856Y0227199D01*
X0051856Y0225798D01*
X0054658Y0225798D01*
X0053724Y0226732D02*
X0054658Y0227666D01*
X0054658Y0228560D02*
X0054658Y0230428D01*
X0054658Y0229494D02*
X0051856Y0229494D01*
X0052790Y0228560D01*
X0052323Y0231323D02*
X0051856Y0231790D01*
X0051856Y0232724D01*
X0052323Y0233191D01*
X0052790Y0233191D01*
X0053257Y0232724D01*
X0053724Y0233191D01*
X0054191Y0233191D01*
X0054658Y0232724D01*
X0054658Y0231790D01*
X0054191Y0231323D01*
X0053257Y0232257D02*
X0053257Y0232724D01*
X0014365Y0233544D02*
X0014365Y0231676D01*
X0012497Y0233544D01*
X0012030Y0233544D01*
X0011563Y0233077D01*
X0011563Y0232143D01*
X0012030Y0231676D01*
X0012030Y0230782D02*
X0011563Y0230315D01*
X0011563Y0229381D01*
X0012030Y0228914D01*
X0013898Y0228914D01*
X0014365Y0229381D01*
X0014365Y0230315D01*
X0013898Y0230782D01*
D13*
X0017522Y0289821D02*
X0020992Y0289821D01*
X0022679Y0290688D02*
X0023546Y0289821D01*
X0025281Y0289821D01*
X0026148Y0290688D01*
X0026148Y0291556D01*
X0025281Y0292423D01*
X0023546Y0292423D01*
X0022679Y0293291D01*
X0022679Y0294158D01*
X0023546Y0295026D01*
X0025281Y0295026D01*
X0026148Y0294158D01*
X0027835Y0295026D02*
X0027835Y0289821D01*
X0027835Y0291556D02*
X0030437Y0291556D01*
X0031305Y0292423D01*
X0031305Y0294158D01*
X0030437Y0295026D01*
X0027835Y0295026D01*
X0020992Y0295026D02*
X0017522Y0295026D01*
X0017522Y0289821D01*
X0017522Y0292423D02*
X0019257Y0292423D01*
X0038148Y0292423D02*
X0041617Y0292423D01*
X0048461Y0293291D02*
X0050195Y0295026D01*
X0050195Y0289821D01*
X0048461Y0289821D02*
X0051930Y0289821D01*
X0053617Y0289821D02*
X0057087Y0293291D01*
X0057087Y0294158D01*
X0056219Y0295026D01*
X0054484Y0295026D01*
X0053617Y0294158D01*
X0053617Y0289821D02*
X0057087Y0289821D01*
X0058773Y0289821D02*
X0058773Y0295026D01*
X0062243Y0295026D01*
X0060508Y0292423D02*
X0058773Y0292423D01*
X0058773Y0289821D02*
X0062243Y0289821D01*
X0044768Y0148190D02*
X0044768Y0146615D01*
X0042012Y0146615D02*
X0042012Y0148190D01*
X0039268Y0148190D02*
X0039268Y0146615D01*
X0036512Y0146615D02*
X0036512Y0148190D01*
X0037423Y0101480D02*
X0037423Y0094787D01*
X0033092Y0094787D02*
X0033092Y0101480D01*
D14*
X0035257Y0099512D03*
D15*
X0039022Y0147894D03*
X0044522Y0147894D03*
D16*
X0030235Y0116308D02*
X0030635Y0115907D01*
X0030635Y0115507D01*
X0030235Y0115107D01*
X0030635Y0114706D01*
X0030635Y0114306D01*
X0030235Y0113906D01*
X0029434Y0113906D01*
X0029034Y0114306D01*
X0029834Y0115107D02*
X0030235Y0115107D01*
X0030235Y0116308D02*
X0029434Y0116308D01*
X0029034Y0115907D01*
X0027873Y0115907D02*
X0027873Y0115107D01*
X0027472Y0114706D01*
X0026271Y0114706D01*
X0026271Y0113906D02*
X0026271Y0116308D01*
X0027472Y0116308D01*
X0027873Y0115907D01*
X0027072Y0114706D02*
X0027873Y0113906D01*
X0022451Y0098889D02*
X0022451Y0097288D01*
X0022451Y0098089D02*
X0020049Y0098089D01*
X0020850Y0097288D01*
X0020450Y0096127D02*
X0021250Y0096127D01*
X0021651Y0095727D01*
X0021651Y0094526D01*
X0021651Y0095326D02*
X0022451Y0096127D01*
X0022451Y0094526D02*
X0020049Y0094526D01*
X0020049Y0095727D01*
X0020450Y0096127D01*
X0022261Y0124156D02*
X0022261Y0126519D01*
X0017537Y0126519D02*
X0017537Y0124156D01*
X0016050Y0229010D02*
X0016050Y0231373D01*
X0020774Y0231373D02*
X0020774Y0229010D01*
D17*
X0017691Y0239227D02*
X0008636Y0239227D01*
X0008636Y0304975D02*
X0008636Y0333716D01*
X0071628Y0333716D01*
X0071628Y0304975D01*
X0071628Y0239227D02*
X0064935Y0239227D01*
X0073908Y0231033D02*
X0078411Y0231033D01*
X0078411Y0229532D02*
X0078411Y0232534D01*
X0077661Y0227180D02*
X0073908Y0227180D01*
X0073908Y0227930D02*
X0073908Y0226429D01*
X0075409Y0229532D02*
X0073908Y0231033D01*
X0077661Y0227180D02*
X0078411Y0226429D01*
X0078411Y0225678D01*
X0077661Y0224928D01*
X0030107Y0169766D02*
X0030109Y0169814D01*
X0030115Y0169862D01*
X0030125Y0169909D01*
X0030138Y0169955D01*
X0030156Y0170000D01*
X0030176Y0170044D01*
X0030201Y0170086D01*
X0030229Y0170125D01*
X0030259Y0170162D01*
X0030293Y0170196D01*
X0030330Y0170228D01*
X0030368Y0170257D01*
X0030409Y0170282D01*
X0030452Y0170304D01*
X0030497Y0170322D01*
X0030543Y0170336D01*
X0030590Y0170347D01*
X0030638Y0170354D01*
X0030686Y0170357D01*
X0030734Y0170356D01*
X0030782Y0170351D01*
X0030830Y0170342D01*
X0030876Y0170330D01*
X0030921Y0170313D01*
X0030965Y0170293D01*
X0031007Y0170270D01*
X0031047Y0170243D01*
X0031085Y0170213D01*
X0031120Y0170180D01*
X0031152Y0170144D01*
X0031182Y0170106D01*
X0031208Y0170065D01*
X0031230Y0170022D01*
X0031250Y0169978D01*
X0031265Y0169933D01*
X0031277Y0169886D01*
X0031285Y0169838D01*
X0031289Y0169790D01*
X0031289Y0169742D01*
X0031285Y0169694D01*
X0031277Y0169646D01*
X0031265Y0169599D01*
X0031250Y0169554D01*
X0031230Y0169510D01*
X0031208Y0169467D01*
X0031182Y0169426D01*
X0031152Y0169388D01*
X0031120Y0169352D01*
X0031085Y0169319D01*
X0031047Y0169289D01*
X0031007Y0169262D01*
X0030965Y0169239D01*
X0030921Y0169219D01*
X0030876Y0169202D01*
X0030830Y0169190D01*
X0030782Y0169181D01*
X0030734Y0169176D01*
X0030686Y0169175D01*
X0030638Y0169178D01*
X0030590Y0169185D01*
X0030543Y0169196D01*
X0030497Y0169210D01*
X0030452Y0169228D01*
X0030409Y0169250D01*
X0030368Y0169275D01*
X0030330Y0169304D01*
X0030293Y0169336D01*
X0030259Y0169370D01*
X0030229Y0169407D01*
X0030201Y0169446D01*
X0030176Y0169488D01*
X0030156Y0169532D01*
X0030138Y0169577D01*
X0030125Y0169623D01*
X0030115Y0169670D01*
X0030109Y0169718D01*
X0030107Y0169766D01*
D18*
X0021235Y0308912D02*
X0046825Y0308912D01*
X0046825Y0316786D02*
X0046825Y0330566D01*
X0062573Y0330566D01*
X0046825Y0316786D02*
X0042494Y0316786D01*
X0042494Y0330566D01*
X0038164Y0330566D01*
X0038164Y0316393D01*
X0033439Y0316393D01*
X0033439Y0330566D01*
X0028715Y0330566D01*
X0028715Y0316393D01*
X0024778Y0316393D01*
X0024778Y0330960D01*
X0021235Y0330960D01*
X0021235Y0311668D01*
X0021235Y0311275D02*
X0021235Y0308912D01*
D19*
X0035761Y0119286D03*
X0072761Y0137086D03*
D20*
X0020920Y0219086D02*
X0020922Y0219109D01*
X0020928Y0219132D01*
X0020937Y0219153D01*
X0020950Y0219173D01*
X0020966Y0219190D01*
X0020984Y0219204D01*
X0021004Y0219215D01*
X0021026Y0219223D01*
X0021049Y0219227D01*
X0021073Y0219227D01*
X0021096Y0219223D01*
X0021118Y0219215D01*
X0021138Y0219204D01*
X0021156Y0219190D01*
X0021172Y0219173D01*
X0021185Y0219153D01*
X0021194Y0219132D01*
X0021200Y0219109D01*
X0021202Y0219086D01*
X0021200Y0219063D01*
X0021194Y0219040D01*
X0021185Y0219019D01*
X0021172Y0218999D01*
X0021156Y0218982D01*
X0021138Y0218968D01*
X0021118Y0218957D01*
X0021096Y0218949D01*
X0021073Y0218945D01*
X0021049Y0218945D01*
X0021026Y0218949D01*
X0021004Y0218957D01*
X0020984Y0218968D01*
X0020966Y0218982D01*
X0020950Y0218999D01*
X0020937Y0219019D01*
X0020928Y0219040D01*
X0020922Y0219063D01*
X0020920Y0219086D01*
D21*
X0026661Y0099286D03*
D22*
X0031461Y0110486D03*
M02*
