G75*
%MOIN*%
%OFA0B0*%
%FSLAX25Y25*%
%IPPOS*%
%LPD*%
%AMOC8*
5,1,8,0,0,1.08239X$1,22.5*
%
%ADD10R,0.00130X0.01300*%
%ADD11R,0.00130X0.01820*%
%ADD12R,0.00130X0.02340*%
%ADD13R,0.00130X0.02600*%
%ADD14R,0.00130X0.02730*%
%ADD15R,0.00130X0.01170*%
%ADD16R,0.00130X0.04160*%
%ADD17R,0.00130X0.01690*%
%ADD18R,0.00130X0.02860*%
%ADD19R,0.00130X0.08580*%
%ADD20R,0.00130X0.00780*%
%ADD21R,0.00130X0.09490*%
%ADD22R,0.00130X0.14170*%
%ADD23R,0.00130X0.03250*%
%ADD24R,0.00130X0.03640*%
%ADD25R,0.00130X0.09100*%
%ADD26R,0.00130X0.04030*%
%ADD27R,0.00130X0.06760*%
%ADD28R,0.00130X0.04290*%
%ADD29R,0.00130X0.09230*%
%ADD30R,0.00130X0.02080*%
%ADD31R,0.00130X0.10140*%
%ADD32R,0.00130X0.14690*%
%ADD33R,0.00130X0.07410*%
%ADD34R,0.00130X0.04810*%
%ADD35R,0.00130X0.04550*%
%ADD36R,0.00130X0.07800*%
%ADD37R,0.00130X0.05590*%
%ADD38R,0.00130X0.09750*%
%ADD39R,0.00130X0.10530*%
%ADD40R,0.00130X0.14950*%
%ADD41R,0.00130X0.08710*%
%ADD42R,0.00130X0.04680*%
%ADD43R,0.00130X0.05850*%
%ADD44R,0.00130X0.09880*%
%ADD45R,0.00130X0.06500*%
%ADD46R,0.00130X0.10140*%
%ADD47R,0.00130X0.03120*%
%ADD48R,0.00130X0.10790*%
%ADD49R,0.00130X0.15210*%
%ADD50R,0.00130X0.04940*%
%ADD51R,0.00130X0.06630*%
%ADD52R,0.00130X0.05070*%
%ADD53R,0.00130X0.07150*%
%ADD54R,0.00130X0.03510*%
%ADD55R,0.00130X0.11180*%
%ADD56R,0.00130X0.05070*%
%ADD57R,0.00130X0.05200*%
%ADD58R,0.00130X0.07280*%
%ADD59R,0.00130X0.10400*%
%ADD60R,0.00130X0.09490*%
%ADD61R,0.00130X0.10660*%
%ADD62R,0.00130X0.03770*%
%ADD63R,0.00130X0.11310*%
%ADD64R,0.00130X0.15470*%
%ADD65R,0.00130X0.05330*%
%ADD66R,0.00130X0.07930*%
%ADD67R,0.00130X0.08320*%
%ADD68R,0.00130X0.10920*%
%ADD69R,0.00130X0.11700*%
%ADD70R,0.00130X0.11050*%
%ADD71R,0.00130X0.04290*%
%ADD72R,0.00130X0.11830*%
%ADD73R,0.00130X0.15600*%
%ADD74R,0.00130X0.08970*%
%ADD75R,0.00130X0.10270*%
%ADD76R,0.00130X0.04420*%
%ADD77R,0.00130X0.11960*%
%ADD78R,0.00130X0.09360*%
%ADD79R,0.00130X0.12220*%
%ADD80R,0.00130X0.12090*%
%ADD81R,0.00130X0.05460*%
%ADD82R,0.00130X0.11440*%
%ADD83R,0.00130X0.09620*%
%ADD84R,0.00130X0.12350*%
%ADD85R,0.00130X0.12220*%
%ADD86R,0.00130X0.10270*%
%ADD87R,0.00130X0.11570*%
%ADD88R,0.00130X0.10790*%
%ADD89R,0.00130X0.10010*%
%ADD90R,0.00130X0.12480*%
%ADD91R,0.00130X0.11570*%
%ADD92R,0.00130X0.10920*%
%ADD93R,0.00130X0.15730*%
%ADD94R,0.00130X0.12740*%
%ADD95R,0.00130X0.13000*%
%ADD96R,0.00130X0.13260*%
%ADD97R,0.00130X0.12870*%
%ADD98R,0.00130X0.13520*%
%ADD99R,0.00130X0.13650*%
%ADD100R,0.00130X0.13910*%
%ADD101R,0.00130X0.12610*%
%ADD102R,0.00130X0.11440*%
%ADD103R,0.00130X0.12870*%
%ADD104R,0.00130X0.13130*%
%ADD105R,0.00130X0.14430*%
%ADD106R,0.00130X0.06110*%
%ADD107R,0.00130X0.06890*%
%ADD108R,0.00130X0.05590*%
%ADD109R,0.00130X0.02990*%
%ADD110R,0.00130X0.03770*%
%ADD111R,0.00130X0.06370*%
%ADD112R,0.00130X0.06370*%
%ADD113R,0.00130X0.06240*%
%ADD114R,0.00130X0.06240*%
%ADD115R,0.00130X0.03640*%
%ADD116R,0.00130X0.03380*%
%ADD117R,0.00130X0.05980*%
%ADD118R,0.00130X0.04420*%
%ADD119R,0.00130X0.05720*%
%ADD120R,0.00130X0.05720*%
%ADD121R,0.00130X0.02990*%
%ADD122R,0.00130X0.03120*%
%ADD123R,0.00130X0.03900*%
%ADD124R,0.00130X0.02470*%
%ADD125R,0.00130X0.02340*%
%ADD126R,0.00130X0.02470*%
%ADD127R,0.00130X0.00910*%
%ADD128R,0.00130X0.02210*%
%ADD129R,0.00130X0.01950*%
%ADD130R,0.00130X0.01560*%
%ADD131R,0.00130X0.04940*%
%ADD132R,0.00130X0.09620*%
%ADD133R,0.00130X0.01040*%
%ADD134R,0.00130X0.00520*%
%ADD135R,0.00130X0.00260*%
%ADD136R,0.00130X0.07020*%
%ADD137R,0.00130X0.08970*%
%ADD138R,0.00130X0.08840*%
%ADD139R,0.00130X0.07540*%
%ADD140R,0.00130X0.08450*%
%ADD141R,0.00130X0.08190*%
%ADD142R,0.00130X0.08190*%
%ADD143R,0.00130X0.08060*%
%ADD144R,0.00130X0.07670*%
%ADD145R,0.00130X0.07670*%
%ADD146R,0.00130X0.06890*%
%ADD147R,0.00130X0.01820*%
%ADD148R,0.00130X0.00650*%
%ADD149R,0.00130X0.14300*%
%ADD150R,0.00130X0.14170*%
%ADD151R,0.00130X0.14040*%
%ADD152R,0.00130X0.12090*%
%ADD153R,0.00130X0.13780*%
%ADD154R,0.00130X0.08840*%
%ADD155R,0.00130X0.01430*%
%ADD156C,0.00800*%
D10*
X0012301Y0102011D03*
X0030371Y0159081D03*
X0035571Y0159471D03*
X0030371Y0214851D03*
X0032971Y0234351D03*
X0035571Y0264251D03*
D11*
X0035441Y0264251D03*
X0033231Y0215111D03*
X0030241Y0214851D03*
X0035441Y0159471D03*
X0022831Y0152321D03*
X0012431Y0102011D03*
D12*
X0012561Y0102011D03*
X0033491Y0215111D03*
D13*
X0033751Y0215111D03*
X0034661Y0215241D03*
X0034791Y0215241D03*
X0034921Y0215241D03*
X0031671Y0229281D03*
X0031541Y0229281D03*
X0031411Y0229281D03*
X0031281Y0229281D03*
X0031151Y0229281D03*
X0029851Y0214851D03*
X0026601Y0205491D03*
X0026471Y0205491D03*
X0026341Y0205491D03*
X0026211Y0205491D03*
X0025691Y0187421D03*
X0026601Y0158691D03*
X0025691Y0152581D03*
X0022181Y0152191D03*
X0022051Y0152191D03*
X0029721Y0158951D03*
X0029851Y0158951D03*
X0033751Y0159341D03*
X0033881Y0159341D03*
X0034011Y0159341D03*
X0034141Y0159341D03*
X0022311Y0113191D03*
X0022181Y0113191D03*
X0012951Y0102011D03*
X0012821Y0102011D03*
X0012691Y0102011D03*
X0017631Y0191971D03*
X0017371Y0261521D03*
X0017371Y0275301D03*
X0029591Y0277771D03*
X0031021Y0277901D03*
X0031281Y0268021D03*
X0034921Y0264251D03*
X0035051Y0264251D03*
D14*
X0034791Y0264186D03*
X0034661Y0264186D03*
X0034531Y0264186D03*
X0034401Y0264186D03*
X0034271Y0264186D03*
X0034141Y0264186D03*
X0034011Y0264186D03*
X0033881Y0264186D03*
X0033751Y0264186D03*
X0033621Y0264186D03*
X0033491Y0264186D03*
X0033361Y0264056D03*
X0033231Y0264056D03*
X0033101Y0264056D03*
X0032971Y0264056D03*
X0032841Y0264056D03*
X0032711Y0264056D03*
X0032581Y0264056D03*
X0032451Y0264056D03*
X0032321Y0264056D03*
X0032191Y0264056D03*
X0032061Y0264056D03*
X0031801Y0263926D03*
X0031671Y0263926D03*
X0031541Y0263926D03*
X0031411Y0263926D03*
X0031281Y0263926D03*
X0031151Y0263926D03*
X0031021Y0263926D03*
X0030891Y0263926D03*
X0030761Y0263926D03*
X0030631Y0263926D03*
X0030371Y0263796D03*
X0030241Y0263796D03*
X0030111Y0263796D03*
X0029981Y0263796D03*
X0029851Y0263796D03*
X0029721Y0263796D03*
X0029591Y0263796D03*
X0029461Y0263796D03*
X0029331Y0263796D03*
X0029201Y0263796D03*
X0028811Y0263666D03*
X0028681Y0263666D03*
X0028551Y0263666D03*
X0029331Y0257166D03*
X0029461Y0257166D03*
X0029591Y0257166D03*
X0029721Y0257166D03*
X0029851Y0257166D03*
X0029981Y0257166D03*
X0030111Y0257166D03*
X0030241Y0257166D03*
X0030371Y0257166D03*
X0030501Y0257166D03*
X0030631Y0257166D03*
X0030891Y0257296D03*
X0031021Y0257296D03*
X0031151Y0257296D03*
X0029071Y0257036D03*
X0028941Y0257036D03*
X0028811Y0257036D03*
X0028681Y0257036D03*
X0028551Y0257036D03*
X0028421Y0257036D03*
X0028291Y0257036D03*
X0028161Y0257036D03*
X0028031Y0257036D03*
X0027901Y0257036D03*
X0027641Y0256906D03*
X0027511Y0256906D03*
X0027381Y0256906D03*
X0027251Y0256906D03*
X0027121Y0256906D03*
X0026991Y0256906D03*
X0026861Y0256906D03*
X0026731Y0256906D03*
X0026601Y0256906D03*
X0026471Y0256906D03*
X0026341Y0256906D03*
X0026211Y0256776D03*
X0026081Y0256776D03*
X0025951Y0256776D03*
X0025821Y0256776D03*
X0025691Y0256776D03*
X0025561Y0256776D03*
X0025431Y0256776D03*
X0025301Y0256776D03*
X0025171Y0256776D03*
X0025041Y0256776D03*
X0024911Y0256776D03*
X0024781Y0256776D03*
X0024651Y0256646D03*
X0024521Y0256646D03*
X0024391Y0256646D03*
X0024261Y0256646D03*
X0024131Y0256646D03*
X0024001Y0256646D03*
X0023871Y0256646D03*
X0023741Y0256646D03*
X0023611Y0256646D03*
X0023481Y0256646D03*
X0023351Y0256646D03*
X0023221Y0256516D03*
X0023091Y0256516D03*
X0022961Y0256516D03*
X0022831Y0256516D03*
X0022701Y0256516D03*
X0022571Y0256516D03*
X0022441Y0256516D03*
X0022311Y0256516D03*
X0022181Y0256516D03*
X0022051Y0256516D03*
X0021921Y0256386D03*
X0021791Y0256386D03*
X0021661Y0256386D03*
X0021791Y0239746D03*
X0021921Y0239746D03*
X0022051Y0239746D03*
X0022181Y0239746D03*
X0022311Y0239746D03*
X0022441Y0239746D03*
X0021531Y0239616D03*
X0021401Y0239616D03*
X0021271Y0239616D03*
X0021141Y0239616D03*
X0021011Y0239616D03*
X0020881Y0239616D03*
X0020751Y0239616D03*
X0020621Y0239616D03*
X0020491Y0239616D03*
X0020101Y0239486D03*
X0026081Y0214526D03*
X0026211Y0214526D03*
X0026341Y0214526D03*
X0026471Y0214526D03*
X0026601Y0214526D03*
X0026731Y0214526D03*
X0026861Y0214526D03*
X0026991Y0214526D03*
X0027121Y0214526D03*
X0027251Y0214526D03*
X0027381Y0214656D03*
X0027511Y0214656D03*
X0027641Y0214656D03*
X0027771Y0214656D03*
X0027901Y0214656D03*
X0028031Y0214656D03*
X0028161Y0214656D03*
X0028291Y0214656D03*
X0028421Y0214656D03*
X0028551Y0214656D03*
X0028681Y0214656D03*
X0028811Y0214656D03*
X0028941Y0214786D03*
X0029071Y0214786D03*
X0029201Y0214786D03*
X0029331Y0214786D03*
X0029461Y0214786D03*
X0029591Y0214786D03*
X0029721Y0214786D03*
X0027121Y0205556D03*
X0026991Y0205556D03*
X0026861Y0205556D03*
X0026731Y0205556D03*
X0026081Y0205556D03*
X0025951Y0205556D03*
X0025821Y0205556D03*
X0022051Y0197496D03*
X0021791Y0197366D03*
X0021661Y0197366D03*
X0021531Y0197366D03*
X0021401Y0197366D03*
X0021271Y0197366D03*
X0021141Y0197366D03*
X0021011Y0197366D03*
X0020881Y0197366D03*
X0020751Y0197366D03*
X0020621Y0197366D03*
X0020491Y0197366D03*
X0020361Y0197366D03*
X0017371Y0212446D03*
X0025301Y0187356D03*
X0025431Y0187356D03*
X0025561Y0187356D03*
X0025821Y0187356D03*
X0025951Y0187356D03*
X0026081Y0187356D03*
X0026341Y0187226D03*
X0026211Y0179816D03*
X0025951Y0179686D03*
X0026991Y0163046D03*
X0027121Y0163046D03*
X0027251Y0163046D03*
X0026731Y0162916D03*
X0026601Y0162916D03*
X0026471Y0162916D03*
X0026341Y0162916D03*
X0026211Y0162916D03*
X0026081Y0162916D03*
X0025951Y0162916D03*
X0025821Y0162916D03*
X0025691Y0162916D03*
X0025951Y0158626D03*
X0026081Y0158626D03*
X0026211Y0158626D03*
X0026341Y0158626D03*
X0026471Y0158626D03*
X0026731Y0158756D03*
X0026861Y0158756D03*
X0026991Y0158756D03*
X0027121Y0158756D03*
X0027251Y0158756D03*
X0027381Y0158756D03*
X0027511Y0158756D03*
X0027641Y0158756D03*
X0027771Y0158756D03*
X0027901Y0158756D03*
X0028031Y0158756D03*
X0028161Y0158886D03*
X0028291Y0158886D03*
X0028421Y0158886D03*
X0028551Y0158886D03*
X0028681Y0158886D03*
X0028811Y0158886D03*
X0028941Y0158886D03*
X0029071Y0158886D03*
X0029201Y0158886D03*
X0029331Y0158886D03*
X0029461Y0158886D03*
X0029591Y0158886D03*
X0025951Y0152516D03*
X0025821Y0152516D03*
X0025821Y0138476D03*
X0025691Y0138476D03*
X0025561Y0138476D03*
X0025431Y0138476D03*
X0025301Y0138476D03*
X0025951Y0138476D03*
X0026081Y0138476D03*
X0026211Y0138346D03*
X0026341Y0138346D03*
X0026471Y0131066D03*
X0026211Y0130936D03*
X0025951Y0130806D03*
X0027251Y0119886D03*
X0027381Y0119886D03*
X0026601Y0119756D03*
X0026471Y0119756D03*
X0026341Y0119756D03*
X0026211Y0119756D03*
X0026081Y0113386D03*
X0025951Y0113386D03*
X0025821Y0113386D03*
X0025691Y0113386D03*
X0025561Y0113386D03*
X0025431Y0113386D03*
X0025301Y0113386D03*
X0025171Y0113386D03*
X0025041Y0113386D03*
X0024911Y0113386D03*
X0024781Y0113386D03*
X0024651Y0113386D03*
X0024521Y0113386D03*
X0024391Y0113386D03*
X0024261Y0113386D03*
X0024131Y0113386D03*
X0024001Y0113386D03*
X0023871Y0113386D03*
X0023741Y0113386D03*
X0023611Y0113386D03*
X0023481Y0113386D03*
X0023351Y0113256D03*
X0023221Y0113256D03*
X0023091Y0113256D03*
X0022961Y0113256D03*
X0022831Y0113256D03*
X0022701Y0113256D03*
X0022571Y0113256D03*
X0022441Y0113256D03*
X0022051Y0113126D03*
X0021921Y0113126D03*
X0021791Y0113126D03*
X0021661Y0112996D03*
X0017371Y0117676D03*
X0017371Y0102336D03*
X0017241Y0102336D03*
X0017111Y0102336D03*
X0016981Y0102336D03*
X0016851Y0102336D03*
X0016721Y0102336D03*
X0016591Y0102336D03*
X0016461Y0102336D03*
X0016331Y0102336D03*
X0016201Y0102336D03*
X0016071Y0102336D03*
X0015941Y0102336D03*
X0015811Y0102206D03*
X0015681Y0102206D03*
X0015551Y0102206D03*
X0015421Y0102206D03*
X0015291Y0102206D03*
X0015161Y0102206D03*
X0015031Y0102206D03*
X0014901Y0102206D03*
X0014771Y0102206D03*
X0014641Y0102206D03*
X0014511Y0102206D03*
X0014381Y0102076D03*
X0014251Y0102076D03*
X0014121Y0102076D03*
X0013991Y0102076D03*
X0013861Y0102076D03*
X0013731Y0102076D03*
X0013601Y0102076D03*
X0013471Y0102076D03*
X0013341Y0102076D03*
X0013211Y0102076D03*
X0013081Y0102076D03*
X0024651Y0090246D03*
X0025041Y0090376D03*
X0025171Y0090376D03*
X0025561Y0090506D03*
X0025691Y0090506D03*
X0025821Y0090506D03*
X0025951Y0090506D03*
X0026211Y0090636D03*
X0026341Y0090636D03*
X0026471Y0090636D03*
X0026601Y0090636D03*
X0026731Y0090636D03*
X0026861Y0090636D03*
X0026991Y0090636D03*
X0027121Y0090636D03*
X0027251Y0090636D03*
X0027381Y0090636D03*
X0027511Y0090636D03*
X0027641Y0090636D03*
X0027771Y0090636D03*
X0027901Y0090636D03*
X0028031Y0090636D03*
X0028681Y0090506D03*
X0030241Y0083096D03*
X0028161Y0075296D03*
X0028031Y0075296D03*
X0027641Y0075166D03*
X0027511Y0075166D03*
X0027381Y0075166D03*
X0027121Y0075036D03*
X0026991Y0075036D03*
X0026861Y0075036D03*
X0026731Y0075036D03*
X0026601Y0075036D03*
X0026471Y0075036D03*
X0026341Y0075036D03*
X0026211Y0075036D03*
X0026081Y0075036D03*
X0025951Y0075036D03*
X0025821Y0075036D03*
X0025691Y0075036D03*
X0025561Y0075036D03*
X0025431Y0075036D03*
X0025301Y0075036D03*
X0025171Y0075036D03*
X0025041Y0075036D03*
X0024911Y0075036D03*
X0024781Y0075036D03*
X0026081Y0080236D03*
X0026211Y0080236D03*
X0026341Y0080236D03*
X0026471Y0080236D03*
X0026601Y0080236D03*
X0026731Y0080236D03*
X0026731Y0103246D03*
X0026601Y0103246D03*
X0026471Y0103246D03*
X0026341Y0103246D03*
X0026861Y0103246D03*
X0026991Y0103246D03*
X0027121Y0103246D03*
X0021921Y0152126D03*
X0034271Y0159406D03*
X0034401Y0159406D03*
X0034531Y0159406D03*
X0034661Y0159406D03*
X0034791Y0159406D03*
X0034531Y0215176D03*
X0034401Y0215176D03*
X0034271Y0215176D03*
X0034141Y0215176D03*
X0034011Y0215176D03*
X0033881Y0215176D03*
X0032321Y0229346D03*
X0032191Y0229346D03*
X0032061Y0229346D03*
X0031931Y0229346D03*
X0031801Y0229346D03*
X0031411Y0240396D03*
X0031281Y0240396D03*
X0031151Y0240396D03*
X0031021Y0240396D03*
X0030891Y0240396D03*
X0030761Y0240396D03*
X0030631Y0240396D03*
X0030501Y0240396D03*
X0030371Y0240396D03*
X0030241Y0240396D03*
X0030111Y0240396D03*
X0029981Y0240396D03*
X0029851Y0240396D03*
X0029591Y0240266D03*
X0029071Y0244036D03*
X0028941Y0244036D03*
X0028811Y0244036D03*
X0029331Y0244166D03*
X0029461Y0244166D03*
X0029591Y0244166D03*
X0029721Y0244166D03*
X0029851Y0244166D03*
X0029981Y0244166D03*
X0030111Y0244166D03*
X0030241Y0244166D03*
X0031411Y0267956D03*
X0031541Y0267956D03*
X0031671Y0267956D03*
X0031801Y0267956D03*
X0031931Y0268086D03*
X0032061Y0268086D03*
X0032191Y0268086D03*
X0032321Y0268086D03*
X0032451Y0268086D03*
X0031411Y0277836D03*
X0031281Y0277836D03*
X0031151Y0277836D03*
X0030891Y0277836D03*
X0030761Y0277836D03*
X0030631Y0277836D03*
X0030501Y0277836D03*
X0030371Y0277836D03*
X0030241Y0277836D03*
X0030111Y0277836D03*
X0029981Y0277836D03*
X0029851Y0277836D03*
X0029721Y0277836D03*
X0029461Y0277706D03*
X0029331Y0277706D03*
X0029201Y0277706D03*
X0029071Y0277706D03*
X0028941Y0277706D03*
X0028811Y0277706D03*
X0028681Y0277706D03*
X0028551Y0277706D03*
X0028421Y0277706D03*
X0028291Y0277706D03*
X0028161Y0277706D03*
X0028031Y0277576D03*
D15*
X0022961Y0152256D03*
X0017371Y0082056D03*
D16*
X0020881Y0077051D03*
X0021011Y0076921D03*
X0023091Y0082511D03*
X0020881Y0087581D03*
X0025301Y0103831D03*
X0025171Y0118911D03*
X0017371Y0135031D03*
X0017501Y0156611D03*
X0017371Y0183911D03*
X0021791Y0192361D03*
X0017501Y0212381D03*
X0025171Y0213681D03*
X0032841Y0239421D03*
X0032841Y0245661D03*
X0020101Y0255021D03*
X0032061Y0088621D03*
X0032191Y0088491D03*
D17*
X0017371Y0146666D03*
X0022571Y0192426D03*
X0030501Y0229216D03*
D18*
X0032451Y0229411D03*
X0032581Y0229411D03*
X0031671Y0240331D03*
X0031541Y0240331D03*
X0030761Y0244231D03*
X0030631Y0244231D03*
X0030501Y0244231D03*
X0030371Y0244231D03*
X0030891Y0244361D03*
X0031021Y0244361D03*
X0031151Y0244361D03*
X0031541Y0244491D03*
X0029721Y0240331D03*
X0029461Y0240201D03*
X0029331Y0240201D03*
X0029201Y0244101D03*
X0028681Y0244101D03*
X0028551Y0244101D03*
X0028421Y0244101D03*
X0028291Y0244101D03*
X0027771Y0256971D03*
X0029201Y0257101D03*
X0030761Y0257231D03*
X0031281Y0257231D03*
X0031411Y0257231D03*
X0031541Y0257231D03*
X0031671Y0257101D03*
X0030501Y0263861D03*
X0029071Y0263731D03*
X0028941Y0263731D03*
X0028421Y0263601D03*
X0031931Y0263991D03*
X0032581Y0268151D03*
X0031671Y0277771D03*
X0031541Y0277771D03*
X0021531Y0256321D03*
X0021401Y0256191D03*
X0021661Y0239681D03*
X0020361Y0239551D03*
X0020231Y0239551D03*
X0025821Y0214461D03*
X0025951Y0214461D03*
X0025691Y0214331D03*
X0025691Y0205621D03*
X0027251Y0205621D03*
X0027381Y0205621D03*
X0027511Y0205621D03*
X0022311Y0197561D03*
X0022181Y0197561D03*
X0021921Y0197431D03*
X0020231Y0197431D03*
X0025691Y0179621D03*
X0025821Y0179621D03*
X0026081Y0179751D03*
X0026341Y0179881D03*
X0026471Y0180011D03*
X0026601Y0180011D03*
X0026731Y0180141D03*
X0026601Y0187161D03*
X0026471Y0187161D03*
X0026211Y0187291D03*
X0027641Y0163241D03*
X0027511Y0163111D03*
X0027381Y0163111D03*
X0026861Y0162981D03*
X0025821Y0158561D03*
X0025691Y0158561D03*
X0025561Y0162981D03*
X0025431Y0162981D03*
X0026081Y0152451D03*
X0026211Y0152451D03*
X0026341Y0152451D03*
X0026341Y0145041D03*
X0026081Y0144911D03*
X0025691Y0144781D03*
X0026471Y0138281D03*
X0026601Y0138281D03*
X0026601Y0131131D03*
X0026341Y0131001D03*
X0026081Y0130871D03*
X0025821Y0130741D03*
X0025691Y0130741D03*
X0025561Y0130611D03*
X0027511Y0119951D03*
X0027121Y0119821D03*
X0026991Y0119821D03*
X0026861Y0119821D03*
X0026731Y0119821D03*
X0026081Y0119691D03*
X0025951Y0119691D03*
X0025821Y0119691D03*
X0026211Y0113321D03*
X0026341Y0113321D03*
X0026471Y0113321D03*
X0027251Y0103311D03*
X0027381Y0103311D03*
X0026211Y0103181D03*
X0026081Y0103181D03*
X0025951Y0103181D03*
X0025821Y0103181D03*
X0026081Y0090571D03*
X0025431Y0090441D03*
X0025301Y0090441D03*
X0024911Y0090311D03*
X0024781Y0090311D03*
X0024521Y0090181D03*
X0024391Y0090181D03*
X0024131Y0090051D03*
X0025821Y0080301D03*
X0025951Y0080301D03*
X0026861Y0080301D03*
X0026991Y0080301D03*
X0027251Y0080431D03*
X0028941Y0075621D03*
X0029071Y0075621D03*
X0028811Y0075491D03*
X0028681Y0075491D03*
X0028551Y0075491D03*
X0028421Y0075361D03*
X0028291Y0075361D03*
X0027901Y0075231D03*
X0027771Y0075231D03*
X0027251Y0075101D03*
X0024651Y0075101D03*
X0024521Y0075101D03*
X0024391Y0075101D03*
X0024261Y0075101D03*
X0024001Y0075231D03*
X0023871Y0075231D03*
X0028161Y0090571D03*
X0028291Y0090571D03*
X0028421Y0090571D03*
X0028551Y0090571D03*
X0028811Y0090441D03*
X0028941Y0090441D03*
X0029071Y0090441D03*
X0029461Y0090311D03*
X0021531Y0112931D03*
X0021401Y0112931D03*
X0021401Y0151931D03*
X0021661Y0152061D03*
X0021791Y0152061D03*
X0017371Y0156611D03*
D19*
X0018281Y0146731D03*
X0017761Y0133861D03*
X0017371Y0166751D03*
X0017761Y0182741D03*
X0028421Y0148941D03*
X0028421Y0134771D03*
X0034661Y0083551D03*
X0018281Y0082121D03*
D20*
X0027641Y0083551D03*
X0017371Y0191971D03*
X0023351Y0239811D03*
X0030371Y0267891D03*
D21*
X0035181Y0234676D03*
X0017761Y0249496D03*
X0017371Y0203216D03*
X0018021Y0182416D03*
X0027771Y0148876D03*
X0017631Y0105846D03*
D22*
X0017371Y0232856D03*
X0019711Y0249756D03*
X0019841Y0249756D03*
D23*
X0020751Y0255736D03*
X0020881Y0255866D03*
X0017371Y0249626D03*
X0025431Y0214136D03*
X0028551Y0239746D03*
X0032321Y0240006D03*
X0032321Y0244946D03*
X0032321Y0256776D03*
X0032191Y0256906D03*
X0032321Y0277446D03*
X0027901Y0277836D03*
X0027251Y0186836D03*
X0027121Y0180466D03*
X0025431Y0158366D03*
X0027121Y0152126D03*
X0030241Y0149006D03*
X0027251Y0137956D03*
X0027121Y0131586D03*
X0030241Y0135096D03*
X0027251Y0112996D03*
X0020881Y0112606D03*
X0020751Y0112476D03*
X0022961Y0089466D03*
X0022701Y0089336D03*
X0022571Y0089206D03*
X0025431Y0080496D03*
X0027511Y0080626D03*
X0030631Y0076596D03*
X0030501Y0076466D03*
X0030501Y0089856D03*
X0030241Y0089986D03*
X0022701Y0075686D03*
X0022571Y0075686D03*
X0022441Y0075816D03*
X0020621Y0151476D03*
X0020751Y0151606D03*
D24*
X0025301Y0158171D03*
X0027511Y0151801D03*
X0027511Y0145821D03*
X0027511Y0137631D03*
X0027381Y0131781D03*
X0025301Y0119301D03*
X0020361Y0112151D03*
X0021791Y0088621D03*
X0021661Y0088491D03*
X0025301Y0080691D03*
X0021531Y0076401D03*
X0021661Y0076271D03*
X0017501Y0081991D03*
X0031541Y0077441D03*
X0031541Y0089141D03*
X0031411Y0089271D03*
X0025301Y0213941D03*
X0032581Y0245271D03*
X0032711Y0256451D03*
X0032581Y0256581D03*
X0032711Y0277121D03*
D25*
X0035311Y0251121D03*
X0027901Y0183651D03*
X0018411Y0146731D03*
X0017891Y0133731D03*
X0017501Y0105651D03*
X0027901Y0134771D03*
X0029851Y0108121D03*
X0034531Y0083551D03*
X0017891Y0182611D03*
D26*
X0018151Y0192036D03*
X0027641Y0180986D03*
X0030111Y0183976D03*
X0027641Y0151606D03*
X0030111Y0149006D03*
X0030111Y0135096D03*
X0027641Y0132106D03*
X0017501Y0117676D03*
X0021141Y0087906D03*
X0021011Y0087776D03*
X0031931Y0088816D03*
X0032191Y0078156D03*
X0032061Y0078026D03*
X0027901Y0238966D03*
X0027901Y0244686D03*
X0032841Y0256256D03*
X0017501Y0261456D03*
X0017501Y0275366D03*
D27*
X0025171Y0275951D03*
X0020101Y0245921D03*
X0017501Y0183391D03*
X0029331Y0148941D03*
X0029591Y0123201D03*
X0017501Y0134511D03*
D28*
X0017501Y0146796D03*
X0020101Y0150696D03*
X0025171Y0157846D03*
X0027641Y0112346D03*
X0020101Y0111696D03*
X0020751Y0077246D03*
X0029851Y0083096D03*
X0032321Y0078416D03*
D29*
X0027771Y0134836D03*
X0027901Y0148876D03*
X0028031Y0148876D03*
X0027771Y0183716D03*
X0017501Y0166816D03*
X0027771Y0276276D03*
D30*
X0017501Y0191971D03*
X0022701Y0152321D03*
X0035311Y0159471D03*
D31*
X0018281Y0182221D03*
X0017501Y0203151D03*
X0018281Y0133341D03*
X0017891Y0106171D03*
X0027381Y0276341D03*
D32*
X0017501Y0232856D03*
D33*
X0017501Y0249626D03*
X0028031Y0203216D03*
X0028681Y0202956D03*
X0028811Y0202956D03*
X0029071Y0183846D03*
X0029071Y0134836D03*
X0028551Y0122746D03*
X0028421Y0122746D03*
X0028291Y0122616D03*
X0028161Y0122486D03*
X0028031Y0122486D03*
D34*
X0032581Y0087906D03*
X0023351Y0082576D03*
X0017631Y0082056D03*
X0017761Y0117806D03*
X0017761Y0156676D03*
X0021271Y0192296D03*
X0021401Y0192296D03*
X0017761Y0212576D03*
X0025041Y0213356D03*
X0035571Y0272636D03*
D35*
X0020621Y0077376D03*
X0017631Y0117806D03*
X0017631Y0156676D03*
X0021531Y0192296D03*
X0017631Y0212446D03*
X0027771Y0244946D03*
X0027771Y0262756D03*
X0017631Y0261456D03*
X0029981Y0183976D03*
X0029981Y0149006D03*
X0029981Y0135096D03*
X0032451Y0088166D03*
D36*
X0017631Y0134121D03*
X0018021Y0146731D03*
X0017631Y0183001D03*
X0028941Y0148941D03*
D37*
X0029721Y0149006D03*
X0022441Y0171496D03*
X0021271Y0178256D03*
X0021141Y0178256D03*
X0017631Y0146796D03*
X0020881Y0143546D03*
X0021141Y0143416D03*
X0021141Y0129376D03*
X0027771Y0104806D03*
X0029201Y0082966D03*
X0028941Y0082706D03*
X0024261Y0082056D03*
X0024001Y0082316D03*
X0023871Y0082446D03*
X0024131Y0228566D03*
X0021271Y0244946D03*
X0021141Y0244946D03*
D38*
X0025431Y0276146D03*
X0027641Y0276276D03*
X0034661Y0272636D03*
X0035181Y0251056D03*
X0017631Y0166946D03*
X0018151Y0133406D03*
D39*
X0018541Y0133146D03*
X0019061Y0146796D03*
X0017891Y0167076D03*
X0018541Y0182026D03*
X0017631Y0203086D03*
X0029981Y0168766D03*
X0018021Y0249626D03*
X0026081Y0276146D03*
X0026211Y0276146D03*
X0026341Y0276146D03*
X0026471Y0276146D03*
D40*
X0017631Y0232856D03*
D41*
X0017631Y0249496D03*
X0028291Y0183716D03*
X0028291Y0134836D03*
D42*
X0025171Y0143741D03*
X0025041Y0157521D03*
X0018671Y0192101D03*
X0018541Y0192101D03*
X0030371Y0202371D03*
X0032971Y0239031D03*
X0017631Y0275431D03*
X0025041Y0118651D03*
X0025171Y0104091D03*
X0020491Y0086931D03*
X0020491Y0077571D03*
X0029721Y0083031D03*
X0032581Y0078871D03*
D43*
X0020881Y0129506D03*
X0020751Y0129506D03*
X0020621Y0129636D03*
X0020621Y0143676D03*
X0020881Y0178386D03*
X0020751Y0178516D03*
X0024521Y0228826D03*
X0020751Y0245206D03*
X0017761Y0082056D03*
D44*
X0018671Y0082121D03*
X0017761Y0106041D03*
X0034271Y0083551D03*
X0030241Y0168831D03*
X0018151Y0182351D03*
D45*
X0017761Y0146731D03*
X0029461Y0148941D03*
X0029461Y0183911D03*
X0029721Y0202631D03*
X0025041Y0229411D03*
X0020231Y0245661D03*
D46*
X0017891Y0249561D03*
X0017761Y0167011D03*
D47*
X0020881Y0151671D03*
X0025431Y0144651D03*
X0026861Y0145301D03*
X0026861Y0152321D03*
X0026731Y0152321D03*
X0027121Y0138021D03*
X0025561Y0119561D03*
X0027121Y0113061D03*
X0025561Y0103311D03*
X0023351Y0089661D03*
X0023221Y0089661D03*
X0022831Y0089401D03*
X0022831Y0075621D03*
X0030111Y0076271D03*
X0030241Y0076271D03*
X0030371Y0076401D03*
X0030371Y0089921D03*
X0030111Y0090051D03*
X0021011Y0112671D03*
X0026991Y0180271D03*
X0027121Y0186901D03*
X0025561Y0205621D03*
X0017761Y0191971D03*
X0028681Y0239811D03*
X0031801Y0244621D03*
X0032061Y0244751D03*
X0032191Y0240071D03*
X0032061Y0256971D03*
X0028161Y0263471D03*
X0032191Y0277511D03*
X0021141Y0256061D03*
D48*
X0025301Y0231686D03*
X0017761Y0203086D03*
X0029851Y0168636D03*
X0034011Y0083486D03*
D49*
X0017891Y0232856D03*
X0017761Y0232856D03*
D50*
X0017761Y0261521D03*
X0017761Y0275431D03*
X0032971Y0246181D03*
X0021141Y0192231D03*
X0018931Y0192101D03*
X0018801Y0192101D03*
X0017891Y0156741D03*
X0024911Y0118521D03*
X0025041Y0104221D03*
X0020361Y0086671D03*
X0020361Y0077831D03*
X0025171Y0081471D03*
D51*
X0017891Y0082056D03*
X0027771Y0111176D03*
X0029721Y0123266D03*
X0020101Y0130156D03*
X0020101Y0179036D03*
X0029591Y0202696D03*
D52*
X0019191Y0192166D03*
X0019061Y0192166D03*
X0029851Y0149006D03*
X0018021Y0117806D03*
X0017891Y0117806D03*
X0027771Y0081666D03*
X0032711Y0079066D03*
X0017891Y0261456D03*
D53*
X0027771Y0203476D03*
X0029201Y0202826D03*
X0029201Y0183846D03*
X0029201Y0149006D03*
X0029201Y0134966D03*
X0029071Y0123006D03*
X0017891Y0146796D03*
D54*
X0020361Y0151216D03*
X0020491Y0151346D03*
X0025301Y0144456D03*
X0027381Y0137826D03*
X0027381Y0151996D03*
X0027511Y0186576D03*
X0017891Y0192036D03*
X0028161Y0239356D03*
X0028291Y0239486D03*
X0032581Y0239746D03*
X0032451Y0256646D03*
X0032581Y0277186D03*
X0027381Y0112866D03*
X0025431Y0103506D03*
X0022051Y0088816D03*
X0021921Y0088686D03*
X0021791Y0076206D03*
X0021921Y0076076D03*
X0031151Y0076986D03*
X0031281Y0077116D03*
X0031411Y0077246D03*
X0031281Y0089336D03*
X0031151Y0089466D03*
D55*
X0028941Y0108251D03*
X0019971Y0132431D03*
X0019841Y0132561D03*
X0019711Y0132561D03*
X0019581Y0132691D03*
X0019451Y0132691D03*
X0019321Y0132821D03*
X0019191Y0132821D03*
X0018411Y0167401D03*
X0023091Y0168571D03*
X0023221Y0168441D03*
X0024651Y0167271D03*
X0019971Y0181311D03*
X0019841Y0181441D03*
X0019581Y0181571D03*
X0019321Y0181701D03*
X0017891Y0203021D03*
X0029461Y0168441D03*
X0033751Y0272701D03*
D56*
X0027641Y0245076D03*
X0024911Y0213226D03*
X0021011Y0192296D03*
X0020881Y0192296D03*
X0018151Y0212576D03*
X0018021Y0212576D03*
X0017891Y0212576D03*
X0029851Y0183976D03*
X0024911Y0157326D03*
X0024781Y0157326D03*
X0024911Y0143546D03*
X0024911Y0104286D03*
X0029591Y0083096D03*
X0032711Y0087646D03*
X0025041Y0081536D03*
D57*
X0024911Y0081601D03*
X0024781Y0081731D03*
X0023481Y0082511D03*
X0027901Y0081731D03*
X0028031Y0081861D03*
X0023741Y0118261D03*
X0023611Y0118261D03*
X0024521Y0118391D03*
X0024651Y0118391D03*
X0024781Y0118391D03*
X0019321Y0117871D03*
X0018411Y0117871D03*
X0018281Y0117871D03*
X0018151Y0117871D03*
X0024261Y0143351D03*
X0024651Y0143481D03*
X0024781Y0143481D03*
X0023481Y0157131D03*
X0024391Y0157261D03*
X0024521Y0157261D03*
X0024651Y0157261D03*
X0022051Y0157001D03*
X0018931Y0156741D03*
X0018801Y0156741D03*
X0018671Y0156741D03*
X0018541Y0156741D03*
X0018411Y0156741D03*
X0018281Y0156741D03*
X0018151Y0156741D03*
X0018021Y0156741D03*
X0021141Y0171561D03*
X0021921Y0178061D03*
X0022051Y0178061D03*
X0022311Y0178061D03*
X0022441Y0178061D03*
X0020751Y0192231D03*
X0020621Y0192231D03*
X0020491Y0192231D03*
X0020361Y0192231D03*
X0019321Y0192101D03*
X0024001Y0213031D03*
X0024131Y0213031D03*
X0024261Y0213031D03*
X0024651Y0213161D03*
X0024781Y0213161D03*
X0023221Y0228111D03*
X0023091Y0228111D03*
X0022961Y0228111D03*
X0022831Y0228111D03*
X0023481Y0228241D03*
X0021791Y0227981D03*
X0027381Y0245141D03*
X0027511Y0245141D03*
X0027381Y0262301D03*
X0027251Y0262301D03*
X0027511Y0262431D03*
X0018021Y0275431D03*
X0017891Y0275431D03*
X0029851Y0135031D03*
D58*
X0028941Y0122941D03*
X0028811Y0122941D03*
X0028681Y0122811D03*
X0027901Y0122291D03*
X0018021Y0082121D03*
X0028941Y0202891D03*
X0029071Y0202891D03*
X0027901Y0203281D03*
X0035311Y0272571D03*
D59*
X0034271Y0272701D03*
X0026991Y0276211D03*
X0026861Y0276211D03*
X0026731Y0276211D03*
X0026601Y0276211D03*
X0025951Y0276211D03*
X0034921Y0234611D03*
X0025041Y0203801D03*
X0022701Y0168961D03*
X0025171Y0166751D03*
X0018411Y0133211D03*
X0018021Y0106301D03*
X0029331Y0108251D03*
X0034141Y0083551D03*
D60*
X0029721Y0108186D03*
X0018021Y0133536D03*
D61*
X0018671Y0133081D03*
X0018151Y0106431D03*
X0018931Y0082121D03*
X0029201Y0108251D03*
X0018021Y0167141D03*
X0018671Y0181961D03*
X0022831Y0168831D03*
X0034141Y0272701D03*
D62*
X0028031Y0239226D03*
X0018021Y0192036D03*
X0021531Y0088296D03*
X0031671Y0089076D03*
X0031801Y0077636D03*
D63*
X0019191Y0082186D03*
X0018541Y0106756D03*
X0019581Y0146796D03*
X0018541Y0167466D03*
X0019711Y0181506D03*
X0019451Y0181636D03*
X0024521Y0167466D03*
X0027771Y0167466D03*
X0029331Y0168376D03*
X0024781Y0203606D03*
X0018021Y0202956D03*
X0018281Y0249626D03*
X0033621Y0272766D03*
X0034791Y0251056D03*
X0034531Y0234676D03*
D64*
X0018151Y0232856D03*
X0018021Y0232856D03*
D65*
X0020101Y0227786D03*
X0020231Y0227786D03*
X0020491Y0227916D03*
X0020621Y0227916D03*
X0020751Y0227916D03*
X0020881Y0227916D03*
X0021011Y0227916D03*
X0021141Y0227916D03*
X0021271Y0227916D03*
X0021401Y0227916D03*
X0021531Y0227916D03*
X0021661Y0227916D03*
X0021921Y0228046D03*
X0022051Y0228046D03*
X0022181Y0228046D03*
X0022311Y0228046D03*
X0022441Y0228046D03*
X0022571Y0228046D03*
X0022701Y0228046D03*
X0023351Y0228176D03*
X0023611Y0228306D03*
X0023741Y0228306D03*
X0024391Y0213096D03*
X0024521Y0213096D03*
X0023871Y0212966D03*
X0023741Y0212966D03*
X0023611Y0212966D03*
X0023481Y0212966D03*
X0023351Y0212966D03*
X0023221Y0212966D03*
X0023091Y0212966D03*
X0022961Y0212966D03*
X0022831Y0212966D03*
X0022701Y0212836D03*
X0022571Y0212836D03*
X0022441Y0212836D03*
X0022311Y0212836D03*
X0022181Y0212836D03*
X0022051Y0212836D03*
X0021921Y0212836D03*
X0021791Y0212836D03*
X0021661Y0212836D03*
X0021531Y0212836D03*
X0021401Y0212836D03*
X0021271Y0212836D03*
X0021141Y0212706D03*
X0021011Y0212706D03*
X0020881Y0212706D03*
X0020751Y0212706D03*
X0020621Y0212706D03*
X0020491Y0212706D03*
X0020361Y0212706D03*
X0020231Y0212706D03*
X0020101Y0212706D03*
X0019971Y0212706D03*
X0019841Y0212706D03*
X0019711Y0212706D03*
X0019581Y0212576D03*
X0019451Y0212576D03*
X0019321Y0212576D03*
X0019191Y0212576D03*
X0019061Y0212576D03*
X0018931Y0212576D03*
X0018801Y0212576D03*
X0018671Y0212576D03*
X0018541Y0212576D03*
X0018411Y0212576D03*
X0018281Y0212576D03*
X0020101Y0206336D03*
X0020231Y0206336D03*
X0020361Y0206336D03*
X0020491Y0206336D03*
X0021011Y0206466D03*
X0021141Y0206466D03*
X0021271Y0206466D03*
X0021401Y0206466D03*
X0021531Y0206466D03*
X0021661Y0206466D03*
X0021791Y0206466D03*
X0021921Y0206466D03*
X0022051Y0206466D03*
X0022181Y0206466D03*
X0022441Y0206596D03*
X0020231Y0192166D03*
X0020101Y0192166D03*
X0019971Y0192166D03*
X0019841Y0192166D03*
X0019711Y0192166D03*
X0019581Y0192166D03*
X0019451Y0192166D03*
X0021661Y0178126D03*
X0021791Y0178126D03*
X0022181Y0177996D03*
X0022051Y0171626D03*
X0021921Y0171626D03*
X0021791Y0171626D03*
X0021661Y0171626D03*
X0021531Y0171626D03*
X0021401Y0171626D03*
X0021271Y0171626D03*
X0021011Y0171496D03*
X0020881Y0171496D03*
X0020751Y0171496D03*
X0020621Y0171496D03*
X0020361Y0171366D03*
X0022181Y0157066D03*
X0022311Y0157066D03*
X0022441Y0157066D03*
X0022571Y0157066D03*
X0022701Y0157066D03*
X0022831Y0157066D03*
X0022961Y0157066D03*
X0023091Y0157066D03*
X0023221Y0157066D03*
X0023351Y0157066D03*
X0023611Y0157196D03*
X0023741Y0157196D03*
X0023871Y0157196D03*
X0024001Y0157196D03*
X0024131Y0157196D03*
X0024261Y0157196D03*
X0021921Y0156936D03*
X0021791Y0156936D03*
X0021661Y0156936D03*
X0021531Y0156936D03*
X0021401Y0156936D03*
X0021271Y0156936D03*
X0021141Y0156936D03*
X0021011Y0156936D03*
X0020881Y0156936D03*
X0020751Y0156936D03*
X0020621Y0156936D03*
X0020491Y0156806D03*
X0020361Y0156806D03*
X0020231Y0156806D03*
X0020101Y0156806D03*
X0019971Y0156806D03*
X0019841Y0156806D03*
X0019711Y0156806D03*
X0019581Y0156806D03*
X0019451Y0156806D03*
X0019321Y0156806D03*
X0019191Y0156806D03*
X0019061Y0156806D03*
X0021661Y0143286D03*
X0021791Y0143286D03*
X0021921Y0143286D03*
X0022051Y0143286D03*
X0022571Y0143286D03*
X0022701Y0143286D03*
X0022831Y0143286D03*
X0022961Y0143286D03*
X0023091Y0143286D03*
X0023221Y0143286D03*
X0023351Y0143286D03*
X0023481Y0143286D03*
X0023611Y0143286D03*
X0023741Y0143286D03*
X0023871Y0143286D03*
X0024001Y0143286D03*
X0024131Y0143286D03*
X0024391Y0143416D03*
X0024521Y0143416D03*
X0021791Y0129246D03*
X0021661Y0129246D03*
X0021531Y0129246D03*
X0021921Y0129116D03*
X0022051Y0129116D03*
X0022181Y0129116D03*
X0022311Y0129116D03*
X0022441Y0129116D03*
X0023871Y0118326D03*
X0024001Y0118326D03*
X0024131Y0118326D03*
X0024261Y0118326D03*
X0024391Y0118326D03*
X0023481Y0118196D03*
X0023351Y0118196D03*
X0023221Y0118196D03*
X0023091Y0118196D03*
X0022961Y0118196D03*
X0022831Y0118196D03*
X0022701Y0118196D03*
X0022571Y0118196D03*
X0022441Y0118196D03*
X0022311Y0118066D03*
X0022181Y0118066D03*
X0022051Y0118066D03*
X0021921Y0118066D03*
X0021791Y0118066D03*
X0021661Y0118066D03*
X0021531Y0118066D03*
X0021401Y0118066D03*
X0021271Y0118066D03*
X0021141Y0118066D03*
X0021011Y0118066D03*
X0020751Y0117936D03*
X0020621Y0117936D03*
X0020491Y0117936D03*
X0020361Y0117936D03*
X0020231Y0117936D03*
X0020101Y0117936D03*
X0019971Y0117936D03*
X0019841Y0117936D03*
X0019711Y0117936D03*
X0019581Y0117936D03*
X0019451Y0117936D03*
X0019191Y0117806D03*
X0019061Y0117806D03*
X0018931Y0117806D03*
X0018801Y0117806D03*
X0018671Y0117806D03*
X0018541Y0117806D03*
X0020361Y0104026D03*
X0020491Y0104026D03*
X0020621Y0104026D03*
X0020751Y0104026D03*
X0020881Y0104026D03*
X0021011Y0104026D03*
X0021141Y0104026D03*
X0021271Y0104026D03*
X0021401Y0104026D03*
X0021531Y0104026D03*
X0021921Y0104156D03*
X0022051Y0104156D03*
X0022181Y0104156D03*
X0022311Y0104156D03*
X0022441Y0104156D03*
X0022571Y0104156D03*
X0022701Y0104156D03*
X0022831Y0104156D03*
X0022961Y0104156D03*
X0023351Y0104286D03*
X0023481Y0104286D03*
X0023611Y0104286D03*
X0023741Y0104286D03*
X0023871Y0104286D03*
X0024001Y0104286D03*
X0024131Y0104286D03*
X0024261Y0104286D03*
X0024391Y0104286D03*
X0024521Y0104286D03*
X0024651Y0104286D03*
X0024781Y0104286D03*
X0030241Y0123526D03*
X0035311Y0083616D03*
X0032841Y0079456D03*
X0029461Y0083096D03*
X0028421Y0082186D03*
X0028291Y0082056D03*
X0028161Y0081926D03*
X0024651Y0081796D03*
X0020231Y0078156D03*
X0030241Y0202436D03*
X0025951Y0245076D03*
X0025821Y0245076D03*
X0025691Y0245076D03*
X0025561Y0245076D03*
X0025431Y0245076D03*
X0025301Y0245076D03*
X0025171Y0245076D03*
X0025041Y0245076D03*
X0024911Y0245076D03*
X0024781Y0245076D03*
X0024521Y0244946D03*
X0024391Y0244946D03*
X0024261Y0244946D03*
X0024131Y0244946D03*
X0024001Y0244946D03*
X0023871Y0244946D03*
X0023741Y0244946D03*
X0023611Y0244946D03*
X0023481Y0244946D03*
X0023351Y0244946D03*
X0023221Y0244946D03*
X0022961Y0244816D03*
X0022831Y0244816D03*
X0022701Y0244816D03*
X0022571Y0244816D03*
X0022441Y0244816D03*
X0022311Y0244816D03*
X0022181Y0244816D03*
X0022051Y0244816D03*
X0021921Y0244816D03*
X0021791Y0244816D03*
X0021661Y0244816D03*
X0026341Y0245206D03*
X0026471Y0245206D03*
X0026601Y0245206D03*
X0026731Y0245206D03*
X0026861Y0245206D03*
X0026991Y0245206D03*
X0027121Y0245206D03*
X0027251Y0245206D03*
X0025821Y0262106D03*
X0025691Y0262106D03*
X0025561Y0262106D03*
X0025431Y0262106D03*
X0025301Y0262106D03*
X0025171Y0262106D03*
X0025041Y0262106D03*
X0024911Y0262106D03*
X0024781Y0262106D03*
X0024391Y0261976D03*
X0024261Y0261976D03*
X0024131Y0261976D03*
X0024001Y0261976D03*
X0023871Y0261976D03*
X0023741Y0261976D03*
X0023611Y0261976D03*
X0023481Y0261976D03*
X0023351Y0261976D03*
X0023221Y0261976D03*
X0022831Y0261846D03*
X0022701Y0261846D03*
X0022571Y0261846D03*
X0022441Y0261846D03*
X0022311Y0261846D03*
X0022181Y0261846D03*
X0022051Y0261846D03*
X0021921Y0261846D03*
X0021791Y0261846D03*
X0021401Y0261716D03*
X0021271Y0261716D03*
X0021141Y0261716D03*
X0021011Y0261716D03*
X0020881Y0261716D03*
X0020751Y0261716D03*
X0020621Y0261716D03*
X0020491Y0261716D03*
X0020361Y0261716D03*
X0020231Y0261716D03*
X0019841Y0261586D03*
X0019711Y0261586D03*
X0019581Y0261586D03*
X0019451Y0261586D03*
X0019321Y0261586D03*
X0019191Y0261586D03*
X0019061Y0261586D03*
X0018931Y0261586D03*
X0018801Y0261586D03*
X0018411Y0261456D03*
X0018281Y0261456D03*
X0018151Y0261456D03*
X0018021Y0261456D03*
X0018151Y0275496D03*
X0018281Y0275496D03*
X0018411Y0275496D03*
X0018541Y0275496D03*
X0018671Y0275496D03*
X0018801Y0275496D03*
X0018931Y0275496D03*
X0019061Y0275496D03*
X0019321Y0275626D03*
X0019451Y0275626D03*
X0019581Y0275626D03*
X0019711Y0275626D03*
X0019841Y0275626D03*
X0019971Y0275626D03*
X0020101Y0275626D03*
X0020231Y0275626D03*
X0020361Y0275626D03*
X0020751Y0275756D03*
X0020881Y0275756D03*
X0021011Y0275756D03*
X0021141Y0275756D03*
X0021271Y0275756D03*
X0021401Y0275756D03*
X0021531Y0275756D03*
X0021661Y0275756D03*
X0021791Y0275756D03*
X0022181Y0275886D03*
X0022311Y0275886D03*
X0022441Y0275886D03*
X0022571Y0275886D03*
X0022701Y0275886D03*
X0022831Y0275886D03*
X0022961Y0275886D03*
X0023091Y0275886D03*
X0023221Y0275886D03*
X0023611Y0276016D03*
X0023741Y0276016D03*
X0023871Y0276016D03*
X0024001Y0276016D03*
X0024131Y0276016D03*
X0024261Y0276016D03*
X0024391Y0276016D03*
X0024521Y0276016D03*
X0026211Y0262236D03*
X0026341Y0262236D03*
X0026471Y0262236D03*
X0026601Y0262236D03*
X0026731Y0262236D03*
X0026861Y0262236D03*
X0026991Y0262236D03*
X0027121Y0262236D03*
D66*
X0032971Y0254176D03*
X0035181Y0272636D03*
X0028811Y0183716D03*
X0028811Y0134836D03*
X0030111Y0107926D03*
X0018151Y0082056D03*
D67*
X0018151Y0146731D03*
D68*
X0018931Y0132951D03*
X0018281Y0106561D03*
X0029071Y0108251D03*
X0018151Y0167271D03*
X0022961Y0168701D03*
X0029721Y0168571D03*
X0024911Y0203671D03*
X0034011Y0272701D03*
D69*
X0025561Y0232401D03*
X0018411Y0249691D03*
X0024521Y0203411D03*
X0018151Y0202891D03*
X0019711Y0168051D03*
X0019581Y0167921D03*
X0019321Y0167791D03*
X0019061Y0167661D03*
X0018931Y0167661D03*
X0019841Y0146861D03*
X0019971Y0146861D03*
X0027901Y0167661D03*
X0028031Y0167791D03*
X0028291Y0167921D03*
X0028551Y0168051D03*
X0028811Y0168181D03*
X0028551Y0108251D03*
X0019061Y0107081D03*
X0019321Y0082251D03*
D70*
X0019061Y0082186D03*
X0018411Y0106626D03*
X0019061Y0132886D03*
X0019451Y0146796D03*
X0018281Y0167336D03*
X0019061Y0181766D03*
X0019191Y0181766D03*
X0024781Y0167206D03*
X0029591Y0168506D03*
X0034661Y0234676D03*
X0027771Y0235456D03*
X0018151Y0249626D03*
X0033881Y0272766D03*
X0033881Y0083486D03*
D71*
X0020751Y0087386D03*
X0018281Y0192036D03*
D72*
X0018281Y0202826D03*
X0024391Y0203346D03*
X0027381Y0234676D03*
X0034271Y0234676D03*
X0034531Y0251056D03*
X0033231Y0272766D03*
X0033101Y0272766D03*
X0028681Y0168116D03*
X0028421Y0167986D03*
X0028161Y0167856D03*
X0019451Y0167856D03*
X0019191Y0167726D03*
X0019191Y0107146D03*
X0033621Y0083486D03*
D73*
X0018801Y0232921D03*
X0018671Y0232921D03*
X0018541Y0232921D03*
X0018411Y0232921D03*
X0018281Y0232921D03*
D74*
X0034921Y0272636D03*
X0028161Y0148876D03*
X0028031Y0134836D03*
X0018411Y0082186D03*
D75*
X0022571Y0169156D03*
X0018411Y0182156D03*
X0030111Y0168766D03*
X0035051Y0251056D03*
D76*
X0021661Y0192361D03*
X0018411Y0192101D03*
X0030371Y0123721D03*
X0032321Y0088361D03*
X0032451Y0078611D03*
X0023221Y0082511D03*
D77*
X0019451Y0082251D03*
X0019321Y0107211D03*
X0028291Y0108251D03*
X0028421Y0108251D03*
X0018411Y0202761D03*
X0024261Y0203281D03*
X0025691Y0232531D03*
D78*
X0034791Y0272701D03*
X0025301Y0276081D03*
X0030371Y0168961D03*
X0018541Y0146731D03*
X0018541Y0082121D03*
D79*
X0028161Y0108251D03*
X0022571Y0181571D03*
X0018541Y0202761D03*
X0024001Y0203151D03*
X0025951Y0232921D03*
X0026991Y0234221D03*
X0027121Y0234351D03*
D80*
X0027251Y0234546D03*
X0025821Y0232726D03*
X0034141Y0234676D03*
X0024131Y0203216D03*
X0018541Y0249626D03*
X0019451Y0107276D03*
D81*
X0020101Y0103961D03*
X0020231Y0103961D03*
X0021661Y0104091D03*
X0021791Y0104091D03*
X0023091Y0104221D03*
X0023221Y0104221D03*
X0020881Y0118001D03*
X0021271Y0129311D03*
X0021401Y0129311D03*
X0022181Y0143221D03*
X0022311Y0143221D03*
X0022441Y0143221D03*
X0021531Y0143351D03*
X0021401Y0143351D03*
X0021271Y0143351D03*
X0020231Y0171301D03*
X0020491Y0171431D03*
X0022181Y0171561D03*
X0022311Y0171561D03*
X0021531Y0178191D03*
X0021401Y0178191D03*
X0020881Y0206401D03*
X0020751Y0206401D03*
X0020621Y0206401D03*
X0022311Y0206531D03*
X0020361Y0227851D03*
X0023871Y0228371D03*
X0024001Y0228501D03*
X0023091Y0244881D03*
X0021531Y0244881D03*
X0021401Y0244881D03*
X0024651Y0245011D03*
X0026081Y0245141D03*
X0026211Y0245141D03*
X0024651Y0262041D03*
X0024521Y0262041D03*
X0023091Y0261911D03*
X0022961Y0261911D03*
X0021661Y0261781D03*
X0021531Y0261781D03*
X0020101Y0261651D03*
X0019971Y0261651D03*
X0018671Y0261521D03*
X0018541Y0261521D03*
X0019191Y0275561D03*
X0020491Y0275691D03*
X0020621Y0275691D03*
X0021921Y0275821D03*
X0022051Y0275821D03*
X0023351Y0275951D03*
X0023481Y0275951D03*
X0024651Y0276081D03*
X0024781Y0276081D03*
X0024911Y0276081D03*
X0025041Y0276081D03*
X0025951Y0262171D03*
X0026081Y0262171D03*
X0020231Y0086411D03*
X0023611Y0082511D03*
X0024391Y0081991D03*
X0024521Y0081861D03*
X0028551Y0082251D03*
X0028681Y0082381D03*
X0028811Y0082511D03*
X0029331Y0083031D03*
D82*
X0033751Y0083551D03*
X0028811Y0108251D03*
X0018671Y0106821D03*
X0018671Y0167531D03*
X0024391Y0167531D03*
X0024651Y0203541D03*
X0025431Y0232141D03*
X0027641Y0235131D03*
D83*
X0018671Y0146731D03*
D84*
X0022571Y0132626D03*
X0028031Y0108186D03*
X0033361Y0083486D03*
X0019581Y0082186D03*
X0019711Y0107406D03*
X0018801Y0202696D03*
X0018671Y0202696D03*
X0023871Y0203086D03*
X0026081Y0233116D03*
X0026211Y0233246D03*
X0026731Y0233896D03*
X0026861Y0234026D03*
X0033881Y0234676D03*
X0034011Y0234676D03*
D85*
X0034401Y0250991D03*
X0018671Y0249691D03*
X0019581Y0107341D03*
D86*
X0018801Y0082186D03*
X0029461Y0108186D03*
X0018931Y0146796D03*
X0025171Y0231426D03*
X0034401Y0272636D03*
X0027251Y0276276D03*
X0027121Y0276276D03*
X0025821Y0276146D03*
X0025691Y0276146D03*
D87*
X0027511Y0234936D03*
X0034401Y0234676D03*
X0029071Y0168246D03*
X0028941Y0168246D03*
X0024131Y0167726D03*
X0023871Y0167986D03*
X0023741Y0167986D03*
X0023481Y0168246D03*
X0019971Y0168246D03*
X0018801Y0167596D03*
X0018801Y0106886D03*
D88*
X0018801Y0133016D03*
X0019191Y0146796D03*
X0019321Y0146796D03*
X0024911Y0167076D03*
X0025041Y0166946D03*
X0018801Y0181896D03*
X0034791Y0234676D03*
X0034921Y0251056D03*
D89*
X0035051Y0234676D03*
X0034531Y0272636D03*
X0027511Y0276276D03*
X0025561Y0276146D03*
X0018801Y0146796D03*
X0029591Y0108186D03*
D90*
X0027901Y0108251D03*
X0025171Y0133601D03*
X0019971Y0107471D03*
X0019841Y0107471D03*
X0025171Y0182481D03*
X0023741Y0203021D03*
X0018931Y0202631D03*
X0026341Y0233441D03*
X0026471Y0233571D03*
X0026601Y0233701D03*
X0018801Y0249691D03*
X0034271Y0250991D03*
D91*
X0034661Y0251056D03*
X0033491Y0272766D03*
X0033361Y0272766D03*
X0023611Y0168116D03*
X0024001Y0167856D03*
X0019841Y0168116D03*
X0028681Y0108316D03*
X0018931Y0107016D03*
D92*
X0018931Y0181831D03*
D93*
X0018931Y0232986D03*
X0019061Y0232986D03*
X0019191Y0232986D03*
X0019321Y0232986D03*
X0019451Y0232986D03*
X0019581Y0232986D03*
X0019711Y0232986D03*
X0019841Y0232986D03*
X0019971Y0232986D03*
D94*
X0018931Y0249691D03*
X0023221Y0202891D03*
X0023351Y0202891D03*
X0019191Y0202631D03*
X0019061Y0202631D03*
X0022831Y0181831D03*
X0025041Y0182351D03*
X0025041Y0133471D03*
X0022701Y0132821D03*
X0033621Y0234741D03*
X0034141Y0250991D03*
D95*
X0034011Y0250991D03*
X0033361Y0234741D03*
X0033231Y0234741D03*
X0022831Y0202761D03*
X0022701Y0202761D03*
X0022571Y0202761D03*
X0019971Y0202501D03*
X0019841Y0202501D03*
X0019711Y0202501D03*
X0023221Y0181961D03*
X0023351Y0181961D03*
X0023481Y0181961D03*
X0024001Y0182091D03*
X0024651Y0182221D03*
X0024781Y0182221D03*
X0024781Y0133341D03*
X0024651Y0133341D03*
X0024261Y0133211D03*
X0024131Y0133211D03*
X0023481Y0133081D03*
X0023351Y0133081D03*
X0023221Y0133081D03*
X0019061Y0249691D03*
D96*
X0019191Y0249691D03*
X0033101Y0234741D03*
X0033881Y0250991D03*
D97*
X0019581Y0202566D03*
X0019451Y0202566D03*
X0019321Y0202566D03*
X0024911Y0133406D03*
X0023091Y0133016D03*
X0022961Y0133016D03*
D98*
X0019321Y0249691D03*
X0033751Y0250991D03*
D99*
X0033621Y0250926D03*
X0019451Y0249756D03*
D100*
X0019581Y0249756D03*
D101*
X0023481Y0202956D03*
X0023611Y0202956D03*
X0022701Y0181766D03*
X0033751Y0234676D03*
X0033231Y0083486D03*
X0019711Y0082186D03*
D102*
X0019711Y0146861D03*
X0024261Y0167661D03*
X0023351Y0168311D03*
X0029201Y0168311D03*
D103*
X0024911Y0182286D03*
X0023091Y0181896D03*
X0022961Y0181896D03*
X0022961Y0202826D03*
X0023091Y0202826D03*
X0033491Y0234676D03*
X0022831Y0132886D03*
X0033101Y0083486D03*
X0019841Y0082186D03*
D104*
X0019971Y0082186D03*
X0032971Y0083486D03*
X0024001Y0133146D03*
X0023871Y0133146D03*
X0023741Y0133146D03*
X0023611Y0133146D03*
X0024391Y0133276D03*
X0024521Y0133276D03*
X0023871Y0182026D03*
X0023741Y0182026D03*
X0023611Y0182026D03*
X0024131Y0182156D03*
X0024261Y0182156D03*
X0024391Y0182156D03*
X0024521Y0182156D03*
D105*
X0019971Y0249756D03*
D106*
X0020491Y0245466D03*
X0024781Y0229086D03*
X0029981Y0202566D03*
X0020491Y0178646D03*
X0029591Y0149006D03*
X0029591Y0134966D03*
X0029981Y0123396D03*
X0020361Y0143936D03*
X0020101Y0085826D03*
X0020101Y0078676D03*
D107*
X0030241Y0107796D03*
X0035051Y0083616D03*
X0029331Y0134966D03*
X0020101Y0144326D03*
X0029331Y0183846D03*
X0029461Y0202696D03*
D108*
X0020101Y0171236D03*
X0032841Y0087386D03*
X0029071Y0082836D03*
X0024131Y0082186D03*
D109*
X0025691Y0080366D03*
X0024131Y0075166D03*
X0023741Y0075296D03*
X0023611Y0075296D03*
X0023481Y0075296D03*
X0023351Y0075426D03*
X0023221Y0075426D03*
X0022831Y0082446D03*
X0023481Y0089726D03*
X0023611Y0089856D03*
X0023741Y0089856D03*
X0024261Y0090116D03*
X0027381Y0080496D03*
X0027121Y0080366D03*
X0029331Y0075816D03*
X0029461Y0075816D03*
X0029591Y0075946D03*
X0029721Y0075946D03*
X0029851Y0076076D03*
X0029981Y0090116D03*
X0029721Y0090246D03*
X0029591Y0090246D03*
X0029331Y0090376D03*
X0029201Y0090376D03*
X0027511Y0103376D03*
X0025691Y0103246D03*
X0026991Y0113126D03*
X0026731Y0113256D03*
X0026601Y0113256D03*
X0025691Y0119626D03*
X0025431Y0130546D03*
X0026731Y0131196D03*
X0026861Y0131326D03*
X0026861Y0138216D03*
X0026731Y0138216D03*
X0025561Y0144716D03*
X0025821Y0144846D03*
X0025951Y0144846D03*
X0026211Y0144976D03*
X0026471Y0145106D03*
X0026601Y0145106D03*
X0026991Y0145366D03*
X0025561Y0158496D03*
X0025301Y0163046D03*
X0021531Y0151996D03*
X0021271Y0151866D03*
X0021141Y0151866D03*
X0025431Y0179426D03*
X0025561Y0179556D03*
X0026861Y0180206D03*
X0026861Y0187096D03*
X0026731Y0187096D03*
X0022311Y0192426D03*
X0020101Y0197496D03*
X0025561Y0214266D03*
X0027641Y0205556D03*
X0032711Y0229476D03*
X0032841Y0229606D03*
X0031931Y0240266D03*
X0031801Y0240266D03*
X0031411Y0244426D03*
X0031281Y0244426D03*
X0031671Y0244556D03*
X0029071Y0240006D03*
X0028941Y0240006D03*
X0028161Y0244166D03*
X0021271Y0256126D03*
X0031801Y0277706D03*
X0031931Y0277576D03*
X0032061Y0277576D03*
X0032841Y0268346D03*
X0032711Y0268216D03*
X0021271Y0112866D03*
X0035571Y0083616D03*
D110*
X0031671Y0077506D03*
X0021401Y0088166D03*
X0020231Y0111956D03*
X0020231Y0150956D03*
X0027511Y0180856D03*
X0032711Y0239616D03*
X0032711Y0245466D03*
X0020231Y0255216D03*
D111*
X0035441Y0272636D03*
X0020231Y0129896D03*
D112*
X0020231Y0144066D03*
X0029461Y0134966D03*
X0035181Y0083616D03*
D113*
X0029851Y0123331D03*
X0020361Y0129831D03*
X0020231Y0178841D03*
X0029851Y0202631D03*
X0024911Y0229281D03*
X0020361Y0245531D03*
D114*
X0035571Y0234611D03*
X0020361Y0178711D03*
D115*
X0022051Y0192361D03*
X0027381Y0180661D03*
X0027511Y0131911D03*
X0022961Y0082511D03*
X0020361Y0255411D03*
D116*
X0020491Y0255541D03*
X0020621Y0255671D03*
X0028031Y0263341D03*
X0032451Y0277251D03*
X0032971Y0268541D03*
X0032451Y0245141D03*
X0032451Y0239941D03*
X0032971Y0229801D03*
X0028421Y0239551D03*
X0028031Y0244361D03*
X0025431Y0205751D03*
X0022181Y0192361D03*
X0025301Y0179231D03*
X0027251Y0180531D03*
X0027381Y0186771D03*
X0030241Y0184041D03*
X0027251Y0152061D03*
X0027381Y0145691D03*
X0027251Y0145561D03*
X0027251Y0131651D03*
X0025301Y0130351D03*
X0025431Y0119431D03*
X0020621Y0112411D03*
X0020491Y0112281D03*
X0022441Y0089141D03*
X0022311Y0089011D03*
X0022181Y0088881D03*
X0022181Y0076011D03*
X0022051Y0076011D03*
X0022311Y0075881D03*
X0027641Y0080821D03*
X0030111Y0083031D03*
X0031021Y0076921D03*
X0030891Y0076791D03*
X0030761Y0076661D03*
X0031021Y0089531D03*
X0030891Y0089661D03*
X0030761Y0089661D03*
X0030631Y0089791D03*
D117*
X0020491Y0129701D03*
X0020491Y0143741D03*
X0020621Y0178581D03*
X0029591Y0183911D03*
X0024651Y0229021D03*
X0020621Y0245271D03*
D118*
X0020621Y0087191D03*
X0035441Y0083681D03*
D119*
X0030371Y0107601D03*
X0030111Y0123461D03*
X0020751Y0143611D03*
X0021011Y0178321D03*
X0029721Y0183911D03*
X0030111Y0202501D03*
X0024391Y0228761D03*
X0021011Y0245011D03*
X0023741Y0082511D03*
D120*
X0021011Y0129441D03*
X0021011Y0143481D03*
X0029721Y0135031D03*
X0024261Y0228631D03*
X0020881Y0245141D03*
D121*
X0028291Y0263536D03*
X0031801Y0257036D03*
X0031931Y0257036D03*
X0031931Y0244686D03*
X0032061Y0240136D03*
X0029201Y0240136D03*
X0026601Y0152386D03*
X0026471Y0152386D03*
X0026731Y0145236D03*
X0026991Y0138086D03*
X0021011Y0151736D03*
X0021141Y0112736D03*
X0023871Y0089986D03*
X0024001Y0089986D03*
X0029201Y0075686D03*
D122*
X0029981Y0076141D03*
X0029851Y0090181D03*
X0027641Y0103441D03*
X0026861Y0113191D03*
X0027641Y0120081D03*
X0026991Y0131391D03*
X0027121Y0145431D03*
X0026991Y0152191D03*
X0026991Y0187031D03*
X0022441Y0197691D03*
X0028811Y0239941D03*
X0032191Y0244881D03*
X0021011Y0255931D03*
X0023091Y0089531D03*
X0025561Y0080431D03*
X0023091Y0075491D03*
X0022961Y0075491D03*
D123*
X0021401Y0076531D03*
X0021271Y0076661D03*
X0021141Y0076791D03*
X0021271Y0088101D03*
X0027511Y0112671D03*
X0031801Y0088881D03*
X0029981Y0083031D03*
X0031931Y0077831D03*
X0027641Y0137501D03*
X0027641Y0146081D03*
X0027641Y0186381D03*
X0025301Y0206011D03*
X0021921Y0192361D03*
X0027901Y0263081D03*
X0032841Y0276861D03*
D124*
X0031151Y0267956D03*
X0031021Y0267956D03*
X0030891Y0267956D03*
X0035181Y0264316D03*
X0031021Y0229216D03*
X0035051Y0215306D03*
X0035051Y0159406D03*
X0034921Y0159406D03*
X0029981Y0159016D03*
X0025561Y0152516D03*
X0025431Y0152516D03*
X0022311Y0152256D03*
D125*
X0022441Y0152321D03*
X0025301Y0152581D03*
X0035181Y0159471D03*
X0035181Y0215241D03*
X0030891Y0229281D03*
D126*
X0033621Y0215176D03*
X0029981Y0214786D03*
X0022441Y0192426D03*
X0033491Y0159276D03*
X0033621Y0159276D03*
X0022831Y0239746D03*
X0022701Y0239746D03*
X0022571Y0239746D03*
D127*
X0030501Y0201136D03*
X0022571Y0082446D03*
D128*
X0022701Y0082446D03*
X0030371Y0135096D03*
X0030371Y0149006D03*
X0030111Y0159016D03*
X0033361Y0159276D03*
X0030371Y0183976D03*
X0025171Y0152516D03*
X0022571Y0152256D03*
X0030111Y0214786D03*
X0033361Y0215176D03*
X0035311Y0215306D03*
X0030761Y0229216D03*
X0022961Y0239746D03*
X0030761Y0267956D03*
X0035311Y0264316D03*
D129*
X0030631Y0267956D03*
X0023091Y0239746D03*
X0030631Y0229216D03*
X0035441Y0215306D03*
X0033231Y0159276D03*
X0025041Y0152516D03*
X0030371Y0083096D03*
D130*
X0024911Y0152451D03*
X0033101Y0159211D03*
X0033101Y0215111D03*
X0023221Y0239811D03*
X0030501Y0267891D03*
D131*
X0027641Y0262561D03*
X0025041Y0143611D03*
D132*
X0025171Y0203801D03*
X0034401Y0083551D03*
D133*
X0025301Y0083291D03*
X0030501Y0124891D03*
D134*
X0025431Y0083421D03*
D135*
X0027511Y0083681D03*
D136*
X0027771Y0122161D03*
X0029201Y0123071D03*
X0029331Y0202761D03*
X0032971Y0275301D03*
D137*
X0028031Y0183716D03*
D138*
X0028161Y0183651D03*
X0028291Y0148941D03*
X0028161Y0134771D03*
D139*
X0029071Y0148941D03*
X0028551Y0203021D03*
X0028421Y0203021D03*
X0028291Y0203151D03*
X0028161Y0203151D03*
D140*
X0028421Y0183716D03*
X0028551Y0183716D03*
X0028551Y0148876D03*
X0028551Y0134836D03*
X0029981Y0108056D03*
X0035051Y0272636D03*
D141*
X0035441Y0251186D03*
X0028681Y0134836D03*
D142*
X0028681Y0148876D03*
X0028681Y0183716D03*
X0034791Y0083616D03*
D143*
X0028811Y0148941D03*
X0035441Y0234611D03*
D144*
X0028941Y0134836D03*
D145*
X0028941Y0183716D03*
X0034921Y0083616D03*
D146*
X0029461Y0123136D03*
X0029331Y0123136D03*
X0035571Y0251186D03*
D147*
X0030241Y0159081D03*
D148*
X0032971Y0159276D03*
X0032971Y0215046D03*
X0030371Y0229216D03*
D149*
X0033101Y0250991D03*
D150*
X0033231Y0250926D03*
D151*
X0033361Y0250991D03*
D152*
X0033491Y0083486D03*
D153*
X0033491Y0250991D03*
D154*
X0035311Y0234611D03*
D155*
X0035571Y0215306D03*
D156*
X0046499Y0189667D02*
X0046133Y0189301D01*
X0046133Y0188934D01*
X0046499Y0188567D01*
X0046133Y0188200D01*
X0046133Y0187833D01*
X0046499Y0187466D01*
X0047233Y0187466D01*
X0047600Y0187833D01*
X0046866Y0188567D02*
X0046499Y0188567D01*
X0046499Y0189667D02*
X0047233Y0189667D01*
X0047600Y0189301D01*
X0048895Y0187466D02*
X0050363Y0187466D01*
X0049629Y0187466D02*
X0049629Y0189667D01*
X0050363Y0188934D01*
X0051657Y0189301D02*
X0052024Y0189667D01*
X0052758Y0189667D01*
X0053125Y0189301D01*
X0053125Y0187833D01*
X0052758Y0187466D01*
X0052024Y0187466D01*
X0051657Y0187833D01*
X0051657Y0189301D01*
X0051403Y0196766D02*
X0051036Y0197133D01*
X0051036Y0198601D01*
X0051403Y0198967D01*
X0052504Y0198967D01*
X0052504Y0196766D01*
X0051403Y0196766D01*
X0053799Y0196766D02*
X0055267Y0196766D01*
X0055267Y0198967D01*
X0056561Y0198967D02*
X0058029Y0198967D01*
X0057295Y0198967D02*
X0057295Y0196766D01*
X0059323Y0197133D02*
X0059690Y0196766D01*
X0060791Y0196766D01*
X0060791Y0198967D01*
X0059690Y0198967D01*
X0059323Y0198601D01*
X0059323Y0198234D01*
X0059690Y0197867D01*
X0060791Y0197867D01*
X0059690Y0197867D02*
X0059323Y0197500D01*
X0059323Y0197133D01*
X0059390Y0189667D02*
X0059023Y0189301D01*
X0059390Y0189667D02*
X0060124Y0189667D01*
X0060491Y0189301D01*
X0060491Y0187833D01*
X0060124Y0187466D01*
X0059390Y0187466D01*
X0059023Y0187833D01*
X0059023Y0188567D01*
X0059757Y0188567D01*
X0057729Y0188200D02*
X0056628Y0188200D01*
X0056261Y0188567D01*
X0056261Y0189301D01*
X0056628Y0189667D01*
X0057729Y0189667D01*
X0057729Y0187466D01*
X0057795Y0179267D02*
X0057061Y0178534D01*
X0057061Y0177066D01*
X0057061Y0178167D02*
X0058529Y0178167D01*
X0058529Y0178534D02*
X0057795Y0179267D01*
X0058529Y0178534D02*
X0058529Y0177066D01*
X0059823Y0177066D02*
X0059823Y0179267D01*
X0060557Y0177800D02*
X0059823Y0177066D01*
X0060557Y0177800D02*
X0061291Y0177066D01*
X0061291Y0179267D01*
X0059787Y0170361D02*
X0059787Y0168893D01*
X0059054Y0169627D02*
X0060521Y0169627D01*
X0057759Y0170361D02*
X0057392Y0170727D01*
X0056658Y0170727D01*
X0056291Y0170361D01*
X0056291Y0169994D01*
X0056658Y0169627D01*
X0056291Y0169260D01*
X0056291Y0168893D01*
X0056658Y0168526D01*
X0057392Y0168526D01*
X0057759Y0168893D01*
X0057025Y0169627D02*
X0056658Y0169627D01*
X0055767Y0177066D02*
X0055767Y0179267D01*
X0055400Y0178167D02*
X0054299Y0177066D01*
X0055767Y0177800D02*
X0054299Y0179267D01*
X0053004Y0179267D02*
X0053004Y0177066D01*
X0051536Y0177066D01*
X0052270Y0178167D02*
X0053004Y0178167D01*
X0053004Y0179267D02*
X0051536Y0179267D01*
X0054233Y0187466D02*
X0054967Y0187466D01*
X0054600Y0187466D02*
X0054600Y0189667D01*
X0054967Y0189667D02*
X0054233Y0189667D01*
X0056561Y0207166D02*
X0058029Y0209367D01*
X0059323Y0209001D02*
X0059323Y0208267D01*
X0059690Y0207900D01*
X0060791Y0207900D01*
X0060057Y0207900D02*
X0059323Y0207166D01*
X0058029Y0207166D02*
X0056561Y0209367D01*
X0057261Y0217366D02*
X0058729Y0219567D01*
X0060023Y0219567D02*
X0061491Y0219567D01*
X0060757Y0219567D02*
X0060757Y0217366D01*
X0058729Y0217366D02*
X0057261Y0219567D01*
X0057591Y0227256D02*
X0057591Y0229458D01*
X0056297Y0229458D02*
X0056297Y0227256D01*
X0055196Y0227256D01*
X0054829Y0227623D01*
X0054829Y0229091D01*
X0055196Y0229458D01*
X0056297Y0229458D01*
X0057591Y0227256D02*
X0059059Y0229458D01*
X0059059Y0227256D01*
X0060354Y0227623D02*
X0060354Y0228357D01*
X0061087Y0228357D01*
X0060354Y0229091D02*
X0060720Y0229458D01*
X0061454Y0229458D01*
X0061821Y0229091D01*
X0061821Y0227623D01*
X0061454Y0227256D01*
X0060720Y0227256D01*
X0060354Y0227623D01*
X0060791Y0209367D02*
X0059690Y0209367D01*
X0059323Y0209001D01*
X0060791Y0209367D02*
X0060791Y0207166D01*
M02*
