%
M48
M72
T01C0.0140
T02C0.0150
T03C0.0400
T04C0.0591
T05C0.1300
T06C0.1969
%
T01
X2590Y8348
X2126Y11489
X1506Y12879
X1079Y10261
X2376Y15069
X2766Y15129
X3156Y17089
X3566Y15769
X3656Y19049
X4436Y15855
X4836Y14739
X5143Y16859
X4986Y19199
X6266Y14909
X6998Y15055
X6158Y11545
X5418Y12225
X6098Y7695
X3256Y12559
X2496Y17319
X1707Y16249
X1726Y20679
X2116Y22249
X2456Y22548
X1749Y24946
X1406Y22609
X926Y21859
X1266Y20739
X2446Y26749
X2922Y28504
X3046Y27209
X1746Y28099
X4706Y26049
X5846Y25719
X6286Y26519
X6146Y27489
X6836Y24039
T02
X7026Y23639
X6636Y23639
X5666Y26439
X1866Y26729
X896Y19109
T03
X6646Y18859
X6646Y19859
X6646Y20859
X6646Y21859
X6646Y22859
X6646Y17859
X6646Y16859
T04
X4016Y8007
T05
X4016Y29937
T06
X3993Y20301
M30
