G75*
%MOIN*%
%OFA0B0*%
%FSLAX25Y25*%
%IPPOS*%
%LPD*%
%AMOC8*
5,1,8,0,0,1.08239X$1,22.5*
%
%ADD10C,0.00600*%
%ADD11C,0.00000*%
D10*
X0006461Y0073086D02*
X0006461Y0306353D01*
X0018461Y0306353D01*
X0022461Y0301386D01*
X0057961Y0301386D01*
X0061861Y0306353D01*
X0073861Y0306353D01*
X0073861Y0073086D01*
X0006461Y0073086D01*
D11*
X0030083Y0203007D02*
X0030086Y0203249D01*
X0030095Y0203490D01*
X0030110Y0203731D01*
X0030130Y0203972D01*
X0030157Y0204212D01*
X0030190Y0204451D01*
X0030228Y0204690D01*
X0030272Y0204927D01*
X0030322Y0205164D01*
X0030378Y0205399D01*
X0030440Y0205632D01*
X0030507Y0205864D01*
X0030580Y0206095D01*
X0030658Y0206323D01*
X0030743Y0206549D01*
X0030832Y0206774D01*
X0030927Y0206996D01*
X0031028Y0207215D01*
X0031134Y0207433D01*
X0031245Y0207647D01*
X0031362Y0207859D01*
X0031483Y0208067D01*
X0031610Y0208273D01*
X0031742Y0208475D01*
X0031879Y0208675D01*
X0032020Y0208870D01*
X0032166Y0209063D01*
X0032317Y0209251D01*
X0032473Y0209436D01*
X0032633Y0209617D01*
X0032797Y0209794D01*
X0032966Y0209967D01*
X0033139Y0210136D01*
X0033316Y0210300D01*
X0033497Y0210460D01*
X0033682Y0210616D01*
X0033870Y0210767D01*
X0034063Y0210913D01*
X0034258Y0211054D01*
X0034458Y0211191D01*
X0034660Y0211323D01*
X0034866Y0211450D01*
X0035074Y0211571D01*
X0035286Y0211688D01*
X0035500Y0211799D01*
X0035718Y0211905D01*
X0035937Y0212006D01*
X0036159Y0212101D01*
X0036384Y0212190D01*
X0036610Y0212275D01*
X0036838Y0212353D01*
X0037069Y0212426D01*
X0037301Y0212493D01*
X0037534Y0212555D01*
X0037769Y0212611D01*
X0038006Y0212661D01*
X0038243Y0212705D01*
X0038482Y0212743D01*
X0038721Y0212776D01*
X0038961Y0212803D01*
X0039202Y0212823D01*
X0039443Y0212838D01*
X0039684Y0212847D01*
X0039926Y0212850D01*
X0040168Y0212847D01*
X0040409Y0212838D01*
X0040650Y0212823D01*
X0040891Y0212803D01*
X0041131Y0212776D01*
X0041370Y0212743D01*
X0041609Y0212705D01*
X0041846Y0212661D01*
X0042083Y0212611D01*
X0042318Y0212555D01*
X0042551Y0212493D01*
X0042783Y0212426D01*
X0043014Y0212353D01*
X0043242Y0212275D01*
X0043468Y0212190D01*
X0043693Y0212101D01*
X0043915Y0212006D01*
X0044134Y0211905D01*
X0044352Y0211799D01*
X0044566Y0211688D01*
X0044778Y0211571D01*
X0044986Y0211450D01*
X0045192Y0211323D01*
X0045394Y0211191D01*
X0045594Y0211054D01*
X0045789Y0210913D01*
X0045982Y0210767D01*
X0046170Y0210616D01*
X0046355Y0210460D01*
X0046536Y0210300D01*
X0046713Y0210136D01*
X0046886Y0209967D01*
X0047055Y0209794D01*
X0047219Y0209617D01*
X0047379Y0209436D01*
X0047535Y0209251D01*
X0047686Y0209063D01*
X0047832Y0208870D01*
X0047973Y0208675D01*
X0048110Y0208475D01*
X0048242Y0208273D01*
X0048369Y0208067D01*
X0048490Y0207859D01*
X0048607Y0207647D01*
X0048718Y0207433D01*
X0048824Y0207215D01*
X0048925Y0206996D01*
X0049020Y0206774D01*
X0049109Y0206549D01*
X0049194Y0206323D01*
X0049272Y0206095D01*
X0049345Y0205864D01*
X0049412Y0205632D01*
X0049474Y0205399D01*
X0049530Y0205164D01*
X0049580Y0204927D01*
X0049624Y0204690D01*
X0049662Y0204451D01*
X0049695Y0204212D01*
X0049722Y0203972D01*
X0049742Y0203731D01*
X0049757Y0203490D01*
X0049766Y0203249D01*
X0049769Y0203007D01*
X0049766Y0202765D01*
X0049757Y0202524D01*
X0049742Y0202283D01*
X0049722Y0202042D01*
X0049695Y0201802D01*
X0049662Y0201563D01*
X0049624Y0201324D01*
X0049580Y0201087D01*
X0049530Y0200850D01*
X0049474Y0200615D01*
X0049412Y0200382D01*
X0049345Y0200150D01*
X0049272Y0199919D01*
X0049194Y0199691D01*
X0049109Y0199465D01*
X0049020Y0199240D01*
X0048925Y0199018D01*
X0048824Y0198799D01*
X0048718Y0198581D01*
X0048607Y0198367D01*
X0048490Y0198155D01*
X0048369Y0197947D01*
X0048242Y0197741D01*
X0048110Y0197539D01*
X0047973Y0197339D01*
X0047832Y0197144D01*
X0047686Y0196951D01*
X0047535Y0196763D01*
X0047379Y0196578D01*
X0047219Y0196397D01*
X0047055Y0196220D01*
X0046886Y0196047D01*
X0046713Y0195878D01*
X0046536Y0195714D01*
X0046355Y0195554D01*
X0046170Y0195398D01*
X0045982Y0195247D01*
X0045789Y0195101D01*
X0045594Y0194960D01*
X0045394Y0194823D01*
X0045192Y0194691D01*
X0044986Y0194564D01*
X0044778Y0194443D01*
X0044566Y0194326D01*
X0044352Y0194215D01*
X0044134Y0194109D01*
X0043915Y0194008D01*
X0043693Y0193913D01*
X0043468Y0193824D01*
X0043242Y0193739D01*
X0043014Y0193661D01*
X0042783Y0193588D01*
X0042551Y0193521D01*
X0042318Y0193459D01*
X0042083Y0193403D01*
X0041846Y0193353D01*
X0041609Y0193309D01*
X0041370Y0193271D01*
X0041131Y0193238D01*
X0040891Y0193211D01*
X0040650Y0193191D01*
X0040409Y0193176D01*
X0040168Y0193167D01*
X0039926Y0193164D01*
X0039684Y0193167D01*
X0039443Y0193176D01*
X0039202Y0193191D01*
X0038961Y0193211D01*
X0038721Y0193238D01*
X0038482Y0193271D01*
X0038243Y0193309D01*
X0038006Y0193353D01*
X0037769Y0193403D01*
X0037534Y0193459D01*
X0037301Y0193521D01*
X0037069Y0193588D01*
X0036838Y0193661D01*
X0036610Y0193739D01*
X0036384Y0193824D01*
X0036159Y0193913D01*
X0035937Y0194008D01*
X0035718Y0194109D01*
X0035500Y0194215D01*
X0035286Y0194326D01*
X0035074Y0194443D01*
X0034866Y0194564D01*
X0034660Y0194691D01*
X0034458Y0194823D01*
X0034258Y0194960D01*
X0034063Y0195101D01*
X0033870Y0195247D01*
X0033682Y0195398D01*
X0033497Y0195554D01*
X0033316Y0195714D01*
X0033139Y0195878D01*
X0032966Y0196047D01*
X0032797Y0196220D01*
X0032633Y0196397D01*
X0032473Y0196578D01*
X0032317Y0196763D01*
X0032166Y0196951D01*
X0032020Y0197144D01*
X0031879Y0197339D01*
X0031742Y0197539D01*
X0031610Y0197741D01*
X0031483Y0197947D01*
X0031362Y0198155D01*
X0031245Y0198367D01*
X0031134Y0198581D01*
X0031028Y0198799D01*
X0030927Y0199018D01*
X0030832Y0199240D01*
X0030743Y0199465D01*
X0030658Y0199691D01*
X0030580Y0199919D01*
X0030507Y0200150D01*
X0030440Y0200382D01*
X0030378Y0200615D01*
X0030322Y0200850D01*
X0030272Y0201087D01*
X0030228Y0201324D01*
X0030190Y0201563D01*
X0030157Y0201802D01*
X0030130Y0202042D01*
X0030110Y0202283D01*
X0030095Y0202524D01*
X0030086Y0202765D01*
X0030083Y0203007D01*
M02*
