G75*
%MOIN*%
%OFA0B0*%
%FSLAX25Y25*%
%IPPOS*%
%LPD*%
%AMOC8*
5,1,8,0,0,1.08239X$1,22.5*
%
%ADD10R,0.03937X0.04331*%
%ADD11R,0.02362X0.03150*%
%ADD12R,0.04331X0.03937*%
%ADD13R,0.07874X0.05118*%
%ADD14R,0.03150X0.03150*%
%ADD15R,0.04134X0.04528*%
%ADD16R,0.04724X0.03150*%
%ADD17R,0.08661X0.04724*%
%ADD18R,0.00984X0.03543*%
%ADD19R,0.03543X0.00945*%
%ADD20R,0.00945X0.03543*%
%ADD21R,0.01575X0.04331*%
%ADD22R,0.04724X0.02165*%
%ADD23R,0.02165X0.04724*%
%ADD24R,0.07480X0.07087*%
%ADD25R,0.07480X0.07480*%
%ADD26R,0.06299X0.08268*%
%ADD27R,0.05315X0.01575*%
D10*
X0026661Y0095939D03*
X0026661Y0102632D03*
X0018806Y0146140D03*
X0012113Y0146140D03*
X0012039Y0153005D03*
X0012039Y0159697D03*
X0012215Y0175586D03*
X0009615Y0186186D03*
X0016308Y0186186D03*
X0018908Y0175586D03*
X0030546Y0177373D03*
X0037239Y0177373D03*
X0038174Y0171675D03*
X0038174Y0164982D03*
X0038297Y0136746D03*
X0044990Y0136746D03*
X0050815Y0127486D03*
X0057508Y0127486D03*
X0059808Y0202692D03*
X0053115Y0202692D03*
D11*
X0035257Y0103055D03*
X0035257Y0093212D03*
D12*
X0012538Y0080187D03*
X0012538Y0086880D03*
X0028115Y0110486D03*
X0034808Y0110486D03*
X0031672Y0146161D03*
X0024980Y0146161D03*
X0024093Y0190584D03*
X0024093Y0197277D03*
X0010500Y0196690D03*
X0010500Y0203383D03*
X0052076Y0143326D03*
X0052076Y0136633D03*
X0062815Y0145086D03*
X0069508Y0145086D03*
X0070008Y0121586D03*
X0063315Y0121586D03*
X0057703Y0213922D03*
X0057703Y0220615D03*
X0057817Y0226348D03*
X0057817Y0233041D03*
D13*
G36*
X0049729Y0170242D02*
X0047036Y0177640D01*
X0051845Y0179390D01*
X0054538Y0171992D01*
X0049729Y0170242D01*
G37*
G36*
X0029207Y0226624D02*
X0026514Y0234022D01*
X0031323Y0235772D01*
X0034016Y0228374D01*
X0029207Y0226624D01*
G37*
D14*
X0037890Y0150355D03*
X0037890Y0144449D03*
X0043390Y0144449D03*
X0043390Y0150355D03*
D15*
X0027032Y0089807D03*
X0027032Y0076618D03*
X0021324Y0076618D03*
X0021324Y0089807D03*
D16*
X0019899Y0121794D03*
X0019899Y0128881D03*
X0018412Y0226648D03*
X0018412Y0233735D03*
D17*
X0011786Y0245527D03*
X0011786Y0253401D03*
X0011786Y0261275D03*
X0011786Y0269149D03*
X0011786Y0277023D03*
X0011786Y0284897D03*
X0011786Y0292771D03*
X0011786Y0300645D03*
X0068479Y0300645D03*
X0068479Y0292771D03*
X0068479Y0284897D03*
X0068479Y0277023D03*
X0068479Y0269149D03*
X0068479Y0261275D03*
X0068479Y0253401D03*
X0068479Y0245527D03*
D18*
X0027746Y0169372D03*
D19*
X0031880Y0167207D03*
X0031880Y0165238D03*
X0031880Y0163270D03*
X0031880Y0161301D03*
X0031880Y0159333D03*
X0031880Y0157364D03*
X0021643Y0157364D03*
X0021643Y0159333D03*
X0021643Y0161301D03*
X0021643Y0163270D03*
X0021643Y0165238D03*
X0021643Y0167207D03*
D20*
X0025777Y0169372D03*
X0025777Y0155199D03*
X0027746Y0155199D03*
D21*
X0026761Y0162286D03*
D22*
X0026643Y0129326D03*
X0026643Y0121845D03*
X0036880Y0121845D03*
X0036880Y0125586D03*
X0036880Y0129326D03*
X0024680Y0211645D03*
X0024680Y0215386D03*
X0024680Y0219126D03*
X0014443Y0219126D03*
X0014443Y0215386D03*
X0014443Y0211645D03*
D23*
X0062721Y0138204D03*
X0062721Y0127967D03*
X0066461Y0138204D03*
X0070202Y0138204D03*
X0070202Y0127967D03*
D24*
X0070961Y0111146D03*
X0070961Y0081225D03*
D25*
X0070961Y0091461D03*
X0070961Y0100910D03*
D26*
X0060922Y0108390D03*
X0060922Y0083981D03*
D27*
X0060430Y0091068D03*
X0060430Y0093627D03*
X0060430Y0096186D03*
X0060430Y0098745D03*
X0060430Y0101304D03*
M02*
