G75*
%MOIN*%
%OFA0B0*%
%FSLAX25Y25*%
%IPPOS*%
%LPD*%
%AMOC8*
5,1,8,0,0,1.08239X$1,22.5*
%
%ADD10C,0.20185*%
%ADD11R,0.04437X0.04831*%
%ADD12R,0.02862X0.03650*%
%ADD13R,0.04831X0.04437*%
%ADD14R,0.08374X0.05618*%
%ADD15R,0.03650X0.03650*%
%ADD16R,0.04634X0.05028*%
%ADD17R,0.05224X0.03650*%
%ADD18R,0.09161X0.05224*%
%ADD19C,0.04437*%
%ADD20R,0.01484X0.04043*%
%ADD21R,0.04043X0.01445*%
%ADD22R,0.01445X0.04043*%
%ADD23R,0.02075X0.04831*%
%ADD24R,0.05224X0.02665*%
%ADD25C,0.12500*%
%ADD26C,0.18500*%
%ADD27R,0.02665X0.05224*%
%ADD28R,0.07980X0.07587*%
%ADD29R,0.07980X0.07980*%
%ADD30R,0.06799X0.08768*%
%ADD31R,0.05815X0.02075*%
%ADD32C,0.07900*%
%ADD33C,0.03300*%
%ADD34C,0.03400*%
D10*
X0039926Y0203007D03*
D11*
X0037239Y0177373D03*
X0038174Y0171675D03*
X0038174Y0164982D03*
X0030546Y0177373D03*
X0038297Y0136746D03*
X0044990Y0136746D03*
X0050815Y0127486D03*
X0057508Y0127486D03*
X0059808Y0202692D03*
X0053115Y0202692D03*
X0026661Y0102632D03*
X0026661Y0095939D03*
X0018806Y0146140D03*
X0012113Y0146140D03*
X0012039Y0153005D03*
X0012039Y0159697D03*
X0012215Y0175586D03*
X0009615Y0186186D03*
X0016308Y0186186D03*
X0018908Y0175586D03*
D12*
X0035257Y0103055D03*
X0035257Y0093212D03*
D13*
X0012538Y0080187D03*
X0012538Y0086880D03*
X0028115Y0110486D03*
X0034808Y0110486D03*
X0031672Y0146161D03*
X0024980Y0146161D03*
X0024093Y0190584D03*
X0024093Y0197277D03*
X0010500Y0196690D03*
X0010500Y0203383D03*
X0052076Y0143326D03*
X0052076Y0136633D03*
X0062815Y0145086D03*
X0069508Y0145086D03*
X0070008Y0121586D03*
X0063315Y0121586D03*
X0057703Y0213922D03*
X0057703Y0220615D03*
X0057817Y0226348D03*
X0057817Y0233041D03*
D14*
G36*
X0049580Y0169921D02*
X0046716Y0177789D01*
X0051994Y0179711D01*
X0054858Y0171843D01*
X0049580Y0169921D01*
G37*
G36*
X0029058Y0226303D02*
X0026194Y0234171D01*
X0031472Y0236093D01*
X0034336Y0228225D01*
X0029058Y0226303D01*
G37*
D15*
X0037890Y0150355D03*
X0037890Y0144449D03*
X0043390Y0144449D03*
X0043390Y0150355D03*
D16*
X0027032Y0089807D03*
X0027032Y0076618D03*
X0021324Y0076618D03*
X0021324Y0089807D03*
D17*
X0019899Y0121794D03*
X0019899Y0128881D03*
X0018412Y0226648D03*
X0018412Y0233735D03*
D18*
X0011786Y0245527D03*
X0011786Y0253401D03*
X0011786Y0261275D03*
X0011786Y0269149D03*
X0011786Y0277023D03*
X0011786Y0284897D03*
X0011786Y0292771D03*
X0011786Y0300645D03*
X0068479Y0300645D03*
X0068479Y0292771D03*
X0068479Y0284897D03*
X0068479Y0277023D03*
X0068479Y0269149D03*
X0068479Y0261275D03*
X0068479Y0253401D03*
X0068479Y0245527D03*
D19*
X0040561Y0277786D03*
X0046430Y0111554D03*
D20*
X0027746Y0169372D03*
D21*
X0031880Y0167207D03*
X0031880Y0165238D03*
X0031880Y0163270D03*
X0031880Y0161301D03*
X0031880Y0159333D03*
X0031880Y0157364D03*
X0021643Y0157364D03*
X0021643Y0159333D03*
X0021643Y0161301D03*
X0021643Y0163270D03*
X0021643Y0165238D03*
X0021643Y0167207D03*
D22*
X0025777Y0169372D03*
X0025777Y0155199D03*
X0027746Y0155199D03*
D23*
X0026761Y0162286D03*
D24*
X0026643Y0129326D03*
X0026643Y0121845D03*
X0036880Y0121845D03*
X0036880Y0125586D03*
X0036880Y0129326D03*
X0024680Y0211645D03*
X0024680Y0215386D03*
X0024680Y0219126D03*
X0014443Y0219126D03*
X0014443Y0215386D03*
X0014443Y0211645D03*
D25*
X0040161Y0080074D03*
D26*
X0049161Y0299365D02*
X0031161Y0299365D01*
D27*
X0062721Y0138204D03*
X0062721Y0127967D03*
X0066461Y0138204D03*
X0070202Y0138204D03*
X0070202Y0127967D03*
D28*
X0070961Y0111146D03*
X0070961Y0081225D03*
D29*
X0070961Y0091461D03*
X0070961Y0100910D03*
D30*
X0060922Y0108390D03*
X0060922Y0083981D03*
D31*
X0060430Y0091068D03*
X0060430Y0093627D03*
X0060430Y0096186D03*
X0060430Y0098745D03*
X0060430Y0101304D03*
D32*
X0066461Y0168586D03*
X0066461Y0178586D03*
X0066461Y0188586D03*
X0066461Y0198586D03*
X0066461Y0208586D03*
X0066461Y0218586D03*
X0066461Y0228586D03*
D33*
X0068361Y0240386D03*
D34*
X0070261Y0236386D03*
X0066361Y0236386D03*
M02*
