G75*
%MOIN*%
%OFA0B0*%
%FSLAX25Y25*%
%IPPOS*%
%LPD*%
%AMOC8*
5,1,8,0,0,1.08239X$1,22.5*
%
%ADD10C,0.05000*%
%ADD11C,0.12000*%
%ADD12C,0.18000*%
%ADD13C,0.07400*%
%ADD14C,0.02800*%
%ADD15C,0.00700*%
%ADD16C,0.01800*%
%ADD17C,0.00800*%
%ADD18C,0.02900*%
%ADD19C,0.10000*%
D10*
X0052961Y0098086D03*
D11*
X0040161Y0080074D03*
D12*
X0049161Y0299365D02*
X0031161Y0299365D01*
D13*
X0066461Y0228586D03*
X0066461Y0218586D03*
X0066461Y0208586D03*
X0066461Y0198586D03*
X0066461Y0188586D03*
X0066461Y0178586D03*
X0066461Y0168586D03*
D14*
X0069980Y0150554D03*
X0062661Y0149086D03*
X0054180Y0122254D03*
X0048361Y0147386D03*
X0044361Y0158548D03*
X0051431Y0168586D03*
X0049861Y0191986D03*
X0036561Y0190486D03*
X0031561Y0170886D03*
X0035661Y0157686D03*
X0027661Y0151286D03*
X0023761Y0150686D03*
X0024961Y0173186D03*
X0017074Y0162492D03*
X0015061Y0128786D03*
X0021261Y0114886D03*
X0025896Y0083482D03*
X0032561Y0125586D03*
X0017261Y0206786D03*
X0021161Y0222486D03*
X0024561Y0225476D03*
X0017485Y0249464D03*
X0014061Y0226086D03*
X0009261Y0218586D03*
X0012661Y0207386D03*
X0024461Y0267486D03*
X0029221Y0285036D03*
X0030461Y0272086D03*
X0017461Y0280986D03*
X0047061Y0260486D03*
X0058461Y0257186D03*
X0062861Y0265186D03*
X0061461Y0274886D03*
X0068361Y0240386D03*
X0061580Y0115454D03*
X0060980Y0076954D03*
X0010792Y0102613D03*
D15*
X0008611Y0101046D02*
X0008611Y0075236D01*
X0034747Y0075236D01*
X0034015Y0075967D01*
X0032911Y0078632D01*
X0032911Y0081516D01*
X0034015Y0084181D01*
X0036055Y0086220D01*
X0038011Y0087031D01*
X0038011Y0115676D01*
X0046894Y0124559D01*
X0046911Y0124593D01*
X0046911Y0130976D01*
X0055994Y0140059D01*
X0056011Y0140093D01*
X0056011Y0143588D01*
X0055940Y0144378D01*
X0056011Y0144464D01*
X0056011Y0144576D01*
X0056572Y0145137D01*
X0060011Y0149264D01*
X0060011Y0149613D01*
X0060415Y0150587D01*
X0061160Y0151332D01*
X0062134Y0151736D01*
X0063189Y0151736D01*
X0064163Y0151332D01*
X0064908Y0150587D01*
X0065311Y0149613D01*
X0065311Y0148559D01*
X0064908Y0147585D01*
X0064163Y0146839D01*
X0063285Y0146476D01*
X0060311Y0142907D01*
X0060311Y0139935D01*
X0060483Y0139421D01*
X0060311Y0139078D01*
X0060311Y0138695D01*
X0059928Y0138312D01*
X0059911Y0138278D01*
X0059911Y0137895D01*
X0059528Y0137512D01*
X0059286Y0137028D01*
X0058923Y0136906D01*
X0051211Y0129195D01*
X0051211Y0124435D01*
X0051383Y0123921D01*
X0051211Y0123578D01*
X0051211Y0123195D01*
X0050828Y0122812D01*
X0050811Y0122778D01*
X0050811Y0122395D01*
X0050428Y0122012D01*
X0050186Y0121528D01*
X0049823Y0121406D01*
X0042311Y0113895D01*
X0042311Y0087031D01*
X0044268Y0086220D01*
X0046308Y0084181D01*
X0047411Y0081516D01*
X0047411Y0078632D01*
X0046308Y0075967D01*
X0045576Y0075236D01*
X0071711Y0075236D01*
X0071711Y0201573D01*
X0070913Y0200774D01*
X0071411Y0199570D01*
X0071411Y0197601D01*
X0070658Y0195782D01*
X0069265Y0194389D01*
X0067446Y0193636D01*
X0065477Y0193636D01*
X0063657Y0194389D01*
X0062265Y0195782D01*
X0061511Y0197601D01*
X0061511Y0199570D01*
X0062265Y0201390D01*
X0063657Y0202782D01*
X0065477Y0203536D01*
X0067446Y0203536D01*
X0068650Y0203037D01*
X0070061Y0204448D01*
X0070061Y0205185D01*
X0069265Y0204389D01*
X0067446Y0203636D01*
X0065477Y0203636D01*
X0063657Y0204389D01*
X0062265Y0205782D01*
X0061511Y0207601D01*
X0061511Y0209570D01*
X0062265Y0211390D01*
X0063657Y0212782D01*
X0065477Y0213536D01*
X0067446Y0213536D01*
X0069265Y0212782D01*
X0070061Y0211986D01*
X0070061Y0215185D01*
X0069265Y0214389D01*
X0067446Y0213636D01*
X0065477Y0213636D01*
X0063657Y0214389D01*
X0062265Y0215782D01*
X0061511Y0217601D01*
X0061511Y0219570D01*
X0062186Y0221198D01*
X0061161Y0222223D01*
X0061161Y0203864D01*
X0061218Y0203282D01*
X0061161Y0203212D01*
X0061161Y0203123D01*
X0060748Y0202709D01*
X0052463Y0192630D01*
X0052511Y0192513D01*
X0052511Y0191459D01*
X0052108Y0190485D01*
X0051363Y0189739D01*
X0050389Y0189336D01*
X0049334Y0189336D01*
X0048360Y0189739D01*
X0047615Y0190485D01*
X0047211Y0191459D01*
X0047211Y0192513D01*
X0047615Y0193487D01*
X0048360Y0194232D01*
X0049334Y0194636D01*
X0049969Y0194636D01*
X0057961Y0204359D01*
X0057961Y0254536D01*
X0057934Y0254536D01*
X0056960Y0254939D01*
X0056215Y0255685D01*
X0055811Y0256659D01*
X0055811Y0257713D01*
X0056215Y0258687D01*
X0056960Y0259432D01*
X0057934Y0259836D01*
X0058878Y0259836D01*
X0057028Y0261686D01*
X0056124Y0261686D01*
X0055132Y0262097D01*
X0054372Y0262856D01*
X0053961Y0263849D01*
X0053961Y0264923D01*
X0054103Y0265264D01*
X0049711Y0260873D01*
X0049711Y0259959D01*
X0049308Y0258985D01*
X0048563Y0258239D01*
X0047589Y0257836D01*
X0046534Y0257836D01*
X0045560Y0258239D01*
X0044815Y0258985D01*
X0044411Y0259959D01*
X0044411Y0261013D01*
X0044815Y0261987D01*
X0045560Y0262732D01*
X0046534Y0263136D01*
X0047449Y0263136D01*
X0058811Y0274498D01*
X0058811Y0275413D01*
X0059215Y0276387D01*
X0059960Y0277132D01*
X0060934Y0277536D01*
X0061989Y0277536D01*
X0062963Y0277132D01*
X0063708Y0276387D01*
X0064111Y0275413D01*
X0064111Y0274359D01*
X0063708Y0273385D01*
X0062963Y0272639D01*
X0061989Y0272236D01*
X0061074Y0272236D01*
X0055783Y0266944D01*
X0056124Y0267086D01*
X0057198Y0267086D01*
X0058191Y0266675D01*
X0058950Y0265915D01*
X0059361Y0264923D01*
X0059361Y0264019D01*
X0061261Y0262119D01*
X0061261Y0263038D01*
X0060615Y0263685D01*
X0060211Y0264659D01*
X0060211Y0265713D01*
X0060615Y0266687D01*
X0061360Y0267432D01*
X0062334Y0267836D01*
X0063389Y0267836D01*
X0064363Y0267432D01*
X0065108Y0266687D01*
X0065511Y0265713D01*
X0065511Y0264659D01*
X0065108Y0263685D01*
X0064461Y0263038D01*
X0064461Y0260848D01*
X0065461Y0259848D01*
X0065461Y0257523D01*
X0065161Y0257223D01*
X0065161Y0254123D01*
X0064224Y0253186D01*
X0063761Y0252723D01*
X0063761Y0237848D01*
X0066024Y0235586D01*
X0068002Y0235586D01*
X0068384Y0235713D01*
X0068639Y0235586D01*
X0068924Y0235586D01*
X0069209Y0235301D01*
X0069570Y0235120D01*
X0069660Y0234850D01*
X0069861Y0234648D01*
X0069861Y0234448D01*
X0071711Y0232598D01*
X0071711Y0303754D01*
X0062445Y0303615D01*
X0060111Y0300643D01*
X0060111Y0300495D01*
X0059573Y0299957D01*
X0059511Y0299878D01*
X0059511Y0299715D01*
X0059383Y0299715D01*
X0059103Y0299358D01*
X0058956Y0299340D01*
X0058852Y0299236D01*
X0058090Y0299236D01*
X0057334Y0299145D01*
X0057218Y0299236D01*
X0056792Y0299236D01*
X0056606Y0299015D01*
X0059511Y0299015D01*
X0059511Y0298784D01*
X0059381Y0297629D01*
X0059123Y0296495D01*
X0058739Y0295398D01*
X0058234Y0294351D01*
X0057616Y0293366D01*
X0056891Y0292458D01*
X0056069Y0291636D01*
X0055160Y0290911D01*
X0054176Y0290292D01*
X0053128Y0289788D01*
X0052031Y0289404D01*
X0050898Y0289145D01*
X0049743Y0289015D01*
X0048171Y0289015D01*
X0048061Y0288886D01*
X0034461Y0288886D01*
X0034338Y0289015D01*
X0030580Y0289015D01*
X0029425Y0289145D01*
X0028292Y0289404D01*
X0027194Y0289788D01*
X0026147Y0290292D01*
X0025163Y0290911D01*
X0024254Y0291636D01*
X0023432Y0292458D01*
X0022707Y0293366D01*
X0022089Y0294351D01*
X0021584Y0295398D01*
X0021200Y0296495D01*
X0020942Y0297629D01*
X0020811Y0298784D01*
X0020811Y0299015D01*
X0024808Y0299015D01*
X0024598Y0299236D01*
X0023219Y0299236D01*
X0023116Y0299152D01*
X0022346Y0299236D01*
X0021571Y0299236D01*
X0021477Y0299329D01*
X0021345Y0299344D01*
X0021046Y0299715D01*
X0020811Y0299715D01*
X0020811Y0299946D01*
X0020816Y0299990D01*
X0020311Y0300495D01*
X0020311Y0300628D01*
X0017769Y0303786D01*
X0008611Y0303786D01*
X0008611Y0272798D01*
X0015256Y0279443D01*
X0015215Y0279485D01*
X0014811Y0280459D01*
X0014811Y0281513D01*
X0015215Y0282487D01*
X0015960Y0283232D01*
X0016934Y0283636D01*
X0017989Y0283636D01*
X0018963Y0283232D01*
X0019708Y0282487D01*
X0020111Y0281513D01*
X0020111Y0280459D01*
X0019708Y0279485D01*
X0019061Y0278838D01*
X0019061Y0278723D01*
X0010561Y0270223D01*
X0010561Y0266548D01*
X0011961Y0267948D01*
X0012899Y0268886D01*
X0016443Y0268886D01*
X0017132Y0269575D01*
X0018124Y0269986D01*
X0019198Y0269986D01*
X0020191Y0269575D01*
X0020950Y0268815D01*
X0021361Y0267823D01*
X0021361Y0266749D01*
X0020950Y0265756D01*
X0020191Y0264997D01*
X0019198Y0264586D01*
X0018124Y0264586D01*
X0017132Y0264997D01*
X0016443Y0265686D01*
X0014224Y0265686D01*
X0011861Y0263323D01*
X0011861Y0246103D01*
X0014835Y0249076D01*
X0014835Y0249991D01*
X0015238Y0250965D01*
X0015984Y0251710D01*
X0016958Y0252114D01*
X0018012Y0252114D01*
X0018986Y0251710D01*
X0019732Y0250965D01*
X0020135Y0249991D01*
X0020135Y0248936D01*
X0019732Y0247962D01*
X0018986Y0247217D01*
X0018012Y0246814D01*
X0017098Y0246814D01*
X0013180Y0242895D01*
X0013180Y0224142D01*
X0013817Y0223505D01*
X0013817Y0223505D01*
X0014754Y0222567D01*
X0018511Y0222567D01*
X0018511Y0223013D02*
X0018511Y0221959D01*
X0018915Y0220985D01*
X0019660Y0220239D01*
X0020634Y0219836D01*
X0021689Y0219836D01*
X0022663Y0220239D01*
X0023408Y0220985D01*
X0023408Y0220986D01*
X0025714Y0220986D01*
X0027461Y0222733D01*
X0027461Y0219686D01*
X0018399Y0219686D01*
X0017261Y0218548D01*
X0017261Y0209436D01*
X0016734Y0209436D01*
X0015760Y0209032D01*
X0015115Y0208387D01*
X0014908Y0208887D01*
X0014163Y0209632D01*
X0013189Y0210036D01*
X0012134Y0210036D01*
X0011605Y0209816D01*
X0011605Y0213368D01*
X0013817Y0215580D01*
X0014754Y0216517D01*
X0014754Y0222567D01*
X0014754Y0221869D02*
X0018549Y0221869D01*
X0018838Y0221170D02*
X0014754Y0221170D01*
X0014754Y0220472D02*
X0019428Y0220472D01*
X0019061Y0218086D02*
X0018861Y0217886D01*
X0018861Y0208686D01*
X0019661Y0207886D01*
X0019661Y0205686D01*
X0014461Y0200486D01*
X0014461Y0196886D01*
X0016061Y0195286D01*
X0016061Y0188686D01*
X0013461Y0186086D01*
X0013461Y0171286D01*
X0018061Y0166686D01*
X0019461Y0166686D01*
X0027061Y0159086D01*
X0031861Y0159086D01*
X0032861Y0160086D01*
X0036661Y0160086D01*
X0038061Y0158686D01*
X0038061Y0156686D01*
X0017861Y0136486D01*
X0017861Y0116986D01*
X0019961Y0114886D01*
X0021261Y0114886D01*
X0019914Y0117196D02*
X0020734Y0117536D01*
X0021789Y0117536D01*
X0022763Y0117132D01*
X0023508Y0116387D01*
X0023911Y0115413D01*
X0023911Y0114359D01*
X0023508Y0113385D01*
X0022763Y0112639D01*
X0021789Y0112236D01*
X0020734Y0112236D01*
X0019760Y0112639D01*
X0019015Y0113385D01*
X0018884Y0113700D01*
X0018361Y0114223D01*
X0016261Y0116323D01*
X0016261Y0137148D01*
X0034437Y0155324D01*
X0034160Y0155439D01*
X0033514Y0156086D01*
X0025799Y0156086D01*
X0024861Y0157023D01*
X0024861Y0157147D01*
X0019724Y0162285D01*
X0019724Y0161965D01*
X0019321Y0160991D01*
X0018575Y0160245D01*
X0017601Y0159842D01*
X0016547Y0159842D01*
X0015573Y0160245D01*
X0014827Y0160991D01*
X0014424Y0161965D01*
X0014424Y0163019D01*
X0014472Y0163136D01*
X0010491Y0167975D01*
X0010424Y0168042D01*
X0010424Y0105263D01*
X0011319Y0105263D01*
X0012293Y0104860D01*
X0012767Y0104386D01*
X0020899Y0104386D01*
X0027846Y0111333D01*
X0027861Y0111363D01*
X0027861Y0116748D01*
X0039161Y0128048D01*
X0039161Y0139948D01*
X0045817Y0146604D01*
X0045711Y0146859D01*
X0045711Y0147913D01*
X0046115Y0148887D01*
X0046860Y0149632D01*
X0047834Y0150036D01*
X0048889Y0150036D01*
X0049863Y0149632D01*
X0050608Y0148887D01*
X0051011Y0147913D01*
X0051011Y0146859D01*
X0050608Y0145885D01*
X0049863Y0145139D01*
X0048889Y0144736D01*
X0048474Y0144736D01*
X0042361Y0138623D01*
X0042361Y0127963D01*
X0042489Y0127708D01*
X0042361Y0127326D01*
X0042361Y0126923D01*
X0042261Y0126823D01*
X0042261Y0126623D01*
X0042060Y0126421D01*
X0041970Y0126151D01*
X0041609Y0125971D01*
X0031061Y0115423D01*
X0031061Y0110745D01*
X0031189Y0110363D01*
X0031061Y0110108D01*
X0031061Y0109823D01*
X0030776Y0109538D01*
X0030596Y0109177D01*
X0030326Y0109087D01*
X0030124Y0108886D01*
X0029924Y0108886D01*
X0022224Y0101186D01*
X0013069Y0101186D01*
X0013039Y0101112D01*
X0012293Y0100367D01*
X0011319Y0099963D01*
X0010265Y0099963D01*
X0009291Y0100367D01*
X0008611Y0101046D01*
X0008611Y0101026D02*
X0008632Y0101026D01*
X0008611Y0100328D02*
X0009385Y0100328D01*
X0008611Y0099629D02*
X0038011Y0099629D01*
X0038011Y0098931D02*
X0008611Y0098931D01*
X0008611Y0098232D02*
X0038011Y0098232D01*
X0038011Y0097534D02*
X0008611Y0097534D01*
X0008611Y0096835D02*
X0038011Y0096835D01*
X0038011Y0096137D02*
X0008611Y0096137D01*
X0008611Y0095438D02*
X0038011Y0095438D01*
X0038011Y0094739D02*
X0008611Y0094739D01*
X0008611Y0094041D02*
X0038011Y0094041D01*
X0038011Y0093342D02*
X0008611Y0093342D01*
X0008611Y0092644D02*
X0038011Y0092644D01*
X0038011Y0091945D02*
X0008611Y0091945D01*
X0008611Y0091247D02*
X0038011Y0091247D01*
X0038011Y0090548D02*
X0008611Y0090548D01*
X0008611Y0089850D02*
X0038011Y0089850D01*
X0038011Y0089151D02*
X0008611Y0089151D01*
X0008611Y0088453D02*
X0038011Y0088453D01*
X0038011Y0087754D02*
X0008611Y0087754D01*
X0008611Y0087056D02*
X0038011Y0087056D01*
X0036386Y0086357D02*
X0008611Y0086357D01*
X0008611Y0085659D02*
X0035493Y0085659D01*
X0034795Y0084960D02*
X0008611Y0084960D01*
X0008611Y0084262D02*
X0034096Y0084262D01*
X0033759Y0083563D02*
X0008611Y0083563D01*
X0008611Y0082865D02*
X0033470Y0082865D01*
X0033181Y0082166D02*
X0008611Y0082166D01*
X0008611Y0081468D02*
X0032911Y0081468D01*
X0032911Y0080769D02*
X0008611Y0080769D01*
X0008611Y0080071D02*
X0032911Y0080071D01*
X0032911Y0079372D02*
X0008611Y0079372D01*
X0008611Y0078674D02*
X0032911Y0078674D01*
X0033183Y0077975D02*
X0008611Y0077975D01*
X0008611Y0077277D02*
X0033473Y0077277D01*
X0033762Y0076578D02*
X0008611Y0076578D01*
X0008611Y0075880D02*
X0034102Y0075880D01*
X0038011Y0100328D02*
X0012199Y0100328D01*
X0012953Y0101026D02*
X0038011Y0101026D01*
X0038011Y0101725D02*
X0022763Y0101725D01*
X0023462Y0102423D02*
X0038011Y0102423D01*
X0038011Y0103122D02*
X0024160Y0103122D01*
X0024859Y0103820D02*
X0038011Y0103820D01*
X0038011Y0104519D02*
X0025557Y0104519D01*
X0026256Y0105217D02*
X0038011Y0105217D01*
X0038011Y0105916D02*
X0026954Y0105916D01*
X0027653Y0106614D02*
X0038011Y0106614D01*
X0038011Y0107313D02*
X0028351Y0107313D01*
X0029050Y0108011D02*
X0038011Y0108011D01*
X0038011Y0108710D02*
X0029748Y0108710D01*
X0030712Y0109408D02*
X0038011Y0109408D01*
X0038011Y0110107D02*
X0031061Y0110107D01*
X0031061Y0110805D02*
X0038011Y0110805D01*
X0038011Y0111504D02*
X0031061Y0111504D01*
X0031061Y0112202D02*
X0038011Y0112202D01*
X0038011Y0112901D02*
X0031061Y0112901D01*
X0031061Y0113599D02*
X0038011Y0113599D01*
X0038011Y0114298D02*
X0031061Y0114298D01*
X0031061Y0114996D02*
X0038011Y0114996D01*
X0038030Y0115695D02*
X0031333Y0115695D01*
X0032032Y0116393D02*
X0038729Y0116393D01*
X0039427Y0117092D02*
X0032730Y0117092D01*
X0033429Y0117790D02*
X0040126Y0117790D01*
X0040824Y0118489D02*
X0034127Y0118489D01*
X0034826Y0119187D02*
X0041523Y0119187D01*
X0042221Y0119886D02*
X0035524Y0119886D01*
X0036223Y0120584D02*
X0042920Y0120584D01*
X0043618Y0121283D02*
X0036921Y0121283D01*
X0037620Y0121981D02*
X0044317Y0121981D01*
X0045015Y0122680D02*
X0038318Y0122680D01*
X0039017Y0123378D02*
X0045714Y0123378D01*
X0046412Y0124077D02*
X0039715Y0124077D01*
X0040414Y0124775D02*
X0046911Y0124775D01*
X0046911Y0125474D02*
X0041112Y0125474D01*
X0041977Y0126172D02*
X0046911Y0126172D01*
X0046911Y0126871D02*
X0042310Y0126871D01*
X0042443Y0127570D02*
X0046911Y0127570D01*
X0046911Y0128268D02*
X0042361Y0128268D01*
X0042361Y0128967D02*
X0046911Y0128967D01*
X0046911Y0129665D02*
X0042361Y0129665D01*
X0042361Y0130364D02*
X0046911Y0130364D01*
X0046997Y0131062D02*
X0042361Y0131062D01*
X0042361Y0131761D02*
X0047696Y0131761D01*
X0048394Y0132459D02*
X0042361Y0132459D01*
X0042361Y0133158D02*
X0049093Y0133158D01*
X0049791Y0133856D02*
X0042361Y0133856D01*
X0042361Y0134555D02*
X0050490Y0134555D01*
X0051188Y0135253D02*
X0042361Y0135253D01*
X0042361Y0135952D02*
X0051887Y0135952D01*
X0052585Y0136650D02*
X0042361Y0136650D01*
X0042361Y0137349D02*
X0053284Y0137349D01*
X0053982Y0138047D02*
X0042361Y0138047D01*
X0042484Y0138746D02*
X0054681Y0138746D01*
X0055379Y0139444D02*
X0043183Y0139444D01*
X0043881Y0140143D02*
X0056011Y0140143D01*
X0056011Y0140841D02*
X0044580Y0140841D01*
X0045278Y0141540D02*
X0056011Y0141540D01*
X0056011Y0142238D02*
X0045977Y0142238D01*
X0046675Y0142937D02*
X0056011Y0142937D01*
X0056007Y0143635D02*
X0047374Y0143635D01*
X0048072Y0144334D02*
X0055944Y0144334D01*
X0056468Y0145032D02*
X0049605Y0145032D01*
X0050454Y0145731D02*
X0057067Y0145731D01*
X0057649Y0146429D02*
X0050834Y0146429D01*
X0051011Y0147128D02*
X0058231Y0147128D01*
X0058813Y0147826D02*
X0051011Y0147826D01*
X0050758Y0148525D02*
X0059395Y0148525D01*
X0059978Y0149223D02*
X0050271Y0149223D01*
X0049163Y0149922D02*
X0060139Y0149922D01*
X0060449Y0150620D02*
X0034259Y0150620D01*
X0033560Y0149922D02*
X0047560Y0149922D01*
X0046451Y0149223D02*
X0032862Y0149223D01*
X0032163Y0148525D02*
X0045965Y0148525D01*
X0045711Y0147826D02*
X0031465Y0147826D01*
X0030766Y0147128D02*
X0045711Y0147128D01*
X0045642Y0146429D02*
X0030068Y0146429D01*
X0029369Y0145731D02*
X0044944Y0145731D01*
X0044245Y0145032D02*
X0028671Y0145032D01*
X0027972Y0144334D02*
X0043547Y0144334D01*
X0042848Y0143635D02*
X0027274Y0143635D01*
X0026575Y0142937D02*
X0042150Y0142937D01*
X0041451Y0142238D02*
X0025877Y0142238D01*
X0025178Y0141540D02*
X0040753Y0141540D01*
X0040054Y0140841D02*
X0024480Y0140841D01*
X0023781Y0140143D02*
X0039356Y0140143D01*
X0039161Y0139444D02*
X0023083Y0139444D01*
X0022384Y0138746D02*
X0039161Y0138746D01*
X0039161Y0138047D02*
X0021686Y0138047D01*
X0020987Y0137349D02*
X0039161Y0137349D01*
X0039161Y0136650D02*
X0020289Y0136650D01*
X0019590Y0135952D02*
X0039161Y0135952D01*
X0039161Y0135253D02*
X0019461Y0135253D01*
X0019461Y0135823D02*
X0038724Y0155086D01*
X0039661Y0156023D01*
X0039661Y0159348D01*
X0038261Y0160748D01*
X0037324Y0161686D01*
X0032199Y0161686D01*
X0031261Y0160748D01*
X0031199Y0160686D01*
X0027724Y0160686D01*
X0021061Y0167348D01*
X0020124Y0168286D01*
X0018724Y0168286D01*
X0015061Y0171948D01*
X0015061Y0185423D01*
X0016724Y0187086D01*
X0017661Y0188023D01*
X0017661Y0195948D01*
X0016061Y0197548D01*
X0016061Y0199823D01*
X0021261Y0205023D01*
X0021261Y0208548D01*
X0020461Y0209348D01*
X0020461Y0216486D01*
X0027973Y0216486D01*
X0028543Y0216422D01*
X0028623Y0216486D01*
X0028724Y0216486D01*
X0029130Y0216892D01*
X0029623Y0217286D01*
X0029724Y0217286D01*
X0030130Y0217692D01*
X0030578Y0218050D01*
X0030590Y0218151D01*
X0030661Y0218223D01*
X0030661Y0218797D01*
X0030725Y0219368D01*
X0030661Y0219447D01*
X0030661Y0229623D01*
X0032261Y0231223D01*
X0032261Y0269948D01*
X0032167Y0270043D01*
X0032708Y0270585D01*
X0033111Y0271559D01*
X0033111Y0272613D01*
X0032708Y0273587D01*
X0031963Y0274332D01*
X0030989Y0274736D01*
X0029934Y0274736D01*
X0029641Y0274614D01*
X0029641Y0282386D01*
X0029749Y0282386D01*
X0030723Y0282789D01*
X0031468Y0283535D01*
X0031871Y0284509D01*
X0031871Y0285563D01*
X0031468Y0286537D01*
X0030723Y0287282D01*
X0029749Y0287686D01*
X0028694Y0287686D01*
X0027720Y0287282D01*
X0026975Y0286537D01*
X0026571Y0285563D01*
X0026571Y0284608D01*
X0026441Y0284478D01*
X0026441Y0270413D01*
X0027379Y0269476D01*
X0027481Y0269373D01*
X0027481Y0268989D01*
X0027481Y0268333D01*
X0027481Y0268333D01*
X0027481Y0268333D01*
X0027741Y0268073D01*
X0027741Y0266468D01*
X0027111Y0267098D01*
X0027111Y0268013D01*
X0026708Y0268987D01*
X0025963Y0269732D01*
X0024989Y0270136D01*
X0023934Y0270136D01*
X0022960Y0269732D01*
X0022215Y0268987D01*
X0021811Y0268013D01*
X0021811Y0266959D01*
X0022215Y0265985D01*
X0022960Y0265239D01*
X0023934Y0264836D01*
X0024849Y0264836D01*
X0026361Y0263323D01*
X0026361Y0233648D01*
X0024661Y0231948D01*
X0024661Y0228126D01*
X0024034Y0228126D01*
X0023060Y0227722D01*
X0022315Y0226977D01*
X0021911Y0226003D01*
X0021911Y0225043D01*
X0021689Y0225136D01*
X0020634Y0225136D01*
X0019660Y0224732D01*
X0018915Y0223987D01*
X0018511Y0223013D01*
X0018616Y0223266D02*
X0014056Y0223266D01*
X0013358Y0223964D02*
X0018905Y0223964D01*
X0019591Y0224663D02*
X0013180Y0224663D01*
X0013180Y0225361D02*
X0021911Y0225361D01*
X0021935Y0226060D02*
X0013180Y0226060D01*
X0013180Y0226758D02*
X0022224Y0226758D01*
X0022795Y0227457D02*
X0013180Y0227457D01*
X0013180Y0228155D02*
X0024661Y0228155D01*
X0024661Y0228854D02*
X0013180Y0228854D01*
X0013180Y0229552D02*
X0024661Y0229552D01*
X0024661Y0230251D02*
X0013180Y0230251D01*
X0013180Y0230949D02*
X0024661Y0230949D01*
X0024661Y0231648D02*
X0013180Y0231648D01*
X0013180Y0232346D02*
X0025059Y0232346D01*
X0025758Y0233045D02*
X0013180Y0233045D01*
X0013180Y0233743D02*
X0026361Y0233743D01*
X0026361Y0234442D02*
X0013180Y0234442D01*
X0013180Y0235140D02*
X0026361Y0235140D01*
X0026361Y0235839D02*
X0013180Y0235839D01*
X0013180Y0236537D02*
X0026361Y0236537D01*
X0026361Y0237236D02*
X0013180Y0237236D01*
X0013180Y0237934D02*
X0026361Y0237934D01*
X0026361Y0238633D02*
X0013180Y0238633D01*
X0013180Y0239331D02*
X0026361Y0239331D01*
X0026361Y0240030D02*
X0013180Y0240030D01*
X0013180Y0240728D02*
X0026361Y0240728D01*
X0026361Y0241427D02*
X0013180Y0241427D01*
X0013180Y0242125D02*
X0026361Y0242125D01*
X0026361Y0242824D02*
X0013180Y0242824D01*
X0013807Y0243522D02*
X0026361Y0243522D01*
X0026361Y0244221D02*
X0014505Y0244221D01*
X0015204Y0244919D02*
X0026361Y0244919D01*
X0026361Y0245618D02*
X0015902Y0245618D01*
X0016601Y0246316D02*
X0026361Y0246316D01*
X0026361Y0247015D02*
X0018498Y0247015D01*
X0019483Y0247713D02*
X0026361Y0247713D01*
X0026361Y0248412D02*
X0019918Y0248412D01*
X0020135Y0249110D02*
X0026361Y0249110D01*
X0026361Y0249809D02*
X0020135Y0249809D01*
X0019921Y0250508D02*
X0026361Y0250508D01*
X0026361Y0251206D02*
X0019490Y0251206D01*
X0018517Y0251905D02*
X0026361Y0251905D01*
X0026361Y0252603D02*
X0011861Y0252603D01*
X0011861Y0251905D02*
X0016453Y0251905D01*
X0017485Y0249464D02*
X0011580Y0243558D01*
X0011580Y0223479D01*
X0013154Y0221905D01*
X0013154Y0217180D01*
X0010005Y0214031D01*
X0010005Y0195527D01*
X0011580Y0193952D01*
X0011580Y0190015D01*
X0008824Y0187259D01*
X0008824Y0104582D01*
X0010792Y0102613D01*
X0011061Y0102786D01*
X0021561Y0102786D01*
X0029161Y0110386D01*
X0029461Y0110486D01*
X0029461Y0116086D01*
X0040661Y0127286D01*
X0040761Y0127586D01*
X0040761Y0139286D01*
X0048261Y0146786D01*
X0048361Y0147386D01*
X0048361Y0147086D01*
X0044888Y0155898D02*
X0045862Y0156301D01*
X0046607Y0157047D01*
X0046913Y0157786D01*
X0047111Y0157786D01*
X0047120Y0157777D01*
X0047772Y0157786D01*
X0048424Y0157786D01*
X0048433Y0157794D01*
X0048445Y0157795D01*
X0048900Y0158262D01*
X0049361Y0158723D01*
X0049361Y0158735D01*
X0064335Y0174109D01*
X0065477Y0173636D01*
X0067446Y0173636D01*
X0069265Y0174389D01*
X0070658Y0175782D01*
X0071411Y0177601D01*
X0071411Y0179570D01*
X0070658Y0181390D01*
X0069265Y0182782D01*
X0067446Y0183536D01*
X0065477Y0183536D01*
X0063657Y0182782D01*
X0062265Y0181390D01*
X0061511Y0179570D01*
X0061511Y0177601D01*
X0062036Y0176335D01*
X0047086Y0160986D01*
X0045642Y0160986D01*
X0045580Y0161038D01*
X0045389Y0161021D01*
X0045261Y0161148D01*
X0045261Y0161548D01*
X0044324Y0162486D01*
X0041212Y0165598D01*
X0041073Y0165923D01*
X0040762Y0166048D01*
X0040524Y0166286D01*
X0040327Y0166286D01*
X0040195Y0166418D01*
X0039842Y0166418D01*
X0039514Y0166550D01*
X0039205Y0166418D01*
X0033896Y0166418D01*
X0027611Y0172702D01*
X0027611Y0173713D01*
X0027506Y0173967D01*
X0038161Y0184623D01*
X0038161Y0188338D01*
X0038808Y0188985D01*
X0039211Y0189959D01*
X0039211Y0191013D01*
X0039086Y0191314D01*
X0041465Y0191314D01*
X0044439Y0192111D01*
X0047105Y0193651D01*
X0049282Y0195828D01*
X0050822Y0198494D01*
X0051618Y0201468D01*
X0051618Y0204546D01*
X0050822Y0207520D01*
X0049282Y0210186D01*
X0047105Y0212363D01*
X0044439Y0213903D01*
X0041465Y0214699D01*
X0038387Y0214699D01*
X0035413Y0213903D01*
X0032747Y0212363D01*
X0030570Y0210186D01*
X0029030Y0207520D01*
X0028233Y0204546D01*
X0028233Y0201468D01*
X0029030Y0198494D01*
X0030570Y0195828D01*
X0032747Y0193651D01*
X0034796Y0192468D01*
X0034315Y0191987D01*
X0033911Y0191013D01*
X0033911Y0189959D01*
X0034315Y0188985D01*
X0034961Y0188338D01*
X0034961Y0185948D01*
X0024849Y0175836D01*
X0024434Y0175836D01*
X0023460Y0175432D01*
X0022715Y0174687D01*
X0022311Y0173713D01*
X0022311Y0172659D01*
X0022715Y0171685D01*
X0023460Y0170939D01*
X0024434Y0170536D01*
X0025253Y0170536D01*
X0031633Y0164155D01*
X0032570Y0163218D01*
X0039066Y0163218D01*
X0042061Y0160223D01*
X0042061Y0159922D01*
X0041711Y0159075D01*
X0041711Y0158021D01*
X0042114Y0157047D01*
X0042860Y0156301D01*
X0043834Y0155898D01*
X0044888Y0155898D01*
X0045638Y0156208D02*
X0071711Y0156208D01*
X0071711Y0155510D02*
X0039148Y0155510D01*
X0039661Y0156208D02*
X0043084Y0156208D01*
X0042254Y0156907D02*
X0039661Y0156907D01*
X0039661Y0157605D02*
X0041883Y0157605D01*
X0041711Y0158304D02*
X0039661Y0158304D01*
X0039661Y0159003D02*
X0041711Y0159003D01*
X0041970Y0159701D02*
X0039309Y0159701D01*
X0038610Y0160400D02*
X0041885Y0160400D01*
X0041186Y0161098D02*
X0037912Y0161098D01*
X0039091Y0163194D02*
X0025216Y0163194D01*
X0024518Y0163892D02*
X0031896Y0163892D01*
X0031198Y0164591D02*
X0023819Y0164591D01*
X0023121Y0165289D02*
X0030499Y0165289D01*
X0029801Y0165988D02*
X0022422Y0165988D01*
X0021724Y0166686D02*
X0029102Y0166686D01*
X0028404Y0167385D02*
X0021025Y0167385D01*
X0020327Y0168083D02*
X0027705Y0168083D01*
X0027007Y0168782D02*
X0018228Y0168782D01*
X0017530Y0169480D02*
X0026308Y0169480D01*
X0025610Y0170179D02*
X0016831Y0170179D01*
X0016133Y0170877D02*
X0023610Y0170877D01*
X0022824Y0171576D02*
X0015434Y0171576D01*
X0015061Y0172274D02*
X0022471Y0172274D01*
X0022311Y0172973D02*
X0015061Y0172973D01*
X0015061Y0173671D02*
X0022311Y0173671D01*
X0022584Y0174370D02*
X0015061Y0174370D01*
X0015061Y0175068D02*
X0023096Y0175068D01*
X0024268Y0175767D02*
X0015061Y0175767D01*
X0015061Y0176465D02*
X0025478Y0176465D01*
X0026177Y0177164D02*
X0015061Y0177164D01*
X0015061Y0177862D02*
X0026875Y0177862D01*
X0027574Y0178561D02*
X0015061Y0178561D01*
X0015061Y0179259D02*
X0028272Y0179259D01*
X0028971Y0179958D02*
X0015061Y0179958D01*
X0015061Y0180656D02*
X0029669Y0180656D01*
X0030368Y0181355D02*
X0015061Y0181355D01*
X0015061Y0182053D02*
X0031066Y0182053D01*
X0031765Y0182752D02*
X0015061Y0182752D01*
X0015061Y0183450D02*
X0032463Y0183450D01*
X0033162Y0184149D02*
X0015061Y0184149D01*
X0015061Y0184847D02*
X0033860Y0184847D01*
X0034559Y0185546D02*
X0015184Y0185546D01*
X0015883Y0186244D02*
X0034961Y0186244D01*
X0034961Y0186943D02*
X0016581Y0186943D01*
X0017280Y0187641D02*
X0034961Y0187641D01*
X0034959Y0188340D02*
X0017661Y0188340D01*
X0017661Y0189039D02*
X0034292Y0189039D01*
X0034003Y0189737D02*
X0017661Y0189737D01*
X0017661Y0190436D02*
X0033911Y0190436D01*
X0033962Y0191134D02*
X0017661Y0191134D01*
X0017661Y0191833D02*
X0034251Y0191833D01*
X0034686Y0192531D02*
X0017661Y0192531D01*
X0017661Y0193230D02*
X0033476Y0193230D01*
X0032469Y0193928D02*
X0017661Y0193928D01*
X0017661Y0194627D02*
X0031771Y0194627D01*
X0031072Y0195325D02*
X0017661Y0195325D01*
X0017586Y0196024D02*
X0030456Y0196024D01*
X0030053Y0196722D02*
X0016888Y0196722D01*
X0016189Y0197421D02*
X0029650Y0197421D01*
X0029247Y0198119D02*
X0016061Y0198119D01*
X0016061Y0198818D02*
X0028943Y0198818D01*
X0028756Y0199516D02*
X0016061Y0199516D01*
X0016453Y0200215D02*
X0028569Y0200215D01*
X0028382Y0200913D02*
X0017152Y0200913D01*
X0017850Y0201612D02*
X0028233Y0201612D01*
X0028233Y0202310D02*
X0018549Y0202310D01*
X0019247Y0203009D02*
X0028233Y0203009D01*
X0028233Y0203707D02*
X0019946Y0203707D01*
X0020644Y0204406D02*
X0028233Y0204406D01*
X0028383Y0205104D02*
X0021261Y0205104D01*
X0021261Y0205803D02*
X0028570Y0205803D01*
X0028757Y0206501D02*
X0021261Y0206501D01*
X0021261Y0207200D02*
X0028944Y0207200D01*
X0029249Y0207898D02*
X0021261Y0207898D01*
X0021213Y0208597D02*
X0029652Y0208597D01*
X0030055Y0209295D02*
X0020514Y0209295D01*
X0020461Y0209994D02*
X0030459Y0209994D01*
X0031076Y0210692D02*
X0020461Y0210692D01*
X0020461Y0211391D02*
X0031774Y0211391D01*
X0032473Y0212089D02*
X0020461Y0212089D01*
X0020461Y0212788D02*
X0033482Y0212788D01*
X0034692Y0213486D02*
X0020461Y0213486D01*
X0020461Y0214185D02*
X0036467Y0214185D01*
X0031988Y0230949D02*
X0057961Y0230949D01*
X0057961Y0230251D02*
X0031289Y0230251D01*
X0030661Y0229552D02*
X0057961Y0229552D01*
X0057961Y0228854D02*
X0030661Y0228854D01*
X0030661Y0228155D02*
X0057961Y0228155D01*
X0057961Y0227457D02*
X0030661Y0227457D01*
X0030661Y0226758D02*
X0057961Y0226758D01*
X0057961Y0226060D02*
X0030661Y0226060D01*
X0030661Y0225361D02*
X0057961Y0225361D01*
X0057961Y0224663D02*
X0030661Y0224663D01*
X0030661Y0223964D02*
X0057961Y0223964D01*
X0057961Y0223266D02*
X0030661Y0223266D01*
X0030661Y0222567D02*
X0057961Y0222567D01*
X0057961Y0221869D02*
X0030661Y0221869D01*
X0030661Y0221170D02*
X0057961Y0221170D01*
X0057961Y0220472D02*
X0030661Y0220472D01*
X0030661Y0219773D02*
X0057961Y0219773D01*
X0057961Y0219074D02*
X0030692Y0219074D01*
X0030661Y0218376D02*
X0057961Y0218376D01*
X0057961Y0217677D02*
X0030116Y0217677D01*
X0029239Y0216979D02*
X0057961Y0216979D01*
X0057961Y0216280D02*
X0020461Y0216280D01*
X0020461Y0215582D02*
X0057961Y0215582D01*
X0057961Y0214883D02*
X0020461Y0214883D01*
X0019061Y0218086D02*
X0028061Y0218086D01*
X0029061Y0218886D01*
X0029061Y0230286D01*
X0030661Y0231886D01*
X0030661Y0269286D01*
X0030461Y0269486D01*
X0030461Y0272086D01*
X0029641Y0274955D02*
X0058811Y0274955D01*
X0058911Y0275654D02*
X0029641Y0275654D01*
X0029641Y0276352D02*
X0059201Y0276352D01*
X0059879Y0277051D02*
X0029641Y0277051D01*
X0029641Y0277749D02*
X0071711Y0277749D01*
X0071711Y0277051D02*
X0063044Y0277051D01*
X0063722Y0276352D02*
X0071711Y0276352D01*
X0071711Y0275654D02*
X0064012Y0275654D01*
X0064111Y0274955D02*
X0071711Y0274955D01*
X0071711Y0274257D02*
X0064069Y0274257D01*
X0063780Y0273558D02*
X0071711Y0273558D01*
X0071711Y0272860D02*
X0063183Y0272860D01*
X0061461Y0274886D02*
X0047061Y0260486D01*
X0046402Y0263081D02*
X0032261Y0263081D01*
X0032261Y0263779D02*
X0048092Y0263779D01*
X0048791Y0264478D02*
X0032261Y0264478D01*
X0032261Y0265176D02*
X0049489Y0265176D01*
X0050188Y0265875D02*
X0032261Y0265875D01*
X0032261Y0266573D02*
X0050886Y0266573D01*
X0051585Y0267272D02*
X0032261Y0267272D01*
X0032261Y0267970D02*
X0052283Y0267970D01*
X0052982Y0268669D02*
X0032261Y0268669D01*
X0032261Y0269367D02*
X0053680Y0269367D01*
X0054379Y0270066D02*
X0032189Y0270066D01*
X0032782Y0270764D02*
X0055077Y0270764D01*
X0055776Y0271463D02*
X0033072Y0271463D01*
X0033111Y0272161D02*
X0056474Y0272161D01*
X0057173Y0272860D02*
X0033009Y0272860D01*
X0032720Y0273558D02*
X0057871Y0273558D01*
X0058570Y0274257D02*
X0032038Y0274257D01*
X0029641Y0278448D02*
X0071711Y0278448D01*
X0071711Y0279146D02*
X0029641Y0279146D01*
X0029641Y0279845D02*
X0071711Y0279845D01*
X0071711Y0280543D02*
X0029641Y0280543D01*
X0029641Y0281242D02*
X0071711Y0281242D01*
X0071711Y0281941D02*
X0029641Y0281941D01*
X0030360Y0282639D02*
X0071711Y0282639D01*
X0071711Y0283338D02*
X0031271Y0283338D01*
X0031676Y0284036D02*
X0071711Y0284036D01*
X0071711Y0284735D02*
X0031871Y0284735D01*
X0031871Y0285433D02*
X0071711Y0285433D01*
X0071711Y0286132D02*
X0031636Y0286132D01*
X0031175Y0286830D02*
X0071711Y0286830D01*
X0071711Y0287529D02*
X0030128Y0287529D01*
X0029221Y0285036D02*
X0029211Y0284986D01*
X0028041Y0283816D01*
X0028041Y0271076D01*
X0029081Y0270036D01*
X0029081Y0268996D01*
X0029341Y0268736D01*
X0029341Y0232466D01*
X0027651Y0230776D01*
X0027651Y0225186D01*
X0025051Y0222586D01*
X0021281Y0222586D01*
X0021161Y0222486D01*
X0022895Y0220472D02*
X0027461Y0220472D01*
X0027461Y0221170D02*
X0025899Y0221170D01*
X0026597Y0221869D02*
X0027461Y0221869D01*
X0027461Y0222567D02*
X0027296Y0222567D01*
X0027461Y0219773D02*
X0014754Y0219773D01*
X0014754Y0219074D02*
X0017788Y0219074D01*
X0017261Y0218376D02*
X0014754Y0218376D01*
X0014754Y0217677D02*
X0017261Y0217677D01*
X0017261Y0216979D02*
X0014754Y0216979D01*
X0014517Y0216280D02*
X0017261Y0216280D01*
X0017261Y0215582D02*
X0013819Y0215582D01*
X0013120Y0214883D02*
X0017261Y0214883D01*
X0017261Y0214185D02*
X0012422Y0214185D01*
X0011723Y0213486D02*
X0017261Y0213486D01*
X0017261Y0212788D02*
X0011605Y0212788D01*
X0011605Y0212089D02*
X0017261Y0212089D01*
X0017261Y0211391D02*
X0011605Y0211391D01*
X0011605Y0210692D02*
X0017261Y0210692D01*
X0017261Y0209994D02*
X0013289Y0209994D01*
X0014499Y0209295D02*
X0016396Y0209295D01*
X0017261Y0206786D02*
X0017091Y0206550D01*
X0013154Y0202613D01*
X0013154Y0196314D01*
X0014729Y0194739D01*
X0014729Y0189227D01*
X0011973Y0186471D01*
X0011973Y0170723D01*
X0011973Y0170723D01*
X0011973Y0170723D01*
X0013942Y0168755D01*
X0014335Y0168361D01*
X0017091Y0165212D01*
X0019060Y0165212D01*
X0026540Y0157731D01*
X0026540Y0157686D01*
X0035661Y0157686D01*
X0034089Y0155510D02*
X0010424Y0155510D01*
X0010424Y0156208D02*
X0025676Y0156208D01*
X0024977Y0156907D02*
X0010424Y0156907D01*
X0010424Y0157605D02*
X0024403Y0157605D01*
X0023705Y0158304D02*
X0010424Y0158304D01*
X0010424Y0159003D02*
X0023006Y0159003D01*
X0022308Y0159701D02*
X0010424Y0159701D01*
X0010424Y0160400D02*
X0015419Y0160400D01*
X0014783Y0161098D02*
X0010424Y0161098D01*
X0010424Y0161797D02*
X0014494Y0161797D01*
X0014424Y0162495D02*
X0010424Y0162495D01*
X0010424Y0163194D02*
X0014425Y0163194D01*
X0013850Y0163892D02*
X0010424Y0163892D01*
X0010424Y0164591D02*
X0013275Y0164591D01*
X0012700Y0165289D02*
X0010424Y0165289D01*
X0010424Y0165988D02*
X0012126Y0165988D01*
X0011551Y0166686D02*
X0010424Y0166686D01*
X0010424Y0167385D02*
X0010976Y0167385D01*
X0011580Y0169149D02*
X0010398Y0170330D01*
X0010398Y0186865D01*
X0013154Y0189621D01*
X0013154Y0194345D01*
X0011580Y0195920D01*
X0011580Y0206550D01*
X0012367Y0207338D01*
X0012661Y0207386D01*
X0012033Y0209994D02*
X0011605Y0209994D01*
X0010261Y0216186D02*
X0011661Y0217586D01*
X0011661Y0219586D01*
X0010261Y0220986D01*
X0010261Y0263786D01*
X0010361Y0264086D01*
X0013561Y0267286D01*
X0018661Y0267286D01*
X0016925Y0269367D02*
X0010561Y0269367D01*
X0010561Y0268669D02*
X0012682Y0268669D01*
X0011983Y0267970D02*
X0010561Y0267970D01*
X0010561Y0267272D02*
X0011285Y0267272D01*
X0010586Y0266573D02*
X0010561Y0266573D01*
X0010561Y0270066D02*
X0023766Y0270066D01*
X0022595Y0269367D02*
X0020398Y0269367D01*
X0021011Y0268669D02*
X0022083Y0268669D01*
X0021811Y0267970D02*
X0021300Y0267970D01*
X0021361Y0267272D02*
X0021811Y0267272D01*
X0021971Y0266573D02*
X0021289Y0266573D01*
X0020999Y0265875D02*
X0022325Y0265875D01*
X0023112Y0265176D02*
X0020370Y0265176D01*
X0017389Y0277051D02*
X0026441Y0277051D01*
X0026441Y0277749D02*
X0018088Y0277749D01*
X0018786Y0278448D02*
X0026441Y0278448D01*
X0026441Y0279146D02*
X0019370Y0279146D01*
X0019857Y0279845D02*
X0026441Y0279845D01*
X0026441Y0280543D02*
X0020111Y0280543D01*
X0020111Y0281242D02*
X0026441Y0281242D01*
X0026441Y0281941D02*
X0019934Y0281941D01*
X0019556Y0282639D02*
X0026441Y0282639D01*
X0026441Y0283338D02*
X0018708Y0283338D01*
X0017461Y0280986D02*
X0017461Y0279386D01*
X0008961Y0270886D01*
X0008961Y0218886D01*
X0009261Y0218586D01*
X0008961Y0216186D02*
X0008861Y0215886D01*
X0008661Y0215686D01*
X0008661Y0191386D01*
X0008961Y0191086D01*
X0015028Y0208597D02*
X0015325Y0208597D01*
X0010261Y0216186D02*
X0008961Y0216186D01*
X0011861Y0246316D02*
X0012075Y0246316D01*
X0011861Y0247015D02*
X0012774Y0247015D01*
X0013472Y0247713D02*
X0011861Y0247713D01*
X0011861Y0248412D02*
X0014171Y0248412D01*
X0014835Y0249110D02*
X0011861Y0249110D01*
X0011861Y0249809D02*
X0014835Y0249809D01*
X0015049Y0250508D02*
X0011861Y0250508D01*
X0011861Y0251206D02*
X0015480Y0251206D01*
X0011861Y0253302D02*
X0026361Y0253302D01*
X0026361Y0254000D02*
X0011861Y0254000D01*
X0011861Y0254699D02*
X0026361Y0254699D01*
X0026361Y0255397D02*
X0011861Y0255397D01*
X0011861Y0256096D02*
X0026361Y0256096D01*
X0026361Y0256794D02*
X0011861Y0256794D01*
X0011861Y0257493D02*
X0026361Y0257493D01*
X0026361Y0258191D02*
X0011861Y0258191D01*
X0011861Y0258890D02*
X0026361Y0258890D01*
X0026361Y0259588D02*
X0011861Y0259588D01*
X0011861Y0260287D02*
X0026361Y0260287D01*
X0026361Y0260985D02*
X0011861Y0260985D01*
X0011861Y0261684D02*
X0026361Y0261684D01*
X0026361Y0262382D02*
X0011861Y0262382D01*
X0011861Y0263081D02*
X0026361Y0263081D01*
X0025905Y0263779D02*
X0012318Y0263779D01*
X0013016Y0264478D02*
X0025207Y0264478D01*
X0027961Y0263986D02*
X0024461Y0267486D01*
X0025157Y0270066D02*
X0026788Y0270066D01*
X0026441Y0270764D02*
X0011103Y0270764D01*
X0011801Y0271463D02*
X0026441Y0271463D01*
X0026441Y0272161D02*
X0012500Y0272161D01*
X0013198Y0272860D02*
X0026441Y0272860D01*
X0026441Y0273558D02*
X0013897Y0273558D01*
X0014595Y0274257D02*
X0026441Y0274257D01*
X0026441Y0274955D02*
X0015294Y0274955D01*
X0015992Y0275654D02*
X0026441Y0275654D01*
X0026441Y0276352D02*
X0016691Y0276352D01*
X0014960Y0279146D02*
X0008611Y0279146D01*
X0008611Y0278448D02*
X0014261Y0278448D01*
X0013563Y0277749D02*
X0008611Y0277749D01*
X0008611Y0277051D02*
X0012864Y0277051D01*
X0012165Y0276352D02*
X0008611Y0276352D01*
X0008611Y0275654D02*
X0011467Y0275654D01*
X0010768Y0274955D02*
X0008611Y0274955D01*
X0008611Y0274257D02*
X0010070Y0274257D01*
X0009371Y0273558D02*
X0008611Y0273558D01*
X0008611Y0272860D02*
X0008673Y0272860D01*
X0008611Y0279845D02*
X0015066Y0279845D01*
X0014811Y0280543D02*
X0008611Y0280543D01*
X0008611Y0281242D02*
X0014811Y0281242D01*
X0014989Y0281941D02*
X0008611Y0281941D01*
X0008611Y0282639D02*
X0015367Y0282639D01*
X0016215Y0283338D02*
X0008611Y0283338D01*
X0008611Y0284036D02*
X0026441Y0284036D01*
X0026571Y0284735D02*
X0008611Y0284735D01*
X0008611Y0285433D02*
X0026571Y0285433D01*
X0026807Y0286132D02*
X0008611Y0286132D01*
X0008611Y0286830D02*
X0027268Y0286830D01*
X0028315Y0287529D02*
X0008611Y0287529D01*
X0008611Y0288227D02*
X0071711Y0288227D01*
X0071711Y0288926D02*
X0048095Y0288926D01*
X0052660Y0289624D02*
X0071711Y0289624D01*
X0071711Y0290323D02*
X0054224Y0290323D01*
X0055298Y0291021D02*
X0071711Y0291021D01*
X0071711Y0291720D02*
X0056153Y0291720D01*
X0056852Y0292418D02*
X0071711Y0292418D01*
X0071711Y0293117D02*
X0057417Y0293117D01*
X0057898Y0293815D02*
X0071711Y0293815D01*
X0071711Y0294514D02*
X0058313Y0294514D01*
X0058649Y0295212D02*
X0071711Y0295212D01*
X0071711Y0295911D02*
X0058918Y0295911D01*
X0059149Y0296609D02*
X0071711Y0296609D01*
X0071711Y0297308D02*
X0059308Y0297308D01*
X0059424Y0298006D02*
X0071711Y0298006D01*
X0071711Y0298705D02*
X0059502Y0298705D01*
X0059139Y0299403D02*
X0071711Y0299403D01*
X0071711Y0300102D02*
X0059718Y0300102D01*
X0060235Y0300800D02*
X0071711Y0300800D01*
X0071711Y0301499D02*
X0060784Y0301499D01*
X0061332Y0302197D02*
X0071711Y0302197D01*
X0071711Y0302896D02*
X0061880Y0302896D01*
X0062429Y0303594D02*
X0071711Y0303594D01*
X0071711Y0272161D02*
X0061000Y0272161D01*
X0060301Y0271463D02*
X0071711Y0271463D01*
X0071711Y0270764D02*
X0059603Y0270764D01*
X0058904Y0270066D02*
X0071711Y0270066D01*
X0071711Y0269367D02*
X0058206Y0269367D01*
X0057507Y0268669D02*
X0071711Y0268669D01*
X0071711Y0267970D02*
X0056809Y0267970D01*
X0056110Y0267272D02*
X0061200Y0267272D01*
X0060568Y0266573D02*
X0058292Y0266573D01*
X0058967Y0265875D02*
X0060279Y0265875D01*
X0060211Y0265176D02*
X0059256Y0265176D01*
X0059361Y0264478D02*
X0060286Y0264478D01*
X0060576Y0263779D02*
X0059601Y0263779D01*
X0060300Y0263081D02*
X0061219Y0263081D01*
X0061261Y0262382D02*
X0060998Y0262382D01*
X0062361Y0258686D02*
X0062261Y0258386D01*
X0062261Y0255386D01*
X0060861Y0253986D01*
X0060861Y0224786D01*
X0066361Y0219286D01*
X0066361Y0218586D01*
X0066461Y0218586D01*
X0066961Y0218686D02*
X0066361Y0219286D01*
X0066111Y0223536D02*
X0066111Y0228236D01*
X0066811Y0228236D01*
X0066811Y0223536D01*
X0066859Y0223536D01*
X0067644Y0223660D01*
X0068400Y0223906D01*
X0069108Y0224266D01*
X0069751Y0224734D01*
X0070061Y0225044D01*
X0070061Y0221986D01*
X0069265Y0222782D01*
X0067446Y0223536D01*
X0065477Y0223536D01*
X0064697Y0223213D01*
X0063188Y0224722D01*
X0063815Y0224266D01*
X0064523Y0223906D01*
X0065279Y0223660D01*
X0066064Y0223536D01*
X0066111Y0223536D01*
X0066111Y0223964D02*
X0066811Y0223964D01*
X0066811Y0224663D02*
X0066111Y0224663D01*
X0066111Y0225361D02*
X0066811Y0225361D01*
X0066811Y0226060D02*
X0066111Y0226060D01*
X0066111Y0226758D02*
X0066811Y0226758D01*
X0066811Y0227457D02*
X0066111Y0227457D01*
X0066111Y0228155D02*
X0066811Y0228155D01*
X0068515Y0223964D02*
X0070061Y0223964D01*
X0070061Y0223266D02*
X0068098Y0223266D01*
X0069480Y0222567D02*
X0070061Y0222567D01*
X0070061Y0224663D02*
X0069653Y0224663D01*
X0071661Y0230386D02*
X0068361Y0233686D01*
X0068261Y0233986D01*
X0065361Y0233986D01*
X0062161Y0237186D01*
X0062161Y0253386D01*
X0063561Y0254786D01*
X0063561Y0257886D01*
X0063861Y0258186D01*
X0063861Y0259186D01*
X0062861Y0260186D01*
X0062861Y0265186D01*
X0064504Y0263081D02*
X0071711Y0263081D01*
X0071711Y0263779D02*
X0065147Y0263779D01*
X0065437Y0264478D02*
X0071711Y0264478D01*
X0071711Y0265176D02*
X0065511Y0265176D01*
X0065444Y0265875D02*
X0071711Y0265875D01*
X0071711Y0266573D02*
X0065155Y0266573D01*
X0064523Y0267272D02*
X0071711Y0267272D01*
X0071711Y0262382D02*
X0064461Y0262382D01*
X0064461Y0261684D02*
X0071711Y0261684D01*
X0071711Y0260985D02*
X0064461Y0260985D01*
X0065023Y0260287D02*
X0071711Y0260287D01*
X0071711Y0259588D02*
X0065461Y0259588D01*
X0065461Y0258890D02*
X0071711Y0258890D01*
X0071711Y0258191D02*
X0065461Y0258191D01*
X0065431Y0257493D02*
X0071711Y0257493D01*
X0071711Y0256794D02*
X0065161Y0256794D01*
X0065161Y0256096D02*
X0071711Y0256096D01*
X0071711Y0255397D02*
X0065161Y0255397D01*
X0065161Y0254699D02*
X0071711Y0254699D01*
X0071711Y0254000D02*
X0065039Y0254000D01*
X0064340Y0253302D02*
X0071711Y0253302D01*
X0071711Y0252603D02*
X0063761Y0252603D01*
X0063761Y0251905D02*
X0071711Y0251905D01*
X0071711Y0251206D02*
X0063761Y0251206D01*
X0063761Y0250508D02*
X0071711Y0250508D01*
X0071711Y0249809D02*
X0063761Y0249809D01*
X0063761Y0249110D02*
X0071711Y0249110D01*
X0071711Y0248412D02*
X0063761Y0248412D01*
X0063761Y0247713D02*
X0071711Y0247713D01*
X0071711Y0247015D02*
X0063761Y0247015D01*
X0063761Y0246316D02*
X0071711Y0246316D01*
X0071711Y0245618D02*
X0063761Y0245618D01*
X0063761Y0244919D02*
X0071711Y0244919D01*
X0071711Y0244221D02*
X0063761Y0244221D01*
X0063761Y0243522D02*
X0071711Y0243522D01*
X0071711Y0242824D02*
X0063761Y0242824D01*
X0063761Y0242125D02*
X0071711Y0242125D01*
X0071711Y0241427D02*
X0063761Y0241427D01*
X0063761Y0240728D02*
X0071711Y0240728D01*
X0071711Y0240030D02*
X0063761Y0240030D01*
X0063761Y0239331D02*
X0071711Y0239331D01*
X0071711Y0238633D02*
X0063761Y0238633D01*
X0063761Y0237934D02*
X0071711Y0237934D01*
X0071711Y0237236D02*
X0064374Y0237236D01*
X0065072Y0236537D02*
X0071711Y0236537D01*
X0071711Y0235839D02*
X0065771Y0235839D01*
X0063269Y0224663D02*
X0063247Y0224663D01*
X0063946Y0223964D02*
X0064408Y0223964D01*
X0064644Y0223266D02*
X0064825Y0223266D01*
X0063163Y0214883D02*
X0061161Y0214883D01*
X0061161Y0214185D02*
X0064151Y0214185D01*
X0065358Y0213486D02*
X0061161Y0213486D01*
X0061161Y0212788D02*
X0063672Y0212788D01*
X0062965Y0212089D02*
X0061161Y0212089D01*
X0061161Y0211391D02*
X0062266Y0211391D01*
X0061976Y0210692D02*
X0061161Y0210692D01*
X0061161Y0209994D02*
X0061687Y0209994D01*
X0061511Y0209295D02*
X0061161Y0209295D01*
X0061161Y0208597D02*
X0061511Y0208597D01*
X0061511Y0207898D02*
X0061161Y0207898D01*
X0061161Y0207200D02*
X0061678Y0207200D01*
X0061967Y0206501D02*
X0061161Y0206501D01*
X0061161Y0205803D02*
X0062256Y0205803D01*
X0062942Y0205104D02*
X0061161Y0205104D01*
X0061161Y0204406D02*
X0063641Y0204406D01*
X0064205Y0203009D02*
X0061047Y0203009D01*
X0061177Y0203707D02*
X0065304Y0203707D01*
X0063186Y0202310D02*
X0060420Y0202310D01*
X0059846Y0201612D02*
X0062487Y0201612D01*
X0062068Y0200913D02*
X0059271Y0200913D01*
X0058697Y0200215D02*
X0061778Y0200215D01*
X0061511Y0199516D02*
X0058123Y0199516D01*
X0057549Y0198818D02*
X0061511Y0198818D01*
X0061511Y0198119D02*
X0056975Y0198119D01*
X0056400Y0197421D02*
X0061586Y0197421D01*
X0061875Y0196722D02*
X0055826Y0196722D01*
X0055252Y0196024D02*
X0062165Y0196024D01*
X0062722Y0195325D02*
X0054678Y0195325D01*
X0054104Y0194627D02*
X0063420Y0194627D01*
X0063657Y0192782D02*
X0062265Y0191390D01*
X0061511Y0189570D01*
X0061511Y0187601D01*
X0062265Y0185782D01*
X0063657Y0184389D01*
X0065477Y0183636D01*
X0067446Y0183636D01*
X0069265Y0184389D01*
X0070658Y0185782D01*
X0071411Y0187601D01*
X0071411Y0189570D01*
X0070658Y0191390D01*
X0069265Y0192782D01*
X0067446Y0193536D01*
X0065477Y0193536D01*
X0063657Y0192782D01*
X0063407Y0192531D02*
X0052504Y0192531D01*
X0052511Y0191833D02*
X0062708Y0191833D01*
X0062159Y0191134D02*
X0052377Y0191134D01*
X0052059Y0190436D02*
X0061870Y0190436D01*
X0061581Y0189737D02*
X0051358Y0189737D01*
X0049861Y0191986D02*
X0059561Y0203786D01*
X0059561Y0256086D01*
X0058461Y0257186D01*
X0057541Y0254699D02*
X0032261Y0254699D01*
X0032261Y0255397D02*
X0056502Y0255397D01*
X0056045Y0256096D02*
X0032261Y0256096D01*
X0032261Y0256794D02*
X0055811Y0256794D01*
X0055811Y0257493D02*
X0032261Y0257493D01*
X0032261Y0258191D02*
X0045676Y0258191D01*
X0044910Y0258890D02*
X0032261Y0258890D01*
X0032261Y0259588D02*
X0044565Y0259588D01*
X0044411Y0260287D02*
X0032261Y0260287D01*
X0032261Y0260985D02*
X0044411Y0260985D01*
X0044689Y0261684D02*
X0032261Y0261684D01*
X0032261Y0262382D02*
X0045210Y0262382D01*
X0048447Y0258191D02*
X0056010Y0258191D01*
X0056418Y0258890D02*
X0049213Y0258890D01*
X0049558Y0259588D02*
X0057337Y0259588D01*
X0058427Y0260287D02*
X0049711Y0260287D01*
X0049824Y0260985D02*
X0057728Y0260985D01*
X0057030Y0261684D02*
X0050522Y0261684D01*
X0051221Y0262382D02*
X0054846Y0262382D01*
X0054279Y0263081D02*
X0051919Y0263081D01*
X0052618Y0263779D02*
X0053990Y0263779D01*
X0053961Y0264478D02*
X0053316Y0264478D01*
X0054015Y0265176D02*
X0054066Y0265176D01*
X0057961Y0254000D02*
X0032261Y0254000D01*
X0032261Y0253302D02*
X0057961Y0253302D01*
X0057961Y0252603D02*
X0032261Y0252603D01*
X0032261Y0251905D02*
X0057961Y0251905D01*
X0057961Y0251206D02*
X0032261Y0251206D01*
X0032261Y0250508D02*
X0057961Y0250508D01*
X0057961Y0249809D02*
X0032261Y0249809D01*
X0032261Y0249110D02*
X0057961Y0249110D01*
X0057961Y0248412D02*
X0032261Y0248412D01*
X0032261Y0247713D02*
X0057961Y0247713D01*
X0057961Y0247015D02*
X0032261Y0247015D01*
X0032261Y0246316D02*
X0057961Y0246316D01*
X0057961Y0245618D02*
X0032261Y0245618D01*
X0032261Y0244919D02*
X0057961Y0244919D01*
X0057961Y0244221D02*
X0032261Y0244221D01*
X0032261Y0243522D02*
X0057961Y0243522D01*
X0057961Y0242824D02*
X0032261Y0242824D01*
X0032261Y0242125D02*
X0057961Y0242125D01*
X0057961Y0241427D02*
X0032261Y0241427D01*
X0032261Y0240728D02*
X0057961Y0240728D01*
X0057961Y0240030D02*
X0032261Y0240030D01*
X0032261Y0239331D02*
X0057961Y0239331D01*
X0057961Y0238633D02*
X0032261Y0238633D01*
X0032261Y0237934D02*
X0057961Y0237934D01*
X0057961Y0237236D02*
X0032261Y0237236D01*
X0032261Y0236537D02*
X0057961Y0236537D01*
X0057961Y0235839D02*
X0032261Y0235839D01*
X0032261Y0235140D02*
X0057961Y0235140D01*
X0057961Y0234442D02*
X0032261Y0234442D01*
X0032261Y0233743D02*
X0057961Y0233743D01*
X0057961Y0233045D02*
X0032261Y0233045D01*
X0032261Y0232346D02*
X0057961Y0232346D01*
X0057961Y0231648D02*
X0032261Y0231648D01*
X0027961Y0232986D02*
X0026261Y0231286D01*
X0026261Y0227186D01*
X0024561Y0225486D01*
X0024561Y0225476D01*
X0027961Y0232986D02*
X0027961Y0263986D01*
X0027741Y0266573D02*
X0027637Y0266573D01*
X0027741Y0267272D02*
X0027111Y0267272D01*
X0027111Y0267970D02*
X0027741Y0267970D01*
X0027481Y0268669D02*
X0026840Y0268669D01*
X0026327Y0269367D02*
X0027481Y0269367D01*
X0027662Y0289624D02*
X0008611Y0289624D01*
X0008611Y0288926D02*
X0034423Y0288926D01*
X0026099Y0290323D02*
X0008611Y0290323D01*
X0008611Y0291021D02*
X0025024Y0291021D01*
X0024170Y0291720D02*
X0008611Y0291720D01*
X0008611Y0292418D02*
X0023471Y0292418D01*
X0022906Y0293117D02*
X0008611Y0293117D01*
X0008611Y0293815D02*
X0022425Y0293815D01*
X0022010Y0294514D02*
X0008611Y0294514D01*
X0008611Y0295212D02*
X0021674Y0295212D01*
X0021405Y0295911D02*
X0008611Y0295911D01*
X0008611Y0296609D02*
X0021174Y0296609D01*
X0021015Y0297308D02*
X0008611Y0297308D01*
X0008611Y0298006D02*
X0020899Y0298006D01*
X0020820Y0298705D02*
X0008611Y0298705D01*
X0008611Y0299403D02*
X0021297Y0299403D01*
X0020705Y0300102D02*
X0008611Y0300102D01*
X0008611Y0300800D02*
X0020172Y0300800D01*
X0019610Y0301499D02*
X0008611Y0301499D01*
X0008611Y0302197D02*
X0019047Y0302197D01*
X0018485Y0302896D02*
X0008611Y0302896D01*
X0008611Y0303594D02*
X0017923Y0303594D01*
X0016952Y0265176D02*
X0013715Y0265176D01*
X0034893Y0181355D02*
X0062251Y0181355D01*
X0061961Y0180656D02*
X0034195Y0180656D01*
X0033496Y0179958D02*
X0061672Y0179958D01*
X0061511Y0179259D02*
X0032798Y0179259D01*
X0032099Y0178561D02*
X0061511Y0178561D01*
X0061511Y0177862D02*
X0031401Y0177862D01*
X0030702Y0177164D02*
X0061693Y0177164D01*
X0061982Y0176465D02*
X0030004Y0176465D01*
X0029305Y0175767D02*
X0061483Y0175767D01*
X0060802Y0175068D02*
X0028607Y0175068D01*
X0027908Y0174370D02*
X0060122Y0174370D01*
X0059442Y0173671D02*
X0027611Y0173671D01*
X0027611Y0172973D02*
X0058761Y0172973D01*
X0058081Y0172274D02*
X0028039Y0172274D01*
X0028738Y0171576D02*
X0057401Y0171576D01*
X0056720Y0170877D02*
X0029437Y0170877D01*
X0030135Y0170179D02*
X0056040Y0170179D01*
X0055360Y0169480D02*
X0030834Y0169480D01*
X0031532Y0168782D02*
X0054679Y0168782D01*
X0053999Y0168083D02*
X0032231Y0168083D01*
X0032929Y0167385D02*
X0053319Y0167385D01*
X0052638Y0166686D02*
X0033628Y0166686D01*
X0033233Y0164818D02*
X0039532Y0164818D01*
X0039861Y0164686D01*
X0043661Y0160886D01*
X0043661Y0160486D01*
X0044361Y0159786D01*
X0044361Y0159686D01*
X0044761Y0159286D01*
X0044761Y0158986D01*
X0044361Y0158586D01*
X0044361Y0158548D01*
X0045061Y0159386D01*
X0047761Y0159386D01*
X0066461Y0178586D01*
X0067652Y0183450D02*
X0071711Y0183450D01*
X0071711Y0182752D02*
X0069295Y0182752D01*
X0069994Y0182053D02*
X0071711Y0182053D01*
X0071711Y0181355D02*
X0070672Y0181355D01*
X0070962Y0180656D02*
X0071711Y0180656D01*
X0071711Y0179958D02*
X0071251Y0179958D01*
X0071411Y0179259D02*
X0071711Y0179259D01*
X0071711Y0178561D02*
X0071411Y0178561D01*
X0071411Y0177862D02*
X0071711Y0177862D01*
X0071711Y0177164D02*
X0071230Y0177164D01*
X0070941Y0176465D02*
X0071711Y0176465D01*
X0071711Y0175767D02*
X0070643Y0175767D01*
X0069944Y0175068D02*
X0071711Y0175068D01*
X0071711Y0174370D02*
X0069218Y0174370D01*
X0068805Y0172973D02*
X0071711Y0172973D01*
X0071711Y0173671D02*
X0067532Y0173671D01*
X0067446Y0173536D02*
X0065477Y0173536D01*
X0063657Y0172782D01*
X0062265Y0171390D01*
X0061511Y0169570D01*
X0061511Y0167601D01*
X0062265Y0165782D01*
X0063657Y0164389D01*
X0065477Y0163636D01*
X0067446Y0163636D01*
X0069265Y0164389D01*
X0070658Y0165782D01*
X0071411Y0167601D01*
X0071411Y0169570D01*
X0070658Y0171390D01*
X0069265Y0172782D01*
X0067446Y0173536D01*
X0065391Y0173671D02*
X0063908Y0173671D01*
X0064118Y0172973D02*
X0063228Y0172973D01*
X0063150Y0172274D02*
X0062548Y0172274D01*
X0062451Y0171576D02*
X0061868Y0171576D01*
X0062053Y0170877D02*
X0061187Y0170877D01*
X0061763Y0170179D02*
X0060507Y0170179D01*
X0059827Y0169480D02*
X0061511Y0169480D01*
X0061511Y0168782D02*
X0059146Y0168782D01*
X0058466Y0168083D02*
X0061511Y0168083D01*
X0061601Y0167385D02*
X0057786Y0167385D01*
X0057105Y0166686D02*
X0061890Y0166686D01*
X0062180Y0165988D02*
X0056425Y0165988D01*
X0055745Y0165289D02*
X0062758Y0165289D01*
X0063456Y0164591D02*
X0055064Y0164591D01*
X0054384Y0163892D02*
X0064858Y0163892D01*
X0064176Y0151319D02*
X0071711Y0151319D01*
X0071711Y0152017D02*
X0035656Y0152017D01*
X0034957Y0151319D02*
X0061147Y0151319D01*
X0063246Y0146429D02*
X0071711Y0146429D01*
X0071711Y0145731D02*
X0062664Y0145731D01*
X0062082Y0145032D02*
X0071711Y0145032D01*
X0071711Y0144334D02*
X0061500Y0144334D01*
X0060918Y0143635D02*
X0071711Y0143635D01*
X0071711Y0142937D02*
X0060336Y0142937D01*
X0060311Y0142238D02*
X0071711Y0142238D01*
X0071711Y0141540D02*
X0060311Y0141540D01*
X0060311Y0140841D02*
X0071711Y0140841D01*
X0071711Y0140143D02*
X0060311Y0140143D01*
X0060475Y0139444D02*
X0071711Y0139444D01*
X0071711Y0138746D02*
X0060311Y0138746D01*
X0059911Y0138047D02*
X0071711Y0138047D01*
X0071711Y0137349D02*
X0059447Y0137349D01*
X0058666Y0136650D02*
X0071711Y0136650D01*
X0071711Y0135952D02*
X0057968Y0135952D01*
X0057269Y0135253D02*
X0071711Y0135253D01*
X0071711Y0134555D02*
X0056571Y0134555D01*
X0055872Y0133856D02*
X0071711Y0133856D01*
X0071711Y0133158D02*
X0055174Y0133158D01*
X0054475Y0132459D02*
X0071711Y0132459D01*
X0071711Y0131761D02*
X0053777Y0131761D01*
X0053078Y0131062D02*
X0071711Y0131062D01*
X0071711Y0130364D02*
X0052380Y0130364D01*
X0051681Y0129665D02*
X0071711Y0129665D01*
X0071711Y0128967D02*
X0051211Y0128967D01*
X0051211Y0128268D02*
X0071711Y0128268D01*
X0071711Y0127570D02*
X0051211Y0127570D01*
X0051211Y0126871D02*
X0071711Y0126871D01*
X0071711Y0126172D02*
X0051211Y0126172D01*
X0051211Y0125474D02*
X0071711Y0125474D01*
X0071711Y0124775D02*
X0051211Y0124775D01*
X0051331Y0124077D02*
X0071711Y0124077D01*
X0071711Y0123378D02*
X0051211Y0123378D01*
X0050811Y0122680D02*
X0071711Y0122680D01*
X0071711Y0121981D02*
X0050413Y0121981D01*
X0049699Y0121283D02*
X0071711Y0121283D01*
X0071711Y0120584D02*
X0049001Y0120584D01*
X0048302Y0119886D02*
X0071711Y0119886D01*
X0071711Y0119187D02*
X0047604Y0119187D01*
X0046905Y0118489D02*
X0071711Y0118489D01*
X0071711Y0117790D02*
X0046207Y0117790D01*
X0045508Y0117092D02*
X0071711Y0117092D01*
X0071711Y0116393D02*
X0044810Y0116393D01*
X0044111Y0115695D02*
X0071711Y0115695D01*
X0071711Y0114996D02*
X0043413Y0114996D01*
X0042714Y0114298D02*
X0071711Y0114298D01*
X0071711Y0113599D02*
X0042311Y0113599D01*
X0042311Y0112901D02*
X0071711Y0112901D01*
X0071711Y0112202D02*
X0042311Y0112202D01*
X0042311Y0111504D02*
X0071711Y0111504D01*
X0071711Y0110805D02*
X0042311Y0110805D01*
X0042311Y0110107D02*
X0071711Y0110107D01*
X0071711Y0109408D02*
X0042311Y0109408D01*
X0042311Y0108710D02*
X0071711Y0108710D01*
X0071711Y0108011D02*
X0042311Y0108011D01*
X0042311Y0107313D02*
X0071711Y0107313D01*
X0071711Y0106614D02*
X0042311Y0106614D01*
X0042311Y0105916D02*
X0071711Y0105916D01*
X0071711Y0105217D02*
X0042311Y0105217D01*
X0042311Y0104519D02*
X0071711Y0104519D01*
X0071711Y0103820D02*
X0042311Y0103820D01*
X0042311Y0103122D02*
X0071711Y0103122D01*
X0071711Y0102423D02*
X0042311Y0102423D01*
X0042311Y0101725D02*
X0051686Y0101725D01*
X0051838Y0101788D02*
X0051138Y0101497D01*
X0050507Y0101076D01*
X0049971Y0100540D01*
X0049550Y0099909D01*
X0049259Y0099209D01*
X0049111Y0098465D01*
X0049111Y0098436D01*
X0052611Y0098436D01*
X0052611Y0097736D01*
X0049111Y0097736D01*
X0049111Y0097706D01*
X0049259Y0096963D01*
X0049550Y0096262D01*
X0049971Y0095631D01*
X0050507Y0095095D01*
X0051138Y0094674D01*
X0051838Y0094384D01*
X0052582Y0094236D01*
X0052611Y0094236D01*
X0052611Y0097736D01*
X0053311Y0097736D01*
X0053311Y0094236D01*
X0053341Y0094236D01*
X0054084Y0094384D01*
X0054785Y0094674D01*
X0055416Y0095095D01*
X0055952Y0095631D01*
X0056373Y0096262D01*
X0056663Y0096963D01*
X0056811Y0097706D01*
X0056811Y0097736D01*
X0053311Y0097736D01*
X0053311Y0098436D01*
X0052611Y0098436D01*
X0052611Y0101936D01*
X0052582Y0101936D01*
X0051838Y0101788D01*
X0052611Y0101725D02*
X0053311Y0101725D01*
X0053311Y0101936D02*
X0053311Y0098436D01*
X0056811Y0098436D01*
X0056811Y0098465D01*
X0056663Y0099209D01*
X0056373Y0099909D01*
X0055952Y0100540D01*
X0055416Y0101076D01*
X0054785Y0101497D01*
X0054084Y0101788D01*
X0053341Y0101936D01*
X0053311Y0101936D01*
X0053311Y0101026D02*
X0052611Y0101026D01*
X0052611Y0100328D02*
X0053311Y0100328D01*
X0053311Y0099629D02*
X0052611Y0099629D01*
X0052611Y0098931D02*
X0053311Y0098931D01*
X0053311Y0098232D02*
X0071711Y0098232D01*
X0071711Y0097534D02*
X0056777Y0097534D01*
X0056611Y0096835D02*
X0071711Y0096835D01*
X0071711Y0096137D02*
X0056289Y0096137D01*
X0055758Y0095438D02*
X0071711Y0095438D01*
X0071711Y0094739D02*
X0054883Y0094739D01*
X0053311Y0094739D02*
X0052611Y0094739D01*
X0052611Y0095438D02*
X0053311Y0095438D01*
X0053311Y0096137D02*
X0052611Y0096137D01*
X0052611Y0096835D02*
X0053311Y0096835D01*
X0053311Y0097534D02*
X0052611Y0097534D01*
X0052611Y0098232D02*
X0042311Y0098232D01*
X0042311Y0097534D02*
X0049146Y0097534D01*
X0049312Y0096835D02*
X0042311Y0096835D01*
X0042311Y0096137D02*
X0049633Y0096137D01*
X0050164Y0095438D02*
X0042311Y0095438D01*
X0042311Y0094739D02*
X0051039Y0094739D01*
X0049204Y0098931D02*
X0042311Y0098931D01*
X0042311Y0099629D02*
X0049434Y0099629D01*
X0049829Y0100328D02*
X0042311Y0100328D01*
X0042311Y0101026D02*
X0050457Y0101026D01*
X0054237Y0101725D02*
X0071711Y0101725D01*
X0071711Y0101026D02*
X0055466Y0101026D01*
X0056094Y0100328D02*
X0071711Y0100328D01*
X0071711Y0099629D02*
X0056489Y0099629D01*
X0056719Y0098931D02*
X0071711Y0098931D01*
X0071711Y0094041D02*
X0042311Y0094041D01*
X0042311Y0093342D02*
X0071711Y0093342D01*
X0071711Y0092644D02*
X0042311Y0092644D01*
X0042311Y0091945D02*
X0071711Y0091945D01*
X0071711Y0091247D02*
X0042311Y0091247D01*
X0042311Y0090548D02*
X0071711Y0090548D01*
X0071711Y0089850D02*
X0042311Y0089850D01*
X0042311Y0089151D02*
X0071711Y0089151D01*
X0071711Y0088453D02*
X0042311Y0088453D01*
X0042311Y0087754D02*
X0071711Y0087754D01*
X0071711Y0087056D02*
X0042311Y0087056D01*
X0043937Y0086357D02*
X0071711Y0086357D01*
X0071711Y0085659D02*
X0044829Y0085659D01*
X0045528Y0084960D02*
X0071711Y0084960D01*
X0071711Y0084262D02*
X0046226Y0084262D01*
X0046563Y0083563D02*
X0071711Y0083563D01*
X0071711Y0082865D02*
X0046853Y0082865D01*
X0047142Y0082166D02*
X0071711Y0082166D01*
X0071711Y0081468D02*
X0047411Y0081468D01*
X0047411Y0080769D02*
X0071711Y0080769D01*
X0071711Y0080071D02*
X0047411Y0080071D01*
X0047411Y0079372D02*
X0071711Y0079372D01*
X0071711Y0078674D02*
X0047411Y0078674D01*
X0047139Y0077975D02*
X0071711Y0077975D01*
X0071711Y0077277D02*
X0046850Y0077277D01*
X0046561Y0076578D02*
X0071711Y0076578D01*
X0071711Y0075880D02*
X0046220Y0075880D01*
X0033793Y0122680D02*
X0019461Y0122680D01*
X0019461Y0123378D02*
X0034491Y0123378D01*
X0035190Y0124077D02*
X0019461Y0124077D01*
X0019461Y0124775D02*
X0035889Y0124775D01*
X0036587Y0125474D02*
X0019461Y0125474D01*
X0019461Y0126172D02*
X0037286Y0126172D01*
X0037984Y0126871D02*
X0019461Y0126871D01*
X0019461Y0127570D02*
X0038683Y0127570D01*
X0039161Y0128268D02*
X0019461Y0128268D01*
X0019461Y0128967D02*
X0039161Y0128967D01*
X0039161Y0129665D02*
X0019461Y0129665D01*
X0019461Y0130364D02*
X0039161Y0130364D01*
X0039161Y0131062D02*
X0019461Y0131062D01*
X0019461Y0131761D02*
X0039161Y0131761D01*
X0039161Y0132459D02*
X0019461Y0132459D01*
X0019461Y0133158D02*
X0039161Y0133158D01*
X0039161Y0133856D02*
X0019461Y0133856D01*
X0019461Y0134555D02*
X0039161Y0134555D01*
X0036354Y0152716D02*
X0071711Y0152716D01*
X0071711Y0153414D02*
X0037053Y0153414D01*
X0037751Y0154113D02*
X0071711Y0154113D01*
X0071711Y0154811D02*
X0038450Y0154811D01*
X0039789Y0162495D02*
X0025915Y0162495D01*
X0026613Y0161797D02*
X0040488Y0161797D01*
X0041521Y0165289D02*
X0051278Y0165289D01*
X0051958Y0165988D02*
X0040912Y0165988D01*
X0042219Y0164591D02*
X0050597Y0164591D01*
X0049917Y0163892D02*
X0042918Y0163892D01*
X0043616Y0163194D02*
X0049237Y0163194D01*
X0048556Y0162495D02*
X0044315Y0162495D01*
X0045013Y0161797D02*
X0047876Y0161797D01*
X0047196Y0161098D02*
X0045312Y0161098D01*
X0046839Y0157605D02*
X0071711Y0157605D01*
X0071711Y0156907D02*
X0046467Y0156907D01*
X0048943Y0158304D02*
X0071711Y0158304D01*
X0071711Y0159003D02*
X0049622Y0159003D01*
X0050302Y0159701D02*
X0071711Y0159701D01*
X0071711Y0160400D02*
X0050982Y0160400D01*
X0051663Y0161098D02*
X0071711Y0161098D01*
X0071711Y0161797D02*
X0052343Y0161797D01*
X0053023Y0162495D02*
X0071711Y0162495D01*
X0071711Y0163194D02*
X0053704Y0163194D01*
X0048365Y0189737D02*
X0039120Y0189737D01*
X0039211Y0190436D02*
X0047664Y0190436D01*
X0047346Y0191134D02*
X0039161Y0191134D01*
X0038830Y0189039D02*
X0061511Y0189039D01*
X0061511Y0188340D02*
X0038163Y0188340D01*
X0038161Y0187641D02*
X0061511Y0187641D01*
X0061784Y0186943D02*
X0038161Y0186943D01*
X0038161Y0186244D02*
X0062073Y0186244D01*
X0062501Y0185546D02*
X0038161Y0185546D01*
X0038161Y0184847D02*
X0063199Y0184847D01*
X0064238Y0184149D02*
X0037687Y0184149D01*
X0036989Y0183450D02*
X0065271Y0183450D01*
X0063627Y0182752D02*
X0036290Y0182752D01*
X0035592Y0182053D02*
X0062929Y0182053D01*
X0064738Y0193230D02*
X0052955Y0193230D01*
X0053529Y0193928D02*
X0064771Y0193928D01*
X0066461Y0198586D02*
X0071661Y0203786D01*
X0071661Y0230386D01*
X0071711Y0233045D02*
X0071265Y0233045D01*
X0071711Y0233743D02*
X0070567Y0233743D01*
X0069868Y0234442D02*
X0071711Y0234442D01*
X0071711Y0235140D02*
X0069530Y0235140D01*
X0069760Y0214883D02*
X0070061Y0214883D01*
X0070061Y0214185D02*
X0068772Y0214185D01*
X0067565Y0213486D02*
X0070061Y0213486D01*
X0070061Y0212788D02*
X0069251Y0212788D01*
X0069958Y0212089D02*
X0070061Y0212089D01*
X0069980Y0205104D02*
X0070061Y0205104D01*
X0070019Y0204406D02*
X0069282Y0204406D01*
X0069320Y0203707D02*
X0067619Y0203707D01*
X0069503Y0194627D02*
X0071711Y0194627D01*
X0071711Y0195325D02*
X0070201Y0195325D01*
X0070758Y0196024D02*
X0071711Y0196024D01*
X0071711Y0196722D02*
X0071047Y0196722D01*
X0071337Y0197421D02*
X0071711Y0197421D01*
X0071711Y0198119D02*
X0071411Y0198119D01*
X0071411Y0198818D02*
X0071711Y0198818D01*
X0071711Y0199516D02*
X0071411Y0199516D01*
X0071144Y0200215D02*
X0071711Y0200215D01*
X0071711Y0200913D02*
X0071052Y0200913D01*
X0071711Y0193928D02*
X0068152Y0193928D01*
X0068185Y0193230D02*
X0071711Y0193230D01*
X0071711Y0192531D02*
X0069516Y0192531D01*
X0070215Y0191833D02*
X0071711Y0191833D01*
X0071711Y0191134D02*
X0070764Y0191134D01*
X0071053Y0190436D02*
X0071711Y0190436D01*
X0071711Y0189737D02*
X0071342Y0189737D01*
X0071411Y0189039D02*
X0071711Y0189039D01*
X0071711Y0188340D02*
X0071411Y0188340D01*
X0071411Y0187641D02*
X0071711Y0187641D01*
X0071711Y0186943D02*
X0071139Y0186943D01*
X0070849Y0186244D02*
X0071711Y0186244D01*
X0071711Y0185546D02*
X0070422Y0185546D01*
X0069724Y0184847D02*
X0071711Y0184847D01*
X0071711Y0184149D02*
X0068685Y0184149D01*
X0069773Y0172274D02*
X0071711Y0172274D01*
X0071711Y0171576D02*
X0070472Y0171576D01*
X0070870Y0170877D02*
X0071711Y0170877D01*
X0071711Y0170179D02*
X0071159Y0170179D01*
X0071411Y0169480D02*
X0071711Y0169480D01*
X0071711Y0168782D02*
X0071411Y0168782D01*
X0071411Y0168083D02*
X0071711Y0168083D01*
X0071711Y0167385D02*
X0071322Y0167385D01*
X0071032Y0166686D02*
X0071711Y0166686D01*
X0071711Y0165988D02*
X0070743Y0165988D01*
X0070165Y0165289D02*
X0071711Y0165289D01*
X0071711Y0164591D02*
X0069467Y0164591D01*
X0068065Y0163892D02*
X0071711Y0163892D01*
X0071711Y0150620D02*
X0064874Y0150620D01*
X0065183Y0149922D02*
X0071711Y0149922D01*
X0071711Y0149223D02*
X0065311Y0149223D01*
X0065297Y0148525D02*
X0071711Y0148525D01*
X0071711Y0147826D02*
X0065008Y0147826D01*
X0064451Y0147128D02*
X0071711Y0147128D01*
X0056852Y0203009D02*
X0051618Y0203009D01*
X0051618Y0203707D02*
X0057426Y0203707D01*
X0057961Y0204406D02*
X0051618Y0204406D01*
X0051469Y0205104D02*
X0057961Y0205104D01*
X0057961Y0205803D02*
X0051282Y0205803D01*
X0051095Y0206501D02*
X0057961Y0206501D01*
X0057961Y0207200D02*
X0050907Y0207200D01*
X0050603Y0207898D02*
X0057961Y0207898D01*
X0057961Y0208597D02*
X0050200Y0208597D01*
X0049797Y0209295D02*
X0057961Y0209295D01*
X0057961Y0209994D02*
X0049393Y0209994D01*
X0048776Y0210692D02*
X0057961Y0210692D01*
X0057961Y0211391D02*
X0048078Y0211391D01*
X0047379Y0212089D02*
X0057961Y0212089D01*
X0057961Y0212788D02*
X0046370Y0212788D01*
X0045160Y0213486D02*
X0057961Y0213486D01*
X0057961Y0214185D02*
X0043385Y0214185D01*
X0048081Y0194627D02*
X0049313Y0194627D01*
X0048780Y0195325D02*
X0050535Y0195325D01*
X0051110Y0196024D02*
X0049396Y0196024D01*
X0049799Y0196722D02*
X0051684Y0196722D01*
X0052258Y0197421D02*
X0050202Y0197421D01*
X0050605Y0198119D02*
X0052832Y0198119D01*
X0053406Y0198818D02*
X0050908Y0198818D01*
X0051096Y0199516D02*
X0053981Y0199516D01*
X0054555Y0200215D02*
X0051283Y0200215D01*
X0051470Y0200913D02*
X0055129Y0200913D01*
X0055703Y0201612D02*
X0051618Y0201612D01*
X0051618Y0202310D02*
X0056277Y0202310D01*
X0061161Y0215582D02*
X0062465Y0215582D01*
X0062058Y0216280D02*
X0061161Y0216280D01*
X0061161Y0216979D02*
X0061769Y0216979D01*
X0061511Y0217677D02*
X0061161Y0217677D01*
X0061161Y0218376D02*
X0061511Y0218376D01*
X0061511Y0219074D02*
X0061161Y0219074D01*
X0061161Y0219773D02*
X0061595Y0219773D01*
X0061885Y0220472D02*
X0061161Y0220472D01*
X0061161Y0221170D02*
X0062174Y0221170D01*
X0061516Y0221869D02*
X0061161Y0221869D01*
X0048056Y0193928D02*
X0047383Y0193928D01*
X0047508Y0193230D02*
X0046376Y0193230D01*
X0047219Y0192531D02*
X0045166Y0192531D01*
X0043399Y0191833D02*
X0047211Y0191833D01*
X0036561Y0190486D02*
X0036561Y0185286D01*
X0025061Y0173786D01*
X0024961Y0173186D01*
X0024965Y0173086D01*
X0033233Y0164818D01*
X0031611Y0161098D02*
X0027312Y0161098D01*
X0026540Y0157686D02*
X0026461Y0157686D01*
X0029035Y0149922D02*
X0010424Y0149922D01*
X0010424Y0150620D02*
X0029733Y0150620D01*
X0030432Y0151319D02*
X0010424Y0151319D01*
X0010424Y0152017D02*
X0031130Y0152017D01*
X0031829Y0152716D02*
X0010424Y0152716D01*
X0010424Y0153414D02*
X0032527Y0153414D01*
X0033226Y0154113D02*
X0010424Y0154113D01*
X0010424Y0154811D02*
X0033925Y0154811D01*
X0028336Y0149223D02*
X0010424Y0149223D01*
X0010424Y0148525D02*
X0027638Y0148525D01*
X0026939Y0147826D02*
X0010424Y0147826D01*
X0010424Y0147128D02*
X0026241Y0147128D01*
X0025542Y0146429D02*
X0010424Y0146429D01*
X0010424Y0145731D02*
X0024844Y0145731D01*
X0024145Y0145032D02*
X0010424Y0145032D01*
X0010424Y0144334D02*
X0023447Y0144334D01*
X0022748Y0143635D02*
X0010424Y0143635D01*
X0010424Y0142937D02*
X0022050Y0142937D01*
X0021351Y0142238D02*
X0010424Y0142238D01*
X0010424Y0141540D02*
X0020653Y0141540D01*
X0019954Y0140841D02*
X0010424Y0140841D01*
X0010424Y0140143D02*
X0019256Y0140143D01*
X0018557Y0139444D02*
X0010424Y0139444D01*
X0010424Y0138746D02*
X0017859Y0138746D01*
X0017160Y0138047D02*
X0010424Y0138047D01*
X0010424Y0137349D02*
X0016462Y0137349D01*
X0016261Y0136650D02*
X0010424Y0136650D01*
X0010424Y0135952D02*
X0016261Y0135952D01*
X0016261Y0135253D02*
X0010424Y0135253D01*
X0010424Y0134555D02*
X0016261Y0134555D01*
X0016261Y0133856D02*
X0010424Y0133856D01*
X0010424Y0133158D02*
X0016261Y0133158D01*
X0016261Y0132459D02*
X0010424Y0132459D01*
X0010424Y0131761D02*
X0016261Y0131761D01*
X0016261Y0131062D02*
X0010424Y0131062D01*
X0010424Y0130364D02*
X0016261Y0130364D01*
X0016261Y0129665D02*
X0010424Y0129665D01*
X0010424Y0128967D02*
X0016261Y0128967D01*
X0016261Y0128268D02*
X0010424Y0128268D01*
X0010424Y0127570D02*
X0016261Y0127570D01*
X0016261Y0126871D02*
X0010424Y0126871D01*
X0010424Y0126172D02*
X0016261Y0126172D01*
X0016261Y0125474D02*
X0010424Y0125474D01*
X0010424Y0124775D02*
X0016261Y0124775D01*
X0016261Y0124077D02*
X0010424Y0124077D01*
X0010424Y0123378D02*
X0016261Y0123378D01*
X0016261Y0122680D02*
X0010424Y0122680D01*
X0010424Y0121981D02*
X0016261Y0121981D01*
X0016261Y0121283D02*
X0010424Y0121283D01*
X0010424Y0120584D02*
X0016261Y0120584D01*
X0016261Y0119886D02*
X0010424Y0119886D01*
X0010424Y0119187D02*
X0016261Y0119187D01*
X0016261Y0118489D02*
X0010424Y0118489D01*
X0010424Y0117790D02*
X0016261Y0117790D01*
X0016261Y0117092D02*
X0010424Y0117092D01*
X0010424Y0116393D02*
X0016261Y0116393D01*
X0016889Y0115695D02*
X0010424Y0115695D01*
X0010424Y0114996D02*
X0017588Y0114996D01*
X0018287Y0114298D02*
X0010424Y0114298D01*
X0010424Y0113599D02*
X0018926Y0113599D01*
X0019499Y0112901D02*
X0010424Y0112901D01*
X0010424Y0112202D02*
X0027861Y0112202D01*
X0027861Y0111504D02*
X0010424Y0111504D01*
X0010424Y0110805D02*
X0027318Y0110805D01*
X0026620Y0110107D02*
X0010424Y0110107D01*
X0010424Y0109408D02*
X0025921Y0109408D01*
X0025223Y0108710D02*
X0010424Y0108710D01*
X0010424Y0108011D02*
X0024524Y0108011D01*
X0023826Y0107313D02*
X0010424Y0107313D01*
X0010424Y0106614D02*
X0023127Y0106614D01*
X0022429Y0105916D02*
X0010424Y0105916D01*
X0011430Y0105217D02*
X0021730Y0105217D01*
X0021032Y0104519D02*
X0012634Y0104519D01*
X0010792Y0102613D02*
X0010661Y0102286D01*
X0019914Y0117196D02*
X0019461Y0117648D01*
X0019461Y0135823D01*
X0019461Y0121981D02*
X0033094Y0121981D01*
X0032396Y0121283D02*
X0019461Y0121283D01*
X0019461Y0120584D02*
X0031697Y0120584D01*
X0030999Y0119886D02*
X0019461Y0119886D01*
X0019461Y0119187D02*
X0030300Y0119187D01*
X0029602Y0118489D02*
X0019461Y0118489D01*
X0019461Y0117790D02*
X0028903Y0117790D01*
X0028205Y0117092D02*
X0022803Y0117092D01*
X0023501Y0116393D02*
X0027861Y0116393D01*
X0027861Y0115695D02*
X0023795Y0115695D01*
X0023911Y0114996D02*
X0027861Y0114996D01*
X0027861Y0114298D02*
X0023886Y0114298D01*
X0023597Y0113599D02*
X0027861Y0113599D01*
X0027861Y0112901D02*
X0023024Y0112901D01*
X0021609Y0160400D02*
X0018729Y0160400D01*
X0019365Y0161098D02*
X0020911Y0161098D01*
X0020212Y0161797D02*
X0019654Y0161797D01*
X0017074Y0162492D02*
X0011589Y0169158D01*
X0011580Y0169149D01*
X0011589Y0169158D02*
X0011561Y0169186D01*
X0024961Y0173186D02*
X0024965Y0173479D01*
D16*
X0048661Y0123286D02*
X0040161Y0114786D01*
X0040161Y0080074D01*
X0048661Y0123286D02*
X0049061Y0124086D01*
X0049061Y0130086D01*
X0057761Y0138786D01*
X0058161Y0139586D01*
X0058161Y0143686D01*
X0062661Y0149086D01*
D17*
X0062361Y0258686D02*
X0056661Y0264386D01*
D18*
X0056661Y0264386D03*
X0066361Y0236386D03*
X0070261Y0236386D03*
X0018661Y0267286D03*
X0008961Y0191086D03*
D19*
X0040361Y0286086D02*
X0040361Y0299365D01*
X0040161Y0299365D01*
M02*
