G75*
%MOIN*%
%OFA0B0*%
%FSLAX25Y25*%
%IPPOS*%
%LPD*%
%AMOC8*
5,1,8,0,0,1.08239X$1,22.5*
%
%ADD10R,0.03937X0.04331*%
%ADD11R,0.02362X0.03150*%
%ADD12R,0.04331X0.03937*%
%ADD13R,0.07874X0.05118*%
%ADD14R,0.03150X0.03150*%
%ADD15R,0.04134X0.04528*%
%ADD16R,0.04724X0.03150*%
%ADD17R,0.08661X0.04724*%
%ADD18C,0.03937*%
%ADD19R,0.00984X0.03543*%
%ADD20R,0.03543X0.00945*%
%ADD21R,0.00945X0.03543*%
%ADD22R,0.01575X0.04331*%
%ADD23R,0.04724X0.02165*%
%ADD24C,0.12000*%
%ADD25C,0.18000*%
%ADD26R,0.02165X0.04724*%
%ADD27R,0.07480X0.07087*%
%ADD28R,0.07480X0.07480*%
%ADD29R,0.06299X0.08268*%
%ADD30R,0.05315X0.01575*%
%ADD31C,0.07400*%
%ADD32C,0.00700*%
%ADD33C,0.02800*%
%ADD34C,0.00800*%
%ADD35C,0.01800*%
%ADD36C,0.02900*%
%ADD37C,0.00600*%
%ADD38C,0.01600*%
%ADD39C,0.01200*%
%ADD40C,0.00900*%
%ADD41C,0.03200*%
D10*
X0026661Y0095939D03*
X0026661Y0102632D03*
X0018806Y0146140D03*
X0012113Y0146140D03*
X0012039Y0153005D03*
X0012039Y0159697D03*
X0012215Y0175586D03*
X0009615Y0186186D03*
X0016308Y0186186D03*
X0018908Y0175586D03*
X0030546Y0177373D03*
X0037239Y0177373D03*
X0038174Y0171675D03*
X0038174Y0164982D03*
X0038297Y0136746D03*
X0044990Y0136746D03*
X0050815Y0127486D03*
X0057508Y0127486D03*
X0059808Y0202692D03*
X0053115Y0202692D03*
D11*
X0035257Y0103055D03*
X0035257Y0093212D03*
D12*
X0034808Y0110486D03*
X0028115Y0110486D03*
X0024980Y0146161D03*
X0031672Y0146161D03*
X0024093Y0190584D03*
X0024093Y0197277D03*
X0010500Y0196690D03*
X0010500Y0203383D03*
X0012538Y0086880D03*
X0012538Y0080187D03*
X0052076Y0136633D03*
X0052076Y0143326D03*
X0062815Y0145086D03*
X0069508Y0145086D03*
X0070008Y0121586D03*
X0063315Y0121586D03*
X0057703Y0213922D03*
X0057703Y0220615D03*
X0057817Y0226348D03*
X0057817Y0233041D03*
D13*
G36*
X0049729Y0170242D02*
X0047036Y0177640D01*
X0051845Y0179390D01*
X0054538Y0171992D01*
X0049729Y0170242D01*
G37*
G36*
X0029207Y0226624D02*
X0026514Y0234022D01*
X0031323Y0235772D01*
X0034016Y0228374D01*
X0029207Y0226624D01*
G37*
D14*
X0037890Y0150355D03*
X0037890Y0144449D03*
X0043390Y0144449D03*
X0043390Y0150355D03*
D15*
X0027032Y0089807D03*
X0027032Y0076618D03*
X0021324Y0076618D03*
X0021324Y0089807D03*
D16*
X0019899Y0121794D03*
X0019899Y0128881D03*
X0018412Y0226648D03*
X0018412Y0233735D03*
D17*
X0011786Y0245527D03*
X0011786Y0253401D03*
X0011786Y0261275D03*
X0011786Y0269149D03*
X0011786Y0277023D03*
X0011786Y0284897D03*
X0011786Y0292771D03*
X0011786Y0300645D03*
X0068479Y0300645D03*
X0068479Y0292771D03*
X0068479Y0284897D03*
X0068479Y0277023D03*
X0068479Y0269149D03*
X0068479Y0261275D03*
X0068479Y0253401D03*
X0068479Y0245527D03*
D18*
X0040561Y0277786D03*
X0046430Y0111554D03*
D19*
X0027746Y0169372D03*
D20*
X0031880Y0167207D03*
X0031880Y0165238D03*
X0031880Y0163270D03*
X0031880Y0161301D03*
X0031880Y0159333D03*
X0031880Y0157364D03*
X0021643Y0157364D03*
X0021643Y0159333D03*
X0021643Y0161301D03*
X0021643Y0163270D03*
X0021643Y0165238D03*
X0021643Y0167207D03*
D21*
X0025777Y0169372D03*
X0025777Y0155199D03*
X0027746Y0155199D03*
D22*
X0026761Y0162286D03*
D23*
X0026643Y0129326D03*
X0026643Y0121845D03*
X0036880Y0121845D03*
X0036880Y0125586D03*
X0036880Y0129326D03*
X0024680Y0211645D03*
X0024680Y0215386D03*
X0024680Y0219126D03*
X0014443Y0219126D03*
X0014443Y0215386D03*
X0014443Y0211645D03*
D24*
X0040161Y0080074D03*
D25*
X0049161Y0299365D02*
X0031161Y0299365D01*
D26*
X0062721Y0138204D03*
X0062721Y0127967D03*
X0066461Y0138204D03*
X0070202Y0138204D03*
X0070202Y0127967D03*
D27*
X0070961Y0111146D03*
X0070961Y0081225D03*
D28*
X0070961Y0091461D03*
X0070961Y0100910D03*
D29*
X0060922Y0108390D03*
X0060922Y0083981D03*
D30*
X0060430Y0091068D03*
X0060430Y0093627D03*
X0060430Y0096186D03*
X0060430Y0098745D03*
X0060430Y0101304D03*
D31*
X0066461Y0168586D03*
X0066461Y0178586D03*
X0066461Y0188586D03*
X0066461Y0198586D03*
X0066461Y0208586D03*
X0066461Y0218586D03*
X0066461Y0228586D03*
D32*
X0013548Y0080172D02*
X0008824Y0080172D01*
X0008824Y0100645D01*
X0010792Y0102613D01*
X0011676Y0100328D02*
X0023643Y0100328D01*
X0023643Y0100032D02*
X0024258Y0099417D01*
X0029065Y0099417D01*
X0029680Y0100032D01*
X0029680Y0105232D01*
X0029065Y0105847D01*
X0028061Y0105847D01*
X0028061Y0106106D01*
X0028261Y0106306D01*
X0028261Y0107467D01*
X0030715Y0107467D01*
X0031330Y0108082D01*
X0031330Y0112889D01*
X0030715Y0113504D01*
X0025515Y0113504D01*
X0025069Y0113058D01*
X0023711Y0114416D01*
X0023711Y0115373D01*
X0023338Y0116273D01*
X0022649Y0116963D01*
X0021749Y0117336D01*
X0020774Y0117336D01*
X0019874Y0116963D01*
X0019184Y0116273D01*
X0018811Y0115373D01*
X0018811Y0114398D01*
X0019184Y0113498D01*
X0019874Y0112809D01*
X0020774Y0112436D01*
X0021732Y0112436D01*
X0024261Y0109906D01*
X0024900Y0109268D01*
X0024900Y0108082D01*
X0025461Y0107520D01*
X0025461Y0107466D01*
X0025261Y0107266D01*
X0025261Y0105847D01*
X0024258Y0105847D01*
X0023643Y0105232D01*
X0023643Y0100032D01*
X0024046Y0099629D02*
X0010224Y0099629D01*
X0010224Y0100065D02*
X0010322Y0100163D01*
X0011279Y0100163D01*
X0012180Y0100536D01*
X0012869Y0101225D01*
X0013242Y0102126D01*
X0013242Y0103101D01*
X0012869Y0104001D01*
X0012180Y0104690D01*
X0011279Y0105063D01*
X0010305Y0105063D01*
X0009404Y0104690D01*
X0008715Y0104001D01*
X0008611Y0103751D01*
X0008611Y0169356D01*
X0013261Y0164706D01*
X0014082Y0163886D01*
X0015003Y0163886D01*
X0014997Y0163880D01*
X0014624Y0162979D01*
X0014624Y0162731D01*
X0014442Y0162913D01*
X0009635Y0162913D01*
X0009020Y0162298D01*
X0009020Y0157097D01*
X0009635Y0156482D01*
X0014442Y0156482D01*
X0015057Y0157097D01*
X0015057Y0157886D01*
X0017382Y0157886D01*
X0015382Y0155886D01*
X0014792Y0155886D01*
X0014761Y0155901D01*
X0014442Y0156220D01*
X0009635Y0156220D01*
X0009020Y0155605D01*
X0009020Y0150404D01*
X0009635Y0149789D01*
X0011278Y0149789D01*
X0011412Y0149655D01*
X0009967Y0149655D01*
X0009624Y0149563D01*
X0009316Y0149386D01*
X0009065Y0149134D01*
X0008887Y0148826D01*
X0008795Y0148483D01*
X0008795Y0146490D01*
X0011763Y0146490D01*
X0011763Y0145790D01*
X0008795Y0145790D01*
X0008795Y0143797D01*
X0008887Y0143454D01*
X0009065Y0143146D01*
X0009316Y0142894D01*
X0009624Y0142717D01*
X0009967Y0142625D01*
X0011763Y0142625D01*
X0011763Y0145790D01*
X0012463Y0145790D01*
X0012463Y0142625D01*
X0014260Y0142625D01*
X0014603Y0142717D01*
X0014911Y0142894D01*
X0015162Y0143146D01*
X0015340Y0143454D01*
X0015432Y0143797D01*
X0015432Y0145790D01*
X0012463Y0145790D01*
X0012463Y0146490D01*
X0015432Y0146490D01*
X0015432Y0148035D01*
X0015788Y0147679D01*
X0015788Y0143540D01*
X0016403Y0142925D01*
X0021210Y0142925D01*
X0021825Y0143540D01*
X0021825Y0143697D01*
X0022379Y0143143D01*
X0027580Y0143143D01*
X0028195Y0143758D01*
X0028195Y0148565D01*
X0027924Y0148836D01*
X0028149Y0148836D01*
X0029049Y0149209D01*
X0029738Y0149898D01*
X0030111Y0150798D01*
X0030111Y0151456D01*
X0030261Y0151306D01*
X0030261Y0149180D01*
X0029072Y0149180D01*
X0028457Y0148565D01*
X0028457Y0143758D01*
X0029072Y0143143D01*
X0034273Y0143143D01*
X0034888Y0143758D01*
X0034888Y0148565D01*
X0034273Y0149180D01*
X0033061Y0149180D01*
X0033061Y0152466D01*
X0031861Y0153666D01*
X0031861Y0155666D01*
X0031712Y0155815D01*
X0031785Y0155842D01*
X0031961Y0155842D01*
X0033408Y0154395D01*
X0034228Y0153575D01*
X0036963Y0153575D01*
X0038537Y0155150D01*
X0041378Y0155150D01*
X0041827Y0155070D01*
X0041941Y0155150D01*
X0042081Y0155150D01*
X0042404Y0155473D01*
X0043512Y0156247D01*
X0043873Y0156098D01*
X0044848Y0156098D01*
X0045748Y0156471D01*
X0046438Y0157160D01*
X0046811Y0158060D01*
X0046811Y0159035D01*
X0046438Y0159936D01*
X0045748Y0160625D01*
X0044848Y0160998D01*
X0043873Y0160998D01*
X0042973Y0160625D01*
X0042284Y0159936D01*
X0041911Y0159035D01*
X0041911Y0158544D01*
X0041060Y0157950D01*
X0038111Y0157950D01*
X0038111Y0158173D01*
X0037738Y0159073D01*
X0037061Y0159750D01*
X0037061Y0160666D01*
X0035960Y0161767D01*
X0040577Y0161767D01*
X0041193Y0162382D01*
X0041193Y0167583D01*
X0040577Y0168198D01*
X0037412Y0168198D01*
X0037674Y0168460D01*
X0040577Y0168460D01*
X0041193Y0169075D01*
X0041193Y0174276D01*
X0040577Y0174891D01*
X0040258Y0174891D01*
X0040258Y0179973D01*
X0039643Y0180588D01*
X0034836Y0180588D01*
X0034221Y0179973D01*
X0034221Y0174773D01*
X0034836Y0174158D01*
X0035156Y0174158D01*
X0035156Y0169901D01*
X0033983Y0168729D01*
X0032758Y0168729D01*
X0032949Y0168809D01*
X0033638Y0169498D01*
X0034011Y0170398D01*
X0034011Y0171373D01*
X0033638Y0172273D01*
X0032949Y0172963D01*
X0032049Y0173336D01*
X0031074Y0173336D01*
X0030174Y0172963D01*
X0029484Y0172273D01*
X0029342Y0171931D01*
X0029318Y0171973D01*
X0029067Y0172224D01*
X0028759Y0172402D01*
X0028416Y0172494D01*
X0027746Y0172494D01*
X0027746Y0169372D01*
X0027761Y0169386D01*
X0027746Y0169372D02*
X0027746Y0169372D01*
X0027746Y0172494D01*
X0027361Y0172494D01*
X0027361Y0172578D01*
X0027411Y0172698D01*
X0027411Y0173673D01*
X0027038Y0174573D01*
X0026349Y0175263D01*
X0025449Y0175636D01*
X0024474Y0175636D01*
X0023574Y0175263D01*
X0022884Y0174573D01*
X0022511Y0173673D01*
X0022511Y0172698D01*
X0022884Y0171798D01*
X0023574Y0171109D01*
X0024255Y0170826D01*
X0024255Y0168324D01*
X0023850Y0168729D01*
X0019437Y0168729D01*
X0019417Y0168710D01*
X0015188Y0172939D01*
X0015233Y0172985D01*
X0015233Y0178186D01*
X0014618Y0178801D01*
X0010957Y0178801D01*
X0014161Y0182006D01*
X0014161Y0182670D01*
X0014162Y0182670D01*
X0015958Y0182670D01*
X0015958Y0185836D01*
X0016658Y0185836D01*
X0016658Y0186536D01*
X0015958Y0186536D01*
X0015958Y0189701D01*
X0014162Y0189701D01*
X0013818Y0189609D01*
X0013755Y0189572D01*
X0013341Y0189986D01*
X0011455Y0191872D01*
X0011347Y0192143D01*
X0011204Y0192204D01*
X0011081Y0192502D01*
X0010378Y0193205D01*
X0009975Y0193372D01*
X0010150Y0193372D01*
X0010150Y0196340D01*
X0010850Y0196340D01*
X0010850Y0193372D01*
X0012843Y0193372D01*
X0013186Y0193464D01*
X0013494Y0193642D01*
X0013746Y0193893D01*
X0013923Y0194201D01*
X0014015Y0194544D01*
X0014015Y0196340D01*
X0010850Y0196340D01*
X0010850Y0197040D01*
X0014015Y0197040D01*
X0014015Y0198837D01*
X0013923Y0199180D01*
X0013746Y0199488D01*
X0013494Y0199739D01*
X0013186Y0199917D01*
X0012843Y0200009D01*
X0010850Y0200009D01*
X0010850Y0197040D01*
X0010150Y0197040D01*
X0010150Y0200009D01*
X0008611Y0200009D01*
X0008611Y0200365D01*
X0013100Y0200365D01*
X0013715Y0200980D01*
X0013715Y0205170D01*
X0014049Y0205309D01*
X0014738Y0205998D01*
X0014837Y0206236D01*
X0015184Y0205398D01*
X0015874Y0204709D01*
X0016774Y0204336D01*
X0017749Y0204336D01*
X0018649Y0204709D01*
X0019338Y0205398D01*
X0019711Y0206298D01*
X0019711Y0207273D01*
X0019338Y0208173D01*
X0018649Y0208863D01*
X0017749Y0209236D01*
X0016791Y0209236D01*
X0016514Y0209513D01*
X0017240Y0209513D01*
X0017855Y0210128D01*
X0017855Y0213163D01*
X0017503Y0213516D01*
X0017855Y0213868D01*
X0017855Y0214899D01*
X0018541Y0215586D01*
X0019361Y0216406D01*
X0019361Y0220821D01*
X0019761Y0220421D01*
X0019761Y0212606D01*
X0020582Y0211786D01*
X0021268Y0211099D01*
X0021268Y0210128D01*
X0021883Y0209513D01*
X0023161Y0209513D01*
X0023161Y0200295D01*
X0021492Y0200295D01*
X0020877Y0199680D01*
X0020877Y0194874D01*
X0021492Y0194258D01*
X0026693Y0194258D01*
X0027308Y0194874D01*
X0027308Y0199680D01*
X0026693Y0200295D01*
X0025961Y0200295D01*
X0025961Y0209513D01*
X0027477Y0209513D01*
X0028092Y0210128D01*
X0028092Y0213163D01*
X0027952Y0213303D01*
X0028122Y0213474D01*
X0028300Y0213782D01*
X0028392Y0214125D01*
X0028392Y0215194D01*
X0024871Y0215194D01*
X0024871Y0215577D01*
X0028392Y0215577D01*
X0028392Y0216646D01*
X0028300Y0216989D01*
X0028122Y0217297D01*
X0027952Y0217468D01*
X0028092Y0217608D01*
X0028092Y0220643D01*
X0027477Y0221258D01*
X0025961Y0221258D01*
X0025961Y0223411D01*
X0026638Y0224088D01*
X0027011Y0224988D01*
X0027011Y0225963D01*
X0026638Y0226863D01*
X0025949Y0227553D01*
X0025049Y0227926D01*
X0024074Y0227926D01*
X0023174Y0227553D01*
X0022484Y0226863D01*
X0022111Y0225963D01*
X0022111Y0224988D01*
X0022234Y0224693D01*
X0021824Y0224863D01*
X0021824Y0228658D01*
X0021209Y0229273D01*
X0015615Y0229273D01*
X0015000Y0228658D01*
X0015000Y0228349D01*
X0014549Y0228536D01*
X0013574Y0228536D01*
X0012674Y0228163D01*
X0011984Y0227473D01*
X0011611Y0226573D01*
X0011611Y0225598D01*
X0011984Y0224698D01*
X0012674Y0224009D01*
X0013574Y0223636D01*
X0014549Y0223636D01*
X0015449Y0224009D01*
X0015539Y0224099D01*
X0015615Y0224023D01*
X0016561Y0224023D01*
X0016561Y0221258D01*
X0011646Y0221258D01*
X0011031Y0220643D01*
X0011031Y0220281D01*
X0010649Y0220663D01*
X0009749Y0221036D01*
X0008774Y0221036D01*
X0008611Y0220968D01*
X0008611Y0241814D01*
X0011436Y0241814D01*
X0011436Y0245177D01*
X0012136Y0245177D01*
X0012136Y0245877D01*
X0011436Y0245877D01*
X0011436Y0249239D01*
X0008611Y0249239D01*
X0008611Y0249988D01*
X0015051Y0249988D01*
X0015035Y0249951D01*
X0015035Y0249239D01*
X0012136Y0249239D01*
X0012136Y0245877D01*
X0017467Y0245877D01*
X0017467Y0247014D01*
X0017972Y0247014D01*
X0018873Y0247387D01*
X0019562Y0248076D01*
X0019935Y0248976D01*
X0019935Y0249951D01*
X0019562Y0250851D01*
X0018873Y0251541D01*
X0018354Y0251755D01*
X0017167Y0252943D01*
X0017167Y0256001D01*
X0028661Y0244506D01*
X0028661Y0235921D01*
X0025746Y0234860D01*
X0025379Y0234072D01*
X0027110Y0229316D01*
X0027118Y0228783D01*
X0027405Y0228505D01*
X0028369Y0225855D01*
X0029158Y0225487D01*
X0031046Y0226175D01*
X0031046Y0215813D01*
X0031866Y0214993D01*
X0032620Y0214238D01*
X0033441Y0213418D01*
X0034573Y0213418D01*
X0032747Y0212363D01*
X0030570Y0210186D01*
X0029030Y0207520D01*
X0028233Y0204546D01*
X0028233Y0201468D01*
X0029030Y0198494D01*
X0030570Y0195828D01*
X0032747Y0193651D01*
X0034975Y0192364D01*
X0034484Y0191873D01*
X0034111Y0190973D01*
X0034111Y0189998D01*
X0034484Y0189098D01*
X0035174Y0188409D01*
X0036074Y0188036D01*
X0037049Y0188036D01*
X0037949Y0188409D01*
X0038638Y0189098D01*
X0038813Y0189520D01*
X0040104Y0189786D01*
X0042052Y0189786D01*
X0046029Y0191078D01*
X0047411Y0192082D01*
X0047411Y0191498D01*
X0047784Y0190598D01*
X0048474Y0189909D01*
X0049374Y0189536D01*
X0049961Y0189536D01*
X0049961Y0182014D01*
X0049731Y0181809D01*
X0044816Y0180013D01*
X0044297Y0179854D01*
X0044276Y0179816D01*
X0044236Y0179802D01*
X0044007Y0179309D01*
X0043753Y0178830D01*
X0043765Y0178789D01*
X0043747Y0178750D01*
X0043934Y0178240D01*
X0046077Y0171253D01*
X0046046Y0171178D01*
X0046244Y0170708D01*
X0046393Y0170221D01*
X0046464Y0170183D01*
X0048245Y0165943D01*
X0048230Y0165689D01*
X0048461Y0165429D01*
X0048595Y0165109D01*
X0048831Y0165013D01*
X0049000Y0164822D01*
X0049347Y0164802D01*
X0049669Y0164670D01*
X0049904Y0164769D01*
X0050960Y0164707D01*
X0050961Y0164706D01*
X0050961Y0157266D01*
X0046015Y0152319D01*
X0046015Y0152365D01*
X0045399Y0152980D01*
X0041380Y0152980D01*
X0040765Y0152365D01*
X0040765Y0150362D01*
X0040515Y0150612D01*
X0040515Y0152365D01*
X0039899Y0152980D01*
X0035880Y0152980D01*
X0035265Y0152365D01*
X0035265Y0148345D01*
X0035880Y0147730D01*
X0039437Y0147730D01*
X0040061Y0147106D01*
X0040765Y0146402D01*
X0040765Y0142440D01*
X0041380Y0141825D01*
X0045399Y0141825D01*
X0046015Y0142440D01*
X0046015Y0143082D01*
X0046270Y0143086D01*
X0048382Y0143086D01*
X0048860Y0142607D01*
X0048860Y0140922D01*
X0049475Y0140307D01*
X0054676Y0140307D01*
X0055291Y0140922D01*
X0055291Y0145729D01*
X0054676Y0146344D01*
X0050582Y0146344D01*
X0050811Y0146898D01*
X0050811Y0147873D01*
X0050438Y0148773D01*
X0050334Y0148878D01*
X0055541Y0154086D01*
X0056361Y0154906D01*
X0056361Y0166306D01*
X0062141Y0172086D01*
X0062961Y0172906D01*
X0062961Y0175368D01*
X0063771Y0174559D01*
X0065517Y0173836D01*
X0067406Y0173836D01*
X0069152Y0174559D01*
X0070488Y0175895D01*
X0071211Y0177641D01*
X0071211Y0179530D01*
X0070488Y0181276D01*
X0069152Y0182612D01*
X0067406Y0183336D01*
X0065517Y0183336D01*
X0063771Y0182612D01*
X0062961Y0181803D01*
X0062961Y0183106D01*
X0064226Y0184370D01*
X0065517Y0183836D01*
X0067406Y0183836D01*
X0069152Y0184559D01*
X0070488Y0185895D01*
X0071211Y0187641D01*
X0071211Y0189530D01*
X0070488Y0191276D01*
X0069152Y0192612D01*
X0067406Y0193336D01*
X0065517Y0193336D01*
X0063771Y0192612D01*
X0062435Y0191276D01*
X0061711Y0189530D01*
X0061711Y0187641D01*
X0062246Y0186350D01*
X0060161Y0184266D01*
X0060161Y0174066D01*
X0057381Y0171285D01*
X0057418Y0171367D01*
X0057670Y0171838D01*
X0057654Y0171889D01*
X0057676Y0171938D01*
X0057487Y0172437D01*
X0057332Y0172948D01*
X0057285Y0172973D01*
X0055774Y0176974D01*
X0054061Y0181635D01*
X0054061Y0197886D01*
X0055841Y0197886D01*
X0056841Y0198886D01*
X0057259Y0199303D01*
X0057318Y0199269D01*
X0057662Y0199177D01*
X0059458Y0199177D01*
X0059458Y0202342D01*
X0060158Y0202342D01*
X0060158Y0203042D01*
X0063126Y0203042D01*
X0063126Y0205035D01*
X0063065Y0205265D01*
X0063771Y0204559D01*
X0065517Y0203836D01*
X0067406Y0203836D01*
X0069152Y0204559D01*
X0070488Y0205895D01*
X0071211Y0207641D01*
X0071211Y0209530D01*
X0070488Y0211276D01*
X0069152Y0212612D01*
X0067406Y0213336D01*
X0065517Y0213336D01*
X0064438Y0212889D01*
X0062461Y0214866D01*
X0062461Y0215868D01*
X0063771Y0214559D01*
X0065517Y0213836D01*
X0067406Y0213836D01*
X0069152Y0214559D01*
X0070488Y0215895D01*
X0071211Y0217641D01*
X0071211Y0218013D01*
X0071711Y0217598D01*
X0071711Y0154086D01*
X0066961Y0154086D01*
X0064559Y0150653D01*
X0064049Y0151163D01*
X0063149Y0151536D01*
X0062174Y0151536D01*
X0061274Y0151163D01*
X0060584Y0150473D01*
X0060211Y0149573D01*
X0060211Y0148598D01*
X0060416Y0148104D01*
X0060215Y0148104D01*
X0059600Y0147489D01*
X0059600Y0142682D01*
X0060215Y0142067D01*
X0060811Y0142067D01*
X0060811Y0141224D01*
X0060589Y0141001D01*
X0060589Y0135407D01*
X0060888Y0135108D01*
X0060361Y0133886D01*
X0060361Y0132886D01*
X0059982Y0132886D01*
X0059161Y0132066D01*
X0057797Y0130701D01*
X0055104Y0130701D01*
X0054489Y0130086D01*
X0054489Y0124885D01*
X0054673Y0124702D01*
X0054668Y0124704D01*
X0053693Y0124704D01*
X0053623Y0124675D01*
X0053833Y0124885D01*
X0053833Y0130086D01*
X0053218Y0130701D01*
X0048412Y0130701D01*
X0047796Y0130086D01*
X0047796Y0124885D01*
X0048412Y0124270D01*
X0049755Y0124270D01*
X0050240Y0123786D01*
X0051730Y0122295D01*
X0051730Y0121767D01*
X0052103Y0120866D01*
X0052792Y0120177D01*
X0053693Y0119804D01*
X0054668Y0119804D01*
X0055568Y0120177D01*
X0056257Y0120866D01*
X0056630Y0121767D01*
X0056630Y0122741D01*
X0056257Y0123642D01*
X0055629Y0124270D01*
X0059911Y0124270D01*
X0060361Y0124720D01*
X0060361Y0124251D01*
X0060100Y0123989D01*
X0060100Y0121601D01*
X0054561Y0115586D01*
X0054561Y0115419D01*
X0054311Y0115169D01*
X0054311Y0091802D01*
X0054561Y0091552D01*
X0054561Y0075236D01*
X0045293Y0075236D01*
X0046138Y0076080D01*
X0047211Y0078671D01*
X0047211Y0081476D01*
X0046138Y0084067D01*
X0044155Y0086051D01*
X0041564Y0087124D01*
X0041381Y0087124D01*
X0037395Y0091109D01*
X0037489Y0091203D01*
X0037489Y0095222D01*
X0036873Y0095837D01*
X0033641Y0095837D01*
X0033026Y0095222D01*
X0033026Y0091203D01*
X0033311Y0090918D01*
X0033311Y0089678D01*
X0034454Y0088536D01*
X0036713Y0086276D01*
X0036168Y0086051D01*
X0034185Y0084067D01*
X0033111Y0081476D01*
X0033111Y0078671D01*
X0034185Y0076080D01*
X0035029Y0075236D01*
X0030149Y0075236D01*
X0030149Y0079317D01*
X0029534Y0079932D01*
X0028334Y0079932D01*
X0028334Y0082966D01*
X0028346Y0082995D01*
X0028346Y0083970D01*
X0028334Y0083999D01*
X0028334Y0086493D01*
X0029534Y0086493D01*
X0030149Y0087108D01*
X0030149Y0092506D01*
X0029534Y0093121D01*
X0029462Y0093121D01*
X0029680Y0093339D01*
X0029680Y0098539D01*
X0029065Y0099155D01*
X0024258Y0099155D01*
X0023643Y0098539D01*
X0023643Y0093339D01*
X0024196Y0092786D01*
X0024178Y0092768D01*
X0023825Y0093121D01*
X0018822Y0093121D01*
X0018207Y0092506D01*
X0018207Y0087108D01*
X0018822Y0086493D01*
X0020022Y0086493D01*
X0020022Y0081572D01*
X0015753Y0081572D01*
X0015753Y0082591D01*
X0015138Y0083206D01*
X0010224Y0083206D01*
X0010224Y0083562D01*
X0012188Y0083562D01*
X0012188Y0086530D01*
X0012888Y0086530D01*
X0012888Y0087230D01*
X0016053Y0087230D01*
X0016053Y0089026D01*
X0015961Y0089370D01*
X0015783Y0089678D01*
X0015532Y0089929D01*
X0015224Y0090107D01*
X0014881Y0090199D01*
X0012888Y0090199D01*
X0012888Y0087230D01*
X0012188Y0087230D01*
X0012188Y0090199D01*
X0010224Y0090199D01*
X0010224Y0100065D01*
X0010224Y0098931D02*
X0024034Y0098931D01*
X0023643Y0098232D02*
X0010224Y0098232D01*
X0010224Y0097534D02*
X0023643Y0097534D01*
X0023643Y0096835D02*
X0010224Y0096835D01*
X0010224Y0096137D02*
X0023643Y0096137D01*
X0023643Y0095438D02*
X0010224Y0095438D01*
X0010224Y0094739D02*
X0023643Y0094739D01*
X0023643Y0094041D02*
X0010224Y0094041D01*
X0010224Y0093342D02*
X0023643Y0093342D01*
X0026661Y0093686D02*
X0027061Y0093286D01*
X0027061Y0090086D01*
X0027032Y0089807D01*
X0026961Y0089786D01*
X0026934Y0089621D01*
X0026934Y0083386D01*
X0025961Y0083386D01*
X0025896Y0083482D01*
X0026934Y0083386D02*
X0026934Y0076629D01*
X0027032Y0076618D01*
X0028334Y0080071D02*
X0033111Y0080071D01*
X0033111Y0080769D02*
X0028334Y0080769D01*
X0028334Y0081468D02*
X0033111Y0081468D01*
X0033397Y0082166D02*
X0028334Y0082166D01*
X0028334Y0082865D02*
X0033687Y0082865D01*
X0033976Y0083563D02*
X0028346Y0083563D01*
X0028334Y0084262D02*
X0034379Y0084262D01*
X0035078Y0084960D02*
X0028334Y0084960D01*
X0028334Y0085659D02*
X0035776Y0085659D01*
X0036632Y0086357D02*
X0028334Y0086357D01*
X0030097Y0087056D02*
X0035933Y0087056D01*
X0035235Y0087754D02*
X0030149Y0087754D01*
X0030149Y0088453D02*
X0034536Y0088453D01*
X0033838Y0089151D02*
X0030149Y0089151D01*
X0030149Y0089850D02*
X0033311Y0089850D01*
X0033311Y0090548D02*
X0030149Y0090548D01*
X0030149Y0091247D02*
X0033026Y0091247D01*
X0033026Y0091945D02*
X0030149Y0091945D01*
X0030011Y0092644D02*
X0033026Y0092644D01*
X0033026Y0093342D02*
X0029680Y0093342D01*
X0029680Y0094041D02*
X0033026Y0094041D01*
X0033026Y0094739D02*
X0029680Y0094739D01*
X0029680Y0095438D02*
X0033242Y0095438D01*
X0033641Y0100430D02*
X0036873Y0100430D01*
X0037489Y0101045D01*
X0037489Y0105065D01*
X0037211Y0105342D01*
X0037211Y0107467D01*
X0037408Y0107467D01*
X0038023Y0108082D01*
X0038023Y0110990D01*
X0038811Y0111778D01*
X0038811Y0119713D01*
X0039677Y0119713D01*
X0040292Y0120328D01*
X0040292Y0120659D01*
X0040711Y0121078D01*
X0042911Y0123278D01*
X0042911Y0127993D01*
X0041769Y0129136D01*
X0040292Y0130613D01*
X0040292Y0130843D01*
X0039677Y0131458D01*
X0034083Y0131458D01*
X0033468Y0130843D01*
X0033468Y0127862D01*
X0033049Y0128036D01*
X0032074Y0128036D01*
X0031174Y0127663D01*
X0030484Y0126973D01*
X0030111Y0126073D01*
X0030111Y0125098D01*
X0030484Y0124198D01*
X0031174Y0123509D01*
X0032074Y0123136D01*
X0033049Y0123136D01*
X0033468Y0123309D01*
X0033468Y0120328D01*
X0034083Y0119713D01*
X0034911Y0119713D01*
X0034911Y0113504D01*
X0032208Y0113504D01*
X0031593Y0112889D01*
X0031593Y0108082D01*
X0032208Y0107467D01*
X0033311Y0107467D01*
X0033311Y0105350D01*
X0033026Y0105065D01*
X0033026Y0101045D01*
X0033641Y0100430D01*
X0033045Y0101026D02*
X0029680Y0101026D01*
X0029680Y0100328D02*
X0054311Y0100328D01*
X0054311Y0101026D02*
X0037469Y0101026D01*
X0037489Y0101725D02*
X0054311Y0101725D01*
X0054311Y0102423D02*
X0037489Y0102423D01*
X0037489Y0103122D02*
X0054311Y0103122D01*
X0054311Y0103820D02*
X0037489Y0103820D01*
X0037489Y0104519D02*
X0054311Y0104519D01*
X0054311Y0105217D02*
X0037336Y0105217D01*
X0037211Y0105916D02*
X0054311Y0105916D01*
X0054311Y0106614D02*
X0037211Y0106614D01*
X0037211Y0107313D02*
X0054311Y0107313D01*
X0054311Y0108011D02*
X0037952Y0108011D01*
X0038023Y0108710D02*
X0045409Y0108710D01*
X0045829Y0108536D02*
X0044720Y0108995D01*
X0043871Y0109844D01*
X0043411Y0110954D01*
X0043411Y0112155D01*
X0043871Y0113264D01*
X0044720Y0114113D01*
X0045829Y0114573D01*
X0047030Y0114573D01*
X0048140Y0114113D01*
X0048989Y0113264D01*
X0049448Y0112155D01*
X0049448Y0110954D01*
X0048989Y0109844D01*
X0048140Y0108995D01*
X0047030Y0108536D01*
X0045829Y0108536D01*
X0047451Y0108710D02*
X0054311Y0108710D01*
X0054311Y0109408D02*
X0048553Y0109408D01*
X0049098Y0110107D02*
X0054311Y0110107D01*
X0054311Y0110805D02*
X0049387Y0110805D01*
X0049448Y0111504D02*
X0054311Y0111504D01*
X0054311Y0112202D02*
X0049429Y0112202D01*
X0049139Y0112901D02*
X0054311Y0112901D01*
X0054311Y0113599D02*
X0048654Y0113599D01*
X0047694Y0114298D02*
X0054311Y0114298D01*
X0054311Y0114996D02*
X0038811Y0114996D01*
X0038811Y0114298D02*
X0045166Y0114298D01*
X0044206Y0113599D02*
X0038811Y0113599D01*
X0038811Y0112901D02*
X0043721Y0112901D01*
X0043431Y0112202D02*
X0038811Y0112202D01*
X0038537Y0111504D02*
X0043411Y0111504D01*
X0043473Y0110805D02*
X0038023Y0110805D01*
X0038023Y0110107D02*
X0043762Y0110107D01*
X0044307Y0109408D02*
X0038023Y0109408D01*
X0038811Y0115695D02*
X0054662Y0115695D01*
X0055305Y0116393D02*
X0038811Y0116393D01*
X0038811Y0117092D02*
X0055948Y0117092D01*
X0056591Y0117790D02*
X0038811Y0117790D01*
X0038811Y0118489D02*
X0057234Y0118489D01*
X0057877Y0119187D02*
X0038811Y0119187D01*
X0039850Y0119886D02*
X0053496Y0119886D01*
X0054865Y0119886D02*
X0058520Y0119886D01*
X0059163Y0120584D02*
X0055975Y0120584D01*
X0056430Y0121283D02*
X0059807Y0121283D01*
X0060100Y0121981D02*
X0056630Y0121981D01*
X0056630Y0122680D02*
X0060100Y0122680D01*
X0060100Y0123378D02*
X0056366Y0123378D01*
X0055822Y0124077D02*
X0060188Y0124077D01*
X0057461Y0128386D02*
X0060561Y0131486D01*
X0068761Y0131486D01*
X0070161Y0130086D01*
X0070161Y0127986D01*
X0070202Y0127967D01*
X0070806Y0131279D02*
X0070700Y0131386D01*
X0069300Y0132786D01*
X0065161Y0132786D01*
X0065161Y0134503D01*
X0065201Y0134492D01*
X0066270Y0134492D01*
X0066270Y0138013D01*
X0066653Y0138013D01*
X0066653Y0134492D01*
X0067722Y0134492D01*
X0068065Y0134584D01*
X0068373Y0134762D01*
X0068614Y0135003D01*
X0068725Y0134892D01*
X0071678Y0134892D01*
X0071711Y0134926D01*
X0071711Y0131246D01*
X0071678Y0131279D01*
X0070806Y0131279D01*
X0070325Y0131761D02*
X0071711Y0131761D01*
X0071711Y0132459D02*
X0069626Y0132459D01*
X0067956Y0134555D02*
X0071711Y0134555D01*
X0071711Y0133856D02*
X0065161Y0133856D01*
X0065161Y0133158D02*
X0071711Y0133158D01*
X0071711Y0141483D02*
X0071678Y0141516D01*
X0068725Y0141516D01*
X0068614Y0141405D01*
X0068373Y0141647D01*
X0068164Y0141767D01*
X0069158Y0141767D01*
X0069158Y0144736D01*
X0065993Y0144736D01*
X0065993Y0142939D01*
X0066085Y0142596D01*
X0066262Y0142288D01*
X0066514Y0142037D01*
X0066722Y0141916D01*
X0066653Y0141916D01*
X0066653Y0138396D01*
X0066270Y0138396D01*
X0066270Y0141916D01*
X0065201Y0141916D01*
X0065161Y0141906D01*
X0065161Y0142167D01*
X0065374Y0142167D01*
X0065930Y0142724D01*
X0065930Y0147448D01*
X0065374Y0148004D01*
X0065174Y0148004D01*
X0067961Y0152186D01*
X0071711Y0152186D01*
X0071711Y0148404D01*
X0069858Y0148404D01*
X0069858Y0145436D01*
X0069158Y0145436D01*
X0069158Y0148404D01*
X0067165Y0148404D01*
X0066821Y0148312D01*
X0066514Y0148134D01*
X0066262Y0147883D01*
X0066085Y0147575D01*
X0065993Y0147232D01*
X0065993Y0145436D01*
X0069158Y0145436D01*
X0069158Y0144736D01*
X0069858Y0144736D01*
X0069858Y0141767D01*
X0071711Y0141767D01*
X0071711Y0141483D01*
X0071711Y0141540D02*
X0068480Y0141540D01*
X0069158Y0142238D02*
X0069858Y0142238D01*
X0069858Y0142937D02*
X0069158Y0142937D01*
X0069158Y0143635D02*
X0069858Y0143635D01*
X0069858Y0144334D02*
X0069158Y0144334D01*
X0069158Y0145032D02*
X0065930Y0145032D01*
X0065930Y0144334D02*
X0065993Y0144334D01*
X0065993Y0143635D02*
X0065930Y0143635D01*
X0065930Y0142937D02*
X0065993Y0142937D01*
X0066312Y0142238D02*
X0065445Y0142238D01*
X0066270Y0141540D02*
X0066653Y0141540D01*
X0066653Y0140841D02*
X0066270Y0140841D01*
X0066270Y0140143D02*
X0066653Y0140143D01*
X0066653Y0139444D02*
X0066270Y0139444D01*
X0066270Y0138746D02*
X0066653Y0138746D01*
X0066653Y0137349D02*
X0066270Y0137349D01*
X0066270Y0136650D02*
X0066653Y0136650D01*
X0066653Y0135952D02*
X0066270Y0135952D01*
X0066270Y0135253D02*
X0066653Y0135253D01*
X0066653Y0134555D02*
X0066270Y0134555D01*
X0065161Y0130186D02*
X0068169Y0130186D01*
X0068169Y0125211D01*
X0068476Y0124904D01*
X0067665Y0124904D01*
X0067321Y0124812D01*
X0067014Y0124634D01*
X0066762Y0124383D01*
X0066585Y0124075D01*
X0066493Y0123732D01*
X0066493Y0121936D01*
X0069658Y0121936D01*
X0069658Y0121236D01*
X0066493Y0121236D01*
X0066493Y0119439D01*
X0066585Y0119096D01*
X0066762Y0118788D01*
X0067014Y0118537D01*
X0067321Y0118359D01*
X0067665Y0118267D01*
X0069658Y0118267D01*
X0069658Y0121236D01*
X0070358Y0121236D01*
X0070358Y0118267D01*
X0071711Y0118267D01*
X0071711Y0116040D01*
X0071311Y0116040D01*
X0071311Y0111496D01*
X0070611Y0111496D01*
X0070611Y0110796D01*
X0065871Y0110796D01*
X0065871Y0107425D01*
X0065963Y0107082D01*
X0066141Y0106774D01*
X0066392Y0106523D01*
X0066700Y0106345D01*
X0067044Y0106253D01*
X0070611Y0106253D01*
X0070611Y0110796D01*
X0071311Y0110796D01*
X0071311Y0106253D01*
X0071711Y0106253D01*
X0071711Y0106000D01*
X0071311Y0106000D01*
X0071311Y0101260D01*
X0070611Y0101260D01*
X0070611Y0100560D01*
X0065871Y0100560D01*
X0065871Y0096992D01*
X0065963Y0096649D01*
X0066141Y0096341D01*
X0066296Y0096186D01*
X0066141Y0096030D01*
X0065963Y0095722D01*
X0065871Y0095379D01*
X0065871Y0091811D01*
X0070611Y0091811D01*
X0070611Y0091111D01*
X0065871Y0091111D01*
X0065871Y0087543D01*
X0065963Y0087200D01*
X0066141Y0086892D01*
X0066392Y0086641D01*
X0066700Y0086463D01*
X0067044Y0086371D01*
X0070611Y0086371D01*
X0070611Y0091111D01*
X0071311Y0091111D01*
X0071311Y0086371D01*
X0071711Y0086371D01*
X0071711Y0086118D01*
X0071311Y0086118D01*
X0071311Y0081575D01*
X0070611Y0081575D01*
X0070611Y0080875D01*
X0065871Y0080875D01*
X0065871Y0077504D01*
X0065963Y0077161D01*
X0066141Y0076853D01*
X0066392Y0076601D01*
X0066700Y0076424D01*
X0067044Y0076332D01*
X0070611Y0076332D01*
X0070611Y0080875D01*
X0071311Y0080875D01*
X0071311Y0076332D01*
X0071711Y0076332D01*
X0071711Y0075236D01*
X0055977Y0075236D01*
X0056086Y0090170D01*
X0056719Y0089536D01*
X0057173Y0089536D01*
X0057318Y0089391D01*
X0057251Y0089373D01*
X0056944Y0089195D01*
X0056692Y0088944D01*
X0056514Y0088636D01*
X0056422Y0088292D01*
X0056422Y0084331D01*
X0060572Y0084331D01*
X0060572Y0083631D01*
X0056422Y0083631D01*
X0056422Y0079669D01*
X0056514Y0079326D01*
X0056692Y0079018D01*
X0056944Y0078767D01*
X0057251Y0078589D01*
X0057595Y0078497D01*
X0060572Y0078497D01*
X0060572Y0083631D01*
X0061272Y0083631D01*
X0061272Y0084331D01*
X0065422Y0084331D01*
X0065422Y0088292D01*
X0065330Y0088636D01*
X0065152Y0088944D01*
X0064901Y0089195D01*
X0064593Y0089373D01*
X0064249Y0089465D01*
X0063616Y0089465D01*
X0064037Y0089887D01*
X0064037Y0092248D01*
X0063939Y0092347D01*
X0064037Y0092446D01*
X0064037Y0094807D01*
X0063939Y0094906D01*
X0064037Y0095005D01*
X0064037Y0097367D01*
X0063939Y0097465D01*
X0064037Y0097564D01*
X0064037Y0099557D01*
X0064168Y0099687D01*
X0064345Y0099995D01*
X0064437Y0100339D01*
X0064437Y0101260D01*
X0060474Y0101260D01*
X0060474Y0101347D01*
X0064437Y0101347D01*
X0064437Y0102269D01*
X0064345Y0102612D01*
X0064175Y0102906D01*
X0064249Y0102906D01*
X0064593Y0102998D01*
X0064901Y0103176D01*
X0065152Y0103428D01*
X0065330Y0103735D01*
X0065422Y0104079D01*
X0065422Y0108040D01*
X0061272Y0108040D01*
X0061272Y0108740D01*
X0065422Y0108740D01*
X0065422Y0112702D01*
X0065330Y0113045D01*
X0065152Y0113353D01*
X0064901Y0113604D01*
X0064593Y0113782D01*
X0064249Y0113874D01*
X0061272Y0113874D01*
X0061272Y0108740D01*
X0060572Y0108740D01*
X0060572Y0113874D01*
X0057595Y0113874D01*
X0057523Y0113855D01*
X0062335Y0118667D01*
X0065874Y0118667D01*
X0066430Y0119224D01*
X0066430Y0123948D01*
X0065874Y0124504D01*
X0064311Y0124504D01*
X0064311Y0124769D01*
X0064754Y0125211D01*
X0064754Y0129886D01*
X0065161Y0129886D01*
X0065161Y0130186D01*
X0064754Y0129665D02*
X0068169Y0129665D01*
X0068169Y0128967D02*
X0064754Y0128967D01*
X0064754Y0128268D02*
X0068169Y0128268D01*
X0068169Y0127570D02*
X0064754Y0127570D01*
X0064754Y0126871D02*
X0068169Y0126871D01*
X0068169Y0126172D02*
X0064754Y0126172D01*
X0064754Y0125474D02*
X0068169Y0125474D01*
X0067258Y0124775D02*
X0064318Y0124775D01*
X0062157Y0118489D02*
X0067097Y0118489D01*
X0066560Y0119187D02*
X0066394Y0119187D01*
X0066430Y0119886D02*
X0066493Y0119886D01*
X0066493Y0120584D02*
X0066430Y0120584D01*
X0066430Y0121283D02*
X0069658Y0121283D01*
X0069658Y0120584D02*
X0070358Y0120584D01*
X0070358Y0119886D02*
X0069658Y0119886D01*
X0069658Y0119187D02*
X0070358Y0119187D01*
X0070358Y0118489D02*
X0069658Y0118489D01*
X0070611Y0116040D02*
X0070611Y0111496D01*
X0065871Y0111496D01*
X0065871Y0114867D01*
X0065963Y0115211D01*
X0066141Y0115518D01*
X0066392Y0115770D01*
X0066700Y0115948D01*
X0067044Y0116040D01*
X0070611Y0116040D01*
X0070611Y0115695D02*
X0071311Y0115695D01*
X0071311Y0114996D02*
X0070611Y0114996D01*
X0070611Y0114298D02*
X0071311Y0114298D01*
X0071311Y0113599D02*
X0070611Y0113599D01*
X0070611Y0112901D02*
X0071311Y0112901D01*
X0071311Y0112202D02*
X0070611Y0112202D01*
X0070611Y0111504D02*
X0071311Y0111504D01*
X0070611Y0110805D02*
X0065422Y0110805D01*
X0065422Y0110107D02*
X0065871Y0110107D01*
X0065871Y0109408D02*
X0065422Y0109408D01*
X0065871Y0108710D02*
X0061272Y0108710D01*
X0061272Y0109408D02*
X0060572Y0109408D01*
X0060572Y0110107D02*
X0061272Y0110107D01*
X0061272Y0110805D02*
X0060572Y0110805D01*
X0060572Y0111504D02*
X0061272Y0111504D01*
X0061272Y0112202D02*
X0060572Y0112202D01*
X0060572Y0112901D02*
X0061272Y0112901D01*
X0061272Y0113599D02*
X0060572Y0113599D01*
X0059363Y0115695D02*
X0066317Y0115695D01*
X0065906Y0114996D02*
X0058664Y0114996D01*
X0057966Y0114298D02*
X0065871Y0114298D01*
X0065871Y0113599D02*
X0064906Y0113599D01*
X0065368Y0112901D02*
X0065871Y0112901D01*
X0065871Y0112202D02*
X0065422Y0112202D01*
X0065422Y0111504D02*
X0065871Y0111504D01*
X0065871Y0108011D02*
X0065422Y0108011D01*
X0065422Y0107313D02*
X0065901Y0107313D01*
X0066301Y0106614D02*
X0065422Y0106614D01*
X0065422Y0105916D02*
X0066728Y0105916D01*
X0066700Y0105908D02*
X0066392Y0105730D01*
X0066141Y0105479D01*
X0065963Y0105171D01*
X0065871Y0104828D01*
X0065871Y0101260D01*
X0070611Y0101260D01*
X0070611Y0106000D01*
X0067044Y0106000D01*
X0066700Y0105908D01*
X0065990Y0105217D02*
X0065422Y0105217D01*
X0065422Y0104519D02*
X0065871Y0104519D01*
X0065871Y0103820D02*
X0065352Y0103820D01*
X0065871Y0103122D02*
X0064806Y0103122D01*
X0064396Y0102423D02*
X0065871Y0102423D01*
X0065871Y0101725D02*
X0064437Y0101725D01*
X0064437Y0101026D02*
X0070611Y0101026D01*
X0070611Y0100560D02*
X0071311Y0100560D01*
X0071311Y0095820D01*
X0071311Y0091811D01*
X0070611Y0091811D01*
X0070611Y0100560D01*
X0070611Y0100328D02*
X0071311Y0100328D01*
X0071311Y0099629D02*
X0070611Y0099629D01*
X0070611Y0098931D02*
X0071311Y0098931D01*
X0071311Y0098232D02*
X0070611Y0098232D01*
X0070611Y0097534D02*
X0071311Y0097534D01*
X0071311Y0096835D02*
X0070611Y0096835D01*
X0070611Y0096137D02*
X0071311Y0096137D01*
X0071311Y0095438D02*
X0070611Y0095438D01*
X0070611Y0094739D02*
X0071311Y0094739D01*
X0071311Y0094041D02*
X0070611Y0094041D01*
X0070611Y0093342D02*
X0071311Y0093342D01*
X0071311Y0092644D02*
X0070611Y0092644D01*
X0070611Y0091945D02*
X0071311Y0091945D01*
X0070611Y0091247D02*
X0064037Y0091247D01*
X0064037Y0091945D02*
X0065871Y0091945D01*
X0065871Y0092644D02*
X0064037Y0092644D01*
X0064037Y0093342D02*
X0065871Y0093342D01*
X0065871Y0094041D02*
X0064037Y0094041D01*
X0064037Y0094739D02*
X0065871Y0094739D01*
X0065887Y0095438D02*
X0064037Y0095438D01*
X0064037Y0096137D02*
X0066247Y0096137D01*
X0065913Y0096835D02*
X0064037Y0096835D01*
X0064007Y0097534D02*
X0065871Y0097534D01*
X0065871Y0098232D02*
X0064037Y0098232D01*
X0064037Y0098931D02*
X0065871Y0098931D01*
X0065871Y0099629D02*
X0064109Y0099629D01*
X0064434Y0100328D02*
X0065871Y0100328D01*
X0065871Y0090548D02*
X0064037Y0090548D01*
X0064001Y0089850D02*
X0065871Y0089850D01*
X0065871Y0089151D02*
X0064944Y0089151D01*
X0065379Y0088453D02*
X0065871Y0088453D01*
X0065871Y0087754D02*
X0065422Y0087754D01*
X0065422Y0087056D02*
X0066046Y0087056D01*
X0065422Y0086357D02*
X0071711Y0086357D01*
X0071311Y0085659D02*
X0070611Y0085659D01*
X0070611Y0086118D02*
X0067044Y0086118D01*
X0066700Y0086026D01*
X0066392Y0085849D01*
X0066141Y0085597D01*
X0065963Y0085289D01*
X0065871Y0084946D01*
X0065871Y0081575D01*
X0070611Y0081575D01*
X0070611Y0086118D01*
X0070611Y0087056D02*
X0071311Y0087056D01*
X0071311Y0087754D02*
X0070611Y0087754D01*
X0070611Y0088453D02*
X0071311Y0088453D01*
X0071311Y0089151D02*
X0070611Y0089151D01*
X0070611Y0089850D02*
X0071311Y0089850D01*
X0071311Y0090548D02*
X0070611Y0090548D01*
X0070611Y0084960D02*
X0071311Y0084960D01*
X0071311Y0084262D02*
X0070611Y0084262D01*
X0070611Y0083563D02*
X0071311Y0083563D01*
X0071311Y0082865D02*
X0070611Y0082865D01*
X0070611Y0082166D02*
X0071311Y0082166D01*
X0070611Y0081468D02*
X0065422Y0081468D01*
X0065422Y0082166D02*
X0065871Y0082166D01*
X0065871Y0082865D02*
X0065422Y0082865D01*
X0065422Y0083563D02*
X0065871Y0083563D01*
X0065422Y0083631D02*
X0061272Y0083631D01*
X0061272Y0078497D01*
X0064249Y0078497D01*
X0064593Y0078589D01*
X0064901Y0078767D01*
X0065152Y0079018D01*
X0065330Y0079326D01*
X0065422Y0079669D01*
X0065422Y0083631D01*
X0065871Y0084262D02*
X0061272Y0084262D01*
X0061272Y0083563D02*
X0060572Y0083563D01*
X0060572Y0082865D02*
X0061272Y0082865D01*
X0061272Y0082166D02*
X0060572Y0082166D01*
X0060572Y0081468D02*
X0061272Y0081468D01*
X0061272Y0080769D02*
X0060572Y0080769D01*
X0060572Y0080071D02*
X0061272Y0080071D01*
X0061272Y0079372D02*
X0060572Y0079372D01*
X0060572Y0078674D02*
X0061272Y0078674D01*
X0060572Y0084262D02*
X0056043Y0084262D01*
X0056048Y0084960D02*
X0056422Y0084960D01*
X0056422Y0085659D02*
X0056053Y0085659D01*
X0056058Y0086357D02*
X0056422Y0086357D01*
X0056422Y0087056D02*
X0056063Y0087056D01*
X0056068Y0087754D02*
X0056422Y0087754D01*
X0056465Y0088453D02*
X0056073Y0088453D01*
X0056078Y0089151D02*
X0056900Y0089151D01*
X0056405Y0089850D02*
X0056083Y0089850D01*
X0054561Y0089850D02*
X0038655Y0089850D01*
X0039353Y0089151D02*
X0054561Y0089151D01*
X0054561Y0088453D02*
X0040052Y0088453D01*
X0040750Y0087754D02*
X0054561Y0087754D01*
X0054561Y0087056D02*
X0041728Y0087056D01*
X0043414Y0086357D02*
X0054561Y0086357D01*
X0054561Y0085659D02*
X0044547Y0085659D01*
X0045245Y0084960D02*
X0054561Y0084960D01*
X0054561Y0084262D02*
X0045944Y0084262D01*
X0046347Y0083563D02*
X0054561Y0083563D01*
X0054561Y0082865D02*
X0046636Y0082865D01*
X0046926Y0082166D02*
X0054561Y0082166D01*
X0054561Y0081468D02*
X0047211Y0081468D01*
X0047211Y0080769D02*
X0054561Y0080769D01*
X0054561Y0080071D02*
X0047211Y0080071D01*
X0047211Y0079372D02*
X0054561Y0079372D01*
X0054561Y0078674D02*
X0047211Y0078674D01*
X0046923Y0077975D02*
X0054561Y0077975D01*
X0054561Y0077277D02*
X0046634Y0077277D01*
X0046344Y0076578D02*
X0054561Y0076578D01*
X0054561Y0075880D02*
X0045937Y0075880D01*
X0037956Y0090548D02*
X0054561Y0090548D01*
X0054561Y0091247D02*
X0037489Y0091247D01*
X0037489Y0091945D02*
X0054311Y0091945D01*
X0054311Y0092644D02*
X0037489Y0092644D01*
X0037489Y0093342D02*
X0054311Y0093342D01*
X0054311Y0094041D02*
X0037489Y0094041D01*
X0037489Y0094739D02*
X0054311Y0094739D01*
X0054311Y0095438D02*
X0037273Y0095438D01*
X0033026Y0101725D02*
X0029680Y0101725D01*
X0029680Y0102423D02*
X0033026Y0102423D01*
X0033026Y0103122D02*
X0029680Y0103122D01*
X0029680Y0103820D02*
X0033026Y0103820D01*
X0033026Y0104519D02*
X0029680Y0104519D01*
X0029680Y0105217D02*
X0033179Y0105217D01*
X0033311Y0105916D02*
X0028061Y0105916D01*
X0028261Y0106614D02*
X0033311Y0106614D01*
X0033311Y0107313D02*
X0028261Y0107313D01*
X0026861Y0106886D02*
X0026861Y0110286D01*
X0027061Y0110486D01*
X0028115Y0110486D01*
X0025661Y0110486D01*
X0021261Y0114886D01*
X0020186Y0117092D02*
X0008611Y0117092D01*
X0008611Y0117790D02*
X0034911Y0117790D01*
X0034911Y0117092D02*
X0022337Y0117092D01*
X0023219Y0116393D02*
X0034911Y0116393D01*
X0034911Y0115695D02*
X0023578Y0115695D01*
X0023711Y0114996D02*
X0034911Y0114996D01*
X0034911Y0114298D02*
X0023829Y0114298D01*
X0024528Y0113599D02*
X0034911Y0113599D01*
X0034911Y0118489D02*
X0008611Y0118489D01*
X0008611Y0119187D02*
X0016660Y0119187D01*
X0016708Y0119139D02*
X0017016Y0118961D01*
X0017359Y0118869D01*
X0019549Y0118869D01*
X0019549Y0121444D01*
X0020249Y0121444D01*
X0020249Y0118869D01*
X0022439Y0118869D01*
X0022782Y0118961D01*
X0023090Y0119139D01*
X0023342Y0119391D01*
X0023496Y0119657D01*
X0023760Y0119505D01*
X0024103Y0119413D01*
X0026452Y0119413D01*
X0026452Y0121654D01*
X0026834Y0121654D01*
X0026834Y0119413D01*
X0029183Y0119413D01*
X0029526Y0119505D01*
X0029834Y0119683D01*
X0030085Y0119934D01*
X0030263Y0120242D01*
X0030355Y0120585D01*
X0030355Y0121654D01*
X0026834Y0121654D01*
X0026834Y0122037D01*
X0026452Y0122037D01*
X0026452Y0124278D01*
X0024103Y0124278D01*
X0023760Y0124186D01*
X0023452Y0124008D01*
X0023451Y0124008D01*
X0023342Y0124198D01*
X0023090Y0124449D01*
X0022782Y0124627D01*
X0022439Y0124719D01*
X0020249Y0124719D01*
X0020249Y0122144D01*
X0022931Y0122144D01*
X0022931Y0122037D01*
X0026451Y0122037D01*
X0026451Y0121654D01*
X0022931Y0121654D01*
X0022931Y0121444D01*
X0020249Y0121444D01*
X0020249Y0122144D01*
X0019549Y0122144D01*
X0019549Y0121444D01*
X0016187Y0121444D01*
X0016187Y0120042D01*
X0016279Y0119698D01*
X0016457Y0119391D01*
X0016708Y0119139D01*
X0016229Y0119886D02*
X0008611Y0119886D01*
X0008611Y0120584D02*
X0016187Y0120584D01*
X0016187Y0121283D02*
X0008611Y0121283D01*
X0008611Y0121981D02*
X0019549Y0121981D01*
X0019549Y0122144D02*
X0016187Y0122144D01*
X0016187Y0123547D01*
X0016279Y0123890D01*
X0016457Y0124198D01*
X0016708Y0124449D01*
X0017016Y0124627D01*
X0017359Y0124719D01*
X0019549Y0124719D01*
X0019549Y0122144D01*
X0019549Y0122680D02*
X0020249Y0122680D01*
X0020249Y0123378D02*
X0019549Y0123378D01*
X0019549Y0124077D02*
X0020249Y0124077D01*
X0020249Y0121981D02*
X0026451Y0121981D01*
X0026834Y0121981D02*
X0033468Y0121981D01*
X0033468Y0121283D02*
X0030355Y0121283D01*
X0030355Y0120584D02*
X0033468Y0120584D01*
X0033910Y0119886D02*
X0030037Y0119886D01*
X0030355Y0122037D02*
X0030355Y0123106D01*
X0030263Y0123449D01*
X0030085Y0123757D01*
X0029834Y0124008D01*
X0029526Y0124186D01*
X0029183Y0124278D01*
X0026834Y0124278D01*
X0026834Y0122037D01*
X0030355Y0122037D01*
X0030355Y0122680D02*
X0033468Y0122680D01*
X0031488Y0123378D02*
X0030282Y0123378D01*
X0030605Y0124077D02*
X0029715Y0124077D01*
X0030245Y0124775D02*
X0008611Y0124775D01*
X0008611Y0124077D02*
X0016387Y0124077D01*
X0016187Y0123378D02*
X0008611Y0123378D01*
X0008611Y0122680D02*
X0016187Y0122680D01*
X0017102Y0126256D02*
X0022696Y0126256D01*
X0023311Y0126871D01*
X0030442Y0126871D01*
X0030153Y0126172D02*
X0008611Y0126172D01*
X0008611Y0125474D02*
X0030111Y0125474D01*
X0029440Y0127193D02*
X0030055Y0127808D01*
X0030055Y0130843D01*
X0029440Y0131458D01*
X0023846Y0131458D01*
X0023295Y0130907D01*
X0022696Y0131506D01*
X0017102Y0131506D01*
X0016487Y0130891D01*
X0016487Y0130825D01*
X0016449Y0130863D01*
X0015549Y0131236D01*
X0014574Y0131236D01*
X0013674Y0130863D01*
X0012984Y0130173D01*
X0012611Y0129273D01*
X0012611Y0128298D01*
X0012984Y0127398D01*
X0013674Y0126709D01*
X0014574Y0126336D01*
X0015549Y0126336D01*
X0016449Y0126709D01*
X0016549Y0126809D01*
X0017102Y0126256D01*
X0016658Y0131062D02*
X0015968Y0131062D01*
X0014155Y0131062D02*
X0008611Y0131062D01*
X0008611Y0130364D02*
X0013175Y0130364D01*
X0012774Y0129665D02*
X0008611Y0129665D01*
X0008611Y0128967D02*
X0012611Y0128967D01*
X0012624Y0128268D02*
X0008611Y0128268D01*
X0008611Y0127570D02*
X0012913Y0127570D01*
X0013511Y0126871D02*
X0008611Y0126871D01*
X0008611Y0131761D02*
X0058856Y0131761D01*
X0058158Y0131062D02*
X0040073Y0131062D01*
X0040541Y0130364D02*
X0048074Y0130364D01*
X0047796Y0129665D02*
X0041240Y0129665D01*
X0041938Y0128967D02*
X0047796Y0128967D01*
X0047796Y0128268D02*
X0042637Y0128268D01*
X0042911Y0127570D02*
X0047796Y0127570D01*
X0047796Y0126871D02*
X0042911Y0126871D01*
X0042911Y0126172D02*
X0047796Y0126172D01*
X0047796Y0125474D02*
X0042911Y0125474D01*
X0042911Y0124775D02*
X0047906Y0124775D01*
X0047136Y0133231D02*
X0047479Y0133323D01*
X0047787Y0133501D01*
X0048039Y0133752D01*
X0048216Y0134060D01*
X0048308Y0134403D01*
X0048308Y0136396D01*
X0045340Y0136396D01*
X0045340Y0137096D01*
X0048308Y0137096D01*
X0048308Y0139089D01*
X0048216Y0139433D01*
X0048039Y0139741D01*
X0047787Y0139992D01*
X0047479Y0140170D01*
X0047136Y0140262D01*
X0045340Y0140262D01*
X0045340Y0137096D01*
X0044640Y0137096D01*
X0044640Y0136396D01*
X0045340Y0136396D01*
X0045340Y0133231D01*
X0047136Y0133231D01*
X0048099Y0133856D02*
X0048818Y0133856D01*
X0048830Y0133835D02*
X0049081Y0133584D01*
X0049389Y0133406D01*
X0049732Y0133314D01*
X0051726Y0133314D01*
X0051726Y0136283D01*
X0052426Y0136283D01*
X0052426Y0136983D01*
X0055591Y0136983D01*
X0055591Y0138779D01*
X0055499Y0139122D01*
X0055321Y0139430D01*
X0055070Y0139682D01*
X0054762Y0139859D01*
X0054419Y0139951D01*
X0052426Y0139951D01*
X0052426Y0136983D01*
X0051726Y0136983D01*
X0051726Y0139951D01*
X0049732Y0139951D01*
X0049389Y0139859D01*
X0049081Y0139682D01*
X0048830Y0139430D01*
X0048652Y0139122D01*
X0048560Y0138779D01*
X0048560Y0136983D01*
X0051726Y0136983D01*
X0051726Y0136283D01*
X0048560Y0136283D01*
X0048560Y0134487D01*
X0048652Y0134143D01*
X0048830Y0133835D01*
X0048560Y0134555D02*
X0048308Y0134555D01*
X0048308Y0135253D02*
X0048560Y0135253D01*
X0048560Y0135952D02*
X0048308Y0135952D01*
X0048308Y0137349D02*
X0048560Y0137349D01*
X0048560Y0138047D02*
X0048308Y0138047D01*
X0048308Y0138746D02*
X0048560Y0138746D01*
X0048844Y0139444D02*
X0048210Y0139444D01*
X0047526Y0140143D02*
X0060589Y0140143D01*
X0060589Y0140841D02*
X0055210Y0140841D01*
X0055291Y0141540D02*
X0060811Y0141540D01*
X0060044Y0142238D02*
X0055291Y0142238D01*
X0055291Y0142937D02*
X0059600Y0142937D01*
X0059600Y0143635D02*
X0055291Y0143635D01*
X0055291Y0144334D02*
X0059600Y0144334D01*
X0059600Y0145032D02*
X0055291Y0145032D01*
X0055289Y0145731D02*
X0059600Y0145731D01*
X0059600Y0146429D02*
X0050617Y0146429D01*
X0050811Y0147128D02*
X0059600Y0147128D01*
X0059937Y0147826D02*
X0050811Y0147826D01*
X0050541Y0148525D02*
X0060242Y0148525D01*
X0060211Y0149223D02*
X0050679Y0149223D01*
X0051378Y0149922D02*
X0060356Y0149922D01*
X0060731Y0150620D02*
X0052076Y0150620D01*
X0052775Y0151319D02*
X0061651Y0151319D01*
X0062761Y0145086D02*
X0062815Y0145086D01*
X0063672Y0151319D02*
X0065025Y0151319D01*
X0065514Y0152017D02*
X0053473Y0152017D01*
X0054172Y0152716D02*
X0066003Y0152716D01*
X0066492Y0153414D02*
X0054870Y0153414D01*
X0055569Y0154113D02*
X0071711Y0154113D01*
X0071711Y0154811D02*
X0056267Y0154811D01*
X0056361Y0155510D02*
X0071711Y0155510D01*
X0071711Y0156208D02*
X0056361Y0156208D01*
X0056361Y0156907D02*
X0071711Y0156907D01*
X0071711Y0157605D02*
X0056361Y0157605D01*
X0056361Y0158304D02*
X0071711Y0158304D01*
X0071711Y0159003D02*
X0056361Y0159003D01*
X0056361Y0159701D02*
X0071711Y0159701D01*
X0071711Y0160400D02*
X0056361Y0160400D01*
X0056361Y0161098D02*
X0071711Y0161098D01*
X0071711Y0161797D02*
X0056361Y0161797D01*
X0056361Y0162495D02*
X0071711Y0162495D01*
X0071711Y0163194D02*
X0056361Y0163194D01*
X0056361Y0163892D02*
X0064564Y0163892D01*
X0064523Y0163906D02*
X0065279Y0163660D01*
X0066064Y0163536D01*
X0066111Y0163536D01*
X0066111Y0168236D01*
X0061411Y0168236D01*
X0061411Y0168188D01*
X0061536Y0167403D01*
X0061781Y0166647D01*
X0062142Y0165939D01*
X0062609Y0165296D01*
X0063172Y0164734D01*
X0063815Y0164266D01*
X0064523Y0163906D01*
X0066111Y0163892D02*
X0066811Y0163892D01*
X0066811Y0163536D02*
X0066859Y0163536D01*
X0067644Y0163660D01*
X0068400Y0163906D01*
X0069108Y0164266D01*
X0069751Y0164734D01*
X0070313Y0165296D01*
X0070781Y0165939D01*
X0071141Y0166647D01*
X0071387Y0167403D01*
X0071511Y0168188D01*
X0071511Y0168236D01*
X0066811Y0168236D01*
X0066811Y0163536D01*
X0066811Y0164591D02*
X0066111Y0164591D01*
X0066111Y0165289D02*
X0066811Y0165289D01*
X0066811Y0165988D02*
X0066111Y0165988D01*
X0066111Y0166686D02*
X0066811Y0166686D01*
X0066811Y0167385D02*
X0066111Y0167385D01*
X0066111Y0168083D02*
X0066811Y0168083D01*
X0066811Y0168236D02*
X0066111Y0168236D01*
X0066111Y0168936D01*
X0066111Y0173636D01*
X0066064Y0173636D01*
X0065279Y0173511D01*
X0064523Y0173266D01*
X0063815Y0172905D01*
X0063172Y0172438D01*
X0062609Y0171875D01*
X0062142Y0171232D01*
X0061781Y0170524D01*
X0061536Y0169768D01*
X0061411Y0168983D01*
X0061411Y0168936D01*
X0066111Y0168936D01*
X0066811Y0168936D01*
X0066811Y0173636D01*
X0066859Y0173636D01*
X0067644Y0173511D01*
X0068400Y0173266D01*
X0069108Y0172905D01*
X0069751Y0172438D01*
X0070313Y0171875D01*
X0070781Y0171232D01*
X0071141Y0170524D01*
X0071387Y0169768D01*
X0071511Y0168983D01*
X0071511Y0168936D01*
X0066811Y0168936D01*
X0066811Y0168236D01*
X0066811Y0168782D02*
X0071711Y0168782D01*
X0071711Y0169480D02*
X0071433Y0169480D01*
X0071254Y0170179D02*
X0071711Y0170179D01*
X0071711Y0170877D02*
X0070962Y0170877D01*
X0070531Y0171576D02*
X0071711Y0171576D01*
X0071711Y0172274D02*
X0069915Y0172274D01*
X0068975Y0172973D02*
X0071711Y0172973D01*
X0071711Y0173671D02*
X0062961Y0173671D01*
X0062961Y0172973D02*
X0063948Y0172973D01*
X0063008Y0172274D02*
X0062330Y0172274D01*
X0062392Y0171576D02*
X0061631Y0171576D01*
X0061961Y0170877D02*
X0060933Y0170877D01*
X0060234Y0170179D02*
X0061669Y0170179D01*
X0061490Y0169480D02*
X0059536Y0169480D01*
X0058837Y0168782D02*
X0066111Y0168782D01*
X0066111Y0169480D02*
X0066811Y0169480D01*
X0066811Y0170179D02*
X0066111Y0170179D01*
X0066111Y0170877D02*
X0066811Y0170877D01*
X0066811Y0171576D02*
X0066111Y0171576D01*
X0066111Y0172274D02*
X0066811Y0172274D01*
X0066811Y0172973D02*
X0066111Y0172973D01*
X0064227Y0174370D02*
X0062961Y0174370D01*
X0062961Y0175068D02*
X0063261Y0175068D01*
X0061561Y0173486D02*
X0061561Y0183686D01*
X0066461Y0188586D01*
X0067662Y0193230D02*
X0071711Y0193230D01*
X0071711Y0193928D02*
X0067629Y0193928D01*
X0067406Y0193836D02*
X0069152Y0194559D01*
X0070488Y0195895D01*
X0071211Y0197641D01*
X0071211Y0199530D01*
X0070488Y0201276D01*
X0069152Y0202612D01*
X0067406Y0203336D01*
X0065517Y0203336D01*
X0063771Y0202612D01*
X0063126Y0201968D01*
X0063126Y0202342D01*
X0060158Y0202342D01*
X0060158Y0199177D01*
X0061711Y0199177D01*
X0061711Y0197641D01*
X0062435Y0195895D01*
X0063771Y0194559D01*
X0065517Y0193836D01*
X0067406Y0193836D01*
X0069220Y0194627D02*
X0071711Y0194627D01*
X0071711Y0195325D02*
X0069918Y0195325D01*
X0070542Y0196024D02*
X0071711Y0196024D01*
X0071711Y0196722D02*
X0070831Y0196722D01*
X0071120Y0197421D02*
X0071711Y0197421D01*
X0071711Y0198119D02*
X0071211Y0198119D01*
X0071211Y0198818D02*
X0071711Y0198818D01*
X0071711Y0199516D02*
X0071211Y0199516D01*
X0070928Y0200215D02*
X0071711Y0200215D01*
X0071711Y0200913D02*
X0070639Y0200913D01*
X0070153Y0201612D02*
X0071711Y0201612D01*
X0071711Y0202310D02*
X0069454Y0202310D01*
X0068195Y0203009D02*
X0071711Y0203009D01*
X0071711Y0203707D02*
X0063126Y0203707D01*
X0063126Y0204406D02*
X0064140Y0204406D01*
X0063225Y0205104D02*
X0063108Y0205104D01*
X0062358Y0206080D02*
X0062297Y0206115D01*
X0061954Y0206207D01*
X0060158Y0206207D01*
X0060158Y0203042D01*
X0059458Y0203042D01*
X0059458Y0206207D01*
X0057662Y0206207D01*
X0057318Y0206115D01*
X0057251Y0206076D01*
X0056661Y0206666D01*
X0055841Y0207486D01*
X0054423Y0207486D01*
X0054388Y0208362D01*
X0053125Y0211782D01*
X0050868Y0214644D01*
X0050868Y0214644D01*
X0050868Y0214644D01*
X0047836Y0216668D01*
X0044327Y0217657D01*
X0042534Y0217586D01*
X0037141Y0217586D01*
X0036561Y0218166D01*
X0036561Y0232955D01*
X0036673Y0233178D01*
X0036561Y0233513D01*
X0036561Y0233866D01*
X0036461Y0233966D01*
X0036461Y0234166D01*
X0036285Y0234342D01*
X0036206Y0234578D01*
X0035891Y0234736D01*
X0032761Y0237866D01*
X0032761Y0244206D01*
X0046591Y0258036D01*
X0047549Y0258036D01*
X0048449Y0258409D01*
X0049138Y0259098D01*
X0049511Y0259998D01*
X0049511Y0260973D01*
X0049138Y0261873D01*
X0048449Y0262563D01*
X0047549Y0262936D01*
X0046574Y0262936D01*
X0045674Y0262563D01*
X0044984Y0261873D01*
X0044611Y0260973D01*
X0044611Y0260016D01*
X0030861Y0246266D01*
X0030641Y0246486D01*
X0017167Y0259960D01*
X0017167Y0264072D01*
X0016551Y0264687D01*
X0008611Y0264687D01*
X0008611Y0265736D01*
X0016551Y0265736D01*
X0016613Y0265798D01*
X0017245Y0265166D01*
X0018164Y0264786D01*
X0019159Y0264786D01*
X0020078Y0265166D01*
X0020781Y0265869D01*
X0021161Y0266788D01*
X0021161Y0267783D01*
X0020781Y0268702D01*
X0020078Y0269405D01*
X0019159Y0269786D01*
X0018164Y0269786D01*
X0018148Y0269779D01*
X0017641Y0270286D01*
X0017167Y0270286D01*
X0017167Y0271946D01*
X0016551Y0272561D01*
X0008611Y0272561D01*
X0008611Y0273610D01*
X0015658Y0273610D01*
X0022011Y0267824D01*
X0022011Y0266998D01*
X0022384Y0266098D01*
X0023074Y0265409D01*
X0023974Y0265036D01*
X0024949Y0265036D01*
X0025849Y0265409D01*
X0026538Y0266098D01*
X0026911Y0266998D01*
X0026911Y0267973D01*
X0026538Y0268873D01*
X0025849Y0269563D01*
X0024949Y0269936D01*
X0023974Y0269936D01*
X0023889Y0269900D01*
X0017167Y0276024D01*
X0017167Y0278536D01*
X0017949Y0278536D01*
X0018849Y0278909D01*
X0019538Y0279598D01*
X0019911Y0280498D01*
X0019911Y0281473D01*
X0019538Y0282373D01*
X0018849Y0283063D01*
X0017949Y0283436D01*
X0017167Y0283436D01*
X0017167Y0287694D01*
X0016551Y0288309D01*
X0008611Y0288309D01*
X0008611Y0289358D01*
X0015809Y0289358D01*
X0019653Y0285514D01*
X0027061Y0277536D01*
X0027061Y0277506D01*
X0027453Y0277114D01*
X0027830Y0276708D01*
X0027860Y0276707D01*
X0029061Y0275506D01*
X0029061Y0274150D01*
X0028384Y0273473D01*
X0028011Y0272573D01*
X0028011Y0271598D01*
X0028384Y0270698D01*
X0029074Y0270009D01*
X0029974Y0269636D01*
X0030949Y0269636D01*
X0031849Y0270009D01*
X0032538Y0270698D01*
X0032911Y0271598D01*
X0032911Y0272573D01*
X0032538Y0273473D01*
X0031861Y0274150D01*
X0031861Y0276666D01*
X0029470Y0279057D01*
X0022061Y0287035D01*
X0022061Y0287066D01*
X0021670Y0287457D01*
X0021293Y0287863D01*
X0021263Y0287864D01*
X0017661Y0291466D01*
X0017167Y0291960D01*
X0017167Y0294200D01*
X0026771Y0284595D01*
X0026771Y0284548D01*
X0027144Y0283648D01*
X0027834Y0282959D01*
X0028734Y0282586D01*
X0029709Y0282586D01*
X0030609Y0282959D01*
X0031298Y0283648D01*
X0031671Y0284548D01*
X0031671Y0285523D01*
X0031298Y0286423D01*
X0030609Y0287113D01*
X0029709Y0287486D01*
X0028734Y0287486D01*
X0028202Y0287265D01*
X0018831Y0296636D01*
X0018831Y0297806D01*
X0017167Y0299471D01*
X0017167Y0303442D01*
X0016923Y0303686D01*
X0017849Y0303686D01*
X0020311Y0300628D01*
X0020311Y0300495D01*
X0020859Y0299947D01*
X0021111Y0299634D01*
X0021111Y0298042D01*
X0021796Y0295486D01*
X0023119Y0293194D01*
X0024991Y0291323D01*
X0027282Y0290000D01*
X0029838Y0289315D01*
X0050485Y0289315D01*
X0053041Y0290000D01*
X0055332Y0291323D01*
X0057203Y0293194D01*
X0058527Y0295486D01*
X0059211Y0298042D01*
X0059211Y0299496D01*
X0059573Y0299957D01*
X0060111Y0300495D01*
X0060111Y0300643D01*
X0062500Y0303686D01*
X0063342Y0303686D01*
X0063098Y0303442D01*
X0063098Y0298302D01*
X0061561Y0296766D01*
X0061561Y0291566D01*
X0060261Y0290266D01*
X0060261Y0283966D01*
X0056361Y0280066D01*
X0056361Y0266886D01*
X0056164Y0266886D01*
X0055245Y0266505D01*
X0054542Y0265802D01*
X0054161Y0264883D01*
X0054161Y0263888D01*
X0054542Y0262969D01*
X0055245Y0262266D01*
X0056164Y0261886D01*
X0056682Y0261886D01*
X0054661Y0259866D01*
X0054661Y0255606D01*
X0055482Y0254786D01*
X0056461Y0253806D01*
X0056461Y0250866D01*
X0052961Y0247366D01*
X0052961Y0239466D01*
X0050461Y0236966D01*
X0050461Y0223406D01*
X0051282Y0222586D01*
X0052860Y0221008D01*
X0052850Y0220978D01*
X0052961Y0220755D01*
X0052961Y0217806D01*
X0053782Y0216986D01*
X0054308Y0216460D01*
X0054280Y0216411D01*
X0054188Y0216068D01*
X0054188Y0214272D01*
X0057353Y0214272D01*
X0057353Y0213572D01*
X0054188Y0213572D01*
X0054188Y0211776D01*
X0054280Y0211432D01*
X0054458Y0211124D01*
X0054709Y0210873D01*
X0055017Y0210695D01*
X0055360Y0210603D01*
X0057353Y0210603D01*
X0057353Y0213572D01*
X0058053Y0213572D01*
X0058053Y0210603D01*
X0060046Y0210603D01*
X0060390Y0210695D01*
X0060697Y0210873D01*
X0060949Y0211124D01*
X0061126Y0211432D01*
X0061218Y0211776D01*
X0061218Y0212149D01*
X0062334Y0211033D01*
X0061711Y0209530D01*
X0061711Y0207641D01*
X0062358Y0206080D01*
X0062183Y0206501D02*
X0056826Y0206501D01*
X0056127Y0207200D02*
X0061894Y0207200D01*
X0061711Y0207898D02*
X0054407Y0207898D01*
X0054388Y0208362D02*
X0054388Y0208362D01*
X0054302Y0208597D02*
X0061711Y0208597D01*
X0061711Y0209295D02*
X0054044Y0209295D01*
X0053786Y0209994D02*
X0061903Y0209994D01*
X0062193Y0210692D02*
X0060378Y0210692D01*
X0061103Y0211391D02*
X0061976Y0211391D01*
X0061278Y0212089D02*
X0061218Y0212089D01*
X0061061Y0214286D02*
X0061061Y0216086D01*
X0059661Y0217486D01*
X0055261Y0217486D01*
X0054361Y0218386D01*
X0054361Y0221086D01*
X0054461Y0221386D01*
X0051861Y0223986D01*
X0051861Y0236386D01*
X0054361Y0238886D01*
X0054361Y0246786D01*
X0057861Y0250286D01*
X0057861Y0254386D01*
X0056061Y0256186D01*
X0056061Y0259286D01*
X0059061Y0262286D01*
X0059061Y0278886D01*
X0062961Y0282786D01*
X0062961Y0289086D01*
X0066061Y0292186D01*
X0068479Y0292771D01*
X0066361Y0292486D01*
X0066161Y0292486D01*
X0066461Y0292786D02*
X0068461Y0292786D01*
X0068479Y0292771D01*
X0062961Y0296186D02*
X0067261Y0300486D01*
X0068479Y0300645D01*
X0068479Y0300686D01*
X0067461Y0300686D01*
X0068161Y0284886D02*
X0066461Y0284886D01*
X0066361Y0284586D02*
X0068479Y0284897D01*
X0068161Y0284886D01*
X0068461Y0284886D02*
X0068479Y0284897D01*
X0066361Y0284586D02*
X0066361Y0284286D01*
X0060361Y0278286D01*
X0060361Y0275986D01*
X0061461Y0274886D01*
X0060361Y0270286D02*
X0066161Y0276086D01*
X0068479Y0277023D01*
X0066261Y0276386D01*
X0066361Y0276686D02*
X0068479Y0277023D01*
X0068161Y0276986D01*
X0066461Y0276986D01*
X0068461Y0276986D02*
X0068479Y0277023D01*
X0068461Y0269186D02*
X0068479Y0269149D01*
X0065861Y0268586D01*
X0062861Y0265586D01*
X0062861Y0265186D01*
X0060361Y0261686D02*
X0060361Y0270286D01*
X0060361Y0261686D02*
X0058461Y0259786D01*
X0058461Y0257186D01*
X0056267Y0254000D02*
X0042556Y0254000D01*
X0043254Y0254699D02*
X0055569Y0254699D01*
X0055482Y0254786D02*
X0055482Y0254786D01*
X0054870Y0255397D02*
X0043953Y0255397D01*
X0044651Y0256096D02*
X0054661Y0256096D01*
X0054661Y0256794D02*
X0045350Y0256794D01*
X0046048Y0257493D02*
X0054661Y0257493D01*
X0054661Y0258191D02*
X0047924Y0258191D01*
X0048930Y0258890D02*
X0054661Y0258890D01*
X0054661Y0259588D02*
X0049342Y0259588D01*
X0049511Y0260287D02*
X0055083Y0260287D01*
X0055781Y0260985D02*
X0049506Y0260985D01*
X0049217Y0261684D02*
X0056480Y0261684D01*
X0055129Y0262382D02*
X0048630Y0262382D01*
X0047061Y0260486D02*
X0031361Y0244786D01*
X0031361Y0237286D01*
X0035061Y0233586D01*
X0035161Y0233286D01*
X0035161Y0217586D01*
X0036561Y0216186D01*
X0042561Y0216186D01*
X0042961Y0216186D01*
X0041829Y0214818D02*
X0034020Y0214818D01*
X0032446Y0216393D01*
X0032446Y0230172D01*
X0031420Y0231198D01*
X0030265Y0231198D01*
X0028509Y0229385D01*
X0028561Y0229686D02*
X0030265Y0231198D01*
X0030477Y0230960D01*
X0032052Y0230960D01*
X0031046Y0226060D02*
X0030730Y0226060D01*
X0031046Y0225361D02*
X0027011Y0225361D01*
X0026971Y0226060D02*
X0028295Y0226060D01*
X0028041Y0226758D02*
X0026682Y0226758D01*
X0026045Y0227457D02*
X0027786Y0227457D01*
X0027532Y0228155D02*
X0021824Y0228155D01*
X0021824Y0227457D02*
X0023078Y0227457D01*
X0022441Y0226758D02*
X0021824Y0226758D01*
X0021824Y0226060D02*
X0022151Y0226060D01*
X0022111Y0225361D02*
X0021824Y0225361D01*
X0021161Y0222486D02*
X0021161Y0213186D01*
X0022661Y0211686D01*
X0024661Y0211686D01*
X0024680Y0211645D01*
X0024561Y0210686D01*
X0024561Y0199686D01*
X0024661Y0199386D01*
X0024661Y0197986D01*
X0024761Y0197686D01*
X0025211Y0197236D01*
X0024443Y0193903D02*
X0024443Y0190934D01*
X0027608Y0190934D01*
X0027608Y0192730D01*
X0027516Y0193074D01*
X0027338Y0193381D01*
X0027087Y0193633D01*
X0026779Y0193811D01*
X0026436Y0193903D01*
X0024443Y0193903D01*
X0024443Y0193230D02*
X0023743Y0193230D01*
X0023743Y0193903D02*
X0021749Y0193903D01*
X0021406Y0193811D01*
X0021098Y0193633D01*
X0020847Y0193381D01*
X0020669Y0193074D01*
X0020577Y0192730D01*
X0020577Y0190934D01*
X0023743Y0190934D01*
X0023743Y0193903D01*
X0023743Y0192531D02*
X0024443Y0192531D01*
X0024443Y0191833D02*
X0023743Y0191833D01*
X0023743Y0191134D02*
X0024443Y0191134D01*
X0024443Y0190934D02*
X0023743Y0190934D01*
X0023743Y0190234D01*
X0024443Y0190234D01*
X0024443Y0190934D01*
X0024443Y0190436D02*
X0034111Y0190436D01*
X0034178Y0191134D02*
X0027608Y0191134D01*
X0027608Y0191833D02*
X0034467Y0191833D01*
X0034686Y0192531D02*
X0027608Y0192531D01*
X0027426Y0193230D02*
X0033476Y0193230D01*
X0032469Y0193928D02*
X0013766Y0193928D01*
X0014015Y0194627D02*
X0021124Y0194627D01*
X0020877Y0195325D02*
X0014015Y0195325D01*
X0014015Y0196024D02*
X0020877Y0196024D01*
X0020877Y0196722D02*
X0010850Y0196722D01*
X0010850Y0196024D02*
X0010150Y0196024D01*
X0010150Y0195325D02*
X0010850Y0195325D01*
X0010850Y0194627D02*
X0010150Y0194627D01*
X0010150Y0193928D02*
X0010850Y0193928D01*
X0010318Y0193230D02*
X0020759Y0193230D01*
X0020577Y0192531D02*
X0011052Y0192531D01*
X0011494Y0191833D02*
X0020577Y0191833D01*
X0020577Y0191134D02*
X0012193Y0191134D01*
X0012891Y0190436D02*
X0023743Y0190436D01*
X0023743Y0190234D02*
X0020577Y0190234D01*
X0020577Y0188438D01*
X0020669Y0188094D01*
X0020847Y0187787D01*
X0021098Y0187535D01*
X0021406Y0187358D01*
X0021749Y0187266D01*
X0023743Y0187266D01*
X0023743Y0190234D01*
X0023743Y0189737D02*
X0024443Y0189737D01*
X0024443Y0190234D02*
X0024443Y0187266D01*
X0026436Y0187266D01*
X0026779Y0187358D01*
X0027087Y0187535D01*
X0027338Y0187787D01*
X0027516Y0188094D01*
X0027608Y0188438D01*
X0027608Y0190234D01*
X0024443Y0190234D01*
X0024443Y0189039D02*
X0023743Y0189039D01*
X0023743Y0188340D02*
X0024443Y0188340D01*
X0024443Y0187641D02*
X0023743Y0187641D01*
X0020992Y0187641D02*
X0019626Y0187641D01*
X0019626Y0186943D02*
X0049961Y0186943D01*
X0049961Y0187641D02*
X0027193Y0187641D01*
X0027582Y0188340D02*
X0035339Y0188340D01*
X0034544Y0189039D02*
X0027608Y0189039D01*
X0027608Y0189737D02*
X0034220Y0189737D01*
X0032693Y0180888D02*
X0030896Y0180888D01*
X0030896Y0177723D01*
X0030196Y0177723D01*
X0030196Y0177023D01*
X0027228Y0177023D01*
X0027228Y0175030D01*
X0027320Y0174687D01*
X0027498Y0174379D01*
X0027749Y0174127D01*
X0028057Y0173950D01*
X0028400Y0173858D01*
X0030196Y0173858D01*
X0030196Y0177023D01*
X0030896Y0177023D01*
X0030896Y0173858D01*
X0032693Y0173858D01*
X0033036Y0173950D01*
X0033344Y0174127D01*
X0033595Y0174379D01*
X0033773Y0174687D01*
X0033865Y0175030D01*
X0033865Y0177023D01*
X0030896Y0177023D01*
X0030896Y0177723D01*
X0033865Y0177723D01*
X0033865Y0179716D01*
X0033773Y0180059D01*
X0033595Y0180367D01*
X0033344Y0180619D01*
X0033036Y0180796D01*
X0032693Y0180888D01*
X0033279Y0180656D02*
X0046576Y0180656D01*
X0048487Y0181355D02*
X0013511Y0181355D01*
X0014161Y0182053D02*
X0049961Y0182053D01*
X0049961Y0182752D02*
X0018759Y0182752D01*
X0018797Y0182762D02*
X0019105Y0182940D01*
X0019357Y0183191D01*
X0019534Y0183499D01*
X0019626Y0183843D01*
X0019626Y0185836D01*
X0016658Y0185836D01*
X0016658Y0182670D01*
X0018454Y0182670D01*
X0018797Y0182762D01*
X0019506Y0183450D02*
X0049961Y0183450D01*
X0049961Y0184149D02*
X0019626Y0184149D01*
X0019626Y0184847D02*
X0049961Y0184847D01*
X0049961Y0185546D02*
X0019626Y0185546D01*
X0019626Y0186536D02*
X0019626Y0188529D01*
X0019534Y0188872D01*
X0019357Y0189180D01*
X0019105Y0189431D01*
X0018797Y0189609D01*
X0018454Y0189701D01*
X0016658Y0189701D01*
X0016658Y0186536D01*
X0019626Y0186536D01*
X0019626Y0188340D02*
X0020603Y0188340D01*
X0020577Y0189039D02*
X0019438Y0189039D01*
X0020577Y0189737D02*
X0013590Y0189737D01*
X0012761Y0188586D02*
X0012761Y0182586D01*
X0008661Y0178486D01*
X0008661Y0171286D01*
X0014661Y0165286D01*
X0021361Y0165286D01*
X0021643Y0165238D01*
X0021561Y0167186D02*
X0021643Y0167207D01*
X0021561Y0167186D02*
X0018961Y0167186D01*
X0012261Y0173886D01*
X0012261Y0175586D01*
X0012215Y0175586D01*
X0011415Y0179259D02*
X0027228Y0179259D01*
X0027228Y0179716D02*
X0027228Y0177723D01*
X0030196Y0177723D01*
X0030196Y0180888D01*
X0028400Y0180888D01*
X0028057Y0180796D01*
X0027749Y0180619D01*
X0027498Y0180367D01*
X0027320Y0180059D01*
X0027228Y0179716D01*
X0027293Y0179958D02*
X0012114Y0179958D01*
X0012812Y0180656D02*
X0027814Y0180656D01*
X0027228Y0178561D02*
X0021968Y0178561D01*
X0021957Y0178580D02*
X0021705Y0178831D01*
X0021397Y0179009D01*
X0021054Y0179101D01*
X0019258Y0179101D01*
X0019258Y0175936D01*
X0018558Y0175936D01*
X0018558Y0179101D01*
X0016762Y0179101D01*
X0016418Y0179009D01*
X0016110Y0178831D01*
X0015859Y0178580D01*
X0015681Y0178272D01*
X0015589Y0177929D01*
X0015589Y0175936D01*
X0018558Y0175936D01*
X0018558Y0175236D01*
X0015589Y0175236D01*
X0015589Y0173243D01*
X0015681Y0172899D01*
X0015859Y0172591D01*
X0016110Y0172340D01*
X0016418Y0172162D01*
X0016762Y0172070D01*
X0018558Y0172070D01*
X0018558Y0175236D01*
X0019258Y0175236D01*
X0019258Y0175936D01*
X0022226Y0175936D01*
X0022226Y0177929D01*
X0022134Y0178272D01*
X0021957Y0178580D01*
X0022226Y0177862D02*
X0027228Y0177862D01*
X0027228Y0176465D02*
X0022226Y0176465D01*
X0022226Y0177164D02*
X0030196Y0177164D01*
X0030196Y0177862D02*
X0030896Y0177862D01*
X0030896Y0177164D02*
X0034221Y0177164D01*
X0034221Y0177862D02*
X0033865Y0177862D01*
X0033865Y0178561D02*
X0034221Y0178561D01*
X0034221Y0179259D02*
X0033865Y0179259D01*
X0033800Y0179958D02*
X0034221Y0179958D01*
X0034221Y0176465D02*
X0033865Y0176465D01*
X0033865Y0175767D02*
X0034221Y0175767D01*
X0034221Y0175068D02*
X0033865Y0175068D01*
X0033586Y0174370D02*
X0034624Y0174370D01*
X0035156Y0173671D02*
X0027411Y0173671D01*
X0027411Y0172973D02*
X0030198Y0172973D01*
X0029485Y0172274D02*
X0028980Y0172274D01*
X0027746Y0172274D02*
X0027746Y0172274D01*
X0027746Y0171576D02*
X0027746Y0171576D01*
X0027746Y0170877D02*
X0027746Y0170877D01*
X0027746Y0170179D02*
X0027746Y0170179D01*
X0027746Y0169480D02*
X0027746Y0169480D01*
X0025761Y0171986D02*
X0025961Y0172186D01*
X0024961Y0173186D01*
X0025761Y0171986D02*
X0025761Y0169386D01*
X0025777Y0169372D01*
X0024255Y0169480D02*
X0018647Y0169480D01*
X0019345Y0168782D02*
X0024255Y0168782D01*
X0024255Y0170179D02*
X0017948Y0170179D01*
X0017250Y0170877D02*
X0024132Y0170877D01*
X0023379Y0175068D02*
X0022226Y0175068D01*
X0022226Y0175236D02*
X0019258Y0175236D01*
X0019258Y0172070D01*
X0021054Y0172070D01*
X0021397Y0172162D01*
X0021705Y0172340D01*
X0021957Y0172591D01*
X0022134Y0172899D01*
X0022226Y0173243D01*
X0022226Y0175236D01*
X0022226Y0174370D02*
X0022800Y0174370D01*
X0022511Y0173671D02*
X0022226Y0173671D01*
X0022154Y0172973D02*
X0022511Y0172973D01*
X0022687Y0172274D02*
X0021591Y0172274D01*
X0023106Y0171576D02*
X0016551Y0171576D01*
X0016224Y0172274D02*
X0015853Y0172274D01*
X0015662Y0172973D02*
X0015221Y0172973D01*
X0015233Y0173671D02*
X0015589Y0173671D01*
X0015589Y0174370D02*
X0015233Y0174370D01*
X0015233Y0175068D02*
X0015589Y0175068D01*
X0015233Y0175767D02*
X0018558Y0175767D01*
X0018558Y0176465D02*
X0019258Y0176465D01*
X0019258Y0175767D02*
X0027228Y0175767D01*
X0027228Y0175068D02*
X0026544Y0175068D01*
X0027123Y0174370D02*
X0027507Y0174370D01*
X0030196Y0174370D02*
X0030896Y0174370D01*
X0030896Y0175068D02*
X0030196Y0175068D01*
X0030196Y0175767D02*
X0030896Y0175767D01*
X0030896Y0176465D02*
X0030196Y0176465D01*
X0030196Y0178561D02*
X0030896Y0178561D01*
X0030896Y0179259D02*
X0030196Y0179259D01*
X0030196Y0179958D02*
X0030896Y0179958D01*
X0030896Y0180656D02*
X0030196Y0180656D01*
X0032925Y0172973D02*
X0035156Y0172973D01*
X0035156Y0172274D02*
X0033638Y0172274D01*
X0033927Y0171576D02*
X0035156Y0171576D01*
X0035156Y0170877D02*
X0034011Y0170877D01*
X0033920Y0170179D02*
X0035156Y0170179D01*
X0034734Y0169480D02*
X0033621Y0169480D01*
X0034036Y0168782D02*
X0032884Y0168782D01*
X0032052Y0167180D02*
X0031880Y0167207D01*
X0031961Y0167186D01*
X0032052Y0167180D02*
X0034414Y0167180D01*
X0037957Y0170723D01*
X0038174Y0171675D01*
X0038351Y0171117D01*
X0038351Y0176235D01*
X0037564Y0177023D01*
X0037239Y0177373D01*
X0040258Y0177164D02*
X0044264Y0177164D01*
X0044050Y0177862D02*
X0040258Y0177862D01*
X0040258Y0178561D02*
X0043816Y0178561D01*
X0043981Y0179259D02*
X0040258Y0179259D01*
X0040258Y0179958D02*
X0044635Y0179958D01*
X0045261Y0178686D02*
X0047561Y0171186D01*
X0049661Y0166186D01*
X0051361Y0166086D01*
X0051661Y0165986D01*
X0052361Y0165286D01*
X0052361Y0156686D01*
X0046061Y0150386D01*
X0043761Y0150386D01*
X0043390Y0150355D01*
X0043461Y0150386D01*
X0043390Y0144449D02*
X0046261Y0144486D01*
X0048961Y0144486D01*
X0049861Y0143586D01*
X0052061Y0143586D01*
X0052076Y0143326D01*
X0051726Y0139444D02*
X0052426Y0139444D01*
X0052426Y0138746D02*
X0051726Y0138746D01*
X0051726Y0138047D02*
X0052426Y0138047D01*
X0052426Y0137349D02*
X0051726Y0137349D01*
X0051726Y0136650D02*
X0045340Y0136650D01*
X0045340Y0135952D02*
X0044640Y0135952D01*
X0044640Y0136396D02*
X0044640Y0133231D01*
X0042844Y0133231D01*
X0042500Y0133323D01*
X0042192Y0133501D01*
X0041941Y0133752D01*
X0041763Y0134060D01*
X0041671Y0134403D01*
X0041671Y0136396D01*
X0044640Y0136396D01*
X0044640Y0136650D02*
X0041315Y0136650D01*
X0041671Y0137096D02*
X0044640Y0137096D01*
X0044640Y0140262D01*
X0042844Y0140262D01*
X0042500Y0140170D01*
X0042192Y0139992D01*
X0041941Y0139741D01*
X0041763Y0139433D01*
X0041671Y0139089D01*
X0041671Y0137096D01*
X0041671Y0137349D02*
X0041315Y0137349D01*
X0041315Y0138047D02*
X0041671Y0138047D01*
X0041671Y0138746D02*
X0041315Y0138746D01*
X0041315Y0139347D02*
X0040700Y0139962D01*
X0039661Y0139962D01*
X0039661Y0141825D01*
X0039899Y0141825D01*
X0040515Y0142440D01*
X0040515Y0146459D01*
X0039899Y0147074D01*
X0035880Y0147074D01*
X0035265Y0146459D01*
X0035265Y0142440D01*
X0035880Y0141825D01*
X0036861Y0141825D01*
X0036861Y0139962D01*
X0035893Y0139962D01*
X0035278Y0139347D01*
X0035278Y0134146D01*
X0035893Y0133531D01*
X0040700Y0133531D01*
X0041315Y0134146D01*
X0041315Y0139347D01*
X0041218Y0139444D02*
X0041770Y0139444D01*
X0042454Y0140143D02*
X0039661Y0140143D01*
X0039661Y0140841D02*
X0048941Y0140841D01*
X0048860Y0141540D02*
X0039661Y0141540D01*
X0040313Y0142238D02*
X0040966Y0142238D01*
X0040765Y0142937D02*
X0040515Y0142937D01*
X0040515Y0143635D02*
X0040765Y0143635D01*
X0040765Y0144334D02*
X0040515Y0144334D01*
X0040515Y0145032D02*
X0040765Y0145032D01*
X0040765Y0145731D02*
X0040515Y0145731D01*
X0040515Y0146429D02*
X0040738Y0146429D01*
X0040039Y0147128D02*
X0034888Y0147128D01*
X0034888Y0147826D02*
X0035784Y0147826D01*
X0035265Y0148525D02*
X0034888Y0148525D01*
X0035265Y0149223D02*
X0033061Y0149223D01*
X0033061Y0149922D02*
X0035265Y0149922D01*
X0035265Y0150620D02*
X0033061Y0150620D01*
X0033061Y0151319D02*
X0035265Y0151319D01*
X0035265Y0152017D02*
X0033061Y0152017D01*
X0032811Y0152716D02*
X0035616Y0152716D01*
X0036383Y0154975D02*
X0034808Y0154975D01*
X0033233Y0156550D01*
X0033233Y0156944D01*
X0031880Y0157364D01*
X0031661Y0157286D01*
X0030461Y0157286D01*
X0030261Y0157086D01*
X0030261Y0155286D01*
X0030461Y0155086D01*
X0030461Y0153086D01*
X0031661Y0151886D01*
X0031661Y0146486D01*
X0031672Y0146161D01*
X0031261Y0145686D01*
X0031261Y0144686D01*
X0031461Y0145886D02*
X0031672Y0146161D01*
X0033061Y0145686D01*
X0034888Y0145731D02*
X0035265Y0145731D01*
X0035265Y0146429D02*
X0034888Y0146429D01*
X0034888Y0145032D02*
X0035265Y0145032D01*
X0035265Y0144334D02*
X0034888Y0144334D01*
X0034765Y0143635D02*
X0035265Y0143635D01*
X0035265Y0142937D02*
X0021222Y0142937D01*
X0021825Y0143635D02*
X0021887Y0143635D01*
X0024661Y0150086D02*
X0023761Y0150686D01*
X0024661Y0150086D02*
X0024661Y0146686D01*
X0024980Y0146161D01*
X0024861Y0146486D01*
X0024980Y0146161D02*
X0026261Y0145886D01*
X0028195Y0145731D02*
X0028457Y0145731D01*
X0028457Y0146429D02*
X0028195Y0146429D01*
X0028195Y0147128D02*
X0028457Y0147128D01*
X0028457Y0147826D02*
X0028195Y0147826D01*
X0028195Y0148525D02*
X0028457Y0148525D01*
X0029064Y0149223D02*
X0030261Y0149223D01*
X0030261Y0149922D02*
X0029748Y0149922D01*
X0030038Y0150620D02*
X0030261Y0150620D01*
X0030248Y0151319D02*
X0030111Y0151319D01*
X0032112Y0153414D02*
X0047110Y0153414D01*
X0046412Y0152716D02*
X0045663Y0152716D01*
X0045115Y0156208D02*
X0049904Y0156208D01*
X0049206Y0155510D02*
X0042456Y0155510D01*
X0043456Y0156208D02*
X0043606Y0156208D01*
X0041501Y0156550D02*
X0044361Y0158548D01*
X0046185Y0156907D02*
X0050603Y0156907D01*
X0050961Y0157605D02*
X0046622Y0157605D01*
X0046811Y0158304D02*
X0050961Y0158304D01*
X0050961Y0159003D02*
X0046811Y0159003D01*
X0046535Y0159701D02*
X0050961Y0159701D01*
X0050961Y0160400D02*
X0045974Y0160400D01*
X0047809Y0154113D02*
X0037500Y0154113D01*
X0038199Y0154811D02*
X0048507Y0154811D01*
X0048361Y0148886D02*
X0054961Y0155486D01*
X0054961Y0166886D01*
X0061561Y0173486D01*
X0061428Y0168083D02*
X0058139Y0168083D01*
X0057440Y0167385D02*
X0061542Y0167385D01*
X0061769Y0166686D02*
X0056742Y0166686D01*
X0056361Y0165988D02*
X0062117Y0165988D01*
X0062616Y0165289D02*
X0056361Y0165289D01*
X0056361Y0164591D02*
X0063368Y0164591D01*
X0059767Y0173671D02*
X0057021Y0173671D01*
X0057286Y0172973D02*
X0059069Y0172973D01*
X0058370Y0172274D02*
X0057549Y0172274D01*
X0057529Y0171576D02*
X0057672Y0171576D01*
X0056161Y0171986D02*
X0054461Y0176486D01*
X0052661Y0181386D01*
X0052661Y0198886D01*
X0052761Y0199186D01*
X0053061Y0199286D01*
X0055261Y0199286D01*
X0056261Y0200286D01*
X0056261Y0205086D01*
X0055261Y0206086D01*
X0053661Y0206086D01*
X0053061Y0206286D01*
X0053061Y0206486D01*
X0051761Y0204886D02*
X0051761Y0202692D01*
X0053115Y0202692D01*
X0053706Y0203007D01*
X0053515Y0202986D02*
X0051761Y0202986D01*
X0053115Y0202692D02*
X0053706Y0202613D01*
X0053515Y0202986D02*
X0053507Y0202950D01*
X0053496Y0202915D01*
X0053482Y0202881D01*
X0053463Y0202849D01*
X0053442Y0202819D01*
X0053417Y0202792D01*
X0053390Y0202767D01*
X0053361Y0202746D01*
X0053329Y0202727D01*
X0053295Y0202712D01*
X0053261Y0202700D01*
X0053225Y0202693D01*
X0053188Y0202689D01*
X0053151Y0202688D01*
X0053115Y0202692D01*
X0054061Y0197421D02*
X0061803Y0197421D01*
X0061711Y0198119D02*
X0056075Y0198119D01*
X0056773Y0198818D02*
X0061711Y0198818D01*
X0062092Y0196722D02*
X0054061Y0196722D01*
X0054061Y0196024D02*
X0062381Y0196024D01*
X0063004Y0195325D02*
X0054061Y0195325D01*
X0054061Y0194627D02*
X0063703Y0194627D01*
X0065293Y0193928D02*
X0054061Y0193928D01*
X0054061Y0193230D02*
X0065261Y0193230D01*
X0063689Y0192531D02*
X0054061Y0192531D01*
X0054061Y0191833D02*
X0062991Y0191833D01*
X0062376Y0191134D02*
X0054061Y0191134D01*
X0054061Y0190436D02*
X0062086Y0190436D01*
X0061797Y0189737D02*
X0054061Y0189737D01*
X0054061Y0189039D02*
X0061711Y0189039D01*
X0061711Y0188340D02*
X0054061Y0188340D01*
X0054061Y0187641D02*
X0061711Y0187641D01*
X0062000Y0186943D02*
X0054061Y0186943D01*
X0054061Y0186244D02*
X0062140Y0186244D01*
X0061442Y0185546D02*
X0054061Y0185546D01*
X0054061Y0184847D02*
X0060743Y0184847D01*
X0060161Y0184149D02*
X0054061Y0184149D01*
X0054061Y0183450D02*
X0060161Y0183450D01*
X0060161Y0182752D02*
X0054061Y0182752D01*
X0054061Y0182053D02*
X0060161Y0182053D01*
X0060161Y0181355D02*
X0054164Y0181355D01*
X0054421Y0180656D02*
X0060161Y0180656D01*
X0060161Y0179958D02*
X0054677Y0179958D01*
X0054934Y0179259D02*
X0060161Y0179259D01*
X0060161Y0178561D02*
X0055191Y0178561D01*
X0055447Y0177862D02*
X0060161Y0177862D01*
X0060161Y0177164D02*
X0055704Y0177164D01*
X0055966Y0176465D02*
X0060161Y0176465D01*
X0060161Y0175767D02*
X0056230Y0175767D01*
X0056493Y0175068D02*
X0060161Y0175068D01*
X0060161Y0174370D02*
X0056757Y0174370D01*
X0056161Y0171986D02*
X0053761Y0167486D01*
X0053661Y0167186D01*
X0053661Y0156086D01*
X0045261Y0147686D01*
X0041461Y0147686D01*
X0038661Y0150486D01*
X0038061Y0150486D01*
X0037890Y0150355D01*
X0038461Y0144486D02*
X0038261Y0144286D01*
X0037961Y0144386D01*
X0037890Y0144449D01*
X0038261Y0144286D02*
X0038261Y0136886D01*
X0038297Y0136746D01*
X0036861Y0140143D02*
X0008611Y0140143D01*
X0008611Y0140841D02*
X0036861Y0140841D01*
X0036861Y0141540D02*
X0008611Y0141540D01*
X0008611Y0142238D02*
X0035466Y0142238D01*
X0035376Y0139444D02*
X0008611Y0139444D01*
X0008611Y0138746D02*
X0035278Y0138746D01*
X0035278Y0138047D02*
X0008611Y0138047D01*
X0008611Y0137349D02*
X0035278Y0137349D01*
X0035278Y0136650D02*
X0008611Y0136650D01*
X0008611Y0135952D02*
X0035278Y0135952D01*
X0035278Y0135253D02*
X0008611Y0135253D01*
X0008611Y0134555D02*
X0035278Y0134555D01*
X0035568Y0133856D02*
X0008611Y0133856D01*
X0008611Y0133158D02*
X0060361Y0133158D01*
X0060361Y0133856D02*
X0055333Y0133856D01*
X0055321Y0133835D02*
X0055499Y0134143D01*
X0055591Y0134487D01*
X0055591Y0136283D01*
X0052426Y0136283D01*
X0052426Y0133314D01*
X0054419Y0133314D01*
X0054762Y0133406D01*
X0055070Y0133584D01*
X0055321Y0133835D01*
X0055591Y0134555D02*
X0060649Y0134555D01*
X0060742Y0135253D02*
X0055591Y0135253D01*
X0055591Y0135952D02*
X0060589Y0135952D01*
X0060589Y0136650D02*
X0052426Y0136650D01*
X0052261Y0136686D02*
X0052076Y0136633D01*
X0051726Y0135952D02*
X0052426Y0135952D01*
X0052426Y0135253D02*
X0051726Y0135253D01*
X0051726Y0134555D02*
X0052426Y0134555D01*
X0052426Y0133856D02*
X0051726Y0133856D01*
X0053556Y0130364D02*
X0054767Y0130364D01*
X0054489Y0129665D02*
X0053833Y0129665D01*
X0053833Y0128967D02*
X0054489Y0128967D01*
X0054489Y0128268D02*
X0053833Y0128268D01*
X0053833Y0127570D02*
X0054489Y0127570D01*
X0054489Y0126871D02*
X0053833Y0126871D01*
X0053833Y0126172D02*
X0054489Y0126172D01*
X0054489Y0125474D02*
X0053833Y0125474D01*
X0053724Y0124775D02*
X0054599Y0124775D01*
X0057461Y0127486D02*
X0057508Y0127486D01*
X0057461Y0127486D02*
X0057461Y0128386D01*
X0059555Y0132459D02*
X0008611Y0132459D01*
X0008611Y0142937D02*
X0009274Y0142937D01*
X0008838Y0143635D02*
X0008611Y0143635D01*
X0008611Y0144334D02*
X0008795Y0144334D01*
X0008795Y0145032D02*
X0008611Y0145032D01*
X0008611Y0145731D02*
X0008795Y0145731D01*
X0008611Y0146429D02*
X0011763Y0146429D01*
X0011763Y0145731D02*
X0012463Y0145731D01*
X0012463Y0146429D02*
X0015788Y0146429D01*
X0015788Y0145731D02*
X0015432Y0145731D01*
X0015432Y0145032D02*
X0015788Y0145032D01*
X0015788Y0144334D02*
X0015432Y0144334D01*
X0015389Y0143635D02*
X0015788Y0143635D01*
X0016391Y0142937D02*
X0014953Y0142937D01*
X0015432Y0147128D02*
X0015788Y0147128D01*
X0015641Y0147826D02*
X0015432Y0147826D01*
X0014561Y0150886D02*
X0012161Y0150886D01*
X0012061Y0150986D01*
X0012061Y0152986D01*
X0012039Y0153005D01*
X0012361Y0153186D01*
X0012961Y0153186D01*
X0014161Y0154386D01*
X0014461Y0154486D01*
X0015961Y0154486D01*
X0018861Y0157386D01*
X0021561Y0157386D01*
X0021643Y0157364D01*
X0021561Y0159286D02*
X0021643Y0159333D01*
X0021561Y0159286D02*
X0012161Y0159286D01*
X0012061Y0159386D01*
X0012061Y0159686D01*
X0012039Y0159697D01*
X0009624Y0156208D02*
X0008611Y0156208D01*
X0008611Y0155510D02*
X0009020Y0155510D01*
X0009020Y0154811D02*
X0008611Y0154811D01*
X0008611Y0154113D02*
X0009020Y0154113D01*
X0009020Y0153414D02*
X0008611Y0153414D01*
X0008611Y0152716D02*
X0009020Y0152716D01*
X0009020Y0152017D02*
X0008611Y0152017D01*
X0008611Y0151319D02*
X0009020Y0151319D01*
X0009020Y0150620D02*
X0008611Y0150620D01*
X0008611Y0149922D02*
X0009502Y0149922D01*
X0009154Y0149223D02*
X0008611Y0149223D01*
X0008611Y0148525D02*
X0008806Y0148525D01*
X0008795Y0147826D02*
X0008611Y0147826D01*
X0008611Y0147128D02*
X0008795Y0147128D01*
X0011763Y0145032D02*
X0012463Y0145032D01*
X0012463Y0144334D02*
X0011763Y0144334D01*
X0011763Y0143635D02*
X0012463Y0143635D01*
X0012463Y0142937D02*
X0011763Y0142937D01*
X0018761Y0146686D02*
X0014561Y0150886D01*
X0014453Y0156208D02*
X0015704Y0156208D01*
X0016403Y0156907D02*
X0014867Y0156907D01*
X0015057Y0157605D02*
X0017101Y0157605D01*
X0017074Y0162492D02*
X0017091Y0162849D01*
X0017485Y0163243D01*
X0021422Y0163243D01*
X0021643Y0163270D01*
X0021561Y0163286D01*
X0019258Y0172274D02*
X0018558Y0172274D01*
X0018558Y0172973D02*
X0019258Y0172973D01*
X0019258Y0173671D02*
X0018558Y0173671D01*
X0018558Y0174370D02*
X0019258Y0174370D01*
X0019258Y0175068D02*
X0018558Y0175068D01*
X0018558Y0177164D02*
X0019258Y0177164D01*
X0019258Y0177862D02*
X0018558Y0177862D01*
X0018558Y0178561D02*
X0019258Y0178561D01*
X0016658Y0182752D02*
X0015958Y0182752D01*
X0015958Y0183450D02*
X0016658Y0183450D01*
X0016658Y0184149D02*
X0015958Y0184149D01*
X0015958Y0184847D02*
X0016658Y0184847D01*
X0016658Y0185546D02*
X0015958Y0185546D01*
X0016658Y0186244D02*
X0049961Y0186244D01*
X0049961Y0188340D02*
X0037784Y0188340D01*
X0038579Y0189039D02*
X0049961Y0189039D01*
X0051361Y0190486D02*
X0049861Y0191986D01*
X0048888Y0189737D02*
X0039868Y0189737D01*
X0039961Y0191186D02*
X0036561Y0190486D01*
X0039961Y0191186D02*
X0040246Y0191189D01*
X0040531Y0191200D01*
X0040816Y0191217D01*
X0041100Y0191241D01*
X0041383Y0191272D01*
X0041666Y0191310D01*
X0041948Y0191354D01*
X0042228Y0191406D01*
X0042507Y0191464D01*
X0042785Y0191529D01*
X0043061Y0191600D01*
X0043335Y0191679D01*
X0043607Y0191764D01*
X0043878Y0191855D01*
X0044145Y0191953D01*
X0044411Y0192057D01*
X0044674Y0192168D01*
X0044934Y0192285D01*
X0045191Y0192408D01*
X0045445Y0192538D01*
X0045696Y0192673D01*
X0045943Y0192815D01*
X0046187Y0192962D01*
X0046428Y0193116D01*
X0046664Y0193275D01*
X0046897Y0193440D01*
X0047126Y0193610D01*
X0047350Y0193786D01*
X0047570Y0193967D01*
X0047786Y0194154D01*
X0047997Y0194345D01*
X0048203Y0194542D01*
X0048405Y0194744D01*
X0048602Y0194950D01*
X0048793Y0195161D01*
X0048980Y0195377D01*
X0049161Y0195597D01*
X0049337Y0195821D01*
X0049507Y0196050D01*
X0049672Y0196283D01*
X0049831Y0196519D01*
X0049985Y0196760D01*
X0050132Y0197004D01*
X0050274Y0197251D01*
X0050409Y0197502D01*
X0050539Y0197756D01*
X0050662Y0198013D01*
X0050779Y0198273D01*
X0050890Y0198536D01*
X0050994Y0198802D01*
X0051092Y0199069D01*
X0051183Y0199340D01*
X0051268Y0199612D01*
X0051347Y0199886D01*
X0051418Y0200162D01*
X0051483Y0200440D01*
X0051541Y0200719D01*
X0051593Y0200999D01*
X0051637Y0201281D01*
X0051675Y0201564D01*
X0051706Y0201847D01*
X0051730Y0202131D01*
X0051747Y0202416D01*
X0051758Y0202701D01*
X0051761Y0202986D01*
X0053528Y0210692D02*
X0055028Y0210692D01*
X0054304Y0211391D02*
X0053270Y0211391D01*
X0053125Y0211782D02*
X0053125Y0211782D01*
X0052883Y0212089D02*
X0054188Y0212089D01*
X0054188Y0212788D02*
X0052332Y0212788D01*
X0051781Y0213486D02*
X0054188Y0213486D01*
X0054188Y0214883D02*
X0050509Y0214883D01*
X0051230Y0214185D02*
X0057353Y0214185D01*
X0057353Y0213486D02*
X0058053Y0213486D01*
X0058053Y0212788D02*
X0057353Y0212788D01*
X0057353Y0212089D02*
X0058053Y0212089D01*
X0058053Y0211391D02*
X0057353Y0211391D01*
X0057353Y0210692D02*
X0058053Y0210692D01*
X0059458Y0205803D02*
X0060158Y0205803D01*
X0060158Y0205104D02*
X0059458Y0205104D01*
X0059458Y0204406D02*
X0060158Y0204406D01*
X0060158Y0203707D02*
X0059458Y0203707D01*
X0060158Y0203009D02*
X0064727Y0203009D01*
X0063469Y0202310D02*
X0063126Y0202310D01*
X0066461Y0208886D02*
X0061061Y0214286D01*
X0062461Y0214883D02*
X0063446Y0214883D01*
X0063142Y0214185D02*
X0064673Y0214185D01*
X0063841Y0213486D02*
X0071711Y0213486D01*
X0071711Y0212788D02*
X0068729Y0212788D01*
X0068249Y0214185D02*
X0071711Y0214185D01*
X0071711Y0214883D02*
X0069477Y0214883D01*
X0070175Y0215582D02*
X0071711Y0215582D01*
X0071711Y0216280D02*
X0070648Y0216280D01*
X0070937Y0216979D02*
X0071711Y0216979D01*
X0071616Y0217677D02*
X0071211Y0217677D01*
X0071711Y0219923D02*
X0070511Y0220960D01*
X0070403Y0221220D01*
X0069095Y0222528D01*
X0068329Y0222845D01*
X0067426Y0223625D01*
X0067644Y0223660D01*
X0068400Y0223906D01*
X0069108Y0224266D01*
X0069751Y0224734D01*
X0070313Y0225296D01*
X0070781Y0225939D01*
X0071141Y0226647D01*
X0071387Y0227403D01*
X0071511Y0228188D01*
X0071511Y0228236D01*
X0066811Y0228236D01*
X0066811Y0228936D01*
X0066111Y0228936D01*
X0066111Y0233636D01*
X0066064Y0233636D01*
X0065279Y0233511D01*
X0064523Y0233266D01*
X0063815Y0232905D01*
X0063172Y0232438D01*
X0062609Y0231875D01*
X0062142Y0231232D01*
X0061781Y0230524D01*
X0061536Y0229768D01*
X0061411Y0228983D01*
X0061411Y0228936D01*
X0066111Y0228936D01*
X0066111Y0228236D01*
X0062089Y0228236D01*
X0060319Y0229765D01*
X0060504Y0229815D01*
X0060811Y0229992D01*
X0061063Y0230244D01*
X0061240Y0230552D01*
X0061332Y0230895D01*
X0061332Y0232691D01*
X0058220Y0232691D01*
X0058226Y0233391D01*
X0061332Y0233391D01*
X0061332Y0235187D01*
X0061240Y0235531D01*
X0061063Y0235839D01*
X0060811Y0236090D01*
X0060504Y0236268D01*
X0060160Y0236360D01*
X0058249Y0236360D01*
X0058257Y0237242D01*
X0058261Y0237247D01*
X0058261Y0237479D01*
X0058365Y0237686D01*
X0058263Y0237993D01*
X0058319Y0245105D01*
X0061100Y0247886D01*
X0062798Y0247886D01*
X0062798Y0245877D01*
X0068129Y0245877D01*
X0068129Y0245177D01*
X0062798Y0245177D01*
X0062798Y0242987D01*
X0062890Y0242643D01*
X0063068Y0242335D01*
X0063319Y0242084D01*
X0063627Y0241906D01*
X0063970Y0241814D01*
X0068129Y0241814D01*
X0068129Y0245177D01*
X0068829Y0245177D01*
X0068829Y0241814D01*
X0071711Y0241814D01*
X0071711Y0219923D01*
X0071711Y0220472D02*
X0071076Y0220472D01*
X0071711Y0221170D02*
X0070424Y0221170D01*
X0069755Y0221869D02*
X0071711Y0221869D01*
X0071711Y0222567D02*
X0069000Y0222567D01*
X0068515Y0223964D02*
X0071711Y0223964D01*
X0071711Y0223266D02*
X0067842Y0223266D01*
X0069653Y0224663D02*
X0071711Y0224663D01*
X0071711Y0225361D02*
X0070361Y0225361D01*
X0070842Y0226060D02*
X0071711Y0226060D01*
X0071711Y0226758D02*
X0071177Y0226758D01*
X0071396Y0227457D02*
X0071711Y0227457D01*
X0071711Y0228155D02*
X0071506Y0228155D01*
X0071711Y0228854D02*
X0066811Y0228854D01*
X0066811Y0228936D02*
X0071511Y0228936D01*
X0071511Y0228983D01*
X0071387Y0229768D01*
X0071141Y0230524D01*
X0070781Y0231232D01*
X0070313Y0231875D01*
X0069751Y0232438D01*
X0069108Y0232905D01*
X0068400Y0233266D01*
X0067644Y0233511D01*
X0066859Y0233636D01*
X0066811Y0233636D01*
X0066811Y0228936D01*
X0066811Y0229552D02*
X0066111Y0229552D01*
X0066111Y0228854D02*
X0061374Y0228854D01*
X0061502Y0229552D02*
X0060565Y0229552D01*
X0061067Y0230251D02*
X0061693Y0230251D01*
X0061998Y0230949D02*
X0061332Y0230949D01*
X0061332Y0231648D02*
X0062444Y0231648D01*
X0063080Y0232346D02*
X0061332Y0232346D01*
X0061332Y0233743D02*
X0071711Y0233743D01*
X0071711Y0233045D02*
X0068834Y0233045D01*
X0069843Y0232346D02*
X0071711Y0232346D01*
X0071711Y0231648D02*
X0070479Y0231648D01*
X0070925Y0230949D02*
X0071711Y0230949D01*
X0071711Y0230251D02*
X0071230Y0230251D01*
X0071421Y0229552D02*
X0071711Y0229552D01*
X0071711Y0234442D02*
X0061332Y0234442D01*
X0061332Y0235140D02*
X0071711Y0235140D01*
X0071711Y0235839D02*
X0061062Y0235839D01*
X0058251Y0236537D02*
X0071711Y0236537D01*
X0071711Y0237236D02*
X0058256Y0237236D01*
X0058282Y0237934D02*
X0071711Y0237934D01*
X0071711Y0238633D02*
X0058268Y0238633D01*
X0058273Y0239331D02*
X0071711Y0239331D01*
X0071711Y0240030D02*
X0058279Y0240030D01*
X0058284Y0240728D02*
X0071711Y0240728D01*
X0071711Y0241427D02*
X0058290Y0241427D01*
X0058295Y0242125D02*
X0063278Y0242125D01*
X0062842Y0242824D02*
X0058301Y0242824D01*
X0058307Y0243522D02*
X0062798Y0243522D01*
X0062798Y0244221D02*
X0058312Y0244221D01*
X0058318Y0244919D02*
X0062798Y0244919D01*
X0062798Y0246316D02*
X0059531Y0246316D01*
X0058832Y0245618D02*
X0068129Y0245618D01*
X0068129Y0244919D02*
X0068829Y0244919D01*
X0068829Y0244221D02*
X0068129Y0244221D01*
X0068129Y0243522D02*
X0068829Y0243522D01*
X0068829Y0242824D02*
X0068129Y0242824D01*
X0068129Y0242125D02*
X0068829Y0242125D01*
X0066811Y0233045D02*
X0066111Y0233045D01*
X0066111Y0232346D02*
X0066811Y0232346D01*
X0066811Y0231648D02*
X0066111Y0231648D01*
X0066111Y0230949D02*
X0066811Y0230949D01*
X0066811Y0230251D02*
X0066111Y0230251D01*
X0064089Y0233045D02*
X0058223Y0233045D01*
X0054461Y0235186D02*
X0056861Y0237586D01*
X0056961Y0237786D01*
X0056961Y0245586D01*
X0064761Y0253386D01*
X0068461Y0253386D01*
X0068479Y0253401D01*
X0062961Y0257886D02*
X0066361Y0261286D01*
X0068461Y0261286D01*
X0068479Y0261275D01*
X0068479Y0269149D02*
X0065961Y0268886D01*
X0066061Y0269186D02*
X0068461Y0269186D01*
X0062961Y0257886D02*
X0062961Y0253486D01*
X0055661Y0246186D01*
X0055661Y0238286D01*
X0053161Y0235786D01*
X0053161Y0224586D01*
X0057161Y0220586D01*
X0057661Y0220586D01*
X0057703Y0220615D01*
X0057817Y0226348D02*
X0057761Y0226386D01*
X0057261Y0226386D01*
X0054461Y0229186D01*
X0054461Y0235186D01*
X0052827Y0239331D02*
X0032761Y0239331D01*
X0032761Y0238633D02*
X0052129Y0238633D01*
X0051430Y0237934D02*
X0032761Y0237934D01*
X0033391Y0237236D02*
X0050732Y0237236D01*
X0050461Y0236537D02*
X0034090Y0236537D01*
X0034788Y0235839D02*
X0050461Y0235839D01*
X0050461Y0235140D02*
X0035487Y0235140D01*
X0036252Y0234442D02*
X0050461Y0234442D01*
X0050461Y0233743D02*
X0036561Y0233743D01*
X0036606Y0233045D02*
X0050461Y0233045D01*
X0050461Y0232346D02*
X0036561Y0232346D01*
X0036561Y0231648D02*
X0050461Y0231648D01*
X0050461Y0230949D02*
X0036561Y0230949D01*
X0036561Y0230251D02*
X0050461Y0230251D01*
X0050461Y0229552D02*
X0036561Y0229552D01*
X0036561Y0228854D02*
X0050461Y0228854D01*
X0050461Y0228155D02*
X0036561Y0228155D01*
X0036561Y0227457D02*
X0050461Y0227457D01*
X0050461Y0226758D02*
X0036561Y0226758D01*
X0036561Y0226060D02*
X0050461Y0226060D01*
X0050461Y0225361D02*
X0036561Y0225361D01*
X0036561Y0224663D02*
X0050461Y0224663D01*
X0050461Y0223964D02*
X0036561Y0223964D01*
X0036561Y0223266D02*
X0050602Y0223266D01*
X0051300Y0222567D02*
X0036561Y0222567D01*
X0036561Y0221869D02*
X0051999Y0221869D01*
X0052697Y0221170D02*
X0036561Y0221170D01*
X0036561Y0220472D02*
X0052961Y0220472D01*
X0052961Y0219773D02*
X0036561Y0219773D01*
X0036561Y0219074D02*
X0052961Y0219074D01*
X0052961Y0218376D02*
X0036561Y0218376D01*
X0037049Y0217677D02*
X0053090Y0217677D01*
X0053788Y0216979D02*
X0046733Y0216979D01*
X0047836Y0216668D02*
X0047836Y0216668D01*
X0048417Y0216280D02*
X0054245Y0216280D01*
X0054188Y0215582D02*
X0049463Y0215582D01*
X0044327Y0217657D02*
X0044327Y0217657D01*
X0042561Y0216186D02*
X0042805Y0216193D01*
X0043049Y0216194D01*
X0043294Y0216189D01*
X0043538Y0216178D01*
X0043781Y0216161D01*
X0044025Y0216138D01*
X0044267Y0216109D01*
X0044509Y0216075D01*
X0044750Y0216034D01*
X0044990Y0215988D01*
X0045228Y0215936D01*
X0045466Y0215879D01*
X0045702Y0215815D01*
X0045936Y0215746D01*
X0046169Y0215672D01*
X0046399Y0215591D01*
X0046628Y0215505D01*
X0046854Y0215414D01*
X0047079Y0215317D01*
X0047301Y0215215D01*
X0047520Y0215108D01*
X0047737Y0214995D01*
X0047950Y0214877D01*
X0048161Y0214754D01*
X0048369Y0214625D01*
X0048574Y0214492D01*
X0048776Y0214354D01*
X0048974Y0214211D01*
X0049168Y0214064D01*
X0049359Y0213911D01*
X0049546Y0213754D01*
X0049730Y0213593D01*
X0049909Y0213427D01*
X0050085Y0213257D01*
X0050256Y0213083D01*
X0050423Y0212905D01*
X0050585Y0212722D01*
X0050743Y0212536D01*
X0050897Y0212346D01*
X0051046Y0212153D01*
X0051190Y0211956D01*
X0051330Y0211755D01*
X0051464Y0211551D01*
X0051594Y0211344D01*
X0051718Y0211134D01*
X0051838Y0210921D01*
X0051952Y0210705D01*
X0052061Y0210486D01*
X0052165Y0210265D01*
X0052263Y0210042D01*
X0052356Y0209816D01*
X0052443Y0209588D01*
X0052525Y0209357D01*
X0052601Y0209125D01*
X0052672Y0208891D01*
X0052737Y0208656D01*
X0052796Y0208419D01*
X0052850Y0208181D01*
X0052897Y0207941D01*
X0052939Y0207701D01*
X0052975Y0207459D01*
X0053006Y0207217D01*
X0053030Y0206974D01*
X0053048Y0206730D01*
X0053061Y0206486D01*
X0051361Y0190486D02*
X0051361Y0181386D01*
X0050461Y0180586D01*
X0045261Y0178686D01*
X0044478Y0176465D02*
X0040258Y0176465D01*
X0040258Y0175767D02*
X0044692Y0175767D01*
X0044906Y0175068D02*
X0040258Y0175068D01*
X0041098Y0174370D02*
X0045121Y0174370D01*
X0045335Y0173671D02*
X0041193Y0173671D01*
X0041193Y0172973D02*
X0045549Y0172973D01*
X0045763Y0172274D02*
X0041193Y0172274D01*
X0041193Y0171576D02*
X0045977Y0171576D01*
X0046172Y0170877D02*
X0041193Y0170877D01*
X0041193Y0170179D02*
X0046466Y0170179D01*
X0046759Y0169480D02*
X0041193Y0169480D01*
X0040899Y0168782D02*
X0047053Y0168782D01*
X0047346Y0168083D02*
X0040692Y0168083D01*
X0041193Y0167385D02*
X0047639Y0167385D01*
X0047933Y0166686D02*
X0041193Y0166686D01*
X0041193Y0165988D02*
X0048226Y0165988D01*
X0048519Y0165289D02*
X0041193Y0165289D01*
X0041193Y0164591D02*
X0050961Y0164591D01*
X0050961Y0163892D02*
X0041193Y0163892D01*
X0041193Y0163194D02*
X0050961Y0163194D01*
X0050961Y0162495D02*
X0041193Y0162495D01*
X0040607Y0161797D02*
X0050961Y0161797D01*
X0050961Y0161098D02*
X0036629Y0161098D01*
X0037061Y0160400D02*
X0042748Y0160400D01*
X0042186Y0159701D02*
X0037111Y0159701D01*
X0037768Y0159003D02*
X0041911Y0159003D01*
X0041567Y0158304D02*
X0038057Y0158304D01*
X0037957Y0156550D02*
X0036383Y0154975D01*
X0035661Y0157686D02*
X0035661Y0160086D01*
X0034461Y0161286D01*
X0031961Y0161286D01*
X0031880Y0161301D01*
X0031880Y0165212D02*
X0031880Y0165238D01*
X0031961Y0165286D01*
X0031880Y0165212D02*
X0036776Y0165212D01*
X0036776Y0163586D01*
X0038861Y0163586D01*
X0038961Y0163486D01*
X0038174Y0164982D01*
X0037957Y0156550D02*
X0041501Y0156550D01*
X0041116Y0152716D02*
X0040163Y0152716D01*
X0040515Y0152017D02*
X0040765Y0152017D01*
X0040765Y0151319D02*
X0040515Y0151319D01*
X0040515Y0150620D02*
X0040765Y0150620D01*
X0044640Y0140143D02*
X0045340Y0140143D01*
X0045340Y0139444D02*
X0044640Y0139444D01*
X0044640Y0138746D02*
X0045340Y0138746D01*
X0045340Y0138047D02*
X0044640Y0138047D01*
X0044640Y0137349D02*
X0045340Y0137349D01*
X0045340Y0135253D02*
X0044640Y0135253D01*
X0044640Y0134555D02*
X0045340Y0134555D01*
X0045340Y0133856D02*
X0044640Y0133856D01*
X0042911Y0124077D02*
X0049949Y0124077D01*
X0050647Y0123378D02*
X0042911Y0123378D01*
X0042313Y0122680D02*
X0051346Y0122680D01*
X0051730Y0121981D02*
X0041615Y0121981D01*
X0040916Y0121283D02*
X0051931Y0121283D01*
X0052385Y0120584D02*
X0040292Y0120584D01*
X0041025Y0133856D02*
X0041881Y0133856D01*
X0041671Y0134555D02*
X0041315Y0134555D01*
X0041315Y0135253D02*
X0041671Y0135253D01*
X0041671Y0135952D02*
X0041315Y0135952D01*
X0045813Y0142238D02*
X0048860Y0142238D01*
X0048530Y0142937D02*
X0046015Y0142937D01*
X0048361Y0147386D02*
X0048361Y0148886D01*
X0051431Y0168586D02*
X0050787Y0169230D01*
X0050787Y0174816D01*
X0047947Y0190436D02*
X0044052Y0190436D01*
X0046029Y0191078D02*
X0046029Y0191078D01*
X0046106Y0191134D02*
X0047562Y0191134D01*
X0047411Y0191833D02*
X0047068Y0191833D01*
X0051761Y0204886D02*
X0051758Y0205126D01*
X0051749Y0205366D01*
X0051735Y0205605D01*
X0051715Y0205845D01*
X0051689Y0206083D01*
X0051657Y0206321D01*
X0051619Y0206558D01*
X0051576Y0206794D01*
X0051527Y0207029D01*
X0051472Y0207263D01*
X0051412Y0207495D01*
X0051346Y0207726D01*
X0051275Y0207955D01*
X0051198Y0208183D01*
X0051116Y0208408D01*
X0051028Y0208631D01*
X0050935Y0208852D01*
X0050836Y0209071D01*
X0050732Y0209288D01*
X0050623Y0209502D01*
X0050509Y0209713D01*
X0050390Y0209921D01*
X0050266Y0210127D01*
X0050137Y0210329D01*
X0050003Y0210528D01*
X0049864Y0210724D01*
X0049721Y0210916D01*
X0049573Y0211105D01*
X0049420Y0211291D01*
X0049263Y0211472D01*
X0049102Y0211650D01*
X0048936Y0211824D01*
X0048767Y0211993D01*
X0048593Y0212159D01*
X0048415Y0212320D01*
X0048234Y0212477D01*
X0048048Y0212630D01*
X0047859Y0212778D01*
X0047667Y0212921D01*
X0047471Y0213060D01*
X0047272Y0213194D01*
X0047070Y0213323D01*
X0046864Y0213447D01*
X0046656Y0213566D01*
X0046445Y0213680D01*
X0046231Y0213789D01*
X0046014Y0213893D01*
X0045795Y0213992D01*
X0045574Y0214085D01*
X0045351Y0214173D01*
X0045126Y0214255D01*
X0044898Y0214332D01*
X0044669Y0214403D01*
X0044438Y0214469D01*
X0044206Y0214529D01*
X0043972Y0214584D01*
X0043737Y0214633D01*
X0043501Y0214676D01*
X0043264Y0214714D01*
X0043026Y0214746D01*
X0042788Y0214772D01*
X0042548Y0214792D01*
X0042309Y0214806D01*
X0042069Y0214815D01*
X0041829Y0214818D01*
X0034174Y0245618D02*
X0052961Y0245618D01*
X0052961Y0246316D02*
X0034872Y0246316D01*
X0035571Y0247015D02*
X0052961Y0247015D01*
X0053309Y0247713D02*
X0036269Y0247713D01*
X0036968Y0248412D02*
X0054008Y0248412D01*
X0054706Y0249110D02*
X0037666Y0249110D01*
X0038365Y0249809D02*
X0055405Y0249809D01*
X0056103Y0250508D02*
X0039063Y0250508D01*
X0039762Y0251206D02*
X0056461Y0251206D01*
X0056461Y0251905D02*
X0040460Y0251905D01*
X0041159Y0252603D02*
X0056461Y0252603D01*
X0056461Y0253302D02*
X0041857Y0253302D01*
X0040691Y0256096D02*
X0021031Y0256096D01*
X0020333Y0256794D02*
X0041390Y0256794D01*
X0042089Y0257493D02*
X0019634Y0257493D01*
X0018936Y0258191D02*
X0042787Y0258191D01*
X0043486Y0258890D02*
X0018237Y0258890D01*
X0017539Y0259588D02*
X0044184Y0259588D01*
X0044611Y0260287D02*
X0017167Y0260287D01*
X0017167Y0260985D02*
X0044616Y0260985D01*
X0044906Y0261684D02*
X0017167Y0261684D01*
X0017167Y0262382D02*
X0045493Y0262382D01*
X0041162Y0274767D02*
X0042271Y0275227D01*
X0043120Y0276076D01*
X0043580Y0277185D01*
X0043580Y0278386D01*
X0043120Y0279495D01*
X0042271Y0280345D01*
X0041162Y0280804D01*
X0039961Y0280804D01*
X0038852Y0280345D01*
X0038002Y0279495D01*
X0037543Y0278386D01*
X0037543Y0277185D01*
X0038002Y0276076D01*
X0038852Y0275227D01*
X0039961Y0274767D01*
X0041162Y0274767D01*
X0041616Y0274955D02*
X0056361Y0274955D01*
X0056361Y0274257D02*
X0031861Y0274257D01*
X0031861Y0274955D02*
X0039506Y0274955D01*
X0038424Y0275654D02*
X0031861Y0275654D01*
X0031861Y0276352D02*
X0037888Y0276352D01*
X0037599Y0277051D02*
X0031476Y0277051D01*
X0030777Y0277749D02*
X0037543Y0277749D01*
X0037569Y0278448D02*
X0030079Y0278448D01*
X0029387Y0279146D02*
X0037858Y0279146D01*
X0038352Y0279845D02*
X0028738Y0279845D01*
X0028090Y0280543D02*
X0039332Y0280543D01*
X0041791Y0280543D02*
X0056839Y0280543D01*
X0056361Y0279845D02*
X0042771Y0279845D01*
X0043265Y0279146D02*
X0056361Y0279146D01*
X0056361Y0278448D02*
X0043554Y0278448D01*
X0043580Y0277749D02*
X0056361Y0277749D01*
X0056361Y0277051D02*
X0043524Y0277051D01*
X0043235Y0276352D02*
X0056361Y0276352D01*
X0056361Y0275654D02*
X0042699Y0275654D01*
X0039993Y0255397D02*
X0021730Y0255397D01*
X0022428Y0254699D02*
X0039294Y0254699D01*
X0038596Y0254000D02*
X0023127Y0254000D01*
X0023825Y0253302D02*
X0037897Y0253302D01*
X0037199Y0252603D02*
X0024524Y0252603D01*
X0025222Y0251905D02*
X0036500Y0251905D01*
X0035802Y0251206D02*
X0025921Y0251206D01*
X0026619Y0250508D02*
X0035103Y0250508D01*
X0034405Y0249809D02*
X0027318Y0249809D01*
X0028016Y0249110D02*
X0033706Y0249110D01*
X0033008Y0248412D02*
X0028715Y0248412D01*
X0029413Y0247713D02*
X0032309Y0247713D01*
X0031611Y0247015D02*
X0030112Y0247015D01*
X0030810Y0246316D02*
X0030912Y0246316D01*
X0030061Y0245086D02*
X0030061Y0231486D01*
X0030265Y0231198D01*
X0028761Y0229986D01*
X0027024Y0229552D02*
X0008611Y0229552D01*
X0008611Y0228854D02*
X0015195Y0228854D01*
X0015872Y0230810D02*
X0018062Y0230810D01*
X0018062Y0233385D01*
X0018762Y0233385D01*
X0018762Y0234085D01*
X0018062Y0234085D01*
X0018062Y0236660D01*
X0015872Y0236660D01*
X0015528Y0236568D01*
X0015221Y0236390D01*
X0014969Y0236138D01*
X0014792Y0235831D01*
X0014700Y0235487D01*
X0014700Y0234085D01*
X0018062Y0234085D01*
X0018062Y0233385D01*
X0014700Y0233385D01*
X0014700Y0231982D01*
X0014792Y0231639D01*
X0014969Y0231331D01*
X0015221Y0231080D01*
X0015528Y0230902D01*
X0015872Y0230810D01*
X0015447Y0230949D02*
X0008611Y0230949D01*
X0008611Y0230251D02*
X0026769Y0230251D01*
X0026515Y0230949D02*
X0021377Y0230949D01*
X0021295Y0230902D02*
X0021603Y0231080D01*
X0021854Y0231331D01*
X0022032Y0231639D01*
X0022124Y0231982D01*
X0022124Y0233385D01*
X0018762Y0233385D01*
X0018762Y0230810D01*
X0020952Y0230810D01*
X0021295Y0230902D01*
X0022034Y0231648D02*
X0026261Y0231648D01*
X0026007Y0232346D02*
X0022124Y0232346D01*
X0022124Y0233045D02*
X0025752Y0233045D01*
X0025498Y0233743D02*
X0018762Y0233743D01*
X0018762Y0234085D02*
X0022124Y0234085D01*
X0022124Y0235487D01*
X0022032Y0235831D01*
X0021854Y0236138D01*
X0021603Y0236390D01*
X0021295Y0236568D01*
X0020952Y0236660D01*
X0018762Y0236660D01*
X0018762Y0234085D01*
X0018762Y0234442D02*
X0018062Y0234442D01*
X0018062Y0235140D02*
X0018762Y0235140D01*
X0018762Y0235839D02*
X0018062Y0235839D01*
X0018062Y0236537D02*
X0018762Y0236537D01*
X0018062Y0233743D02*
X0008611Y0233743D01*
X0008611Y0233045D02*
X0014700Y0233045D01*
X0014700Y0232346D02*
X0008611Y0232346D01*
X0008611Y0231648D02*
X0014789Y0231648D01*
X0014700Y0234442D02*
X0008611Y0234442D01*
X0008611Y0235140D02*
X0014700Y0235140D01*
X0014796Y0235839D02*
X0008611Y0235839D01*
X0008611Y0236537D02*
X0015476Y0236537D01*
X0016294Y0241814D02*
X0016638Y0241906D01*
X0016945Y0242084D01*
X0017197Y0242335D01*
X0017375Y0242643D01*
X0017467Y0242987D01*
X0017467Y0245177D01*
X0012136Y0245177D01*
X0012136Y0241814D01*
X0016294Y0241814D01*
X0016987Y0242125D02*
X0028661Y0242125D01*
X0028661Y0241427D02*
X0008611Y0241427D01*
X0008611Y0240728D02*
X0028661Y0240728D01*
X0028661Y0240030D02*
X0008611Y0240030D01*
X0008611Y0239331D02*
X0028661Y0239331D01*
X0028661Y0238633D02*
X0008611Y0238633D01*
X0008611Y0237934D02*
X0028661Y0237934D01*
X0028661Y0237236D02*
X0008611Y0237236D01*
X0008611Y0228155D02*
X0012666Y0228155D01*
X0011977Y0227457D02*
X0008611Y0227457D01*
X0008611Y0226758D02*
X0011688Y0226758D01*
X0011611Y0226060D02*
X0008611Y0226060D01*
X0008611Y0225361D02*
X0011710Y0225361D01*
X0012020Y0224663D02*
X0008611Y0224663D01*
X0008611Y0223964D02*
X0012781Y0223964D01*
X0011557Y0221170D02*
X0008611Y0221170D01*
X0008611Y0221869D02*
X0016561Y0221869D01*
X0016561Y0222567D02*
X0008611Y0222567D01*
X0008611Y0223266D02*
X0016561Y0223266D01*
X0016561Y0223964D02*
X0015342Y0223964D01*
X0014443Y0219126D02*
X0014361Y0219086D01*
X0013161Y0219086D01*
X0009961Y0215886D01*
X0009961Y0210086D01*
X0012661Y0207386D01*
X0013715Y0205104D02*
X0015478Y0205104D01*
X0015017Y0205803D02*
X0014543Y0205803D01*
X0013715Y0204406D02*
X0016605Y0204406D01*
X0017918Y0204406D02*
X0023161Y0204406D01*
X0023161Y0205104D02*
X0019045Y0205104D01*
X0019506Y0205803D02*
X0023161Y0205803D01*
X0023161Y0206501D02*
X0019711Y0206501D01*
X0019711Y0207200D02*
X0023161Y0207200D01*
X0023161Y0207898D02*
X0019452Y0207898D01*
X0018915Y0208597D02*
X0023161Y0208597D01*
X0023161Y0209295D02*
X0016732Y0209295D01*
X0017721Y0209994D02*
X0021402Y0209994D01*
X0021268Y0210692D02*
X0017855Y0210692D01*
X0017855Y0211391D02*
X0020976Y0211391D01*
X0020278Y0212089D02*
X0017855Y0212089D01*
X0017855Y0212788D02*
X0019761Y0212788D01*
X0019761Y0213486D02*
X0017532Y0213486D01*
X0017855Y0214185D02*
X0019761Y0214185D01*
X0019761Y0214883D02*
X0017855Y0214883D01*
X0018538Y0215582D02*
X0019761Y0215582D01*
X0019761Y0216280D02*
X0019236Y0216280D01*
X0019361Y0216979D02*
X0019761Y0216979D01*
X0019761Y0217677D02*
X0019361Y0217677D01*
X0019361Y0218376D02*
X0019761Y0218376D01*
X0019761Y0219074D02*
X0019361Y0219074D01*
X0019361Y0219773D02*
X0019761Y0219773D01*
X0019711Y0220472D02*
X0019361Y0220472D01*
X0017961Y0216986D02*
X0017961Y0225586D01*
X0018412Y0226648D01*
X0019061Y0226086D01*
X0018762Y0230949D02*
X0018062Y0230949D01*
X0018062Y0231648D02*
X0018762Y0231648D01*
X0018762Y0232346D02*
X0018062Y0232346D01*
X0018062Y0233045D02*
X0018762Y0233045D01*
X0021347Y0236537D02*
X0028661Y0236537D01*
X0028436Y0235839D02*
X0022027Y0235839D01*
X0022124Y0235140D02*
X0026517Y0235140D01*
X0025551Y0234442D02*
X0022124Y0234442D01*
X0021628Y0228854D02*
X0027117Y0228854D01*
X0026876Y0224663D02*
X0031046Y0224663D01*
X0031046Y0223964D02*
X0026515Y0223964D01*
X0025961Y0223266D02*
X0031046Y0223266D01*
X0031046Y0222567D02*
X0025961Y0222567D01*
X0025961Y0221869D02*
X0031046Y0221869D01*
X0031046Y0221170D02*
X0027565Y0221170D01*
X0028092Y0220472D02*
X0031046Y0220472D01*
X0031046Y0219773D02*
X0028092Y0219773D01*
X0028092Y0219074D02*
X0031046Y0219074D01*
X0031046Y0218376D02*
X0028092Y0218376D01*
X0028092Y0217677D02*
X0031046Y0217677D01*
X0031046Y0216979D02*
X0028303Y0216979D01*
X0028392Y0216280D02*
X0031046Y0216280D01*
X0031277Y0215582D02*
X0028392Y0215582D01*
X0028392Y0214883D02*
X0031975Y0214883D01*
X0031866Y0214993D02*
X0031866Y0214993D01*
X0032620Y0214238D02*
X0032620Y0214238D01*
X0032674Y0214185D02*
X0028392Y0214185D01*
X0028130Y0213486D02*
X0033372Y0213486D01*
X0033482Y0212788D02*
X0028092Y0212788D01*
X0028092Y0212089D02*
X0032473Y0212089D01*
X0031774Y0211391D02*
X0028092Y0211391D01*
X0028092Y0210692D02*
X0031076Y0210692D01*
X0030459Y0209994D02*
X0027958Y0209994D01*
X0028944Y0207200D02*
X0025961Y0207200D01*
X0025961Y0207898D02*
X0029249Y0207898D01*
X0029652Y0208597D02*
X0025961Y0208597D01*
X0025961Y0209295D02*
X0030055Y0209295D01*
X0028757Y0206501D02*
X0025961Y0206501D01*
X0025961Y0205803D02*
X0028570Y0205803D01*
X0028383Y0205104D02*
X0025961Y0205104D01*
X0025961Y0204406D02*
X0028233Y0204406D01*
X0028233Y0203707D02*
X0025961Y0203707D01*
X0025961Y0203009D02*
X0028233Y0203009D01*
X0028233Y0202310D02*
X0025961Y0202310D01*
X0025961Y0201612D02*
X0028233Y0201612D01*
X0028382Y0200913D02*
X0025961Y0200913D01*
X0026774Y0200215D02*
X0028569Y0200215D01*
X0028756Y0199516D02*
X0027308Y0199516D01*
X0027308Y0198818D02*
X0028943Y0198818D01*
X0029247Y0198119D02*
X0027308Y0198119D01*
X0027308Y0197421D02*
X0029650Y0197421D01*
X0030053Y0196722D02*
X0027308Y0196722D01*
X0027308Y0196024D02*
X0030456Y0196024D01*
X0031072Y0195325D02*
X0027308Y0195325D01*
X0027061Y0194627D02*
X0031771Y0194627D01*
X0024461Y0210986D02*
X0024680Y0211645D01*
X0024661Y0211286D01*
X0024661Y0219086D02*
X0024680Y0219126D01*
X0024661Y0219086D02*
X0024561Y0219086D01*
X0024561Y0225476D01*
X0028661Y0242824D02*
X0017423Y0242824D01*
X0017467Y0243522D02*
X0028661Y0243522D01*
X0028661Y0244221D02*
X0017467Y0244221D01*
X0016811Y0244236D02*
X0011786Y0245527D01*
X0012136Y0245618D02*
X0027549Y0245618D01*
X0026851Y0246316D02*
X0017467Y0246316D01*
X0017976Y0247015D02*
X0026152Y0247015D01*
X0025454Y0247713D02*
X0019200Y0247713D01*
X0019701Y0248412D02*
X0024755Y0248412D01*
X0024057Y0249110D02*
X0019935Y0249110D01*
X0019935Y0249809D02*
X0023358Y0249809D01*
X0022660Y0250508D02*
X0019704Y0250508D01*
X0019207Y0251206D02*
X0021961Y0251206D01*
X0021263Y0251905D02*
X0018205Y0251905D01*
X0017507Y0252603D02*
X0020564Y0252603D01*
X0019866Y0253302D02*
X0017167Y0253302D01*
X0017167Y0254000D02*
X0019167Y0254000D01*
X0018469Y0254699D02*
X0017167Y0254699D01*
X0017167Y0255397D02*
X0017770Y0255397D01*
X0014729Y0253401D02*
X0017485Y0250645D01*
X0017485Y0249464D01*
X0017467Y0244919D02*
X0028248Y0244919D01*
X0030061Y0245086D02*
X0013861Y0261286D01*
X0011861Y0261286D01*
X0011786Y0261275D01*
X0011786Y0269149D02*
X0014361Y0268886D01*
X0017061Y0268886D01*
X0018661Y0267286D01*
X0017235Y0265176D02*
X0008611Y0265176D01*
X0008611Y0272860D02*
X0016482Y0272860D01*
X0016951Y0272161D02*
X0017249Y0272161D01*
X0017167Y0271463D02*
X0018016Y0271463D01*
X0018783Y0270764D02*
X0017167Y0270764D01*
X0017861Y0270066D02*
X0019550Y0270066D01*
X0020115Y0269367D02*
X0020317Y0269367D01*
X0020794Y0268669D02*
X0021084Y0268669D01*
X0021084Y0267970D02*
X0021850Y0267970D01*
X0022011Y0267272D02*
X0021161Y0267272D01*
X0021072Y0266573D02*
X0022187Y0266573D01*
X0022607Y0265875D02*
X0020783Y0265875D01*
X0020088Y0265176D02*
X0023635Y0265176D01*
X0024461Y0267486D02*
X0014361Y0276686D01*
X0011786Y0277023D01*
X0011861Y0276986D01*
X0014261Y0276986D01*
X0015716Y0273558D02*
X0008611Y0273558D01*
X0011786Y0269149D02*
X0011861Y0269186D01*
X0014261Y0269186D01*
X0016761Y0264478D02*
X0054161Y0264478D01*
X0054207Y0263779D02*
X0017167Y0263779D01*
X0017167Y0263081D02*
X0054496Y0263081D01*
X0054283Y0265176D02*
X0025288Y0265176D01*
X0026315Y0265875D02*
X0054615Y0265875D01*
X0055410Y0266573D02*
X0026735Y0266573D01*
X0026911Y0267272D02*
X0056361Y0267272D01*
X0056361Y0267970D02*
X0026911Y0267970D01*
X0026623Y0268669D02*
X0056361Y0268669D01*
X0056361Y0269367D02*
X0026045Y0269367D01*
X0028357Y0270764D02*
X0022941Y0270764D01*
X0023708Y0270066D02*
X0029016Y0270066D01*
X0028068Y0271463D02*
X0022174Y0271463D01*
X0021407Y0272161D02*
X0028011Y0272161D01*
X0028130Y0272860D02*
X0020640Y0272860D01*
X0019874Y0273558D02*
X0028469Y0273558D01*
X0029061Y0274257D02*
X0019107Y0274257D01*
X0018340Y0274955D02*
X0029061Y0274955D01*
X0028913Y0275654D02*
X0017573Y0275654D01*
X0017167Y0276352D02*
X0028215Y0276352D01*
X0027512Y0277051D02*
X0017167Y0277051D01*
X0017167Y0277749D02*
X0026863Y0277749D01*
X0026214Y0278448D02*
X0017167Y0278448D01*
X0017461Y0280986D02*
X0014261Y0284186D01*
X0014261Y0284886D01*
X0011861Y0284886D01*
X0011786Y0284897D01*
X0011861Y0292686D02*
X0011786Y0292771D01*
X0014461Y0292486D01*
X0016061Y0290886D01*
X0016261Y0290886D01*
X0020661Y0286486D01*
X0028461Y0278086D01*
X0030461Y0276086D01*
X0030461Y0272086D01*
X0032453Y0273558D02*
X0056361Y0273558D01*
X0056361Y0272860D02*
X0032793Y0272860D01*
X0032911Y0272161D02*
X0056361Y0272161D01*
X0056361Y0271463D02*
X0032855Y0271463D01*
X0032566Y0270764D02*
X0056361Y0270764D01*
X0056361Y0270066D02*
X0031906Y0270066D01*
X0029838Y0282639D02*
X0058935Y0282639D01*
X0059633Y0283338D02*
X0030988Y0283338D01*
X0031459Y0284036D02*
X0060261Y0284036D01*
X0060261Y0284735D02*
X0031671Y0284735D01*
X0031671Y0285433D02*
X0060261Y0285433D01*
X0060261Y0286132D02*
X0031419Y0286132D01*
X0030892Y0286830D02*
X0060261Y0286830D01*
X0060261Y0287529D02*
X0027939Y0287529D01*
X0027241Y0288227D02*
X0060261Y0288227D01*
X0060261Y0288926D02*
X0026542Y0288926D01*
X0025843Y0289624D02*
X0028685Y0289624D01*
X0026723Y0290323D02*
X0025145Y0290323D01*
X0025514Y0291021D02*
X0024446Y0291021D01*
X0024594Y0291720D02*
X0023748Y0291720D01*
X0023896Y0292418D02*
X0023049Y0292418D01*
X0023197Y0293117D02*
X0022351Y0293117D01*
X0022761Y0293815D02*
X0021652Y0293815D01*
X0020954Y0294514D02*
X0022358Y0294514D01*
X0021954Y0295212D02*
X0020255Y0295212D01*
X0019557Y0295911D02*
X0021682Y0295911D01*
X0021495Y0296609D02*
X0018858Y0296609D01*
X0018831Y0297308D02*
X0021308Y0297308D01*
X0021121Y0298006D02*
X0018631Y0298006D01*
X0017933Y0298705D02*
X0021111Y0298705D01*
X0021111Y0299403D02*
X0017234Y0299403D01*
X0017167Y0300102D02*
X0020705Y0300102D01*
X0020172Y0300800D02*
X0017167Y0300800D01*
X0017167Y0301499D02*
X0019610Y0301499D01*
X0019047Y0302197D02*
X0017167Y0302197D01*
X0017167Y0302896D02*
X0018485Y0302896D01*
X0017923Y0303594D02*
X0017014Y0303594D01*
X0013961Y0300686D02*
X0011861Y0300686D01*
X0011786Y0300645D01*
X0011861Y0292686D02*
X0014461Y0292686D01*
X0016242Y0288926D02*
X0008611Y0288926D01*
X0016633Y0288227D02*
X0016940Y0288227D01*
X0017167Y0287529D02*
X0017639Y0287529D01*
X0017167Y0286830D02*
X0018337Y0286830D01*
X0019036Y0286132D02*
X0017167Y0286132D01*
X0017167Y0285433D02*
X0019728Y0285433D01*
X0020377Y0284735D02*
X0017167Y0284735D01*
X0017167Y0284036D02*
X0021026Y0284036D01*
X0021674Y0283338D02*
X0018186Y0283338D01*
X0019273Y0282639D02*
X0022323Y0282639D01*
X0022971Y0281941D02*
X0019718Y0281941D01*
X0019911Y0281242D02*
X0023620Y0281242D01*
X0024269Y0280543D02*
X0019911Y0280543D01*
X0019641Y0279845D02*
X0024917Y0279845D01*
X0025566Y0279146D02*
X0019087Y0279146D01*
X0022252Y0286830D02*
X0024536Y0286830D01*
X0023838Y0287529D02*
X0021603Y0287529D01*
X0020900Y0288227D02*
X0023139Y0288227D01*
X0022441Y0288926D02*
X0020201Y0288926D01*
X0019503Y0289624D02*
X0021742Y0289624D01*
X0021044Y0290323D02*
X0018804Y0290323D01*
X0018106Y0291021D02*
X0020345Y0291021D01*
X0019647Y0291720D02*
X0017407Y0291720D01*
X0017167Y0292418D02*
X0018948Y0292418D01*
X0018250Y0293117D02*
X0017167Y0293117D01*
X0017167Y0293815D02*
X0017551Y0293815D01*
X0022901Y0286132D02*
X0025235Y0286132D01*
X0025933Y0285433D02*
X0023549Y0285433D01*
X0024198Y0284735D02*
X0026632Y0284735D01*
X0026984Y0284036D02*
X0024847Y0284036D01*
X0025495Y0283338D02*
X0027455Y0283338D01*
X0028605Y0282639D02*
X0026144Y0282639D01*
X0026792Y0281941D02*
X0058236Y0281941D01*
X0057538Y0281242D02*
X0027441Y0281242D01*
X0033475Y0244919D02*
X0052961Y0244919D01*
X0052961Y0244221D02*
X0032777Y0244221D01*
X0032761Y0243522D02*
X0052961Y0243522D01*
X0052961Y0242824D02*
X0032761Y0242824D01*
X0032761Y0242125D02*
X0052961Y0242125D01*
X0052961Y0241427D02*
X0032761Y0241427D01*
X0032761Y0240728D02*
X0052961Y0240728D01*
X0052961Y0240030D02*
X0032761Y0240030D01*
X0023161Y0203707D02*
X0013715Y0203707D01*
X0013715Y0203009D02*
X0023161Y0203009D01*
X0023161Y0202310D02*
X0013715Y0202310D01*
X0013715Y0201612D02*
X0023161Y0201612D01*
X0023161Y0200913D02*
X0013649Y0200913D01*
X0013717Y0199516D02*
X0020877Y0199516D01*
X0020877Y0198818D02*
X0014015Y0198818D01*
X0014015Y0198119D02*
X0020877Y0198119D01*
X0020877Y0197421D02*
X0014015Y0197421D01*
X0010261Y0191086D02*
X0012761Y0188586D01*
X0010850Y0197421D02*
X0010150Y0197421D01*
X0010150Y0198119D02*
X0010850Y0198119D01*
X0010850Y0198818D02*
X0010150Y0198818D01*
X0010150Y0199516D02*
X0010850Y0199516D01*
X0010500Y0203383D02*
X0010461Y0203386D01*
X0008661Y0203386D01*
X0008661Y0218586D01*
X0009261Y0218586D01*
X0010840Y0220472D02*
X0011031Y0220472D01*
X0014443Y0215386D02*
X0016361Y0215386D01*
X0017961Y0216986D01*
X0014461Y0209586D02*
X0017261Y0206786D01*
X0014461Y0209586D02*
X0014461Y0211586D01*
X0014443Y0211645D01*
X0008611Y0200215D02*
X0021412Y0200215D01*
X0016658Y0189039D02*
X0015958Y0189039D01*
X0015958Y0188340D02*
X0016658Y0188340D01*
X0016658Y0187641D02*
X0015958Y0187641D01*
X0015958Y0186943D02*
X0016658Y0186943D01*
X0015848Y0178561D02*
X0014859Y0178561D01*
X0015233Y0177862D02*
X0015589Y0177862D01*
X0015589Y0177164D02*
X0015233Y0177164D01*
X0015233Y0176465D02*
X0015589Y0176465D01*
X0013377Y0164591D02*
X0008611Y0164591D01*
X0008611Y0165289D02*
X0012678Y0165289D01*
X0011980Y0165988D02*
X0008611Y0165988D01*
X0008611Y0166686D02*
X0011281Y0166686D01*
X0010582Y0167385D02*
X0008611Y0167385D01*
X0008611Y0168083D02*
X0009884Y0168083D01*
X0009185Y0168782D02*
X0008611Y0168782D01*
X0008611Y0163892D02*
X0014075Y0163892D01*
X0014713Y0163194D02*
X0008611Y0163194D01*
X0008611Y0162495D02*
X0009217Y0162495D01*
X0009020Y0161797D02*
X0008611Y0161797D01*
X0008611Y0161098D02*
X0009020Y0161098D01*
X0009020Y0160400D02*
X0008611Y0160400D01*
X0008611Y0159701D02*
X0009020Y0159701D01*
X0009020Y0159003D02*
X0008611Y0159003D01*
X0008611Y0158304D02*
X0009020Y0158304D01*
X0009020Y0157605D02*
X0008611Y0157605D01*
X0008611Y0156907D02*
X0009210Y0156907D01*
X0009615Y0186186D02*
X0009611Y0186471D01*
X0009611Y0190408D01*
X0009217Y0190802D01*
X0008961Y0191086D01*
X0009217Y0191196D01*
X0010005Y0191196D01*
X0010261Y0191086D01*
X0009661Y0186186D02*
X0009615Y0186186D01*
X0018761Y0146686D02*
X0018761Y0146186D01*
X0018806Y0146140D01*
X0023140Y0131062D02*
X0023449Y0131062D01*
X0023311Y0127727D02*
X0023846Y0127193D01*
X0029440Y0127193D01*
X0029816Y0127570D02*
X0031080Y0127570D01*
X0030055Y0128268D02*
X0033468Y0128268D01*
X0033468Y0128967D02*
X0030055Y0128967D01*
X0030055Y0129665D02*
X0033468Y0129665D01*
X0033468Y0130364D02*
X0030055Y0130364D01*
X0029836Y0131062D02*
X0033686Y0131062D01*
X0034911Y0119187D02*
X0023138Y0119187D01*
X0023412Y0124077D02*
X0023571Y0124077D01*
X0023311Y0126871D02*
X0023311Y0127727D01*
X0023311Y0127570D02*
X0023469Y0127570D01*
X0026452Y0124077D02*
X0026834Y0124077D01*
X0026834Y0123378D02*
X0026452Y0123378D01*
X0026452Y0122680D02*
X0026834Y0122680D01*
X0026834Y0121283D02*
X0026452Y0121283D01*
X0026452Y0120584D02*
X0026834Y0120584D01*
X0026834Y0119886D02*
X0026452Y0119886D01*
X0023362Y0110805D02*
X0008611Y0110805D01*
X0008611Y0110107D02*
X0024060Y0110107D01*
X0024759Y0109408D02*
X0008611Y0109408D01*
X0008611Y0108710D02*
X0024900Y0108710D01*
X0024971Y0108011D02*
X0008611Y0108011D01*
X0008611Y0107313D02*
X0025309Y0107313D01*
X0025261Y0106614D02*
X0008611Y0106614D01*
X0008611Y0105916D02*
X0025261Y0105916D01*
X0026661Y0106686D02*
X0026661Y0102632D01*
X0026661Y0106686D02*
X0026861Y0106886D01*
X0029277Y0099629D02*
X0054311Y0099629D01*
X0054311Y0098931D02*
X0029289Y0098931D01*
X0029680Y0098232D02*
X0054311Y0098232D01*
X0054311Y0097534D02*
X0029680Y0097534D01*
X0029680Y0096835D02*
X0054311Y0096835D01*
X0054311Y0096137D02*
X0029680Y0096137D01*
X0026661Y0095939D02*
X0026661Y0093686D01*
X0023643Y0101026D02*
X0012670Y0101026D01*
X0013076Y0101725D02*
X0023643Y0101725D01*
X0023643Y0102423D02*
X0013242Y0102423D01*
X0013233Y0103122D02*
X0023643Y0103122D01*
X0023643Y0103820D02*
X0012944Y0103820D01*
X0012351Y0104519D02*
X0023643Y0104519D01*
X0023643Y0105217D02*
X0008611Y0105217D01*
X0008611Y0104519D02*
X0009233Y0104519D01*
X0008640Y0103820D02*
X0008611Y0103820D01*
X0008611Y0111504D02*
X0022663Y0111504D01*
X0021965Y0112202D02*
X0008611Y0112202D01*
X0008611Y0112901D02*
X0019781Y0112901D01*
X0019142Y0113599D02*
X0008611Y0113599D01*
X0008611Y0114298D02*
X0018853Y0114298D01*
X0018811Y0114996D02*
X0008611Y0114996D01*
X0008611Y0115695D02*
X0018945Y0115695D01*
X0019304Y0116393D02*
X0008611Y0116393D01*
X0010224Y0092644D02*
X0018345Y0092644D01*
X0018207Y0091945D02*
X0010224Y0091945D01*
X0010224Y0091247D02*
X0018207Y0091247D01*
X0018207Y0090548D02*
X0010224Y0090548D01*
X0012188Y0089850D02*
X0012888Y0089850D01*
X0012888Y0089151D02*
X0012188Y0089151D01*
X0012188Y0088453D02*
X0012888Y0088453D01*
X0012888Y0087754D02*
X0012188Y0087754D01*
X0012888Y0087056D02*
X0018259Y0087056D01*
X0018207Y0087754D02*
X0016053Y0087754D01*
X0016053Y0088453D02*
X0018207Y0088453D01*
X0018207Y0089151D02*
X0016020Y0089151D01*
X0015611Y0089850D02*
X0018207Y0089850D01*
X0020022Y0086357D02*
X0016053Y0086357D01*
X0016053Y0086530D02*
X0012888Y0086530D01*
X0012888Y0083562D01*
X0014881Y0083562D01*
X0015224Y0083654D01*
X0015532Y0083831D01*
X0015783Y0084083D01*
X0015961Y0084391D01*
X0016053Y0084734D01*
X0016053Y0086530D01*
X0016053Y0085659D02*
X0020022Y0085659D01*
X0020022Y0084960D02*
X0016053Y0084960D01*
X0015887Y0084262D02*
X0020022Y0084262D01*
X0020022Y0083563D02*
X0014887Y0083563D01*
X0015479Y0082865D02*
X0020022Y0082865D01*
X0020022Y0082166D02*
X0015753Y0082166D01*
X0013942Y0080172D02*
X0012538Y0080187D01*
X0013548Y0080172D01*
X0013942Y0080172D02*
X0021422Y0080172D01*
X0021422Y0076629D01*
X0021324Y0076618D01*
X0021422Y0080172D02*
X0021422Y0089621D01*
X0021324Y0089807D01*
X0021028Y0090015D01*
X0020249Y0119187D02*
X0019549Y0119187D01*
X0019549Y0119886D02*
X0020249Y0119886D01*
X0020249Y0120584D02*
X0019549Y0120584D01*
X0019549Y0121283D02*
X0020249Y0121283D01*
X0028072Y0143635D02*
X0028580Y0143635D01*
X0028457Y0144334D02*
X0028195Y0144334D01*
X0028195Y0145032D02*
X0028457Y0145032D01*
X0027661Y0151286D02*
X0027661Y0154686D01*
X0027746Y0155199D01*
X0027761Y0154886D01*
X0027746Y0155199D02*
X0027661Y0155186D01*
X0025861Y0155186D01*
X0025777Y0155199D01*
X0031861Y0155510D02*
X0032293Y0155510D01*
X0031861Y0154811D02*
X0032992Y0154811D01*
X0033690Y0154113D02*
X0031861Y0154113D01*
X0031880Y0157364D02*
X0031961Y0157386D01*
X0033161Y0157386D01*
X0033261Y0157286D01*
X0031604Y0112901D02*
X0031319Y0112901D01*
X0031330Y0112202D02*
X0031593Y0112202D01*
X0031593Y0111504D02*
X0031330Y0111504D01*
X0031330Y0110805D02*
X0031593Y0110805D01*
X0031593Y0110107D02*
X0031330Y0110107D01*
X0031330Y0109408D02*
X0031593Y0109408D01*
X0031593Y0108710D02*
X0031330Y0108710D01*
X0031259Y0108011D02*
X0031664Y0108011D01*
X0033111Y0079372D02*
X0030094Y0079372D01*
X0030149Y0078674D02*
X0033111Y0078674D01*
X0033400Y0077975D02*
X0030149Y0077975D01*
X0030149Y0077277D02*
X0033689Y0077277D01*
X0033978Y0076578D02*
X0030149Y0076578D01*
X0030149Y0075880D02*
X0034385Y0075880D01*
X0012888Y0083563D02*
X0012188Y0083563D01*
X0012188Y0084262D02*
X0012888Y0084262D01*
X0012888Y0084960D02*
X0012188Y0084960D01*
X0012188Y0085659D02*
X0012888Y0085659D01*
X0012888Y0086357D02*
X0012188Y0086357D01*
X0012136Y0242125D02*
X0011436Y0242125D01*
X0011436Y0242824D02*
X0012136Y0242824D01*
X0012136Y0243522D02*
X0011436Y0243522D01*
X0011436Y0244221D02*
X0012136Y0244221D01*
X0012136Y0244919D02*
X0011436Y0244919D01*
X0011436Y0246316D02*
X0012136Y0246316D01*
X0012136Y0247015D02*
X0011436Y0247015D01*
X0011436Y0247713D02*
X0012136Y0247713D01*
X0012136Y0248412D02*
X0011436Y0248412D01*
X0011436Y0249110D02*
X0012136Y0249110D01*
X0011861Y0253386D02*
X0011786Y0253401D01*
X0014729Y0253401D01*
X0015035Y0249809D02*
X0008611Y0249809D01*
X0051638Y0289624D02*
X0060261Y0289624D01*
X0060319Y0290323D02*
X0053599Y0290323D01*
X0054809Y0291021D02*
X0061017Y0291021D01*
X0061561Y0291720D02*
X0055729Y0291720D01*
X0056427Y0292418D02*
X0061561Y0292418D01*
X0061561Y0293117D02*
X0057126Y0293117D01*
X0057562Y0293815D02*
X0061561Y0293815D01*
X0061561Y0294514D02*
X0057965Y0294514D01*
X0058368Y0295212D02*
X0061561Y0295212D01*
X0061561Y0295911D02*
X0058640Y0295911D01*
X0058827Y0296609D02*
X0061561Y0296609D01*
X0062104Y0297308D02*
X0059015Y0297308D01*
X0059202Y0298006D02*
X0062802Y0298006D01*
X0063098Y0298705D02*
X0059211Y0298705D01*
X0059211Y0299403D02*
X0063098Y0299403D01*
X0063098Y0300102D02*
X0059718Y0300102D01*
X0060235Y0300800D02*
X0063098Y0300800D01*
X0063098Y0301499D02*
X0060784Y0301499D01*
X0061332Y0302197D02*
X0063098Y0302197D01*
X0063098Y0302896D02*
X0061880Y0302896D01*
X0062429Y0303594D02*
X0063251Y0303594D01*
X0062961Y0296186D02*
X0062961Y0290986D01*
X0061661Y0289686D01*
X0061661Y0283386D01*
X0057761Y0279486D01*
X0057761Y0265486D01*
X0056661Y0264386D01*
X0057461Y0265086D01*
X0060928Y0247713D02*
X0062798Y0247713D01*
X0062798Y0247015D02*
X0060229Y0247015D01*
X0062461Y0215582D02*
X0062748Y0215582D01*
X0060158Y0202310D02*
X0059458Y0202310D01*
X0059458Y0201612D02*
X0060158Y0201612D01*
X0060158Y0200913D02*
X0059458Y0200913D01*
X0059458Y0200215D02*
X0060158Y0200215D01*
X0060158Y0199516D02*
X0059458Y0199516D01*
X0064005Y0184149D02*
X0064760Y0184149D01*
X0064107Y0182752D02*
X0062961Y0182752D01*
X0062961Y0182053D02*
X0063212Y0182053D01*
X0063306Y0183450D02*
X0071711Y0183450D01*
X0071711Y0182752D02*
X0068815Y0182752D01*
X0069711Y0182053D02*
X0071711Y0182053D01*
X0071711Y0181355D02*
X0070410Y0181355D01*
X0070745Y0180656D02*
X0071711Y0180656D01*
X0071711Y0179958D02*
X0071034Y0179958D01*
X0071211Y0179259D02*
X0071711Y0179259D01*
X0071711Y0178561D02*
X0071211Y0178561D01*
X0071211Y0177862D02*
X0071711Y0177862D01*
X0071711Y0177164D02*
X0071014Y0177164D01*
X0070724Y0176465D02*
X0071711Y0176465D01*
X0071711Y0175767D02*
X0070360Y0175767D01*
X0069662Y0175068D02*
X0071711Y0175068D01*
X0071711Y0174370D02*
X0068696Y0174370D01*
X0068163Y0184149D02*
X0071711Y0184149D01*
X0071711Y0184847D02*
X0069441Y0184847D01*
X0070139Y0185546D02*
X0071711Y0185546D01*
X0071711Y0186244D02*
X0070633Y0186244D01*
X0070922Y0186943D02*
X0071711Y0186943D01*
X0071711Y0187641D02*
X0071211Y0187641D01*
X0071211Y0188340D02*
X0071711Y0188340D01*
X0071711Y0189039D02*
X0071211Y0189039D01*
X0071126Y0189737D02*
X0071711Y0189737D01*
X0071711Y0190436D02*
X0070837Y0190436D01*
X0070547Y0191134D02*
X0071711Y0191134D01*
X0071711Y0191833D02*
X0069932Y0191833D01*
X0069233Y0192531D02*
X0071711Y0192531D01*
X0071711Y0204406D02*
X0068783Y0204406D01*
X0069698Y0205104D02*
X0071711Y0205104D01*
X0071711Y0205803D02*
X0070396Y0205803D01*
X0070739Y0206501D02*
X0071711Y0206501D01*
X0071711Y0207200D02*
X0071029Y0207200D01*
X0071211Y0207898D02*
X0071711Y0207898D01*
X0071711Y0208597D02*
X0071211Y0208597D01*
X0071211Y0209295D02*
X0071711Y0209295D01*
X0071711Y0209994D02*
X0071019Y0209994D01*
X0070730Y0210692D02*
X0071711Y0210692D01*
X0071711Y0211391D02*
X0070374Y0211391D01*
X0069675Y0212089D02*
X0071711Y0212089D01*
X0066461Y0208886D02*
X0066461Y0208586D01*
X0071495Y0168083D02*
X0071711Y0168083D01*
X0071711Y0167385D02*
X0071381Y0167385D01*
X0071154Y0166686D02*
X0071711Y0166686D01*
X0071711Y0165988D02*
X0070805Y0165988D01*
X0070307Y0165289D02*
X0071711Y0165289D01*
X0071711Y0164591D02*
X0069554Y0164591D01*
X0068358Y0163892D02*
X0071711Y0163892D01*
X0071711Y0152017D02*
X0067849Y0152017D01*
X0067384Y0151319D02*
X0071711Y0151319D01*
X0071711Y0150620D02*
X0066918Y0150620D01*
X0066452Y0149922D02*
X0071711Y0149922D01*
X0071711Y0149223D02*
X0065987Y0149223D01*
X0065521Y0148525D02*
X0071711Y0148525D01*
X0069858Y0147826D02*
X0069158Y0147826D01*
X0069158Y0147128D02*
X0069858Y0147128D01*
X0069858Y0146429D02*
X0069158Y0146429D01*
X0069158Y0145731D02*
X0069858Y0145731D01*
X0069508Y0145086D02*
X0069508Y0150082D01*
X0069980Y0150554D01*
X0066230Y0147826D02*
X0065552Y0147826D01*
X0065930Y0147128D02*
X0065993Y0147128D01*
X0065993Y0146429D02*
X0065930Y0146429D01*
X0065930Y0145731D02*
X0065993Y0145731D01*
X0062761Y0138286D02*
X0062721Y0138204D01*
X0060589Y0138047D02*
X0055591Y0138047D01*
X0055591Y0137349D02*
X0060589Y0137349D01*
X0060589Y0138746D02*
X0055591Y0138746D01*
X0055307Y0139444D02*
X0060589Y0139444D01*
X0061458Y0117790D02*
X0071711Y0117790D01*
X0071711Y0117092D02*
X0060760Y0117092D01*
X0060061Y0116393D02*
X0071711Y0116393D01*
X0071311Y0110107D02*
X0070611Y0110107D01*
X0070611Y0109408D02*
X0071311Y0109408D01*
X0071311Y0108710D02*
X0070611Y0108710D01*
X0070611Y0108011D02*
X0071311Y0108011D01*
X0071311Y0107313D02*
X0070611Y0107313D01*
X0070611Y0106614D02*
X0071311Y0106614D01*
X0071311Y0105916D02*
X0070611Y0105916D01*
X0070611Y0105217D02*
X0071311Y0105217D01*
X0071311Y0104519D02*
X0070611Y0104519D01*
X0070611Y0103820D02*
X0071311Y0103820D01*
X0071311Y0103122D02*
X0070611Y0103122D01*
X0070611Y0102423D02*
X0071311Y0102423D01*
X0071311Y0101725D02*
X0070611Y0101725D01*
X0066203Y0085659D02*
X0065422Y0085659D01*
X0065422Y0084960D02*
X0065875Y0084960D01*
X0065871Y0080769D02*
X0065422Y0080769D01*
X0065422Y0080071D02*
X0065871Y0080071D01*
X0065871Y0079372D02*
X0065342Y0079372D01*
X0065871Y0078674D02*
X0064739Y0078674D01*
X0065871Y0077975D02*
X0055997Y0077975D01*
X0055992Y0077277D02*
X0065932Y0077277D01*
X0066433Y0076578D02*
X0055987Y0076578D01*
X0055982Y0075880D02*
X0071711Y0075880D01*
X0071311Y0076578D02*
X0070611Y0076578D01*
X0070611Y0077277D02*
X0071311Y0077277D01*
X0071311Y0077975D02*
X0070611Y0077975D01*
X0070611Y0078674D02*
X0071311Y0078674D01*
X0071311Y0079372D02*
X0070611Y0079372D01*
X0070611Y0080071D02*
X0071311Y0080071D01*
X0071311Y0080769D02*
X0070611Y0080769D01*
X0066493Y0121981D02*
X0066430Y0121981D01*
X0066430Y0122680D02*
X0066493Y0122680D01*
X0066493Y0123378D02*
X0066430Y0123378D01*
X0066301Y0124077D02*
X0066586Y0124077D01*
X0056422Y0083563D02*
X0056038Y0083563D01*
X0056032Y0082865D02*
X0056422Y0082865D01*
X0056422Y0082166D02*
X0056027Y0082166D01*
X0056022Y0081468D02*
X0056422Y0081468D01*
X0056422Y0080769D02*
X0056017Y0080769D01*
X0056012Y0080071D02*
X0056422Y0080071D01*
X0056502Y0079372D02*
X0056007Y0079372D01*
X0056002Y0078674D02*
X0057105Y0078674D01*
D33*
X0060980Y0076954D03*
X0061580Y0115454D03*
X0054180Y0122254D03*
X0048361Y0147386D03*
X0044361Y0158548D03*
X0051431Y0168586D03*
X0049861Y0191986D03*
X0036561Y0190486D03*
X0031561Y0170886D03*
X0035661Y0157686D03*
X0027661Y0151286D03*
X0023761Y0150686D03*
X0024961Y0173186D03*
X0017074Y0162492D03*
X0015061Y0128786D03*
X0021261Y0114886D03*
X0025896Y0083482D03*
X0032561Y0125586D03*
X0017261Y0206786D03*
X0021161Y0222486D03*
X0024561Y0225476D03*
X0017485Y0249464D03*
X0014061Y0226086D03*
X0009261Y0218586D03*
X0012661Y0207386D03*
X0024461Y0267486D03*
X0029221Y0285036D03*
X0030461Y0272086D03*
X0017461Y0280986D03*
X0047061Y0260486D03*
X0058461Y0257186D03*
X0062861Y0265186D03*
X0061461Y0274886D03*
X0068361Y0240386D03*
X0069980Y0150554D03*
X0062661Y0149086D03*
X0010792Y0102613D03*
D34*
X0032561Y0125586D02*
X0036880Y0125586D01*
X0056661Y0264386D02*
X0057661Y0264386D01*
X0029221Y0285036D02*
X0029211Y0285116D01*
X0028301Y0285116D01*
X0017381Y0296036D01*
X0017381Y0297206D01*
X0014131Y0300456D01*
X0011786Y0300645D01*
D35*
X0024093Y0197277D02*
X0025211Y0197277D01*
X0025211Y0197236D01*
X0036880Y0129326D02*
X0036961Y0129286D01*
X0038861Y0129286D01*
X0040961Y0127186D01*
X0040961Y0124086D01*
X0038761Y0121886D01*
X0037761Y0121886D01*
X0036880Y0121845D01*
X0036861Y0121786D01*
X0036861Y0112586D01*
X0035561Y0111286D01*
X0034808Y0110486D01*
X0035161Y0110486D01*
X0035261Y0110386D01*
X0035261Y0103086D01*
X0035257Y0103055D01*
X0035257Y0093212D02*
X0035261Y0093186D01*
X0035261Y0090486D01*
X0040161Y0085586D01*
X0040161Y0080074D01*
X0062721Y0138204D02*
X0062761Y0138586D01*
X0062761Y0144786D01*
X0062815Y0145086D01*
X0062815Y0149086D01*
X0062661Y0149086D01*
D36*
X0066361Y0236386D03*
X0070261Y0236386D03*
X0056661Y0264386D03*
X0018661Y0267286D03*
X0008961Y0191086D03*
D37*
X0021661Y0165286D02*
X0021643Y0165238D01*
X0021661Y0165286D02*
X0024061Y0165286D01*
X0024861Y0164486D01*
X0024861Y0159886D01*
X0025761Y0158986D01*
X0028861Y0158986D01*
X0029161Y0159286D01*
X0031861Y0159286D01*
X0031880Y0159333D01*
X0029161Y0168086D02*
X0031561Y0170486D01*
X0031561Y0170886D01*
X0029161Y0168086D02*
X0029161Y0167186D01*
X0026761Y0164786D01*
X0026761Y0162286D01*
D38*
X0066561Y0245486D02*
X0068461Y0245486D01*
X0068479Y0245527D01*
D39*
X0062721Y0127967D02*
X0062761Y0127886D01*
X0062761Y0121686D01*
X0062861Y0121586D01*
X0063315Y0121586D01*
X0062561Y0121086D01*
X0055961Y0114486D01*
X0055961Y0092486D01*
X0057361Y0091086D01*
X0059961Y0091086D01*
X0060430Y0091068D01*
X0019899Y0128881D02*
X0015061Y0128881D01*
X0015061Y0128786D01*
X0014061Y0226086D02*
X0014061Y0226128D01*
X0018412Y0226648D01*
D40*
X0050815Y0127486D02*
X0050861Y0127486D01*
X0050861Y0125286D01*
X0053861Y0122286D01*
X0054161Y0122286D01*
X0054180Y0122254D01*
D41*
X0018412Y0233735D02*
X0018461Y0235555D01*
X0018461Y0242586D01*
X0016811Y0244236D01*
X0016261Y0244786D01*
X0014861Y0244786D01*
M02*
